<?xml version="1.0" standalone="no"?>
<!DOCTYPE svg PUBLIC "-//W3C//DTD SVG 1.1//EN" "http://www.w3.org/Graphics/SVG/1.1/DTD/svg11.dtd" >
<svg xmlns="http://www.w3.org/2000/svg" xmlns:xlink="http://www.w3.org/1999/xlink" version="1.1">
<metadata>
Created by FontForge 20201107 at Mon May 13 07:37:54 2024
 By 
Copyright (c) 2022 by Eko Bimantara. All rights reserved. Viet hoa boi STYLEno.1 Fonts
</metadata>
<defs>
<font id="SVN-Adero-Regular" horiz-adv-x="1599" >
  <font-face 
    font-family="SVN-Adero"
    font-weight="400"
    font-stretch="normal"
    units-per-em="2048"
    panose-1="0 0 0 0 0 0 0 0 0 0"
    ascent="1638"
    descent="-410"
    x-height="1147"
    cap-height="1434"
    bbox="-156 -495.358 3197 2417.11"
    underline-thickness="102"
    underline-position="-255"
    unicode-range="U+000D-25CA"
  />
<missing-glyph horiz-adv-x="1728" 
d="M184 0v1360h1360v-1360h-1360zM854 1108h-428v-754h375l43 -102h176q129 0 200.5 54.5t71.5 154.5q0 160 -155 209q125 71 125 188q0 93 -73 145t-200 52h-125zM592 952h229l23 -53h117q55 0 78.5 -26.5t23.5 -57.5q0 -38 -21.5 -65t-70.5 -27h-97l-20 102h-262v127z
M592 670h219l33 -86h155q107 0 107 -82q0 -37 -23 -65.5t-73 -28.5h-136l-20 104h-262v158z" />
    <glyph glyph-name=".notdef" horiz-adv-x="1728" 
d="M184 0v1360h1360v-1360h-1360zM854 1108h-428v-754h375l43 -102h176q129 0 200.5 54.5t71.5 154.5q0 160 -155 209q125 71 125 188q0 93 -73 145t-200 52h-125zM592 952h229l23 -53h117q55 0 78.5 -26.5t23.5 -57.5q0 -38 -21.5 -65t-70.5 -27h-97l-20 102h-262v127z
M592 670h219l33 -86h155q107 0 107 -82q0 -37 -23 -65.5t-73 -28.5h-136l-20 104h-262v158z" />
    <glyph glyph-name="uni0000" horiz-adv-x="0" 
 />
    <glyph glyph-name="uni0000" horiz-adv-x="0" 
 />
    <glyph glyph-name="uni000D" unicode="&#xd;" horiz-adv-x="512" 
 />
    <glyph glyph-name="space" unicode=" " horiz-adv-x="532" 
 />
    <glyph glyph-name="exclam" unicode="!" horiz-adv-x="634" 
d="M201 1454h233l-10 -995h-213zM164 117q0 69 41 104t114 35q70 0 111 -35.5t41 -103.5t-41 -102.5t-111 -34.5q-73 0 -114 34t-41 103z" />
    <glyph glyph-name="quotedbl" unicode="&#x22;" horiz-adv-x="856" 
d="M82 864l72 590h245l-133 -590h-184zM457 864l71 590h246l-133 -590h-184z" />
    <glyph glyph-name="numbersign" unicode="#" horiz-adv-x="1601" 
d="M401 0h-202l141 410h-258l61 184h260l82 237h-254l64 185h254l143 418h203l-143 -418h307l143 418h203l-143 -418h258l-64 -185h-258l-82 -237h252l-61 -184h-254l-142 -410h-202l141 410h-307zM606 594h307l82 237h-307z" />
    <glyph glyph-name="dollar" unicode="$" horiz-adv-x="1570" 
d="M1178 512q0 88 -84.5 125t-300.5 43q-339 9 -484 95.5t-145 275.5q0 182 124 278t386 115v321h225v-319q220 -9 434 -49v-201q-346 67 -588 61q-74 -2 -135 -13t-111 -33t-78 -61t-28 -91q0 -95 102.5 -138.5t338.5 -46.5q316 -4 444.5 -82.5t128.5 -263.5
q0 -193 -126 -296t-382 -123v-392h-225v389q-233 9 -510 62v205l128 -24q127 -24 240 -37.5t222 -14.5q424 -3 424 215z" />
    <glyph glyph-name="percent" unicode="%" horiz-adv-x="2377" 
d="M639 -61l840 1556h229l-840 -1556h-229zM164 1024q0 194 117 312t309 118q191 0 307.5 -118.5t116.5 -311.5t-116.5 -311.5t-307.5 -118.5q-192 0 -309 118t-117 312zM387 1024q0 -114 55.5 -182t147.5 -68t146.5 68t54.5 182t-54.5 181t-146.5 67q-93 0 -148 -67
t-55 -181zM1364 428q0 194 117 312t309 118q191 0 307.5 -118.5t116.5 -311.5t-116.5 -311.5t-307.5 -118.5q-192 0 -309 118t-117 312zM1587 428q0 -114 55.5 -182t147.5 -68t146.5 68t54.5 182t-54.5 181t-146.5 67q-93 0 -148 -67t-55 -181z" />
    <glyph glyph-name="ampersand" unicode="&#x26;" horiz-adv-x="1759" 
d="M1657 627h-193v-590q-291 -54 -592 -51q-362 3 -535 98t-173 291q0 259 309 346q-260 93 -260 342q0 195 162 289.5t502 97.5q205 3 432 -31v-198q-269 42 -484 36q-383 -9 -383 -215q0 -117 120.5 -178t350.5 -61h744v-176zM1239 203v424h-344q-502 0 -502 -230
q0 -212 418 -221q183 -3 428 27z" />
    <glyph glyph-name="quotesingle" unicode="'" horiz-adv-x="481" 
d="M82 864l72 590h245l-133 -590h-184z" />
    <glyph glyph-name="parenleft" unicode="(" horiz-adv-x="747" 
d="M164 604q0 564 276 891h226q-138 -163 -207.5 -397t-69.5 -494t69.5 -494t207.5 -397h-226q-276 327 -276 891z" />
    <glyph glyph-name="parenright" unicode=")" horiz-adv-x="747" 
d="M584 604q0 -563 -277 -891h-225q138 163 207 396.5t69 494.5t-69 494.5t-207 396.5h225q277 -328 277 -891z" />
    <glyph glyph-name="asterisk" unicode="*" horiz-adv-x="1081" 
d="M217 737l-94 158l264 139l-264 140l94 157l246 -160l-14 293h184l-15 -293l246 160l94 -157l-264 -140l264 -139l-94 -158l-246 160l15 -293h-184l14 293z" />
    <glyph glyph-name="plus" unicode="+" horiz-adv-x="1187" 
d="M123 590v184h379v379h184v-379h379v-184h-379v-379h-184v379h-379z" />
    <glyph glyph-name="comma" unicode="," horiz-adv-x="645" 
d="M164 -358l72 589h245l-133 -589h-184z" />
    <glyph glyph-name="hyphen" unicode="-" horiz-adv-x="901" 
d="M123 590v184h655v-184h-655z" />
    <glyph glyph-name="period" unicode="." horiz-adv-x="634" 
d="M164 117q0 69 41 103t114 34q70 0 111 -34.5t41 -102.5q0 -69 -41 -104.5t-111 -35.5q-72 0 -113.5 35.5t-41.5 104.5z" />
    <glyph glyph-name="slash" unicode="/" horiz-adv-x="839" 
d="M0 -61l637 1556h203l-637 -1556h-203z" />
    <glyph glyph-name="zero" unicode="0" horiz-adv-x="1638" 
d="M98 717q0 332 199 534.5t524 202.5q324 0 522.5 -203t198.5 -534t-198.5 -534t-522.5 -203q-325 0 -524 202.5t-199 534.5zM332 717q0 -248 135 -397.5t354 -149.5q218 0 353 149.5t135 397.5q0 247 -135 396t-353 149q-219 0 -354 -148.5t-135 -396.5z" />
    <glyph glyph-name="one" unicode="1" horiz-adv-x="882" 
d="M473 0v1221h-371v213h600v-1434h-229z" />
    <glyph glyph-name="two" unicode="2" horiz-adv-x="1638" 
d="M406 213h1054v-213h-1284v213q0 85 19 154t52 118t80.5 87t100 63t115.5 44t123 32t125 25q5 1 8 1q54 10 85 16.5t78.5 18t75 22t62.5 26.5t55.5 35.5t39.5 44t27.5 56t8.5 68.5q0 231 -375 242q-127 3 -293.5 -17t-312.5 -53v201q281 60 563 57q113 -1 203.5 -12.5
t175.5 -40.5t142 -75.5t91.5 -121.5t34.5 -174q0 -62 -12 -115.5t-27.5 -93t-49 -74t-58 -57t-75 -43t-79 -31.5t-90.5 -24t-89.5 -17.5t-94.5 -14.5q-4 -1 -6 -1q-49 -7 -81.5 -12.5t-77 -15t-74 -19.5t-65.5 -25t-59 -32.5t-47.5 -42t-38 -53t-22 -65.5t-8.5 -81z" />
    <glyph glyph-name="three" unicode="3" horiz-adv-x="1638" 
d="M168 37v201q153 -29 334.5 -47t318.5 -15q418 9 418 221q0 230 -502 230h-403v176h385q230 0 350.5 61t120.5 178q0 206 -387 215q-132 3 -304 -14t-311 -47v201q290 56 568 53q340 -3 501.5 -97.5t161.5 -289.5q0 -249 -260 -342q309 -87 309 -346q0 -196 -173 -291
t-535 -98q-301 -3 -592 51z" />
    <glyph glyph-name="four" unicode="4" horiz-adv-x="1638" 
d="M1077 0v369h-1005v213l802 852h433v-852h260v-213h-260v-369h-230zM365 582h712v639h-110z" />
    <glyph glyph-name="five" unicode="5" horiz-adv-x="1638" 
d="M772 831q359 0 527.5 -104.5t168.5 -325.5q0 -215 -160 -314.5t-509 -102.5q-328 -3 -631 53v201q150 -30 352 -49t340 -15q193 5 286 63.5t93 176.5q0 124 -107.5 178.5t-353.5 54.5h-573l-10 184l118 603h1069v-213h-886l-76 -390h352z" />
    <glyph glyph-name="six" unicode="6" horiz-adv-x="1638" 
d="M123 717q0 164 59.5 300.5t168 231t264 147t343.5 52.5q173 0 416 -31v-198q-226 32 -424 32q-277 0 -430.5 -129t-163.5 -370v-7q279 150 570 150q278 0 434 -111.5t156 -314.5q0 -227 -174 -358t-476 -131q-364 0 -553.5 188t-189.5 549zM371 543q35 -190 158 -281.5
t343 -91.5q195 0 302.5 77t107.5 218q0 115 -92.5 176t-259.5 61q-280 0 -559 -159z" />
    <glyph glyph-name="seven" unicode="7" horiz-adv-x="1638" 
d="M659 0l551 1221h-1034v213h1284v-213l-542 -1221h-259z" />
    <glyph glyph-name="eight" unicode="8" horiz-adv-x="1638" 
d="M111 387q0 132 82.5 215t257.5 121q-145 38 -212 116.5t-67 202.5q0 137 81.5 231t224.5 137.5t341 43.5q197 0 339.5 -43.5t224 -137.5t81.5 -231q0 -124 -67 -202.5t-211 -116.5q175 -38 257.5 -121t82.5 -215q0 -138 -89.5 -230.5t-245 -134.5t-372.5 -42
q-332 0 -520 101t-188 306zM406 1042q0 -112 110.5 -167.5t302.5 -55.5q191 0 301.5 55.5t110.5 167.5t-110.5 167t-301.5 55q-192 0 -302.5 -55t-110.5 -167zM344 385q0 -111 126 -163t349 -52q145 0 248 21t164 70t61 124q0 116 -128 177t-345 61q-218 0 -346.5 -61
t-128.5 -177z" />
    <glyph glyph-name="nine" unicode="9" horiz-adv-x="1638" 
d="M1516 711q0 -219 -103 -385t-292.5 -256t-440.5 -90q-181 0 -416 30v199q233 -33 424 -33q277 0 430.5 129.5t163.5 372.5v4q-279 -150 -569 -150q-278 0 -434 111.5t-156 314.5q0 227 173.5 358.5t475.5 131.5q364 0 554 -188t190 -549zM1268 885q-35 190 -158.5 281
t-343.5 91q-195 0 -302.5 -76.5t-107.5 -217.5q0 -115 93 -176.5t260 -61.5q278 0 559 160z" />
    <glyph glyph-name="colon" unicode=":" horiz-adv-x="634" 
d="M164 1032q0 69 41 103t114 34q70 0 111 -34.5t41 -102.5t-41 -103.5t-111 -35.5q-73 0 -114 35t-41 104zM164 117q0 69 41 103t114 34q70 0 111 -34.5t41 -102.5q0 -69 -41 -104.5t-111 -35.5q-72 0 -113.5 35.5t-41.5 104.5z" />
    <glyph glyph-name="semicolon" unicode=";" horiz-adv-x="645" 
d="M168 1032q0 68 41.5 102.5t114.5 34.5q70 0 110.5 -34.5t40.5 -102.5q0 -69 -40.5 -104t-110.5 -35q-73 0 -114.5 35t-41.5 104zM164 -358l72 589h245l-133 -589h-184z" />
    <glyph glyph-name="less" unicode="&#x3c;" horiz-adv-x="1232" 
d="M123 582v196l946 305v-204l-670 -199l670 -199v-205z" />
    <glyph glyph-name="equal" unicode="=" horiz-adv-x="1167" 
d="M164 770v184h840v-184h-840zM164 389v184h840v-184h-840z" />
    <glyph glyph-name="greater" unicode="&#x3e;" horiz-adv-x="1232" 
d="M1110 582l-946 -306v205l670 199l-670 199v204l946 -305v-196z" />
    <glyph glyph-name="question" unicode="?" horiz-adv-x="1302" 
d="M637 416h-215q-16 112 0 193t72 135t95 78t120 61q5 3 8 4q47 21 74.5 35.5t58.5 38.5t45 54.5t14 69.5q0 84 -72.5 130.5t-211.5 50.5q-97 3 -223.5 -17t-237.5 -53v201q225 60 454 57q521 -6 521 -362q0 -69 -18.5 -125.5t-40 -90t-69 -67.5t-73 -47.5t-83.5 -40.5
q-14 -7 -21 -10q-23 -10 -40 -18.5t-37.5 -20t-35 -22.5t-29.5 -25.5t-25 -29.5t-19 -34.5t-12.5 -41t-3.5 -47.5t5 -56zM426 117q0 69 41.5 104t114.5 35q70 0 110.5 -35t40.5 -104q0 -68 -40.5 -102.5t-110.5 -34.5q-73 0 -114.5 34.5t-41.5 102.5z" />
    <glyph glyph-name="at" unicode="@" horiz-adv-x="2379" 
d="M1763 119q-211 0 -297 131q-166 -105 -374 -105q-223 0 -354.5 134.5t-131.5 357.5q0 222 130.5 356.5t350.5 134.5q174 0 347 -100l18 80h193v-592q0 -103 39 -152t122 -49q94 0 137.5 84t43.5 254q0 375 -211 584t-590 209q-360 0 -576.5 -221t-216.5 -588
q0 -242 98 -425t278 -282.5t417 -99.5q271 0 469 129l98 -184q-247 -148 -567 -148q-301 0 -533.5 126.5t-360.5 356t-128 527.5q0 224 74.5 412.5t208 320.5t324 205.5t415.5 73.5q231 0 423.5 -70t326 -197t207 -309.5t73.5 -402.5q0 -263 -120 -407t-333 -144zM1419 420
v434q-48 35 -124.5 60.5t-155.5 25.5q-141 0 -222 -82.5t-81 -220.5t81 -220.5t222 -82.5q79 0 155.5 25.5t124.5 60.5z" />
    <glyph glyph-name="A" unicode="A" horiz-adv-x="1830" 
d="M61 0l635 1434h439l634 -1434h-245l-148 342h-921l-148 -342h-246zM532 526h766l-301 703h-163z" />
    <glyph glyph-name="B" unicode="B" horiz-adv-x="1761" 
d="M205 0v1434h784q302 0 448 -94t146 -291q0 -101 -55 -178t-162 -119v-21q132 -35 202 -121t70 -211q0 -204 -145 -301.5t-449 -97.5h-839zM983 1241h-549v-420h549q192 0 279.5 50t87.5 159q0 110 -87.5 160.5t-279.5 50.5zM1038 645h-604v-452h604q191 0 279 54.5
t88 172.5t-87.5 171.5t-279.5 53.5z" />
    <glyph glyph-name="C" unicode="C" horiz-adv-x="1687" 
d="M963 172q164 0 335 19t287 51v-201q-236 -61 -614 -61q-252 0 -443.5 88.5t-298 256.5t-106.5 392t106.5 392t298 256.5t443.5 88.5q378 0 614 -61v-201q-116 32 -287 51t-335 19q-275 0 -441 -145t-166 -400t166 -400t441 -145z" />
    <glyph glyph-name="D" unicode="D" horiz-adv-x="1841" 
d="M205 0v1434h768q223 0 391.5 -86.5t261 -249.5t92.5 -381t-92.5 -381t-261 -249.5t-391.5 -86.5h-768zM973 1241h-539v-1048h539q231 0 371.5 139.5t140.5 384.5t-140.5 384.5t-371.5 139.5z" />
    <glyph glyph-name="E" unicode="E" horiz-adv-x="1597" 
d="M205 0v1434h1249v-201h-1020v-381h856v-201h-856v-450h1020v-201h-1249z" />
    <glyph glyph-name="F" unicode="F" horiz-adv-x="1576" 
d="M205 0v1434h1249v-201h-1020v-381h856v-201h-856v-651h-229z" />
    <glyph glyph-name="G" unicode="G" horiz-adv-x="1841" 
d="M997 172q237 0 451 27v553h229v-703q-295 -69 -682 -69q-258 0 -455 88.5t-307 256.5t-110 392t110 392t308 256.5t458 88.5q392 0 627 -61v-201q-114 32 -290.5 51t-348.5 19q-288 0 -459.5 -145t-171.5 -400t174.5 -400t466.5 -145z" />
    <glyph glyph-name="H" unicode="H" horiz-adv-x="1875" 
d="M205 0v1434h229v-582h1008v582h229v-1434h-229v651h-1008v-651h-229z" />
    <glyph glyph-name="I" unicode="I" horiz-adv-x="638" 
d="M205 0v1434h229v-1434h-229z" />
    <glyph glyph-name="J" unicode="J" horiz-adv-x="1370" 
d="M956 483v951h230v-951q0 -230 -156.5 -366.5t-419.5 -136.5q-128 0 -237 14t-250 47v201q287 -70 457 -70q198 0 287 73.5t89 237.5z" />
    <glyph glyph-name="K" unicode="K" horiz-adv-x="1845" 
d="M205 0v1434h229v-758h21l888 758h314l-768 -648q70 -20 137.5 -62.5t121 -94t105 -110t97 -112t88.5 -97.5t88 -70.5t88 -26.5h170v-213h-223q-71 0 -136 32.5t-118 85t-105 116.5t-106 130t-111 121.5t-131 94.5t-156 47l-264 -224v-403h-229z" />
    <glyph glyph-name="L" unicode="L" horiz-adv-x="1536" 
d="M205 0v1434h229v-1233h979v-201h-1208z" />
    <glyph glyph-name="M" unicode="M" horiz-adv-x="2146" 
d="M205 0v1434h229l613 -766h53l612 766h230v-1434h-230v1059h-31l-497 -625h-221l-498 625h-31v-1059h-229z" />
    <glyph glyph-name="N" unicode="N" horiz-adv-x="1773" 
d="M205 0v1434h229l873 -1051h32v1051h230v-1434h-230l-870 1049h-35v-1049h-229z" />
    <glyph glyph-name="O" unicode="O" horiz-adv-x="1923" 
d="M123 717q0 219 104.5 386.5t295.5 259t440 91.5q187 0 343 -53.5t264.5 -149t169 -233t60.5 -301.5t-60.5 -301.5t-169 -233t-264.5 -149t-343 -53.5q-249 0 -440 91.5t-295.5 259t-104.5 386.5zM356 717q0 -247 168.5 -397t438.5 -150t437 149.5t167 397.5
q0 247 -167 396t-437 149q-271 0 -439 -149t-168 -396z" />
    <glyph glyph-name="P" unicode="P" horiz-adv-x="1726" 
d="M205 0v1434h805q594 0 594 -465t-594 -465h-576v-504h-229zM1004 1241h-570v-545h570q194 0 280 66.5t86 206.5t-86 206t-280 66z" />
    <glyph glyph-name="Q" unicode="Q" horiz-adv-x="1943" 
d="M123 717q0 219 104.5 386.5t295.5 259t440 91.5q187 0 343 -53.5t264.5 -149t169 -233t60.5 -301.5q0 -333 -233 -537q63 -106 122 -159.5t148 -53.5h64v-194h-117q-52 0 -96 10.5t-81 33.5t-64.5 46t-57 62.5t-47 67.5t-45.5 75q-193 -88 -430 -88q-249 0 -440 91.5
t-295.5 259t-104.5 386.5zM356 717q0 -247 168.5 -397t438.5 -150q177 0 321 72q-57 72 -128 110.5t-171 38.5h-158v205h158q167 0 275 -60t188 -165q119 141 119 346q0 247 -167 396t-437 149q-271 0 -439 -149t-168 -396z" />
    <glyph glyph-name="R" unicode="R" horiz-adv-x="1824" 
d="M205 0v1434h805q594 0 594 -447q0 -197 -103.5 -309.5t-298.5 -112.5q41 -39 86 -94t77.5 -98t68.5 -83.5t76 -62.5t83 -22h170v-205h-223q-70 0 -129 27.5t-102.5 73t-84.5 100.5t-83.5 112t-88.5 106t-111 85.5t-142 46.5h-365v-551h-229zM1004 1241h-570v-508h570
q194 0 280 61.5t86 192.5t-86 192.5t-280 61.5z" />
    <glyph glyph-name="S" unicode="S" horiz-adv-x="1591" 
d="M1239 420q0 45 -14.5 79t-45.5 55.5t-65 35t-88 20t-99 8.5t-112 3q-221 3 -300 12q-238 28 -327 156q-65 92 -65 241q0 99 36 174t96 121.5t149.5 75.5t184.5 40.5t214 12.5q298 3 592 -57v-201q-156 33 -333 53t-312 17q-398 -11 -398 -242q0 -42 13.5 -74t33 -53.5
t57.5 -36.5t72 -23t91.5 -12t100.5 -5t114 -1h13q62 0 94.5 -0.5t93 -4t95.5 -10.5t87 -21t83 -34t67 -51t55 -71t32.5 -95t13.5 -122q0 -437 -729 -428q-264 2 -616 63v205q4 -1 141.5 -24t261 -37t240.5 -15q473 -3 473 246z" />
    <glyph glyph-name="T" unicode="T" horiz-adv-x="1705" 
d="M737 0v1233h-696v201h1624v-201h-698v-1233h-230z" />
    <glyph glyph-name="U" unicode="U" horiz-adv-x="1804" 
d="M903 170q220 0 355 110t135 316v840h227v-840q0 -193 -90 -333t-251 -211.5t-376 -71.5q-216 0 -377.5 71.5t-251.5 211.5t-90 333v840h230v-840q0 -206 133.5 -316t355.5 -110z" />
    <glyph glyph-name="V" unicode="V" horiz-adv-x="1830" 
d="M696 0l-635 1434h246l527 -1229h163l527 1229h245l-634 -1434h-439z" />
    <glyph glyph-name="W" unicode="W" horiz-adv-x="2504" 
d="M553 0l-492 1434h230l387 -1149h37l385 1149h305l385 -1149h37l387 1149h229l-491 -1434h-291l-389 1163h-39l-389 -1163h-291z" />
    <glyph glyph-name="X" unicode="X" horiz-adv-x="1720" 
d="M68 1434h270l506 -605h49l496 605h270l-604 -725l598 -709h-271l-503 602h-50l-497 -604h-271l607 725z" />
    <glyph glyph-name="Y" unicode="Y" horiz-adv-x="1740" 
d="M760 0v543l-699 891h271l512 -674h53l510 674h272l-690 -881v-553h-229z" />
    <glyph glyph-name="Z" unicode="Z" horiz-adv-x="1521" 
d="M1440 1233l-1045 -1010v-22h1045v-201h-1358v201l1048 1011v21h-1048v201h1358v-201z" />
    <glyph glyph-name="bracketleft" unicode="[" horiz-adv-x="784" 
d="M164 -287v1782h538v-201h-313v-1380h313v-201h-538z" />
    <glyph glyph-name="backslash" unicode="\" horiz-adv-x="839" 
d="M840 -61h-203l-637 1556h203z" />
    <glyph glyph-name="bracketright" unicode="]" horiz-adv-x="784" 
d="M621 -287h-539v201h313v1380h-313v201h539v-1782z" />
    <glyph glyph-name="asciicircum" unicode="^" horiz-adv-x="1196" 
d="M489 1434h218l366 -844h-207l-268 635l-268 -635h-207z" />
    <glyph glyph-name="underscore" unicode="_" horiz-adv-x="1159" 
d="M123 -264v184h913v-184h-913z" />
    <glyph glyph-name="grave" unicode="`" horiz-adv-x="878" 
d="M739 1264h-256l-346 454h277z" />
    <glyph glyph-name="a" unicode="a" horiz-adv-x="1507" 
d="M102 348q0 173 147 261.5t437 88.5q273 0 432 -24v61q0 129 -80.5 184.5t-265.5 55.5q-306 0 -547 -53v190q255 55 523 55q313 0 454 -100.5t141 -323.5v-743h-213l-12 168q-164 -191 -508 -191q-246 0 -377 96t-131 275zM1118 401v121q-121 2 -450 2q-336 0 -336 -184
q0 -174 327 -174q97 0 191 25.5t170 80.5t98 129z" />
    <glyph glyph-name="b" unicode="b" horiz-adv-x="1671" 
d="M184 0v1516h226v-445q243 96 477 96q314 0 498 -162.5t184 -431.5t-184 -431t-498 -162q-243 0 -494 102l-16 -82h-193zM860 168q224 0 351.5 110t127.5 295t-128 295.5t-351 110.5q-129 0 -252.5 -27t-197.5 -63v-631q74 -36 197.5 -63t252.5 -27z" />
    <glyph glyph-name="c" unicode="c" horiz-adv-x="1392" 
d="M868 -23q-357 1 -561.5 163.5t-204.5 432.5t204.5 432t561.5 162q192 0 422 -55v-190q-96 24 -219.5 38.5t-214.5 14.5q-244 0 -382 -108.5t-138 -293.5q0 -186 138 -294.5t382 -108.5q91 0 214.5 14.5t219.5 38.5v-190q-234 -56 -422 -56z" />
    <glyph glyph-name="d" unicode="d" horiz-adv-x="1671" 
d="M1487 0h-193l-16 82q-251 -102 -494 -102q-314 0 -498 162t-184 431t184 431.5t498 162.5q235 0 478 -96v445h225v-1516zM811 168q129 0 253.5 27t197.5 63v631q-73 36 -197.5 63t-253.5 27q-223 0 -351 -110.5t-128 -295.5t127.5 -295t351.5 -110z" />
    <glyph glyph-name="e" unicode="e" horiz-adv-x="1478" 
d="M778 1167q273 0 435.5 -136.5t162.5 -368.5q0 -94 -16 -164h-1018q26 -154 160 -241t350 -87q95 0 233 15t232 38v-190q-234 -56 -451 -56q-236 1 -409.5 75.5t-264 208.5t-90.5 312q0 264 186.5 429t489.5 165zM344 662h815q0 141 -108 227t-285 86q-172 0 -284 -83.5
t-138 -229.5z" />
    <glyph glyph-name="f" unicode="f" horiz-adv-x="1136" 
d="M303 0v983h-303v164h303v84q0 185 136.5 296t363.5 111q219 0 354 -61v-186q-142 49 -315 49q-164 0 -239 -61t-75 -195v-37h588v-164h-588v-983h-225z" />
    <glyph glyph-name="g" unicode="g" horiz-adv-x="1624" 
d="M1214 109v96q-212 -78 -430 -78q-314 0 -498 142.5t-184 377.5t184 377.5t498 142.5q215 0 439 -80l4 60h213v-1086q0 -213 -180 -341t-478 -128q-139 0 -299.5 28t-267.5 73v186q107 -38 258 -63.5t264 -24.5q230 3 353.5 85.5t123.5 232.5zM811 315q221 0 403 70v524
q-182 70 -403 70q-223 0 -351 -90.5t-128 -241.5t128 -241.5t351 -90.5z" />
    <glyph glyph-name="h" unicode="h" 
d="M410 1516v-451q121 47 256.5 74.5t244.5 27.5q224 0 369 -108.5t145 -270.5v-788h-225v752q0 104 -87 165.5t-236 61.5q-97 0 -222.5 -26t-244.5 -72v-881h-226v1516h226z" />
    <glyph glyph-name="i" unicode="i" horiz-adv-x="593" 
d="M184 0v1147h226v-1147h-226zM143 1516q0 68 41.5 102.5t114.5 34.5q70 0 111 -34.5t41 -102.5q0 -69 -41 -104.5t-111 -35.5q-73 0 -114.5 35.5t-41.5 104.5z" />
    <glyph glyph-name="j" unicode="j" horiz-adv-x="915" 
d="M506 47v1100h225v-1147q0 -185 -129.5 -296.5t-347.5 -111.5q-199 0 -356 62v186q170 -49 319 -49q152 0 220.5 61t68.5 195zM465 1516q0 68 41.5 102.5t114.5 34.5q70 0 110.5 -34.5t40.5 -102.5q0 -69 -40.5 -104.5t-110.5 -35.5q-73 0 -114.5 35.5t-41.5 104.5z" />
    <glyph glyph-name="k" unicode="k" horiz-adv-x="1544" 
d="M184 0v1516h226v-906l698 537h297l-633 -488q59 -23 116.5 -60.5t102 -79t88 -86.5t82 -85t76 -72.5t78 -51.5t80.5 -19h129v-205h-183q-67 0 -127 24t-107.5 64t-93 88.5t-92.5 101t-95 98.5t-111 83.5t-131 54.5l-174 -133v-381h-226z" />
    <glyph glyph-name="l" unicode="l" horiz-adv-x="593" 
d="M184 0v1516h226v-1516h-226z" />
    <glyph glyph-name="m" unicode="m" horiz-adv-x="2308" 
d="M397 1147l4 -78q106 45 224 71.5t211 26.5q107 0 195.5 -36.5t148.5 -102.5q119 62 263 100.5t255 38.5q190 0 313 -108t123 -271v-788h-225v752q0 104 -70 165.5t-188 61.5q-77 0 -183 -26t-208 -72q12 -43 12 -93v-788h-225v752q0 104 -70 165.5t-189 61.5
q-75 0 -177 -24.5t-201 -67.5v-887h-226v1147h213z" />
    <glyph glyph-name="n" unicode="n" 
d="M397 1147l6 -84q124 48 261 76t247 28q224 0 369 -108.5t145 -270.5v-788h-225v752q0 104 -87 165.5t-236 61.5q-97 0 -222.5 -26t-244.5 -72v-881h-226v1147h213z" />
    <glyph glyph-name="o" unicode="o" horiz-adv-x="1595" 
d="M102 573q0 267 192 430.5t505 163.5t503.5 -163.5t190.5 -430.5t-190.5 -430t-503.5 -163q-314 0 -505.5 163t-191.5 430zM336 573q0 -183 128 -293t335 -110t334 110t127 293q0 182 -127 292t-334 110t-335 -110t-128 -292z" />
    <glyph glyph-name="p" unicode="p" horiz-adv-x="1691" 
d="M184 1145h193l16 -82q251 102 494 102q314 0 498 -162.5t184 -431.5t-184 -431.5t-498 -162.5q-231 0 -477 97v-404h-226v1475zM860 977q-129 0 -252.5 -27t-197.5 -63v-631q74 -36 197.5 -63t252.5 -27q224 0 351.5 110t127.5 295t-128 295.5t-351 110.5z" />
    <glyph glyph-name="q" unicode="q" horiz-adv-x="1691" 
d="M1507 1145v-1475h-225v404q-246 -97 -477 -97q-314 0 -498 162.5t-184 431.5t184 431.5t498 162.5q242 0 493 -102l17 82h192zM831 977q-223 0 -351 -110.5t-128 -295.5t127.5 -295t351.5 -110q129 0 253.5 27t197.5 63v631q-73 36 -197.5 63t-253.5 27z" />
    <glyph glyph-name="r" unicode="r" horiz-adv-x="1183" 
d="M184 1147h213l11 -180q103 93 235.5 146.5t267.5 53.5q121 0 191 -18v-197q-67 15 -144 15q-160 -2 -310 -60t-238 -157v-750h-226v1147z" />
    <glyph glyph-name="s" unicode="s" horiz-adv-x="1460" 
d="M1108 324q0 59 -35 91.5t-117.5 49t-238.5 22.5q-194 6 -262 16q-237 33 -304 175q-28 61 -28 143q0 174 145 258.5t447 87.5q252 3 549 -57v-201q-359 76 -611 68q-155 -6 -228 -43t-73 -107q0 -58 39.5 -89t136.5 -47t289 -23q184 -6 272 -28q248 -63 248 -298
q0 -366 -641 -360q-260 2 -573 63v205q15 -2 96 -17.5t145.5 -26.5t169 -21t199.5 -11q189 -2 282 34.5t93 115.5z" />
    <glyph glyph-name="t" unicode="t" horiz-adv-x="1320" 
d="M344 1434l225 61v-348h629v-164h-629v-549q0 -134 80 -195t258 -61q190 0 332 49v-186q-135 -61 -367 -61q-241 0 -384.5 111t-143.5 296v596h-303v164h303v287z" />
    <glyph glyph-name="u" unicode="u" 
d="M1202 0l-6 84q-124 -48 -261 -76t-247 -28q-224 0 -369 108t-145 270v789h225v-752q0 -104 87.5 -165.5t236.5 -61.5q97 0 222.5 26t244.5 72v881h225v-1147h-213z" />
    <glyph glyph-name="v" unicode="v" horiz-adv-x="1480" 
d="M610 0l-590 1147h236l455 -907h59l455 907h235l-590 -1147h-260z" />
    <glyph glyph-name="w" unicode="w" horiz-adv-x="2125" 
d="M477 0l-457 1147h236l334 -866h35l333 866h209l334 -866h35l334 866h235l-456 -1147h-246l-322 836h-37l-321 -836h-246z" />
    <glyph glyph-name="x" unicode="x" horiz-adv-x="1409" 
d="M1110 0l-373 397h-71l-367 -397h-279l541 575l-536 572h278l373 -397h67l367 397h279l-537 -574l537 -573h-279z" />
    <glyph glyph-name="y" unicode="y" horiz-adv-x="1511" 
d="M680 -408h-221l250 490h-121l-568 1065h236l451 -862h106l442 862h236z" />
    <glyph glyph-name="z" unicode="z" horiz-adv-x="1361" 
d="M371 164h909v-164h-1198v164l909 819h-909v164h1198v-164z" />
    <glyph glyph-name="braceleft" unicode="{" horiz-adv-x="956" 
d="M82 508v192h199q26 0 40.5 15.5t14.5 40.5v518q0 97 58 159t147 62h333v-201h-260q-23 0 -38 -16t-15 -39v-477q0 -112 -90 -158q90 -46 90 -158v-477q0 -23 15 -39t38 -16h260v-201h-333q-89 0 -147 62t-58 159v519q0 25 -14.5 40t-40.5 15h-199z" />
    <glyph glyph-name="bar" unicode="|" horiz-adv-x="798" 
d="M287 -369v1878h225v-1878h-225z" />
    <glyph glyph-name="braceright" unicode="}" horiz-adv-x="956" 
d="M874 508h-198q-26 0 -40.5 -15t-14.5 -40v-519q0 -97 -58 -159t-147 -62h-334v201h260q23 0 38 16t15 39v477q0 112 90 158q-90 46 -90 158v477q0 23 -15 39t-38 16h-260v201h334q89 0 147 -62t58 -159v-518q0 -25 14.5 -40.5t40.5 -15.5h198v-192z" />
    <glyph glyph-name="asciitilde" unicode="~" horiz-adv-x="1267" 
d="M614 602q-132 57 -229 57q-127 0 -262 -98v184q160 117 305 117q112 0 260 -65q129 -58 221 -58q122 0 236 99v-185q-132 -114 -277 -114q-110 0 -254 63z" />
    <glyph glyph-name="exclamdown" unicode="&#xa1;" horiz-adv-x="634" 
d="M164 1317q0 69 41 103t114 34q70 0 111 -34.5t41 -102.5t-41 -103.5t-111 -35.5q-73 0 -114 35t-41 104zM201 -20l10 995h213l10 -995h-233z" />
    <glyph glyph-name="cent" unicode="&#xa2;" horiz-adv-x="1515" 
d="M727 1356v317h225v-301q170 -2 400 -55v-191q-97 24 -220.5 39t-213.5 15q-244 0 -382.5 -108.5t-138.5 -293.5q0 -186 138.5 -294.5t382.5 -108.5q91 0 214.5 14.5t219.5 38.5v-190q-235 -54 -400 -56v-350h-225v367q-267 44 -415 197.5t-148 381.5q0 229 148 382.5
t415 195.5z" />
    <glyph glyph-name="sterling" unicode="&#xa3;" horiz-adv-x="1697" 
d="M164 205q262 0 262 284v140h-262v184h262v234q0 184 174 295.5t461 111.5q106 0 227.5 -13.5t196.5 -47.5v-187q-142 49 -398 49q-228 0 -330 -61t-102 -195v-186h715v-184h-715v-137q0 -209 -65 -287h944v-205h-1370v205z" />
    <glyph glyph-name="currency" unicode="&#xa4;" horiz-adv-x="1343" 
d="M260 715q0 131 55 225l-192 193l131 131l192 -193q94 55 226 55q131 0 225 -55l193 193l131 -131l-193 -193q55 -94 55 -225q0 -132 -55 -226l193 -192l-131 -131l-193 192q-94 -55 -225 -55q-132 0 -226 55l-192 -192l-131 131l192 192q-55 94 -55 226zM442 715
q0 -103 63.5 -166.5t166.5 -63.5t166 63.5t63 166.5t-63 166t-166 63t-166.5 -63t-63.5 -166z" />
    <glyph glyph-name="yen" unicode="&#xa5;" horiz-adv-x="1863" 
d="M389 541v184h289l-555 709h270l512 -674h53l510 674h273l-555 -709h289v-184h-1086zM389 160v184h1086v-184h-428v-160h-230v160h-428z" />
    <glyph glyph-name="brokenbar" unicode="&#xa6;" horiz-adv-x="798" 
d="M287 795v714h225v-714h-225zM287 -369v715h225v-715h-225z" />
    <glyph glyph-name="section" unicode="&#xa7;" horiz-adv-x="1570" 
d="M1178 115q0 84 -84.5 119.5t-300.5 39.5q-340 9 -484.5 90.5t-144.5 260.5q0 143 86 229q-86 77 -86 217q0 188 151 280t471 95q244 3 547 -49v-201q-343 63 -588 57q-75 -2 -135 -12t-110.5 -31t-78.5 -57t-28 -86q0 -91 102 -131t339 -43q315 -4 444 -78t129 -248
q0 -145 -78 -235q78 -72 78 -211q0 -208 -163.5 -306.5t-495.5 -95.5q-250 2 -584 64v205q20 -3 99 -18t145 -26t165 -21t185 -11q420 -3 420 203zM1178 561q0 84 -85 120t-300 40q-198 6 -316 31q-84 -48 -84 -131q0 -91 102.5 -131.5t338.5 -43.5q164 -3 268 -20
q76 54 76 135z" />
    <glyph glyph-name="dieresis" unicode="&#xa8;" horiz-adv-x="962" 
d="M123 1489q0 68 41.5 102.5t114.5 34.5q70 0 110.5 -34.5t40.5 -102.5q0 -69 -40.5 -104t-110.5 -35q-73 0 -114.5 35t-41.5 104zM532 1489q0 68 41.5 102.5t114.5 34.5q70 0 111 -34.5t41 -102.5t-41 -103.5t-111 -35.5q-73 0 -114.5 35t-41.5 104z" />
    <glyph glyph-name="copyright" unicode="&#xa9;" horiz-adv-x="2107" 
d="M164 662q0 265 111 466.5t312.5 311.5t465.5 110q265 0 467.5 -110t313 -311.5t110.5 -466.5q0 -198 -64.5 -364t-180 -281.5t-282 -179.5t-364.5 -64q-264 0 -465.5 110t-312.5 312t-111 467zM334 662q0 -160 52 -294t146 -227.5t227.5 -145.5t293.5 -52
q324 0 522.5 197.5t198.5 521.5t-198.5 521t-522.5 197q-213 0 -376.5 -89t-253 -252t-89.5 -377zM1087 231q-263 1 -413 119t-150 316q0 199 151.5 316.5t418.5 117.5q124 0 311 -41v-164q-150 39 -320 39t-264 -72t-94 -196q0 -125 94 -198t264 -73q157 0 320 39v-162
q-168 -41 -318 -41z" />
    <glyph glyph-name="ordfeminine" unicode="&#xaa;" horiz-adv-x="1261" 
d="M123 807q0 278 461 278q215 0 338 -18v41q-1 95 -65.5 135.5t-207.5 40.5q-238 0 -430 -41v174q192 45 428 45q252 0 371 -82.5t119 -257.5v-592h-195l-14 121q-133 -139 -396 -139q-196 0 -302.5 77t-106.5 218zM924 848v84q-90 2 -332 2q-250 0 -250 -133
q0 -127 242 -127q113 0 214 47.5t126 126.5z" />
    <glyph glyph-name="guillemotleft" unicode="&#xab;" horiz-adv-x="1208" 
d="M123 719l256 319h248l-303 -389l303 -389h-248l-256 320v139zM582 719l256 319h247l-303 -389l303 -389h-247l-256 320v139z" />
    <glyph glyph-name="logicalnot" unicode="&#xac;" horiz-adv-x="1337" 
d="M123 672v184h1051v-528h-185v344h-866z" />
    <glyph glyph-name="registered" unicode="&#xae;" horiz-adv-x="2107" 
d="M164 662q0 265 111 466.5t312.5 311.5t465.5 110q265 0 467.5 -110t313 -311.5t110.5 -466.5q0 -198 -64.5 -364t-180 -281.5t-282 -179.5t-364.5 -64q-264 0 -465.5 110t-312.5 312t-111 467zM334 662q0 -160 52 -294t146 -227.5t227.5 -145.5t293.5 -52
q324 0 522.5 197.5t198.5 521.5t-198.5 521t-522.5 197q-213 0 -376.5 -89t-253 -252t-89.5 -377zM598 244v856h508q383 0 383 -283q0 -111 -56.5 -177.5t-162.5 -76.5l-8 -2q19 -17 60.5 -63.5t70.5 -66t63 -19.5h107v-170h-133q-45 0 -84.5 16t-69.5 42t-58.5 57.5
t-56.5 63.5t-57.5 59t-69 46t-84.5 23h-157v-305h-195zM1104 940h-311v-254h311q98 0 143 31t45 96t-45 96t-143 31z" />
    <glyph glyph-name="macron" unicode="&#xaf;" horiz-adv-x="901" 
d="M123 1397v184h655v-184h-655z" />
    <glyph glyph-name="degree" unicode="&#xb0;" horiz-adv-x="958" 
d="M123 1098q0 160 98 258t258 98t258.5 -98t98.5 -258t-98.5 -258.5t-258.5 -98.5t-258 98.5t-98 258.5zM307 1098q0 -76 47.5 -124t124.5 -48t124.5 48t47.5 124t-47.5 124t-124.5 48t-124.5 -48t-47.5 -124z" />
    <glyph glyph-name="plusminus" unicode="&#xb1;" horiz-adv-x="1269" 
d="M164 645v184h379v318h184v-318h379v-184h-379v-317h-184v317h-379zM164 0v184h942v-184h-942z" />
    <glyph glyph-name="twosuperior" unicode="&#xb2;" horiz-adv-x="1144" 
d="M338 690h684v-180h-897v180q0 58 14 106t35 80t57.5 57.5t67.5 40t80.5 26.5t81.5 17t84 11q36 5 52 7t47 7t45.5 9.5t37.5 12t34.5 16.5t23.5 20.5t17 27t5 33.5q0 120 -248 123q-194 3 -389 -45v178q189 40 385 37q111 0 194 -14.5t146 -46.5t95 -88t32 -136
q0 -74 -26 -128.5t-54 -82.5t-94.5 -48.5t-97.5 -25t-114 -13.5l-24 -3q-51 -5 -85 -10.5t-73 -18t-62 -30t-38.5 -48t-15.5 -71.5z" />
    <glyph glyph-name="threesuperior" unicode="&#xb3;" horiz-adv-x="1130" 
d="M125 535v178q195 -44 405 -41q265 3 265 112q0 117 -285 117h-268v148h256q270 0 270 120q0 108 -244 111q-197 3 -383 -41v178q167 37 377 37q244 -1 354.5 -62t110.5 -192q0 -165 -168 -221q99 -29 146 -84.5t47 -140.5q0 -132 -117 -193t-373 -61q-218 -3 -393 35z
" />
    <glyph glyph-name="acute" unicode="&#xb4;" horiz-adv-x="878" 
d="M137 1264l326 454h276l-346 -454h-256z" />
    <glyph glyph-name="paragraph" unicode="&#xb6;" horiz-adv-x="1556" 
d="M614 -426v961q-202 0 -326 123.5t-124 324.5q0 203 124 327t326 124h226v-1860h-226zM1044 -426v1860h226v-1860h-226z" />
    <glyph glyph-name="periodcentered" unicode="&#xb7;" horiz-adv-x="634" 
d="M164 719q0 69 41 103t114 34q70 0 111 -34.5t41 -102.5t-41 -103.5t-111 -35.5q-73 0 -114 35t-41 104z" />
    <glyph glyph-name="cedilla" unicode="&#xb8;" horiz-adv-x="649" 
d="M391 -72q62 -29 98.5 -83t36.5 -117q0 -117 -104 -176t-299 -44v148q86 -12 139 22t53 101q0 39 -38.5 81.5t-96.5 67.5l56 95h208z" />
    <glyph glyph-name="onesuperior" unicode="&#xb9;" horiz-adv-x="776" 
d="M317 502v751h-233v181h446v-932h-213z" />
    <glyph glyph-name="ordmasculine" unicode="&#xba;" horiz-adv-x="1374" 
d="M123 989q0 213 152.5 342t410.5 129q259 0 411 -128.5t152 -342.5t-152 -342.5t-411 -128.5q-258 0 -410.5 129t-152.5 342zM342 989q0 -133 95 -213t249 -80q156 0 250 80t94 213q0 134 -94 213.5t-250 79.5q-155 0 -249.5 -79.5t-94.5 -213.5z" />
    <glyph glyph-name="guillemotright" unicode="&#xbb;" horiz-adv-x="1208" 
d="M1085 719v-139l-256 -320h-247l303 389l-303 389h247zM627 719v-139l-256 -320h-248l303 389l-303 389h248z" />
    <glyph glyph-name="onequarter" unicode="&#xbc;" horiz-adv-x="2312" 
d="M545 -61l637 1556h202l-636 -1556h-203zM315 502v751h-233v181h446v-932h-213zM1821 0v219h-639v180l499 533h351v-533h157v-180h-157v-219h-211zM1417 399h404v353h-72z" />
    <glyph glyph-name="onehalf" unicode="&#xbd;" horiz-adv-x="2363" 
d="M545 -61l637 1556h202l-636 -1556h-203zM315 502v751h-233v181h446v-932h-213zM1556 180h685v-180h-898v180q0 58 14 106t35 80t57.5 57.5t67.5 40t80.5 26.5t81.5 17t84 11q36 5 52 7t47 7t45.5 9.5t37.5 12t34.5 16.5t23.5 20.5t17 27t5 33.5q0 120 -247 123
q-194 3 -389 -45v178q189 40 385 37q111 0 194 -14.5t146 -46.5t95 -88t32 -136q0 -74 -26 -128.5t-54 -82.5t-94.5 -48.5t-97.5 -25t-114 -13.5l-24 -3q-51 -5 -85 -10.5t-73.5 -18t-62.5 -30t-38.5 -48t-15.5 -71.5z" />
    <glyph glyph-name="threequarters" unicode="&#xbe;" horiz-adv-x="2705" 
d="M938 -61l637 1556h203l-637 -1556h-203zM123 535v178q195 -44 405 -41q265 3 265 112q0 117 -285 117h-268v148h256q270 0 270 120q0 108 -244 111q-197 3 -383 -41v178q167 37 377 37q244 -1 354.5 -62t110.5 -192q0 -165 -168 -221q99 -29 146 -84.5t47 -140.5
q0 -132 -117 -193t-373 -61q-218 -3 -393 35zM2214 0v219h-639v180l500 533h350v-533h158v-180h-158v-219h-211zM1810 399h404v353h-72z" />
    <glyph glyph-name="questiondown" unicode="&#xbf;" horiz-adv-x="1302" 
d="M877 1319q0 -69 -41.5 -104t-114.5 -35q-70 0 -111 35.5t-41 103.5t41 102.5t111 34.5q73 0 114.5 -34.5t41.5 -102.5zM659 1051h215q11 -56 12 -105.5t-2 -87t-20 -74t-28 -59.5t-41.5 -49.5t-44.5 -39t-53.5 -33.5t-51.5 -27t-55 -25q-3 -1 -4 -2q-40 -18 -60.5 -28.5
t-50.5 -30t-44.5 -37.5t-26 -44.5t-11.5 -58.5q0 -83 73 -129.5t212 -50.5q97 -3 223.5 17t237.5 53v-201q-225 -60 -455 -57q-520 6 -520 362q0 69 18.5 125.5t40 90t69 67.5t73 47.5t83.5 40.5q14 7 21 10q32 15 54 26t48 28.5t42 34.5t31 41.5t20.5 52t5 64t-10.5 79.5z
" />
    <glyph glyph-name="Agrave" unicode="&#xc0;" horiz-adv-x="1830" 
d="M61 0l635 1434h439l634 -1434h-245l-148 342h-921l-148 -342h-246zM532 526h766l-301 703h-163zM1038 1575h-188l-258 358h233z" />
    <glyph glyph-name="Aacute" unicode="&#xc1;" horiz-adv-x="1830" 
d="M61 0l635 1434h439l634 -1434h-245l-148 342h-921l-148 -342h-246zM532 526h766l-301 703h-163zM983 1575h-188l213 358h233z" />
    <glyph glyph-name="Acircumflex" unicode="&#xc2;" horiz-adv-x="1830" 
d="M61 0l635 1434h439l634 -1434h-245l-148 342h-921l-148 -342h-246zM532 526h766l-301 703h-163zM526 1554l258 359h260l261 -359h-193l-166 218h-63l-166 -218h-191z" />
    <glyph glyph-name="Atilde" unicode="&#xc3;" horiz-adv-x="1830" 
d="M61 0l635 1434h439l634 -1434h-245l-148 342h-921l-148 -342h-246zM532 526h766l-301 703h-163zM893 1655q-100 59 -164 59q-100 0 -199 -102v174q110 110 209 110q29 0 61.5 -9.5t53 -19.5t56.5 -29.5t51 -27.5q62 -32 124 -32q109 0 218 96v-174q-121 -105 -234 -105
q-75 0 -176 60z" />
    <glyph glyph-name="Adieresis" unicode="&#xc4;" horiz-adv-x="1830" 
d="M557 1776q0 68 41.5 102.5t114.5 34.5q70 0 110.5 -34.5t40.5 -102.5q0 -69 -40.5 -104.5t-110.5 -35.5q-73 0 -114.5 35.5t-41.5 104.5zM967 1776q0 69 41 103t114 34q70 0 111 -34.5t41 -102.5q0 -69 -41 -104.5t-111 -35.5q-72 0 -113.5 35.5t-41.5 104.5zM61 0
l635 1434h439l634 -1434h-245l-148 342h-921l-148 -342h-246zM532 526h766l-301 703h-163z" />
    <glyph glyph-name="Aring" unicode="&#xc5;" horiz-adv-x="1830" 
d="M604 1802q0 135 86 217t228 82q141 0 226 -82t85 -217t-85 -217t-226 -82q-142 0 -228 82t-86 217zM788 1802q0 -55 35.5 -90t94.5 -35q58 0 92 35t34 90t-34 90t-92 35q-59 0 -94.5 -35t-35.5 -90zM61 0l635 1434h439l634 -1434h-245l-148 342h-921l-148 -342h-246z
M532 526h766l-301 703h-163z" />
    <glyph glyph-name="AE" unicode="&#xc6;" horiz-adv-x="2408" 
d="M1139 0v342h-684l-148 -342h-246l635 1434h1569v-201h-897v-381h733v-201h-733v-450h897v-201h-1126zM532 526h607v703h-305z" />
    <glyph glyph-name="Ccedilla" unicode="&#xc7;" horiz-adv-x="1687" 
d="M963 172q164 0 335 19t287 51v-201q-222 -56 -543 -61l-28 -52q62 -29 98.5 -83t36.5 -117q0 -117 -104.5 -176t-299.5 -44v148q86 -12 139.5 22t53.5 101q0 39 -38.5 81.5t-96.5 67.5l35 58q-327 34 -521 229t-194 502q0 224 106.5 392t298 256.5t443.5 88.5
q378 0 614 -61v-201q-116 32 -287 51t-335 19q-275 0 -441 -145t-166 -400t166 -400t441 -145z" />
    <glyph glyph-name="Egrave" unicode="&#xc8;" horiz-adv-x="1597" 
d="M205 0v1434h1249v-201h-1020v-381h856v-201h-856v-450h1020v-201h-1249zM999 1575h-188l-258 358h233z" />
    <glyph glyph-name="Eacute" unicode="&#xc9;" horiz-adv-x="1597" 
d="M205 0v1434h1249v-201h-1020v-381h856v-201h-856v-450h1020v-201h-1249zM887 1575h-189l213 358h234z" />
    <glyph glyph-name="Ecircumflex" unicode="&#xca;" horiz-adv-x="1597" 
d="M205 0v1434h1249v-201h-1020v-381h856v-201h-856v-450h1020v-201h-1249zM416 1554l258 359h260l260 -359h-193l-165 218h-64l-166 -218h-190z" />
    <glyph glyph-name="Edieresis" unicode="&#xcb;" horiz-adv-x="1597" 
d="M440 1776q0 68 41.5 102.5t114.5 34.5q70 0 111 -34.5t41 -102.5q0 -69 -41 -104.5t-111 -35.5q-73 0 -114.5 35.5t-41.5 104.5zM850 1776q0 68 41.5 102.5t114.5 34.5q70 0 110.5 -34.5t40.5 -102.5q0 -69 -40.5 -104.5t-110.5 -35.5q-73 0 -114.5 35.5t-41.5 104.5z
M205 0v1434h1249v-201h-1020v-381h856v-201h-856v-450h1020v-201h-1249z" />
    <glyph glyph-name="Igrave" unicode="&#xcc;" horiz-adv-x="638" 
d="M205 0v1434h229v-1434h-229zM432 1575h-188l-258 358h233z" />
    <glyph glyph-name="Iacute" unicode="&#xcd;" horiz-adv-x="638" 
d="M205 0v1434h229v-1434h-229zM395 1575h-188l213 358h233z" />
    <glyph glyph-name="Icircumflex" unicode="&#xce;" horiz-adv-x="638" 
d="M-133 1548l317 455h271l317 -455h-258l-170 264h-49l-170 -264h-258zM205 0v1434h229v-1434h-229z" />
    <glyph glyph-name="Idieresis" unicode="&#xcf;" horiz-adv-x="638" 
d="M-39 1776q0 68 41.5 102.5t114.5 34.5q70 0 110.5 -34.5t40.5 -102.5q0 -69 -40.5 -104.5t-110.5 -35.5q-73 0 -114.5 35.5t-41.5 104.5zM371 1776q0 69 41 103t114 34q70 0 111 -34.5t41 -102.5q0 -69 -41 -104.5t-111 -35.5q-72 0 -113.5 35.5t-41.5 104.5zM205 0v1434
h229v-1434h-229z" />
    <glyph glyph-name="Eth" unicode="&#xd0;" horiz-adv-x="1923" 
d="M287 0v627h-246v184h246v623h768q223 0 391.5 -86.5t261 -249.5t92.5 -381t-92.5 -381t-261 -249.5t-391.5 -86.5h-768zM1055 1241h-539v-430h514v-184h-514v-434h539q231 0 371.5 139.5t140.5 384.5t-140.5 384.5t-371.5 139.5z" />
    <glyph glyph-name="Ntilde" unicode="&#xd1;" horiz-adv-x="1773" 
d="M866 1677q-31 20 -47.5 29.5t-45 20t-54.5 10.5q-88 0 -180 -103v195q99 110 188 110q27 0 56 -9.5t47.5 -19.5t51.5 -30t46 -27q55 -32 112 -32q98 0 197 96v-195q-109 -104 -211 -104q-68 0 -160 59zM205 0v1434h229l873 -1051h32v1051h230v-1434h-230l-870 1049h-35
v-1049h-229z" />
    <glyph glyph-name="Ograve" unicode="&#xd2;" horiz-adv-x="1923" 
d="M123 717q0 219 104.5 386.5t295.5 259t440 91.5q187 0 343 -53.5t264.5 -149t169 -233t60.5 -301.5t-60.5 -301.5t-169 -233t-264.5 -149t-343 -53.5q-249 0 -440 91.5t-295.5 259t-104.5 386.5zM356 717q0 -247 168.5 -397t438.5 -150t437 149.5t167 397.5
q0 247 -167 396t-437 149q-271 0 -439 -149t-168 -396zM1083 1575h-188l-258 358h233z" />
    <glyph glyph-name="Oacute" unicode="&#xd3;" horiz-adv-x="1923" 
d="M123 717q0 219 104.5 386.5t295.5 259t440 91.5q187 0 343 -53.5t264.5 -149t169 -233t60.5 -301.5t-60.5 -301.5t-169 -233t-264.5 -149t-343 -53.5q-249 0 -440 91.5t-295.5 259t-104.5 386.5zM356 717q0 -247 168.5 -397t438.5 -150t437 149.5t167 397.5
q0 247 -167 396t-437 149q-271 0 -439 -149t-168 -396zM1008 1575h-189l213 358h234z" />
    <glyph glyph-name="Ocircumflex" unicode="&#xd4;" horiz-adv-x="1923" 
d="M123 717q0 219 104.5 386.5t295.5 259t440 91.5q187 0 343 -53.5t264.5 -149t169 -233t60.5 -301.5t-60.5 -301.5t-169 -233t-264.5 -149t-343 -53.5q-249 0 -440 91.5t-295.5 259t-104.5 386.5zM356 717q0 -247 168.5 -397t438.5 -150t437 149.5t167 397.5
q0 247 -167 396t-437 149q-271 0 -439 -149t-168 -396zM573 1554l258 359h261l260 -359h-193l-166 218h-63l-166 -218h-191z" />
    <glyph glyph-name="Otilde" unicode="&#xd5;" horiz-adv-x="1923" 
d="M123 717q0 219 104.5 386.5t295.5 259t440 91.5q187 0 343 -53.5t264.5 -149t169 -233t60.5 -301.5t-60.5 -301.5t-169 -233t-264.5 -149t-343 -53.5q-249 0 -440 91.5t-295.5 259t-104.5 386.5zM356 717q0 -247 168.5 -397t438.5 -150t437 149.5t167 397.5
q0 247 -167 396t-437 149q-271 0 -439 -149t-168 -396zM938 1655q-100 59 -164 59q-100 0 -199 -102v174q110 110 209 110q29 0 61.5 -9.5t53 -19.5t56.5 -29.5t51 -27.5q62 -32 124 -32q109 0 218 96v-174q-121 -105 -234 -105q-75 0 -176 60z" />
    <glyph glyph-name="Odieresis" unicode="&#xd6;" horiz-adv-x="1923" 
d="M604 1776q0 68 41.5 102.5t114.5 34.5q70 0 110.5 -34.5t40.5 -102.5q0 -69 -40.5 -104.5t-110.5 -35.5q-73 0 -114.5 35.5t-41.5 104.5zM1014 1776q0 69 41 103t114 34q70 0 111 -34.5t41 -102.5q0 -69 -41 -104.5t-111 -35.5q-72 0 -113.5 35.5t-41.5 104.5zM123 717
q0 219 104.5 386.5t295.5 259t440 91.5q187 0 343 -53.5t264.5 -149t169 -233t60.5 -301.5t-60.5 -301.5t-169 -233t-264.5 -149t-343 -53.5q-249 0 -440 91.5t-295.5 259t-104.5 386.5zM356 717q0 -247 168.5 -397t438.5 -150t437 149.5t167 397.5q0 247 -167 396t-437 149
q-271 0 -439 -149t-168 -396z" />
    <glyph glyph-name="multiply" unicode="&#xd7;" horiz-adv-x="1122" 
d="M164 950l129 129l268 -268l268 268l129 -129l-268 -268l268 -268l-129 -129l-268 268l-268 -268l-129 129l268 268z" />
    <glyph glyph-name="Oslash" unicode="&#xd8;" horiz-adv-x="1923" 
d="M123 717q0 219 104.5 386.5t295.5 259t440 91.5q94 0 192 -16l43 108h203l-64 -155q218 -84 340.5 -260t122.5 -414q0 -164 -60.5 -301.5t-169 -233t-264.5 -149t-343 -53.5q-97 0 -195 16l-49 -123h-203l70 172q-218 84 -340.5 259.5t-122.5 412.5zM356 717
q0 -168 81.5 -294t224.5 -192l417 1022q-56 9 -116 9q-271 0 -439 -149t-168 -396zM1262 1202l-418 -1024q52 -8 119 -8q270 0 437 149.5t167 397.5q0 169 -80 294.5t-225 190.5z" />
    <glyph glyph-name="Ugrave" unicode="&#xd9;" horiz-adv-x="1804" 
d="M903 170q220 0 355 110t135 316v840h227v-840q0 -193 -90 -333t-251 -211.5t-376 -71.5q-216 0 -377.5 71.5t-251.5 211.5t-90 333v840h230v-840q0 -206 133.5 -316t355.5 -110zM1075 1575h-188l-258 358h233z" />
    <glyph glyph-name="Uacute" unicode="&#xda;" horiz-adv-x="1804" 
d="M903 170q220 0 355 110t135 316v840h227v-840q0 -193 -90 -333t-251 -211.5t-376 -71.5q-216 0 -377.5 71.5t-251.5 211.5t-90 333v840h230v-840q0 -206 133.5 -316t355.5 -110zM961 1575h-189l213 358h234z" />
    <glyph glyph-name="Ucircumflex" unicode="&#xdb;" horiz-adv-x="1804" 
d="M451 1548l317 455h270l318 -455h-258l-170 264h-49l-170 -264h-258zM903 170q220 0 355 110t135 316v840h227v-840q0 -193 -90 -333t-251 -211.5t-376 -71.5q-216 0 -377.5 71.5t-251.5 211.5t-90 333v840h230v-840q0 -206 133.5 -316t355.5 -110z" />
    <glyph glyph-name="Udieresis" unicode="&#xdc;" horiz-adv-x="1804" 
d="M545 1776q0 69 41 103t114 34q70 0 111 -34.5t41 -102.5q0 -69 -41 -104.5t-111 -35.5q-72 0 -113.5 35.5t-41.5 104.5zM954 1776q0 68 41.5 102.5t114.5 34.5q70 0 111 -34.5t41 -102.5q0 -69 -41 -104.5t-111 -35.5q-73 0 -114.5 35.5t-41.5 104.5zM903 170
q220 0 355 110t135 316v840h227v-840q0 -193 -90 -333t-251 -211.5t-376 -71.5q-216 0 -377.5 71.5t-251.5 211.5t-90 333v840h230v-840q0 -206 133.5 -316t355.5 -110z" />
    <glyph glyph-name="Yacute" unicode="&#xdd;" horiz-adv-x="1740" 
d="M760 0v543l-699 891h271l512 -674h53l510 674h272l-690 -881v-553h-229zM905 1575h-188l213 358h233z" />
    <glyph glyph-name="Thorn" unicode="&#xde;" horiz-adv-x="1726" 
d="M205 0v1434h229v-252h576q594 0 594 -465t-594 -465h-576v-252h-229zM434 444h570q194 0 280 66.5t86 206.5t-86 206t-280 66h-570v-545z" />
    <glyph glyph-name="germandbls" unicode="&#xdf;" horiz-adv-x="1716" 
d="M184 0v1196q0 190 160.5 316t403.5 126q290 0 431.5 -96.5t141.5 -273.5q0 -66 -19.5 -121.5t-51 -92t-69.5 -67.5t-76 -54t-69.5 -44.5t-51 -47t-19.5 -53.5q0 -29 27 -48t71 -27.5t100.5 -19.5t115.5 -22t115.5 -35.5t100.5 -59t71 -94.5t27 -140q0 -181 -117 -272
t-346 -88q-223 3 -395 63v205q66 -26 175 -50.5t216 -25.5q238 -3 238 150q0 51 -21.5 86.5t-58 55t-83.5 32.5t-99 21.5t-104.5 18t-99.5 26.5t-83.5 42t-58 70t-21.5 106q0 46 19.5 88t50 74t68 61.5t75 58t68 57t50 63.5t19.5 73q0 86 -88.5 134.5t-248.5 48.5
q-172 0 -255 -71.5t-83 -219.5v-1149h-226z" />
    <glyph glyph-name="agrave" unicode="&#xe0;" horiz-adv-x="1507" 
d="M102 348q0 173 147 261.5t437 88.5q273 0 432 -24v61q0 129 -80.5 184.5t-265.5 55.5q-306 0 -547 -53v190q255 55 523 55q313 0 454 -100.5t141 -323.5v-743h-213l-12 168q-164 -191 -508 -191q-246 0 -377 96t-131 275zM1118 401v121q-121 2 -450 2q-336 0 -336 -184
q0 -174 327 -174q97 0 191 25.5t170 80.5t98 129zM897 1288h-188l-258 359h233z" />
    <glyph glyph-name="aacute" unicode="&#xe1;" horiz-adv-x="1507" 
d="M102 348q0 173 147 261.5t437 88.5q273 0 432 -24v61q0 129 -80.5 184.5t-265.5 55.5q-306 0 -547 -53v190q255 55 523 55q313 0 454 -100.5t141 -323.5v-743h-213l-12 168q-164 -191 -508 -191q-246 0 -377 96t-131 275zM1118 401v121q-121 2 -450 2q-336 0 -336 -184
q0 -174 327 -174q97 0 191 25.5t170 80.5t98 129zM838 1288h-189l213 359h234z" />
    <glyph glyph-name="acircumflex" unicode="&#xe2;" horiz-adv-x="1507" 
d="M102 348q0 173 147 261.5t437 88.5q273 0 432 -24v61q0 129 -80.5 184.5t-265.5 55.5q-306 0 -547 -53v190q255 55 523 55q313 0 454 -100.5t141 -323.5v-743h-213l-12 168q-164 -191 -508 -191q-246 0 -377 96t-131 275zM1118 401v121q-121 2 -450 2q-336 0 -336 -184
q0 -174 327 -174q97 0 191 25.5t170 80.5t98 129zM369 1268l258 358h260l260 -358h-193l-166 217h-63l-166 -217h-190z" />
    <glyph glyph-name="atilde" unicode="&#xe3;" horiz-adv-x="1507" 
d="M102 348q0 173 147 261.5t437 88.5q273 0 432 -24v61q0 129 -80.5 184.5t-265.5 55.5q-306 0 -547 -53v190q255 55 523 55q313 0 454 -100.5t141 -323.5v-743h-213l-12 168q-164 -191 -508 -191q-246 0 -377 96t-131 275zM1118 401v121q-121 2 -450 2q-336 0 -336 -184
q0 -174 327 -174q97 0 191 25.5t170 80.5t98 129zM733 1368q-100 59 -164 59q-99 0 -198 -102v174q111 111 209 111q29 0 61.5 -9.5t53 -19.5t56 -29.5t50.5 -27.5q64 -33 125 -33q108 0 217 96v-174q-120 -104 -234 -104q-76 0 -176 59z" />
    <glyph glyph-name="adieresis" unicode="&#xe4;" horiz-adv-x="1507" 
d="M395 1489q0 68 41.5 102.5t114.5 34.5q70 0 110.5 -34.5t40.5 -102.5q0 -69 -40.5 -104t-110.5 -35q-73 0 -114.5 35t-41.5 104zM805 1489q0 68 41.5 102.5t114.5 34.5q70 0 110.5 -34.5t40.5 -102.5q0 -69 -40.5 -104t-110.5 -35q-73 0 -114.5 35t-41.5 104zM102 348
q0 173 147 261.5t437 88.5q273 0 432 -24v61q0 129 -80.5 184.5t-265.5 55.5q-306 0 -547 -53v190q255 55 523 55q313 0 454 -100.5t141 -323.5v-743h-213l-12 168q-164 -191 -508 -191q-246 0 -377 96t-131 275zM1118 401v121q-121 2 -450 2q-336 0 -336 -184
q0 -174 327 -174q97 0 191 25.5t170 80.5t98 129z" />
    <glyph glyph-name="aring" unicode="&#xe5;" horiz-adv-x="1507" 
d="M442 1516q0 135 86 217t228 82q141 0 226 -82t85 -217t-85 -217t-226 -82q-142 0 -228 82t-86 217zM627 1516q0 -55 35 -90t94 -35q58 0 92.5 35t34.5 90t-34.5 89.5t-92.5 34.5q-59 0 -94 -34.5t-35 -89.5zM102 348q0 173 147 261.5t437 88.5q273 0 432 -24v61
q0 129 -80.5 184.5t-265.5 55.5q-306 0 -547 -53v190q255 55 523 55q313 0 454 -100.5t141 -323.5v-743h-213l-12 168q-164 -191 -508 -191q-246 0 -377 96t-131 275zM1118 401v121q-121 2 -450 2q-336 0 -336 -184q0 -174 327 -174q97 0 191 25.5t170 80.5t98 129z" />
    <glyph glyph-name="ae" unicode="&#xe6;" horiz-adv-x="2506" 
d="M102 348q0 173 147 261.5t437 88.5q273 0 432 -24v61q0 129 -80.5 184.5t-265.5 55.5q-306 0 -547 -53v190q255 55 523 55q216 0 347.5 -46.5t192.5 -145.5q90 92 223 142t295 50q273 0 435.5 -136.5t162.5 -368.5q0 -94 -16 -164h-1018q26 -154 160 -241t350 -87
q95 0 233 15t232 38v-190q-234 -56 -451 -56q-340 0 -551 158v-135h-213l-12 168q-164 -191 -508 -191q-246 0 -377 96t-131 275zM1372 662h815q0 141 -108 227t-285 86q-172 0 -284 -83.5t-138 -229.5zM1118 401v121q-121 2 -450 2q-336 0 -336 -184q0 -174 327 -174
q97 0 191 25.5t170 80.5t98 129z" />
    <glyph glyph-name="ccedilla" unicode="&#xe7;" horiz-adv-x="1392" 
d="M854 -23l-29 -49q62 -29 99 -83t37 -117q0 -117 -104.5 -176t-299.5 -44v148q86 -12 139.5 22t53.5 101q0 39 -39 81.5t-97 67.5l39 68q-261 46 -406 199t-145 378q0 270 204.5 432t561.5 162q192 0 422 -55v-190q-96 24 -219.5 38.5t-214.5 14.5q-244 0 -382 -108.5
t-138 -293.5q0 -186 138 -294.5t382 -108.5q91 0 214.5 14.5t219.5 38.5v-190q-232 -56 -436 -56z" />
    <glyph glyph-name="egrave" unicode="&#xe8;" horiz-adv-x="1478" 
d="M778 1167q273 0 435.5 -136.5t162.5 -368.5q0 -94 -16 -164h-1018q26 -154 160 -241t350 -87q95 0 233 15t232 38v-190q-234 -56 -451 -56q-236 1 -409.5 75.5t-264 208.5t-90.5 312q0 264 186.5 429t489.5 165zM344 662h815q0 141 -108 227t-285 86q-172 0 -284 -83.5
t-138 -229.5zM938 1288h-188l-258 359h233z" />
    <glyph glyph-name="eacute" unicode="&#xe9;" horiz-adv-x="1478" 
d="M778 1167q273 0 435.5 -136.5t162.5 -368.5q0 -94 -16 -164h-1018q26 -154 160 -241t350 -87q95 0 233 15t232 38v-190q-234 -56 -451 -56q-236 1 -409.5 75.5t-264 208.5t-90.5 312q0 264 186.5 429t489.5 165zM344 662h815q0 141 -108 227t-285 86q-172 0 -284 -83.5
t-138 -229.5zM838 1288h-189l213 359h234z" />
    <glyph glyph-name="ecircumflex" unicode="&#xea;" horiz-adv-x="1478" 
d="M778 1167q273 0 435.5 -136.5t162.5 -368.5q0 -94 -16 -164h-1018q26 -154 160 -241t350 -87q95 0 233 15t232 38v-190q-234 -56 -451 -56q-236 1 -409.5 75.5t-264 208.5t-90.5 312q0 264 186.5 429t489.5 165zM344 662h815q0 141 -108 227t-285 86q-172 0 -284 -83.5
t-138 -229.5zM369 1268l258 358h260l260 -358h-193l-166 217h-63l-166 -217h-190z" />
    <glyph glyph-name="edieresis" unicode="&#xeb;" horiz-adv-x="1478" 
d="M381 1489q0 68 41.5 102.5t114.5 34.5q70 0 110.5 -34.5t40.5 -102.5q0 -69 -40.5 -104t-110.5 -35q-73 0 -114.5 35t-41.5 104zM791 1489q0 69 41 103t114 34q70 0 111 -34.5t41 -102.5t-41 -103.5t-111 -35.5q-73 0 -114 35t-41 104zM778 1167q273 0 435.5 -136.5
t162.5 -368.5q0 -94 -16 -164h-1018q26 -154 160 -241t350 -87q95 0 233 15t232 38v-190q-234 -56 -451 -56q-236 1 -409.5 75.5t-264 208.5t-90.5 312q0 264 186.5 429t489.5 165zM344 662h815q0 141 -108 227t-285 86q-172 0 -284 -83.5t-138 -229.5z" />
    <glyph glyph-name="igrave" unicode="&#xec;" horiz-adv-x="593" 
d="M184 0v1147h226v-1147h-226zM408 1288h-189l-258 359h234z" />
    <glyph glyph-name="iacute" unicode="&#xed;" horiz-adv-x="593" 
d="M184 0v1147h226v-1147h-226zM371 1288h-189l213 359h234z" />
    <glyph glyph-name="icircumflex" unicode="&#xee;" horiz-adv-x="593" 
d="M-156 1262l318 454h270l318 -454h-258l-170 264h-50l-170 -264h-258zM184 0v1147h226v-1147h-226z" />
    <glyph glyph-name="idieresis" unicode="&#xef;" horiz-adv-x="593" 
d="M-61 1489q0 69 41 103t114 34q70 0 111 -34.5t41 -102.5t-41 -103.5t-111 -35.5q-73 0 -114 35t-41 104zM348 1489q0 68 41.5 102.5t114.5 34.5q70 0 110.5 -34.5t40.5 -102.5q0 -69 -40.5 -104t-110.5 -35q-73 0 -114.5 35t-41.5 104zM184 0v1147h226v-1147h-226z" />
    <glyph glyph-name="eth" unicode="&#xf0;" horiz-adv-x="1523" 
d="M1401 717q0 -361 -174.5 -549t-507.5 -188q-281 0 -438.5 123t-157.5 348q0 203 143.5 323.5t397.5 120.5q261 0 501 -139v4q-21 259 -268 385l-211 -203l-106 115l153 149q-164 45 -397 45l35 197q298 0 530 -82l174 168l107 -115l-129 -123q169 -96 258.5 -243
t89.5 -336zM1155 547q-112 73 -238.5 114t-248.5 41q-143 0 -227.5 -69t-84.5 -187q0 -136 91 -206t268 -70q193 0 301 92.5t139 284.5z" />
    <glyph glyph-name="ntilde" unicode="&#xf1;" 
d="M778 1391q-30 19 -47.5 29t-45.5 20t-54 10q-89 0 -180 -102v194q100 111 188 111q27 0 56 -9.5t47.5 -19.5t51.5 -30t46 -27q57 -33 112 -33q98 0 197 96v-194q-110 -105 -211 -105q-67 0 -160 60zM397 1147l6 -84q124 48 261 76t247 28q224 0 369 -108.5t145 -270.5
v-788h-225v752q0 104 -87 165.5t-236 61.5q-97 0 -222.5 -26t-244.5 -72v-881h-226v1147h213z" />
    <glyph glyph-name="ograve" unicode="&#xf2;" horiz-adv-x="1595" 
d="M102 573q0 267 192 430.5t505 163.5t503.5 -163.5t190.5 -430.5t-190.5 -430t-503.5 -163q-314 0 -505.5 163t-191.5 430zM336 573q0 -183 128 -293t335 -110t334 110t127 293q0 182 -127 292t-334 110t-335 -110t-128 -292zM920 1288h-189l-258 359h234z" />
    <glyph glyph-name="oacute" unicode="&#xf3;" horiz-adv-x="1595" 
d="M102 573q0 267 192 430.5t505 163.5t503.5 -163.5t190.5 -430.5t-190.5 -430t-503.5 -163q-314 0 -505.5 163t-191.5 430zM336 573q0 -183 128 -293t335 -110t334 110t127 293q0 182 -127 292t-334 110t-335 -110t-128 -292zM858 1288h-188l213 359h233z" />
    <glyph glyph-name="ocircumflex" unicode="&#xf4;" horiz-adv-x="1595" 
d="M102 573q0 267 192 430.5t505 163.5t503.5 -163.5t190.5 -430.5t-190.5 -430t-503.5 -163q-314 0 -505.5 163t-191.5 430zM336 573q0 -183 128 -293t335 -110t334 110t127 293q0 182 -127 292t-334 110t-335 -110t-128 -292zM410 1268l258 358h260l260 -358h-193
l-166 217h-63l-166 -217h-190z" />
    <glyph glyph-name="otilde" unicode="&#xf5;" horiz-adv-x="1595" 
d="M102 573q0 267 192 430.5t505 163.5t503.5 -163.5t190.5 -430.5t-190.5 -430t-503.5 -163q-314 0 -505.5 163t-191.5 430zM336 573q0 -183 128 -293t335 -110t334 110t127 293q0 182 -127 292t-334 110t-335 -110t-128 -292zM776 1368q-100 59 -164 59q-99 0 -198 -102
v174q111 111 209 111q29 0 61.5 -9.5t53 -19.5t56 -29.5t50.5 -27.5q64 -33 125 -33q108 0 217 96v-174q-120 -104 -234 -104q-76 0 -176 59z" />
    <glyph glyph-name="odieresis" unicode="&#xf6;" horiz-adv-x="1595" 
d="M440 1489q0 68 41.5 102.5t114.5 34.5q70 0 111 -34.5t41 -102.5t-41 -103.5t-111 -35.5q-73 0 -114.5 35t-41.5 104zM850 1489q0 68 41.5 102.5t114.5 34.5q70 0 110.5 -34.5t40.5 -102.5q0 -69 -40.5 -104t-110.5 -35q-73 0 -114.5 35t-41.5 104zM102 573
q0 267 192 430.5t505 163.5t503.5 -163.5t190.5 -430.5t-190.5 -430t-503.5 -163q-314 0 -505.5 163t-191.5 430zM336 573q0 -183 128 -293t335 -110t334 110t127 293q0 182 -127 292t-334 110t-335 -110t-128 -292z" />
    <glyph glyph-name="divide" unicode="&#xf7;" horiz-adv-x="1187" 
d="M440 1030q0 68 41.5 102.5t114.5 34.5q70 0 111 -34.5t41 -102.5t-41 -103.5t-111 -35.5q-73 0 -114.5 35t-41.5 104zM123 481v185h942v-185h-942zM440 117q0 68 41.5 102.5t114.5 34.5q70 0 111 -34.5t41 -102.5q0 -69 -41 -104.5t-111 -35.5q-73 0 -114.5 35.5
t-41.5 104.5z" />
    <glyph glyph-name="oslash" unicode="&#xf8;" horiz-adv-x="1595" 
d="M102 573q0 267 192 430.5t505 163.5q76 0 133 -8l49 121h203l-68 -166q178 -68 277.5 -209t99.5 -332q0 -267 -190.5 -430t-503.5 -163q-71 0 -146 10l-37 -92h-202l57 139q-174 70 -271.5 209.5t-97.5 326.5zM336 573q0 -118 55.5 -208t155.5 -140l307 748q-18 2 -55 2
q-207 0 -335 -110t-128 -292zM1038 926l-309 -752q46 -4 70 -4q207 0 334 110t127 293q0 121 -58.5 212t-163.5 141z" />
    <glyph glyph-name="ugrave" unicode="&#xf9;" 
d="M1202 0l-6 84q-124 -48 -261 -76t-247 -28q-224 0 -369 108t-145 270v789h225v-752q0 -104 87.5 -165.5t236.5 -61.5q97 0 222.5 26t244.5 72v881h225v-1147h-213zM946 1288h-188l-258 359h233z" />
    <glyph glyph-name="uacute" unicode="&#xfa;" 
d="M1202 0l-6 84q-124 -48 -261 -76t-247 -28q-224 0 -369 108t-145 270v789h225v-752q0 -104 87.5 -165.5t236.5 -61.5q97 0 222.5 26t244.5 72v881h225v-1147h-213zM862 1288h-188l213 359h233z" />
    <glyph glyph-name="ucircumflex" unicode="&#xfb;" 
d="M348 1262l318 454h270l317 -454h-258l-170 264h-49l-170 -264h-258zM1202 0l-6 84q-124 -48 -261 -76t-247 -28q-224 0 -369 108t-145 270v789h225v-752q0 -104 87.5 -165.5t236.5 -61.5q97 0 222.5 26t244.5 72v881h225v-1147h-213z" />
    <glyph glyph-name="udieresis" unicode="&#xfc;" 
d="M442 1489q0 68 41.5 102.5t114.5 34.5q70 0 111 -34.5t41 -102.5t-41 -103.5t-111 -35.5q-73 0 -114.5 35t-41.5 104zM852 1489q0 68 41.5 102.5t114.5 34.5q70 0 110.5 -34.5t40.5 -102.5q0 -69 -40.5 -104t-110.5 -35q-73 0 -114.5 35t-41.5 104zM1202 0l-6 84
q-124 -48 -261 -76t-247 -28q-224 0 -369 108t-145 270v789h225v-752q0 -104 87.5 -165.5t236.5 -61.5q97 0 222.5 26t244.5 72v881h225v-1147h-213z" />
    <glyph glyph-name="yacute" unicode="&#xfd;" horiz-adv-x="1511" 
d="M680 -408h-221l250 490h-121l-568 1065h236l451 -862h106l442 862h236zM813 1288h-188l213 359h233z" />
    <glyph glyph-name="thorn" unicode="&#xfe;" horiz-adv-x="1691" 
d="M410 76v-406h-226v1846h226v-445q243 96 477 96q314 0 498 -162.5t184 -431.5t-184 -431t-498 -162q-234 0 -477 96zM860 168q224 0 351.5 110t127.5 295t-128 295.5t-351 110.5q-129 0 -252.5 -27t-197.5 -63v-631q74 -36 197.5 -63t252.5 -27z" />
    <glyph glyph-name="ydieresis" unicode="&#xff;" horiz-adv-x="1511" 
d="M397 1489q0 68 41.5 102.5t114.5 34.5q70 0 111 -34.5t41 -102.5t-41 -103.5t-111 -35.5q-73 0 -114.5 35t-41.5 104zM807 1489q0 68 41.5 102.5t114.5 34.5q70 0 110.5 -34.5t40.5 -102.5q0 -69 -40.5 -104t-110.5 -35q-73 0 -114.5 35t-41.5 104zM680 -408h-221
l250 490h-121l-568 1065h236l451 -862h106l442 862h236z" />
    <glyph glyph-name="Amacron" unicode="&#x100;" horiz-adv-x="1830" 
d="M588 1683v185h655v-185h-655zM61 0l635 1434h439l634 -1434h-245l-148 342h-921l-148 -342h-246zM532 526h766l-301 703h-163z" />
    <glyph glyph-name="amacron" unicode="&#x101;" horiz-adv-x="1507" 
d="M426 1397v184h655v-184h-655zM102 348q0 173 147 261.5t437 88.5q273 0 432 -24v61q0 129 -80.5 184.5t-265.5 55.5q-306 0 -547 -53v190q255 55 523 55q313 0 454 -100.5t141 -323.5v-743h-213l-12 168q-164 -191 -508 -191q-246 0 -377 96t-131 275zM1118 401v121
q-121 2 -450 2q-336 0 -336 -184q0 -174 327 -174q97 0 191 25.5t170 80.5t98 129z" />
    <glyph glyph-name="Abreve" unicode="&#x102;" horiz-adv-x="1830" 
d="M61 0l635 1434h439l634 -1434h-245l-148 342h-921l-148 -342h-246zM532 526h766l-301 703h-163zM913 1714q116 0 159.5 51t35.5 142h174q18 -147 -81.5 -250t-287.5 -103q-124 0 -212 49.5t-126 129t-28 174.5h176q-21 -193 190 -193z" />
    <glyph glyph-name="abreve" unicode="&#x103;" horiz-adv-x="1507" 
d="M102 348q0 173 147 261.5t437 88.5q273 0 432 -24v61q0 129 -80.5 184.5t-265.5 55.5q-306 0 -547 -53v190q255 55 523 55q313 0 454 -100.5t141 -323.5v-743h-213l-12 168q-164 -191 -508 -191q-246 0 -377 96t-131 275zM1118 401v121q-121 2 -450 2q-336 0 -336 -184
q0 -174 327 -174q97 0 191 25.5t170 80.5t98 129zM756 1448q116 0 159 50.5t35 141.5h174q18 -147 -81 -249.5t-287 -102.5q-185 0 -284 102.5t-83 249.5h176q-21 -192 191 -192z" />
    <glyph glyph-name="Aogonek" unicode="&#x104;" horiz-adv-x="1830" 
d="M61 0l635 1434h439l634 -1434h-53q-98 -112 -98 -221q0 -67 53 -101t139 -22v-148q-198 -15 -300.5 37t-102.5 168q0 168 131 287h-14l-148 342h-921l-148 -342h-246zM532 526h766l-301 703h-163z" />
    <glyph glyph-name="aogonek" unicode="&#x105;" horiz-adv-x="1507" 
d="M102 348q0 173 147 261.5t437 88.5q273 0 432 -24v61q0 129 -80.5 184.5t-265.5 55.5q-306 0 -547 -53v190q255 55 523 55q313 0 454 -100.5t141 -323.5v-743h-22q-98 -112 -98 -221q0 -67 53 -101t139 -22v-148q-198 -15 -300.5 37t-102.5 168q0 168 131 287h-13
l-12 168q-164 -191 -508 -191q-246 0 -377 96t-131 275zM1118 401v121q-121 2 -450 2q-336 0 -336 -184q0 -174 327 -174q97 0 191 25.5t170 80.5t98 129z" />
    <glyph glyph-name="Cacute" unicode="&#x106;" horiz-adv-x="1687" 
d="M543 1550l325 455h277l-346 -455h-256zM963 172q164 0 335 19t287 51v-201q-236 -61 -614 -61q-252 0 -443.5 88.5t-298 256.5t-106.5 392t106.5 392t298 256.5t443.5 88.5q378 0 614 -61v-201q-116 32 -287 51t-335 19q-275 0 -441 -145t-166 -400t166 -400t441 -145z
" />
    <glyph glyph-name="cacute" unicode="&#x107;" horiz-adv-x="1392" 
d="M395 1264l326 454h276l-346 -454h-256zM868 -23q-357 1 -561.5 163.5t-204.5 432.5t204.5 432t561.5 162q192 0 422 -55v-190q-96 24 -219.5 38.5t-214.5 14.5q-244 0 -382 -108.5t-138 -293.5q0 -186 138 -294.5t382 -108.5q91 0 214.5 14.5t219.5 38.5v-190
q-234 -56 -422 -56z" />
    <glyph glyph-name="Ccircumflex" unicode="&#x108;" horiz-adv-x="1687" 
d="M391 1548l318 455h270l317 -455h-258l-170 264h-49l-170 -264h-258zM963 172q164 0 335 19t287 51v-201q-236 -61 -614 -61q-252 0 -443.5 88.5t-298 256.5t-106.5 392t106.5 392t298 256.5t443.5 88.5q378 0 614 -61v-201q-116 32 -287 51t-335 19q-275 0 -441 -145
t-166 -400t166 -400t441 -145z" />
    <glyph glyph-name="ccircumflex" unicode="&#x109;" horiz-adv-x="1392" 
d="M244 1262l317 454h270l318 -454h-258l-170 264h-49l-170 -264h-258zM868 -23q-357 1 -561.5 163.5t-204.5 432.5t204.5 432t561.5 162q192 0 422 -55v-190q-96 24 -219.5 38.5t-214.5 14.5q-244 0 -382 -108.5t-138 -293.5q0 -186 138 -294.5t382 -108.5q91 0 214.5 14.5
t219.5 38.5v-190q-234 -56 -422 -56z" />
    <glyph glyph-name="Cdotaccent" unicode="&#x10a;" horiz-adv-x="1687" 
d="M690 1776q0 68 41.5 102.5t114.5 34.5q70 0 110.5 -34.5t40.5 -102.5q0 -69 -40.5 -104.5t-110.5 -35.5q-73 0 -114.5 35.5t-41.5 104.5zM963 172q164 0 335 19t287 51v-201q-236 -61 -614 -61q-252 0 -443.5 88.5t-298 256.5t-106.5 392t106.5 392t298 256.5t443.5 88.5
q378 0 614 -61v-201q-116 32 -287 51t-335 19q-275 0 -441 -145t-166 -400t166 -400t441 -145z" />
    <glyph glyph-name="cdotaccent" unicode="&#x10b;" horiz-adv-x="1392" 
d="M543 1489q0 69 41 103t114 34q70 0 111 -34.5t41 -102.5t-41 -103.5t-111 -35.5q-73 0 -114 35t-41 104zM868 -23q-357 1 -561.5 163.5t-204.5 432.5t204.5 432t561.5 162q192 0 422 -55v-190q-96 24 -219.5 38.5t-214.5 14.5q-244 0 -382 -108.5t-138 -293.5
q0 -186 138 -294.5t382 -108.5q91 0 214.5 14.5t219.5 38.5v-190q-234 -56 -422 -56z" />
    <glyph glyph-name="Ccaron" unicode="&#x10c;" horiz-adv-x="1687" 
d="M709 1548l-318 455h258l170 -264h49l170 264h258l-317 -455h-270zM963 172q164 0 335 19t287 51v-201q-236 -61 -614 -61q-252 0 -443.5 88.5t-298 256.5t-106.5 392t106.5 392t298 256.5t443.5 88.5q378 0 614 -61v-201q-116 32 -287 51t-335 19q-275 0 -441 -145
t-166 -400t166 -400t441 -145z" />
    <glyph glyph-name="ccaron" unicode="&#x10d;" horiz-adv-x="1392" 
d="M561 1262l-317 454h258l170 -264h49l170 264h258l-318 -454h-270zM868 -23q-357 1 -561.5 163.5t-204.5 432.5t204.5 432t561.5 162q192 0 422 -55v-190q-96 24 -219.5 38.5t-214.5 14.5q-244 0 -382 -108.5t-138 -293.5q0 -186 138 -294.5t382 -108.5q91 0 214.5 14.5
t219.5 38.5v-190q-234 -56 -422 -56z" />
    <glyph glyph-name="Dcaron" unicode="&#x10e;" horiz-adv-x="1841" 
d="M786 1548l-317 455h258l170 -264h49l170 264h258l-317 -455h-271zM205 0v1434h768q223 0 391.5 -86.5t261 -249.5t92.5 -381t-92.5 -381t-261 -249.5t-391.5 -86.5h-768zM973 1241h-539v-1048h539q231 0 371.5 139.5t140.5 384.5t-140.5 384.5t-371.5 139.5z" />
    <glyph glyph-name="dcaron" unicode="&#x10f;" horiz-adv-x="2152" 
d="M1487 0h-193l-16 82q-251 -102 -494 -102q-314 0 -498 162t-184 431t184 431.5t498 162.5q235 0 478 -96v445h225v-1516zM1753 864l72 590h246l-134 -590h-184zM811 168q129 0 253.5 27t197.5 63v631q-73 36 -197.5 63t-253.5 27q-223 0 -351 -110.5t-128 -295.5
t127.5 -295t351.5 -110z" />
    <glyph glyph-name="Dcroat" unicode="&#x110;" horiz-adv-x="1923" 
d="M287 0v627h-246v184h246v623h768q223 0 391.5 -86.5t261 -249.5t92.5 -381t-92.5 -381t-261 -249.5t-391.5 -86.5h-768zM1055 1241h-539v-430h514v-184h-514v-434h539q231 0 371.5 139.5t140.5 384.5t-140.5 384.5t-371.5 139.5z" />
    <glyph glyph-name="dcroat" unicode="&#x111;" horiz-adv-x="1712" 
d="M1487 0h-193l-16 82q-251 -102 -494 -102q-314 0 -498 162t-184 431t184 431.5t498 162.5q235 0 478 -96v172h-297v164h297v109h225v-109h184v-164h-184v-1243zM811 168q129 0 253.5 27t197.5 63v631q-73 36 -197.5 63t-253.5 27q-223 0 -351 -110.5t-128 -295.5
t127.5 -295t351.5 -110z" />
    <glyph glyph-name="Emacron" unicode="&#x112;" horiz-adv-x="1597" 
d="M471 1683v185h655v-185h-655zM205 0v1434h1249v-201h-1020v-381h856v-201h-856v-450h1020v-201h-1249z" />
    <glyph glyph-name="emacron" unicode="&#x113;" horiz-adv-x="1478" 
d="M412 1397v184h655v-184h-655zM778 1167q273 0 435.5 -136.5t162.5 -368.5q0 -94 -16 -164h-1018q26 -154 160 -241t350 -87q95 0 233 15t232 38v-190q-234 -56 -451 -56q-236 1 -409.5 75.5t-264 208.5t-90.5 312q0 264 186.5 429t489.5 165zM344 662h815q0 141 -108 227
t-285 86q-172 0 -284 -83.5t-138 -229.5z" />
    <glyph glyph-name="Ebreve" unicode="&#x114;" horiz-adv-x="1597" 
d="M799 1739q92 0 135 62t35 145h184q16 -162 -77 -271.5t-277 -109.5t-277.5 109.5t-77.5 271.5h185q-8 -83 35 -145t135 -62zM205 0v1434h1249v-201h-1020v-381h856v-201h-856v-450h1020v-201h-1249z" />
    <glyph glyph-name="ebreve" unicode="&#x115;" horiz-adv-x="1478" 
d="M739 1452q92 0 135 62t35 145h185q16 -162 -77.5 -271.5t-277.5 -109.5t-277 109.5t-77 271.5h184q-8 -83 35 -145t135 -62zM778 1167q273 0 435.5 -136.5t162.5 -368.5q0 -94 -16 -164h-1018q26 -154 160 -241t350 -87q95 0 233 15t232 38v-190q-234 -56 -451 -56
q-236 1 -409.5 75.5t-264 208.5t-90.5 312q0 264 186.5 429t489.5 165zM344 662h815q0 141 -108 227t-285 86q-172 0 -284 -83.5t-138 -229.5z" />
    <glyph glyph-name="Edotaccent" unicode="&#x116;" horiz-adv-x="1597" 
d="M645 1776q0 68 41.5 102.5t114.5 34.5q70 0 110.5 -34.5t40.5 -102.5q0 -69 -40.5 -104.5t-110.5 -35.5q-73 0 -114.5 35.5t-41.5 104.5zM205 0v1434h1249v-201h-1020v-381h856v-201h-856v-450h1020v-201h-1249z" />
    <glyph glyph-name="edotaccent" unicode="&#x117;" horiz-adv-x="1478" 
d="M586 1489q0 69 41 103t114 34q70 0 111 -34.5t41 -102.5t-41 -103.5t-111 -35.5q-73 0 -114 35t-41 104zM778 1167q273 0 435.5 -136.5t162.5 -368.5q0 -94 -16 -164h-1018q26 -154 160 -241t350 -87q95 0 233 15t232 38v-190q-234 -56 -451 -56q-236 1 -409.5 75.5
t-264 208.5t-90.5 312q0 264 186.5 429t489.5 165zM344 662h815q0 141 -108 227t-285 86q-172 0 -284 -83.5t-138 -229.5z" />
    <glyph glyph-name="Eogonek" unicode="&#x118;" horiz-adv-x="1597" 
d="M205 0v1434h1249v-201h-1020v-381h856v-201h-856v-450h1020v-201h-547q-98 -112 -98 -221q0 -67 53 -101t139 -22v-148q-198 -15 -300.5 37t-102.5 168q0 168 131 287h-524z" />
    <glyph glyph-name="eogonek" unicode="&#x119;" horiz-adv-x="1478" 
d="M778 1167q273 0 435.5 -136.5t162.5 -368.5q0 -94 -16 -164h-1018q26 -154 160 -241t350 -87q95 0 233 15t232 38v-190q-230 -56 -488 -56q-79 -102 -79 -198q0 -67 53 -101t139 -22v-148q-198 -15 -300.5 37t-102.5 168q0 159 125 281q-266 44 -414 197.5t-148 381.5
q0 264 186.5 429t489.5 165zM344 662h815q0 141 -108 227t-285 86q-172 0 -284 -83.5t-138 -229.5z" />
    <glyph glyph-name="Ecaron" unicode="&#x11a;" horiz-adv-x="1597" 
d="M664 1548l-318 455h258l170 -264h49l170 264h258l-317 -455h-270zM205 0v1434h1249v-201h-1020v-381h856v-201h-856v-450h1020v-201h-1249z" />
    <glyph glyph-name="ecaron" unicode="&#x11b;" horiz-adv-x="1478" 
d="M604 1262l-317 454h258l170 -264h49l170 264h258l-318 -454h-270zM778 1167q273 0 435.5 -136.5t162.5 -368.5q0 -94 -16 -164h-1018q26 -154 160 -241t350 -87q95 0 233 15t232 38v-190q-234 -56 -451 -56q-236 1 -409.5 75.5t-264 208.5t-90.5 312q0 264 186.5 429
t489.5 165zM344 662h815q0 141 -108 227t-285 86q-172 0 -284 -83.5t-138 -229.5z" />
    <glyph glyph-name="Gcircumflex" unicode="&#x11c;" horiz-adv-x="1841" 
d="M469 1548l317 455h271l317 -455h-258l-170 264h-49l-170 -264h-258zM997 172q237 0 451 27v553h229v-703q-295 -69 -682 -69q-258 0 -455 88.5t-307 256.5t-110 392t110 392t308 256.5t458 88.5q392 0 627 -61v-201q-114 32 -290.5 51t-348.5 19q-288 0 -459.5 -145
t-171.5 -400t174.5 -400t466.5 -145z" />
    <glyph glyph-name="gcircumflex" unicode="&#x11d;" horiz-adv-x="1624" 
d="M360 1262l318 454h270l318 -454h-258l-170 264h-50l-170 -264h-258zM1214 109v96q-212 -78 -430 -78q-314 0 -498 142.5t-184 377.5t184 377.5t498 142.5q215 0 439 -80l4 60h213v-1086q0 -213 -180 -341t-478 -128q-139 0 -299.5 28t-267.5 73v186q107 -38 258 -63.5
t264 -24.5q230 3 353.5 85.5t123.5 232.5zM811 315q221 0 403 70v524q-182 70 -403 70q-223 0 -351 -90.5t-128 -241.5t128 -241.5t351 -90.5z" />
    <glyph glyph-name="Gbreve" unicode="&#x11e;" horiz-adv-x="1841" 
d="M922 1739q92 0 135 62t35 145h184q16 -162 -77 -271.5t-277 -109.5t-277.5 109.5t-77.5 271.5h185q-8 -83 35 -145t135 -62zM997 172q237 0 451 27v553h229v-703q-295 -69 -682 -69q-258 0 -455 88.5t-307 256.5t-110 392t110 392t308 256.5t458 88.5q392 0 627 -61v-201
q-114 32 -290.5 51t-348.5 19q-288 0 -459.5 -145t-171.5 -400t174.5 -400t466.5 -145z" />
    <glyph glyph-name="gbreve" unicode="&#x11f;" horiz-adv-x="1624" 
d="M813 1452q92 0 135 62t35 145h184q16 -162 -77 -271.5t-277 -109.5t-277 109.5t-77 271.5h184q-8 -83 35 -145t135 -62zM1214 109v96q-212 -78 -430 -78q-314 0 -498 142.5t-184 377.5t184 377.5t498 142.5q215 0 439 -80l4 60h213v-1086q0 -213 -180 -341t-478 -128
q-139 0 -299.5 28t-267.5 73v186q107 -38 258 -63.5t264 -24.5q230 3 353.5 85.5t123.5 232.5zM811 315q221 0 403 70v524q-182 70 -403 70q-223 0 -351 -90.5t-128 -241.5t128 -241.5t351 -90.5z" />
    <glyph glyph-name="Gdotaccent" unicode="&#x120;" horiz-adv-x="1841" 
d="M768 1776q0 68 41.5 102.5t114.5 34.5q70 0 110.5 -34.5t40.5 -102.5q0 -69 -40.5 -104.5t-110.5 -35.5q-73 0 -114.5 35.5t-41.5 104.5zM997 172q237 0 451 27v553h229v-703q-295 -69 -682 -69q-258 0 -455 88.5t-307 256.5t-110 392t110 392t308 256.5t458 88.5
q392 0 627 -61v-201q-114 32 -290.5 51t-348.5 19q-288 0 -459.5 -145t-171.5 -400t174.5 -400t466.5 -145z" />
    <glyph glyph-name="gdotaccent" unicode="&#x121;" horiz-adv-x="1624" 
d="M659 1489q0 68 41.5 102.5t114.5 34.5q70 0 111 -34.5t41 -102.5t-41 -103.5t-111 -35.5q-73 0 -114.5 35t-41.5 104zM1214 109v96q-212 -78 -430 -78q-314 0 -498 142.5t-184 377.5t184 377.5t498 142.5q215 0 439 -80l4 60h213v-1086q0 -213 -180 -341t-478 -128
q-139 0 -299.5 28t-267.5 73v186q107 -38 258 -63.5t264 -24.5q230 3 353.5 85.5t123.5 232.5zM811 315q221 0 403 70v524q-182 70 -403 70q-223 0 -351 -90.5t-128 -241.5t128 -241.5t351 -90.5z" />
    <glyph glyph-name="uni0122" unicode="&#x122;" horiz-adv-x="1841" 
d="M997 172q237 0 451 27v553h229v-703q-295 -69 -682 -69q-258 0 -455 88.5t-307 256.5t-110 392t110 392t308 256.5t458 88.5q392 0 627 -61v-201q-114 32 -290.5 51t-348.5 19q-288 0 -459.5 -145t-171.5 -400t174.5 -400t466.5 -145zM977 -467h-203l49 408h246z" />
    <glyph glyph-name="uni0123" unicode="&#x123;" horiz-adv-x="1624" 
d="M758 1698h203l-50 -408h-245zM1214 109v96q-212 -78 -430 -78q-314 0 -498 142.5t-184 377.5t184 377.5t498 142.5q215 0 439 -80l4 60h213v-1086q0 -213 -180 -341t-478 -128q-139 0 -299.5 28t-267.5 73v186q107 -38 258 -63.5t264 -24.5q230 3 353.5 85.5t123.5 232.5
zM811 315q221 0 403 70v524q-182 70 -403 70q-223 0 -351 -90.5t-128 -241.5t128 -241.5t351 -90.5z" />
    <glyph glyph-name="Hcircumflex" unicode="&#x124;" horiz-adv-x="1875" 
d="M485 1548l318 455h270l318 -455h-258l-170 264h-50l-170 -264h-258zM205 0v1434h229v-582h1008v582h229v-1434h-229v651h-1008v-651h-229z" />
    <glyph glyph-name="hcircumflex" unicode="&#x125;" 
d="M-156 1554l318 455h270l318 -455h-258l-170 265h-50l-170 -265h-258zM410 1516v-451q121 47 256.5 74.5t244.5 27.5q224 0 369 -108.5t145 -270.5v-788h-225v752q0 104 -87 165.5t-236 61.5q-97 0 -222.5 -26t-244.5 -72v-881h-226v1516h226z" />
    <glyph glyph-name="Hbar" unicode="&#x126;" horiz-adv-x="1916" 
d="M225 0v1026h-123v184h123v224h230v-224h1007v224h230v-224h123v-184h-123v-1026h-230v651h-1007v-651h-230zM455 852h1007v174h-1007v-174z" />
    <glyph glyph-name="hbar" unicode="&#x127;" horiz-adv-x="1640" 
d="M451 1516v-109h297v-164h-297v-178q121 47 256.5 74.5t244.5 27.5q224 0 369 -108.5t145 -270.5v-788h-225v752q0 104 -87 165.5t-236 61.5q-97 0 -222.5 -26t-244.5 -72v-881h-226v1243h-184v164h184v109h226z" />
    <glyph glyph-name="Itilde" unicode="&#x128;" horiz-adv-x="638" 
d="M205 0v1434h229v-1434h-229zM295 1655q-100 59 -164 59q-100 0 -199 -102v174q110 110 209 110q29 0 61.5 -9.5t53 -19.5t56 -29.5t50.5 -27.5q62 -32 125 -32q109 0 218 96v-174q-121 -105 -234 -105q-75 0 -176 60z" />
    <glyph glyph-name="itilde" unicode="&#x129;" horiz-adv-x="593" 
d="M184 0v1147h226v-1147h-226zM274 1368q-30 19 -47.5 29t-45.5 20t-54 10q-89 0 -180 -102v174q100 111 188 111q27 0 56 -9.5t47.5 -19.5t51.5 -30t46 -27q57 -33 113 -33q97 0 196 96v-174q-109 -104 -211 -104q-68 0 -160 59z" />
    <glyph glyph-name="Imacron" unicode="&#x12a;" horiz-adv-x="638" 
d="M-8 1683v185h655v-185h-655zM205 0v1434h229v-1434h-229z" />
    <glyph glyph-name="imacron" unicode="&#x12b;" horiz-adv-x="593" 
d="M-31 1397v184h656v-184h-656zM184 0v1147h226v-1147h-226z" />
    <glyph glyph-name="Iogonek" unicode="&#x12e;" horiz-adv-x="638" 
d="M98 -287q0 168 131 287h-24v1434h229v-1434h-26q-99 -114 -99 -221q0 -67 53.5 -101t139.5 -22v-148q-198 -15 -301 37.5t-103 167.5z" />
    <glyph glyph-name="iogonek" unicode="&#x12f;" horiz-adv-x="593" 
d="M143 1489q0 68 41.5 102.5t114.5 34.5q70 0 111 -34.5t41 -102.5t-41 -103.5t-111 -35.5q-73 0 -114.5 35t-41.5 104zM184 0v1147h226v-1147h-27q-98 -112 -98 -221q0 -67 53 -101t139 -22v-148q-198 -15 -300.5 37t-102.5 168q0 168 131 287h-21z" />
    <glyph glyph-name="Idotaccent" unicode="&#x130;" horiz-adv-x="638" 
d="M166 1776q0 68 41.5 102.5t114.5 34.5q70 0 110.5 -34.5t40.5 -102.5q0 -69 -40.5 -104.5t-110.5 -35.5q-73 0 -114.5 35.5t-41.5 104.5zM205 0v1434h229v-1434h-229z" />
    <glyph glyph-name="dotlessi" unicode="&#x131;" horiz-adv-x="593" 
d="M184 0v1147h226v-1147h-226z" />
    <glyph glyph-name="IJ" unicode="&#x132;" horiz-adv-x="2009" 
d="M205 0v1434h229v-1434h-229zM1595 483v951h230v-951q0 -230 -156.5 -366.5t-419.5 -136.5q-128 0 -237 14t-250 47v201q287 -70 457 -70q198 0 287 73.5t89 237.5z" />
    <glyph glyph-name="ij" unicode="&#x133;" horiz-adv-x="1509" 
d="M143 1489q0 68 41.5 102.5t114.5 34.5q70 0 111 -34.5t41 -102.5t-41 -103.5t-111 -35.5q-73 0 -114.5 35t-41.5 104zM1059 1489q0 69 41 103t114 34q70 0 111 -34.5t41 -102.5t-41 -103.5t-111 -35.5q-73 0 -114 35t-41 104zM184 0v1147h226v-1147h-226zM1100 47v1100
h225v-1147q0 -185 -129.5 -296.5t-347.5 -111.5q-199 0 -356 62v186q170 -49 319 -49q152 0 220.5 61t68.5 195z" />
    <glyph glyph-name="Jcircumflex" unicode="&#x134;" horiz-adv-x="1370" 
d="M614 1548l318 455h270l318 -455h-258l-170 264h-50l-170 -264h-258zM956 483v951h230v-951q0 -230 -156.5 -366.5t-419.5 -136.5q-128 0 -237 14t-250 47v201q287 -70 457 -70q198 0 287 73.5t89 237.5z" />
    <glyph glyph-name="jcircumflex" unicode="&#x135;" horiz-adv-x="915" 
d="M158 1262l317 454h270l318 -454h-258l-170 264h-49l-170 -264h-258zM506 47v1100h225v-1147q0 -185 -129.5 -296.5t-347.5 -111.5q-199 0 -356 62v186q170 -49 319 -49q152 0 220.5 61t68.5 195z" />
    <glyph glyph-name="uni0136" unicode="&#x136;" horiz-adv-x="1845" 
d="M205 0v1434h229v-758h21l888 758h314l-768 -648q70 -20 137.5 -62.5t121 -94t105 -110t97 -112t88.5 -97.5t88 -70.5t88 -26.5h170v-213h-223q-71 0 -136 32.5t-118 85t-105 116.5t-106 130t-111 121.5t-131 94.5t-156 47l-264 -224v-403h-229zM989 -467h-203l50 408h245
z" />
    <glyph glyph-name="uni0137" unicode="&#x137;" horiz-adv-x="1544" 
d="M184 0v1516h226v-906l698 537h297l-633 -488q59 -23 116.5 -60.5t102 -79t88 -86.5t82 -85t76 -72.5t78 -51.5t80.5 -19h129v-205h-183q-67 0 -127 24t-107.5 64t-93 88.5t-92.5 101t-95 98.5t-111 83.5t-131 54.5l-174 -133v-381h-226zM827 -467h-202l49 408h246z" />
    <glyph glyph-name="kgreenlandic" unicode="&#x138;" horiz-adv-x="1544" 
d="M184 0v1147h226v-537l698 537h297l-633 -488q59 -23 116.5 -60.5t102 -79t88 -86.5t82 -85t76 -72.5t78 -51.5t80.5 -19h129v-205h-183q-67 0 -127 24t-107.5 64t-93 88.5t-92.5 101t-95 98.5t-111 83.5t-131 54.5l-174 -133v-381h-226z" />
    <glyph glyph-name="Lacute" unicode="&#x139;" horiz-adv-x="1536" 
d="M119 1550l325 455h277l-346 -455h-256zM205 0v1434h229v-1233h979v-201h-1208z" />
    <glyph glyph-name="lacute" unicode="&#x13a;" horiz-adv-x="593" 
d="M-4 1577l326 455h276l-346 -455h-256zM184 0v1516h226v-1516h-226z" />
    <glyph glyph-name="uni013B" unicode="&#x13b;" horiz-adv-x="1536" 
d="M205 0v1434h229v-1233h979v-201h-1208zM823 -467h-202l49 408h245z" />
    <glyph glyph-name="uni013C" unicode="&#x13c;" horiz-adv-x="593" 
d="M184 0v1516h226v-1516h-226zM352 -467h-202l49 408h245z" />
    <glyph glyph-name="Lcaron" unicode="&#x13d;" horiz-adv-x="1536" 
d="M918 911l71 590h246l-133 -590h-184zM205 0v1434h229v-1233h979v-201h-1208z" />
    <glyph glyph-name="lcaron" unicode="&#x13e;" horiz-adv-x="1075" 
d="M184 0v1516h226v-1516h-226zM676 864l72 590h245l-133 -590h-184z" />
    <glyph glyph-name="Ldot" unicode="&#x13f;" horiz-adv-x="1536" 
d="M205 0v1434h229v-1233h979v-201h-1208zM877 877q0 69 41 103t114 34q70 0 111 -34.5t41 -102.5q0 -69 -41 -104.5t-111 -35.5q-72 0 -113.5 35.5t-41.5 104.5z" />
    <glyph glyph-name="ldot" unicode="&#x140;" horiz-adv-x="1228" 
d="M184 0v1516h226v-1516h-226zM758 719q0 69 41 103t114 34q70 0 111 -34.5t41 -102.5t-41 -103.5t-111 -35.5q-73 0 -114 35t-41 104z" />
    <glyph glyph-name="Lslash" unicode="&#x141;" horiz-adv-x="1597" 
d="M266 0v541l-225 -88v184l225 88v709h230v-619l503 199v-185l-503 -198v-430h979v-201h-1209z" />
    <glyph glyph-name="lslash" unicode="&#x142;" horiz-adv-x="802" 
d="M289 0v582l-248 -99v185l248 98v750h225v-662l248 98v-184l-248 -98v-670h-225z" />
    <glyph glyph-name="Nacute" unicode="&#x143;" horiz-adv-x="1773" 
d="M586 1550l325 455h277l-346 -455h-256zM205 0v1434h229l873 -1051h32v1051h230v-1434h-230l-870 1049h-35v-1049h-229z" />
    <glyph glyph-name="nacute" unicode="&#x144;" 
d="M500 1264l325 454h277l-346 -454h-256zM397 1147l6 -84q124 48 261 76t247 28q224 0 369 -108.5t145 -270.5v-788h-225v752q0 104 -87 165.5t-236 61.5q-97 0 -222.5 -26t-244.5 -72v-881h-226v1147h213z" />
    <glyph glyph-name="uni0145" unicode="&#x145;" horiz-adv-x="1773" 
d="M205 0v1434h229l873 -1051h32v1051h230v-1434h-230l-870 1049h-35v-1049h-229zM942 -467h-203l49 408h246z" />
    <glyph glyph-name="uni0146" unicode="&#x146;" 
d="M397 1147l6 -84q124 48 261 76t247 28q224 0 369 -108.5t145 -270.5v-788h-225v752q0 104 -87 165.5t-236 61.5q-97 0 -222.5 -26t-244.5 -72v-881h-226v1147h213zM856 -467h-203l49 408h246z" />
    <glyph glyph-name="Ncaron" unicode="&#x147;" horiz-adv-x="1773" 
d="M752 1548l-318 455h258l170 -264h49l170 264h258l-317 -455h-270zM205 0v1434h229l873 -1051h32v1051h230v-1434h-230l-870 1049h-35v-1049h-229z" />
    <glyph glyph-name="ncaron" unicode="&#x148;" 
d="M666 1262l-318 454h258l170 -264h49l170 264h258l-317 -454h-270zM397 1147l6 -84q124 48 261 76t247 28q224 0 369 -108.5t145 -270.5v-788h-225v752q0 104 -87 165.5t-236 61.5q-97 0 -222.5 -26t-244.5 -72v-881h-226v1147h213z" />
    <glyph glyph-name="napostrophe" unicode="&#x149;" horiz-adv-x="1767" 
d="M0 1167l72 590h245l-133 -590h-184zM565 1147l6 -84q124 48 261 76t247 28q224 0 369 -108.5t145 -270.5v-788h-225v752q0 104 -87.5 165.5t-236.5 61.5q-97 0 -222 -26t-244 -72v-881h-226v1147h213z" />
    <glyph glyph-name="Omacron" unicode="&#x14c;" horiz-adv-x="1923" 
d="M635 1683v185h655v-185h-655zM123 717q0 219 104.5 386.5t295.5 259t440 91.5q187 0 343 -53.5t264.5 -149t169 -233t60.5 -301.5t-60.5 -301.5t-169 -233t-264.5 -149t-343 -53.5q-249 0 -440 91.5t-295.5 259t-104.5 386.5zM356 717q0 -247 168.5 -397t438.5 -150
t437 149.5t167 397.5q0 247 -167 396t-437 149q-271 0 -439 -149t-168 -396z" />
    <glyph glyph-name="omacron" unicode="&#x14d;" horiz-adv-x="1595" 
d="M471 1397v184h655v-184h-655zM102 573q0 267 192 430.5t505 163.5t503.5 -163.5t190.5 -430.5t-190.5 -430t-503.5 -163q-314 0 -505.5 163t-191.5 430zM336 573q0 -183 128 -293t335 -110t334 110t127 293q0 182 -127 292t-334 110t-335 -110t-128 -292z" />
    <glyph glyph-name="Obreve" unicode="&#x14e;" horiz-adv-x="1923" 
d="M963 1739q92 0 135 62t35 145h184q16 -162 -77 -271.5t-277 -109.5t-277.5 109.5t-77.5 271.5h185q-8 -83 35 -145t135 -62zM123 717q0 219 104.5 386.5t295.5 259t440 91.5q187 0 343 -53.5t264.5 -149t169 -233t60.5 -301.5t-60.5 -301.5t-169 -233t-264.5 -149
t-343 -53.5q-249 0 -440 91.5t-295.5 259t-104.5 386.5zM356 717q0 -247 168.5 -397t438.5 -150t437 149.5t167 397.5q0 247 -167 396t-437 149q-271 0 -439 -149t-168 -396z" />
    <glyph glyph-name="obreve" unicode="&#x14f;" horiz-adv-x="1595" 
d="M799 1452q92 0 135 62t35 145h184q16 -162 -77 -271.5t-277 -109.5t-277.5 109.5t-77.5 271.5h185q-8 -83 35 -145t135 -62zM102 573q0 267 192 430.5t505 163.5t503.5 -163.5t190.5 -430.5t-190.5 -430t-503.5 -163q-314 0 -505.5 163t-191.5 430zM336 573
q0 -183 128 -293t335 -110t334 110t127 293q0 182 -127 292t-334 110t-335 -110t-128 -292z" />
    <glyph glyph-name="Ohungarumlaut" unicode="&#x150;" horiz-adv-x="1923" 
d="M512 1548l219 455h258l-244 -455h-233zM934 1548l219 455h258l-244 -455h-233zM123 717q0 219 104.5 386.5t295.5 259t440 91.5q187 0 343 -53.5t264.5 -149t169 -233t60.5 -301.5t-60.5 -301.5t-169 -233t-264.5 -149t-343 -53.5q-249 0 -440 91.5t-295.5 259
t-104.5 386.5zM356 717q0 -247 168.5 -397t438.5 -150t437 149.5t167 397.5q0 247 -167 396t-437 149q-271 0 -439 -149t-168 -396z" />
    <glyph glyph-name="ohungarumlaut" unicode="&#x151;" horiz-adv-x="1595" 
d="M348 1262l219 454h258l-243 -454h-234zM770 1262l219 454h258l-243 -454h-234zM102 573q0 267 192 430.5t505 163.5t503.5 -163.5t190.5 -430.5t-190.5 -430t-503.5 -163q-314 0 -505.5 163t-191.5 430zM336 573q0 -183 128 -293t335 -110t334 110t127 293
q0 182 -127 292t-334 110t-335 -110t-128 -292z" />
    <glyph glyph-name="OE" unicode="&#x152;" horiz-adv-x="2527" 
d="M123 717q0 219 104.5 386.5t295.5 259t440 91.5q146 0 372 -20h1049v-201h-897v-381h733v-201h-733v-450h897v-201h-1049q-226 -20 -372 -20q-249 0 -440 91.5t-295.5 259t-104.5 386.5zM1257 195v1044q-141 23 -294 23q-271 0 -439 -149t-168 -396q0 -248 169 -400
t438 -147q159 3 294 25z" />
    <glyph glyph-name="oe" unicode="&#x153;" horiz-adv-x="2635" 
d="M102 573q0 267 192 430.5t505 163.5q191 0 339 -62t238 -177q89 114 233 176.5t326 62.5q273 0 435.5 -136.5t162.5 -368.5q0 -94 -16 -164h-1018q26 -154 160 -241t350 -87q95 0 233 15t232 38v-190q-234 -56 -451 -56q-220 1 -384 65t-261 181q-90 -117 -238.5 -180
t-340.5 -63q-314 0 -505.5 163t-191.5 430zM1501 662h815q0 141 -108 227t-285 86q-172 0 -284 -83.5t-138 -229.5zM336 573q0 -183 128 -293t335 -110t334 110t127 293q0 182 -127 292t-334 110t-335 -110t-128 -292z" />
    <glyph glyph-name="Racute" unicode="&#x154;" horiz-adv-x="1824" 
d="M612 1550l326 455h276l-346 -455h-256zM205 0v1434h805q594 0 594 -447q0 -197 -103.5 -309.5t-298.5 -112.5q41 -39 86 -94t77.5 -98t68.5 -83.5t76 -62.5t83 -22h170v-205h-223q-70 0 -129 27.5t-102.5 73t-84.5 100.5t-83.5 112t-88.5 106t-111 85.5t-142 46.5h-365
v-551h-229zM1004 1241h-570v-508h570q194 0 280 61.5t86 192.5t-86 192.5t-280 61.5z" />
    <glyph glyph-name="racute" unicode="&#x155;" horiz-adv-x="1183" 
d="M291 1264l325 454h277l-346 -454h-256zM184 1147h213l11 -180q103 93 235.5 146.5t267.5 53.5q121 0 191 -18v-197q-67 15 -144 15q-160 -2 -310 -60t-238 -157v-750h-226v1147z" />
    <glyph glyph-name="uni0156" unicode="&#x156;" horiz-adv-x="1824" 
d="M205 0v1434h805q594 0 594 -447q0 -197 -103.5 -309.5t-298.5 -112.5q41 -39 86 -94t77.5 -98t68.5 -83.5t76 -62.5t83 -22h170v-205h-223q-70 0 -129 27.5t-102.5 73t-84.5 100.5t-83.5 112t-88.5 106t-111 85.5t-142 46.5h-365v-551h-229zM1004 1241h-570v-508h570
q194 0 280 61.5t86 192.5t-86 192.5t-280 61.5zM969 -467h-203l49 408h246z" />
    <glyph glyph-name="uni0157" unicode="&#x157;" horiz-adv-x="1183" 
d="M184 1147h213l11 -180q103 93 235.5 146.5t267.5 53.5q121 0 191 -18v-197q-67 15 -144 15q-160 -2 -310 -60t-238 -157v-750h-226v1147zM352 -467h-202l49 408h245z" />
    <glyph glyph-name="Rcaron" unicode="&#x158;" horiz-adv-x="1824" 
d="M778 1548l-317 455h258l170 -264h49l170 264h258l-317 -455h-271zM205 0v1434h805q594 0 594 -447q0 -197 -103.5 -309.5t-298.5 -112.5q41 -39 86 -94t77.5 -98t68.5 -83.5t76 -62.5t83 -22h170v-205h-223q-70 0 -129 27.5t-102.5 73t-84.5 100.5t-83.5 112t-88.5 106
t-111 85.5t-142 46.5h-365v-551h-229zM1004 1241h-570v-508h570q194 0 280 61.5t86 192.5t-86 192.5t-280 61.5z" />
    <glyph glyph-name="rcaron" unicode="&#x159;" horiz-adv-x="1183" 
d="M457 1262l-318 454h258l170 -264h49l170 264h258l-317 -454h-270zM184 1147h213l11 -180q103 93 235.5 146.5t267.5 53.5q121 0 191 -18v-197q-67 15 -144 15q-160 -2 -310 -60t-238 -157v-750h-226v1147z" />
    <glyph glyph-name="Sacute" unicode="&#x15a;" horiz-adv-x="1591" 
d="M496 1550l325 455h277l-346 -455h-256zM1239 420q0 45 -14.5 79t-45.5 55.5t-65 35t-88 20t-99 8.5t-112 3q-221 3 -300 12q-238 28 -327 156q-65 92 -65 241q0 99 36 174t96 121.5t149.5 75.5t184.5 40.5t214 12.5q298 3 592 -57v-201q-156 33 -333 53t-312 17
q-398 -11 -398 -242q0 -42 13.5 -74t33 -53.5t57.5 -36.5t72 -23t91.5 -12t100.5 -5t114 -1h13q62 0 94.5 -0.5t93 -4t95.5 -10.5t87 -21t83 -34t67 -51t55 -71t32.5 -95t13.5 -122q0 -437 -729 -428q-264 2 -616 63v205q4 -1 141.5 -24t261 -37t240.5 -15q473 -3 473 246z
" />
    <glyph glyph-name="sacute" unicode="&#x15b;" horiz-adv-x="1460" 
d="M430 1264l326 454h276l-346 -454h-256zM1108 324q0 59 -35 91.5t-117.5 49t-238.5 22.5q-194 6 -262 16q-237 33 -304 175q-28 61 -28 143q0 174 145 258.5t447 87.5q252 3 549 -57v-201q-359 76 -611 68q-155 -6 -228 -43t-73 -107q0 -58 39.5 -89t136.5 -47t289 -23
q184 -6 272 -28q248 -63 248 -298q0 -366 -641 -360q-260 2 -573 63v205q15 -2 96 -17.5t145.5 -26.5t169 -21t199.5 -11q189 -2 282 34.5t93 115.5z" />
    <glyph glyph-name="Scircumflex" unicode="&#x15c;" horiz-adv-x="1591" 
d="M344 1548l318 455h270l317 -455h-258l-170 264h-49l-170 -264h-258zM1239 420q0 45 -14.5 79t-45.5 55.5t-65 35t-88 20t-99 8.5t-112 3q-221 3 -300 12q-238 28 -327 156q-65 92 -65 241q0 99 36 174t96 121.5t149.5 75.5t184.5 40.5t214 12.5q298 3 592 -57v-201
q-156 33 -333 53t-312 17q-398 -11 -398 -242q0 -42 13.5 -74t33 -53.5t57.5 -36.5t72 -23t91.5 -12t100.5 -5t114 -1h13q62 0 94.5 -0.5t93 -4t95.5 -10.5t87 -21t83 -34t67 -51t55 -71t32.5 -95t13.5 -122q0 -437 -729 -428q-264 2 -616 63v205q4 -1 141.5 -24t261 -37
t240.5 -15q473 -3 473 246z" />
    <glyph glyph-name="scircumflex" unicode="&#x15d;" horiz-adv-x="1460" 
d="M279 1262l317 454h270l318 -454h-258l-170 264h-49l-170 -264h-258zM1108 324q0 59 -35 91.5t-117.5 49t-238.5 22.5q-194 6 -262 16q-237 33 -304 175q-28 61 -28 143q0 174 145 258.5t447 87.5q252 3 549 -57v-201q-359 76 -611 68q-155 -6 -228 -43t-73 -107
q0 -58 39.5 -89t136.5 -47t289 -23q184 -6 272 -28q248 -63 248 -298q0 -366 -641 -360q-260 2 -573 63v205q15 -2 96 -17.5t145.5 -26.5t169 -21t199.5 -11q189 -2 282 34.5t93 115.5z" />
    <glyph glyph-name="Scedilla" unicode="&#x15e;" horiz-adv-x="1591" 
d="M1239 420q0 45 -14.5 79t-45.5 55.5t-65 35t-88 20t-99 8.5t-112 3q-221 3 -300 12q-238 28 -327 156q-65 92 -65 241q0 99 36 174t96 121.5t149.5 75.5t184.5 40.5t214 12.5q298 3 592 -57v-201q-156 33 -333 53t-312 17q-398 -11 -398 -242q0 -42 13.5 -74t33 -53.5
t57.5 -36.5t72 -23t91.5 -12t100.5 -5t114 -1h13q62 0 94.5 -0.5t93 -4t95.5 -10.5t87 -21t83 -34t67 -51t55 -71t32.5 -95t13.5 -122q0 -387 -573 -424l-33 -58q62 -29 98.5 -83t36.5 -117q0 -117 -104 -176t-299 -44v148q86 -12 139 22t53 101q0 39 -38.5 81.5t-96.5 67.5
l33 56q-248 7 -561 61v205q4 -1 141.5 -24t261 -37t240.5 -15q473 -3 473 246z" />
    <glyph glyph-name="scedilla" unicode="&#x15f;" horiz-adv-x="1460" 
d="M1108 324q0 59 -35 91.5t-117.5 49t-238.5 22.5q-194 6 -262 16q-237 33 -304 175q-28 61 -28 143q0 174 145 258.5t447 87.5q252 3 549 -57v-201q-359 76 -611 68q-155 -6 -228 -43t-73 -107q0 -58 39.5 -89t136.5 -47t289 -23q184 -6 272 -28q248 -63 248 -298
q0 -326 -508 -356l-32 -58q62 -29 98.5 -83t36.5 -117q0 -117 -104.5 -176t-299.5 -44v148q86 -12 139.5 22t53.5 101q0 39 -38.5 81.5t-96.5 67.5l32 56q-238 10 -495 61v205q15 -2 96 -17.5t145.5 -26.5t169 -21t199.5 -11q189 -2 282 34.5t93 115.5z" />
    <glyph glyph-name="Scaron" unicode="&#x160;" horiz-adv-x="1591" 
d="M662 1548l-318 455h258l170 -264h49l170 264h258l-317 -455h-270zM1239 420q0 45 -14.5 79t-45.5 55.5t-65 35t-88 20t-99 8.5t-112 3q-221 3 -300 12q-238 28 -327 156q-65 92 -65 241q0 99 36 174t96 121.5t149.5 75.5t184.5 40.5t214 12.5q298 3 592 -57v-201
q-156 33 -333 53t-312 17q-398 -11 -398 -242q0 -42 13.5 -74t33 -53.5t57.5 -36.5t72 -23t91.5 -12t100.5 -5t114 -1h13q62 0 94.5 -0.5t93 -4t95.5 -10.5t87 -21t83 -34t67 -51t55 -71t32.5 -95t13.5 -122q0 -437 -729 -428q-264 2 -616 63v205q4 -1 141.5 -24t261 -37
t240.5 -15q473 -3 473 246z" />
    <glyph glyph-name="scaron" unicode="&#x161;" horiz-adv-x="1460" 
d="M596 1262l-317 454h258l170 -264h49l170 264h258l-318 -454h-270zM1108 324q0 59 -35 91.5t-117.5 49t-238.5 22.5q-194 6 -262 16q-237 33 -304 175q-28 61 -28 143q0 174 145 258.5t447 87.5q252 3 549 -57v-201q-359 76 -611 68q-155 -6 -228 -43t-73 -107
q0 -58 39.5 -89t136.5 -47t289 -23q184 -6 272 -28q248 -63 248 -298q0 -366 -641 -360q-260 2 -573 63v205q15 -2 96 -17.5t145.5 -26.5t169 -21t199.5 -11q189 -2 282 34.5t93 115.5z" />
    <glyph glyph-name="uni0162" unicode="&#x162;" horiz-adv-x="1705" 
d="M737 0v1233h-696v201h1624v-201h-698v-1233h-11l-41 -72q62 -29 99 -83t37 -117q0 -117 -104.5 -176t-299.5 -44v148q86 -12 139.5 22t53.5 101q0 39 -38.5 81.5t-96.5 67.5l43 72h-11z" />
    <glyph glyph-name="uni0163" unicode="&#x163;" horiz-adv-x="1320" 
d="M344 1434l225 61v-348h629v-164h-629v-549q0 -134 80 -195t258 -61q190 0 332 49v-186q-122 -56 -340 -61l-29 -52q62 -29 99 -83t37 -117q0 -117 -104.5 -176t-299.5 -44v148q86 -12 139.5 22t53.5 101q0 39 -39 81.5t-97 67.5l41 70q-167 35 -261.5 138t-94.5 251v596
h-303v164h303v287z" />
    <glyph glyph-name="Tcaron" unicode="&#x164;" horiz-adv-x="1705" 
d="M719 1548l-318 455h258l170 -264h50l170 264h258l-318 -455h-270zM737 0v1233h-696v201h1624v-201h-698v-1233h-230z" />
    <glyph glyph-name="tcaron" unicode="&#x165;" horiz-adv-x="1341" 
d="M852 1350l72 589h245l-133 -589h-184zM344 1434l225 61v-348h629v-164h-629v-549q0 -134 80 -195t258 -61q190 0 332 49v-186q-135 -61 -367 -61q-241 0 -384.5 111t-143.5 296v596h-303v164h303v287z" />
    <glyph glyph-name="Tbar" unicode="&#x166;" horiz-adv-x="1705" 
d="M737 0v520h-348v185h348v528h-696v201h1624v-201h-698v-528h352v-185h-352v-520h-230z" />
    <glyph glyph-name="tbar" unicode="&#x167;" horiz-adv-x="1320" 
d="M344 1434l225 61v-348h629v-164h-629v-258h578v-184h-578v-107q0 -134 80 -195t258 -61q190 0 332 49v-186q-135 -61 -367 -61q-241 0 -384.5 111t-143.5 296v154h-303v184h303v258h-303v164h303v287z" />
    <glyph glyph-name="Utilde" unicode="&#x168;" horiz-adv-x="1804" 
d="M903 170q220 0 355 110t135 316v840h227v-840q0 -193 -90 -333t-251 -211.5t-376 -71.5q-216 0 -377.5 71.5t-251.5 211.5t-90 333v840h230v-840q0 -206 133.5 -316t355.5 -110zM887 1655q-100 59 -164 59q-100 0 -199 -102v174q110 110 209 110q29 0 61.5 -9.5t53 -19.5
t56 -29.5t50.5 -27.5q62 -32 125 -32q108 0 217 96v-174q-121 -105 -233 -105q-75 0 -176 60z" />
    <glyph glyph-name="utilde" unicode="&#x169;" 
d="M1202 0l-6 84q-124 -48 -261 -76t-247 -28q-224 0 -369 108t-145 270v789h225v-752q0 -104 87.5 -165.5t236.5 -61.5q97 0 222.5 26t244.5 72v881h225v-1147h-213zM776 1368q-100 59 -164 59q-99 0 -198 -102v174q111 111 209 111q29 0 61.5 -9.5t53 -19.5t56 -29.5
t50.5 -27.5q64 -33 125 -33q108 0 217 96v-174q-120 -104 -234 -104q-76 0 -176 59z" />
    <glyph glyph-name="Umacron" unicode="&#x16a;" horiz-adv-x="1804" 
d="M575 1683v185h656v-185h-656zM903 170q220 0 355 110t135 316v840h227v-840q0 -193 -90 -333t-251 -211.5t-376 -71.5q-216 0 -377.5 71.5t-251.5 211.5t-90 333v840h230v-840q0 -206 133.5 -316t355.5 -110z" />
    <glyph glyph-name="umacron" unicode="&#x16b;" 
d="M473 1397v184h655v-184h-655zM1202 0l-6 84q-124 -48 -261 -76t-247 -28q-224 0 -369 108t-145 270v789h225v-752q0 -104 87.5 -165.5t236.5 -61.5q97 0 222.5 26t244.5 72v881h225v-1147h-213z" />
    <glyph glyph-name="Ubreve" unicode="&#x16c;" horiz-adv-x="1804" 
d="M903 1739q92 0 135 62t35 145h184q16 -162 -77 -271.5t-277 -109.5t-277 109.5t-77 271.5h184q-8 -83 35 -145t135 -62zM903 170q220 0 355 110t135 316v840h227v-840q0 -193 -90 -333t-251 -211.5t-376 -71.5q-216 0 -377.5 71.5t-251.5 211.5t-90 333v840h230v-840
q0 -206 133.5 -316t355.5 -110z" />
    <glyph glyph-name="ubreve" unicode="&#x16d;" 
d="M801 1452q92 0 135 62t35 145h184q16 -162 -77 -271.5t-277 -109.5t-277.5 109.5t-77.5 271.5h185q-8 -83 35 -145t135 -62zM1202 0l-6 84q-124 -48 -261 -76t-247 -28q-224 0 -369 108t-145 270v789h225v-752q0 -104 87.5 -165.5t236.5 -61.5q97 0 222.5 26t244.5 72
v881h225v-1147h-213z" />
    <glyph glyph-name="Uring" unicode="&#x16e;" horiz-adv-x="1804" 
d="M590 1802q0 135 85.5 217t227.5 82q141 0 226 -82t85 -217t-85 -217t-226 -82q-142 0 -227.5 82t-85.5 217zM774 1802q0 -55 35 -90t94 -35q58 0 92.5 35t34.5 90t-34.5 90t-92.5 35q-59 0 -94 -35t-35 -90zM903 170q220 0 355 110t135 316v840h227v-840q0 -193 -90 -333
t-251 -211.5t-376 -71.5q-216 0 -377.5 71.5t-251.5 211.5t-90 333v840h230v-840q0 -206 133.5 -316t355.5 -110z" />
    <glyph glyph-name="uring" unicode="&#x16f;" 
d="M487 1516q0 135 86 217t228 82q141 0 226 -82t85 -217t-85 -217t-226 -82q-142 0 -228 82t-86 217zM672 1516q0 -55 35 -90t94 -35q58 0 92.5 35t34.5 90t-34.5 89.5t-92.5 34.5q-59 0 -94 -34.5t-35 -89.5zM1202 0l-6 84q-124 -48 -261 -76t-247 -28q-224 0 -369 108
t-145 270v789h225v-752q0 -104 87.5 -165.5t236.5 -61.5q97 0 222.5 26t244.5 72v881h225v-1147h-213z" />
    <glyph glyph-name="Uhungarumlaut" unicode="&#x170;" horiz-adv-x="1804" 
d="M453 1548l219 455h258l-244 -455h-233zM874 1548l220 455h258l-244 -455h-234zM903 170q220 0 355 110t135 316v840h227v-840q0 -193 -90 -333t-251 -211.5t-376 -71.5q-216 0 -377.5 71.5t-251.5 211.5t-90 333v840h230v-840q0 -206 133.5 -316t355.5 -110z" />
    <glyph glyph-name="uhungarumlaut" unicode="&#x171;" 
d="M350 1262l219 454h258l-243 -454h-234zM772 1262l219 454h258l-243 -454h-234zM1202 0l-6 84q-124 -48 -261 -76t-247 -28q-224 0 -369 108t-145 270v789h225v-752q0 -104 87.5 -165.5t236.5 -61.5q97 0 222.5 26t244.5 72v881h225v-1147h-213z" />
    <glyph glyph-name="Uogonek" unicode="&#x172;" horiz-adv-x="1804" 
d="M903 170q220 0 355 110t135 316v840h227v-840q0 -269 -168 -428.5t-457 -183.5q-84 -105 -84 -205q0 -67 53.5 -101t139.5 -22v-148q-198 -15 -301 37.5t-103 167.5q0 153 115 271q-292 22 -461.5 182t-169.5 430v840h230v-840q0 -206 133.5 -316t355.5 -110z" />
    <glyph glyph-name="uogonek" unicode="&#x173;" 
d="M1202 0l-6 84q-124 -48 -261 -76t-247 -28q-224 0 -369 108t-145 270v789h225v-752q0 -104 87.5 -165.5t236.5 -61.5q97 0 222.5 26t244.5 72v881h225v-1147h-24q-99 -114 -99 -221q0 -67 53.5 -101t139.5 -22v-148q-198 -15 -301 37.5t-103 167.5q0 168 131 287h-10z
" />
    <glyph glyph-name="Wcircumflex" unicode="&#x174;" horiz-adv-x="2504" 
d="M801 1548l317 455h271l317 -455h-258l-170 264h-49l-170 -264h-258zM553 0l-492 1434h230l387 -1149h37l385 1149h305l385 -1149h37l387 1149h229l-491 -1434h-291l-389 1163h-39l-389 -1163h-291z" />
    <glyph glyph-name="wcircumflex" unicode="&#x175;" horiz-adv-x="2125" 
d="M610 1262l318 454h270l318 -454h-259l-170 264h-49l-170 -264h-258zM477 0l-457 1147h236l334 -866h35l333 866h209l334 -866h35l334 866h235l-456 -1147h-246l-322 836h-37l-321 -836h-246z" />
    <glyph glyph-name="Ycircumflex" unicode="&#x176;" horiz-adv-x="1740" 
d="M418 1548l317 455h271l317 -455h-258l-170 264h-49l-170 -264h-258zM760 0v543l-699 891h271l512 -674h53l510 674h272l-690 -881v-553h-229z" />
    <glyph glyph-name="ycircumflex" unicode="&#x177;" horiz-adv-x="1511" 
d="M303 1262l318 454h270l317 -454h-258l-170 264h-49l-170 -264h-258zM680 -408h-221l250 490h-121l-568 1065h236l451 -862h106l442 862h236z" />
    <glyph glyph-name="Ydieresis" unicode="&#x178;" horiz-adv-x="1740" 
d="M512 1776q0 68 41.5 102.5t114.5 34.5q70 0 110.5 -34.5t40.5 -102.5q0 -69 -40.5 -104.5t-110.5 -35.5q-73 0 -114.5 35.5t-41.5 104.5zM922 1776q0 69 41 103t114 34q70 0 111 -34.5t41 -102.5q0 -69 -41 -104.5t-111 -35.5q-72 0 -113.5 35.5t-41.5 104.5zM760 0v543
l-699 891h271l512 -674h53l510 674h272l-690 -881v-553h-229z" />
    <glyph glyph-name="Zacute" unicode="&#x179;" horiz-adv-x="1521" 
d="M461 1550l325 455h277l-346 -455h-256zM1440 1233l-1045 -1010v-22h1045v-201h-1358v201l1048 1011v21h-1048v201h1358v-201z" />
    <glyph glyph-name="zacute" unicode="&#x17a;" horiz-adv-x="1361" 
d="M381 1264l326 454h276l-346 -454h-256zM371 164h909v-164h-1198v164l909 819h-909v164h1198v-164z" />
    <glyph glyph-name="Zdotaccent" unicode="&#x17b;" horiz-adv-x="1521" 
d="M608 1776q0 68 41.5 102.5t114.5 34.5q70 0 110.5 -34.5t40.5 -102.5q0 -69 -40.5 -104.5t-110.5 -35.5q-73 0 -114.5 35.5t-41.5 104.5zM1440 1233l-1045 -1010v-22h1045v-201h-1358v201l1048 1011v21h-1048v201h1358v-201z" />
    <glyph glyph-name="zdotaccent" unicode="&#x17c;" horiz-adv-x="1361" 
d="M528 1489q0 68 41.5 102.5t114.5 34.5q70 0 111 -34.5t41 -102.5t-41 -103.5t-111 -35.5q-73 0 -114.5 35t-41.5 104zM371 164h909v-164h-1198v164l909 819h-909v164h1198v-164z" />
    <glyph glyph-name="Zcaron" unicode="&#x17d;" horiz-adv-x="1521" 
d="M627 1548l-318 455h258l170 -264h49l170 264h258l-317 -455h-270zM1440 1233l-1045 -1010v-22h1045v-201h-1358v201l1048 1011v21h-1048v201h1358v-201z" />
    <glyph glyph-name="zcaron" unicode="&#x17e;" horiz-adv-x="1361" 
d="M547 1262l-318 454h258l170 -264h50l170 264h258l-318 -454h-270zM371 164h909v-164h-1198v164l909 819h-909v164h1198v-164z" />
    <glyph glyph-name="longs" unicode="&#x17f;" horiz-adv-x="1017" 
d="M184 0v1231q0 185 136.5 296t363.5 111q219 0 354 -61v-186q-142 49 -315 49q-164 0 -238.5 -61t-74.5 -195v-1184h-226z" />
    <glyph glyph-name="florin" unicode="&#x192;" horiz-adv-x="1652" 
d="M858 983l-135 -963q-25 -184 -163.5 -295.5t-342.5 -111.5q-59 0 -135 8l27 197q64 -6 98 -6q136 0 207.5 61t91.5 195l127 915h-303l24 164h303l11 84q26 185 178 296t379 111q222 0 346 -61l-27 -186q-133 49 -307 49q-164 0 -247.5 -61t-102.5 -195l-4 -37h587
l-24 -164h-588z" />
    <glyph glyph-name="Ohorn" unicode="&#x1a0;" horiz-adv-x="1923" 
d="M123 717q0 219 104.5 386.5t295.5 259t440 91.5q127 0 256 -29q68 2 117.5 16t77.5 34.5t44 51t20.5 58.5t4.5 64h207q0 -107 -50 -201t-145 -139q146 -98 225.5 -250t79.5 -342q0 -164 -60.5 -301.5t-169 -233t-264.5 -149t-343 -53.5q-249 0 -440 91.5t-295.5 259
t-104.5 386.5zM356 717q0 -247 168.5 -397t438.5 -150t437 149.5t167 397.5q0 247 -167 396t-437 149q-271 0 -439 -149t-168 -396z" />
    <glyph glyph-name="ohorn" unicode="&#x1a1;" horiz-adv-x="1595" 
d="M102 573q0 267 192 430.5t505 163.5q95 0 200 -20h25q205 5 205 213h207q0 -99 -43.5 -188.5t-126.5 -139.5q109 -79 168 -197t59 -262q0 -267 -190.5 -430t-503.5 -163q-314 0 -505.5 163t-191.5 430zM336 573q0 -183 128 -293t335 -110t334 110t127 293q0 182 -127 292
t-334 110t-335 -110t-128 -292z" />
    <glyph glyph-name="Uhorn" unicode="&#x1af;" horiz-adv-x="1804" 
d="M903 170q220 0 355 110t135 316v840h28q205 5 205 213h207q0 -112 -55 -210.5t-158 -140.5v-702q0 -193 -90 -333t-251 -211.5t-376 -71.5q-216 0 -377.5 71.5t-251.5 211.5t-90 333v840h230v-840q0 -206 133.5 -316t355.5 -110z" />
    <glyph glyph-name="uhorn" unicode="&#x1b0;" 
d="M1202 0l-6 84q-124 -48 -261 -76t-247 -28q-224 0 -369 108t-145 270v789h225v-752q0 -104 87.5 -165.5t236.5 -61.5q97 0 222.5 26t244.5 72v881h41q192 10 192 213h207q0 -73 -23 -140.5t-72.5 -124.5t-119.5 -85v-1010h-213z" />
    <glyph glyph-name="uni0218" unicode="&#x218;" horiz-adv-x="1591" 
d="M1239 420q0 45 -14.5 79t-45.5 55.5t-65 35t-88 20t-99 8.5t-112 3q-221 3 -300 12q-238 28 -327 156q-65 92 -65 241q0 99 36 174t96 121.5t149.5 75.5t184.5 40.5t214 12.5q298 3 592 -57v-201q-156 33 -333 53t-312 17q-398 -11 -398 -242q0 -42 13.5 -74t33 -53.5
t57.5 -36.5t72 -23t91.5 -12t100.5 -5t114 -1h13q62 0 94.5 -0.5t93 -4t95.5 -10.5t87 -21t83 -34t67 -51t55 -71t32.5 -95t13.5 -122q0 -437 -729 -428q-264 2 -616 63v205q4 -1 141.5 -24t261 -37t240.5 -15q473 -3 473 246zM852 -467h-203l49 408h246z" />
    <glyph glyph-name="uni0219" unicode="&#x219;" horiz-adv-x="1460" 
d="M1108 324q0 59 -35 91.5t-117.5 49t-238.5 22.5q-194 6 -262 16q-237 33 -304 175q-28 61 -28 143q0 174 145 258.5t447 87.5q252 3 549 -57v-201q-359 76 -611 68q-155 -6 -228 -43t-73 -107q0 -58 39.5 -89t136.5 -47t289 -23q184 -6 272 -28q248 -63 248 -298
q0 -366 -641 -360q-260 2 -573 63v205q15 -2 96 -17.5t145.5 -26.5t169 -21t199.5 -11q189 -2 282 34.5t93 115.5zM786 -467h-202l49 408h246z" />
    <glyph glyph-name="uni021A" unicode="&#x21a;" horiz-adv-x="1705" 
d="M737 0v1233h-696v201h1624v-201h-698v-1233h-230zM909 -467h-202l49 408h245z" />
    <glyph glyph-name="uni021B" unicode="&#x21b;" horiz-adv-x="1320" 
d="M344 1434l225 61v-348h629v-164h-629v-549q0 -134 80 -195t258 -61q190 0 332 49v-186q-135 -61 -367 -61q-241 0 -384.5 111t-143.5 296v596h-303v164h303v287zM717 -467h-203l49 408h246z" />
    <glyph glyph-name="uni0237" unicode="&#x237;" horiz-adv-x="915" 
d="M506 47v1100h225v-1147q0 -185 -129.5 -296.5t-347.5 -111.5q-199 0 -356 62v186q170 -49 319 -49q152 0 220.5 61t68.5 195z" />
    <glyph glyph-name="circumflex" unicode="&#x2c6;" horiz-adv-x="1150" 
d="M123 1262l317 454h271l317 -454h-258l-170 264h-49l-170 -264h-258z" />
    <glyph glyph-name="caron" unicode="&#x2c7;" horiz-adv-x="1150" 
d="M440 1262l-317 454h258l170 -264h49l170 264h258l-317 -454h-271z" />
    <glyph glyph-name="breve" unicode="&#x2d8;" horiz-adv-x="962" 
d="M481 1452q92 0 135 62t35 145h185q16 -162 -77.5 -271.5t-277.5 -109.5t-277 109.5t-77 271.5h184q-8 -83 35 -145t135 -62z" />
    <glyph glyph-name="dotaccent" unicode="&#x2d9;" horiz-adv-x="552" 
d="M123 1489q0 68 41.5 102.5t114.5 34.5q70 0 110.5 -34.5t40.5 -102.5q0 -69 -40.5 -104t-110.5 -35q-73 0 -114.5 35t-41.5 104z" />
    <glyph glyph-name="ring" unicode="&#x2da;" horiz-adv-x="870" 
d="M123 1516q0 135 85.5 217t227.5 82q141 0 226.5 -82t85.5 -217t-85.5 -217t-226.5 -82q-142 0 -227.5 82t-85.5 217zM307 1516q0 -55 35 -90t94 -35q58 0 92.5 35t34.5 90t-34.5 89.5t-92.5 34.5q-59 0 -94 -34.5t-35 -89.5z" />
    <glyph glyph-name="ogonek" unicode="&#x2db;" horiz-adv-x="649" 
d="M123 -287q0 182 158 310h172q-56 -56 -87.5 -121t-31.5 -123q0 -67 53 -101t139 -22v-148q-198 -15 -300.5 37t-102.5 168z" />
    <glyph glyph-name="tilde" unicode="&#x2dc;" horiz-adv-x="944" 
d="M451 1391q-29 19 -47.5 29t-46.5 20t-54 10q-89 0 -180 -102v194q100 111 188 111q27 0 56 -9.5t47.5 -19.5t51.5 -30t46 -27q57 -33 113 -33q97 0 196 96v-194q-110 -105 -211 -105q-66 0 -159 60z" />
    <glyph glyph-name="hungarumlaut" unicode="&#x2dd;" horiz-adv-x="1144" 
d="M123 1262l219 454h258l-244 -454h-233zM545 1262l219 454h258l-244 -454h-233z" />
    <glyph glyph-name="uni0326" unicode="&#x326;" horiz-adv-x="532" 
d="M332 -467h-203l49 408h246z" />
    <glyph glyph-name="uni0394" unicode="&#x394;" horiz-adv-x="1892" 
d="M123 184l635 1250h377l632 -1250v-184h-1644v184zM365 184h1163l-531 1045h-102z" />
    <glyph glyph-name="uni03A9" unicode="&#x3a9;" horiz-adv-x="2011" 
d="M1006 1454q381 0 578.5 -186.5t197.5 -544.5q0 -169 -86 -319.5t-221 -219.5h372v-184h-661v184q170 92 266 236.5t96 308.5q0 269 -133.5 401t-408.5 132t-409 -132t-134 -401q0 -164 96 -308.5t266 -236.5v-184h-661v184h373q-135 69 -221.5 220t-86.5 319
q0 358 198 544.5t579 186.5z" />
    <glyph glyph-name="uni03BC" unicode="&#x3bc;" horiz-adv-x="1609" 
d="M1212 0l-6 84q-124 -48 -261 -76t-247 -28q-167 0 -288 59v-465h-226v1573h226v-752q0 -104 87 -165.5t236 -61.5q97 0 222.5 26t244.5 72v881h225v-1147h-213z" />
    <glyph glyph-name="pi" unicode="&#x3c0;" horiz-adv-x="1789" 
d="M1196 0v963h-602v-963h-225v963h-205v184h1462v-184h-205v-963h-225z" />
    <glyph glyph-name="Wgrave" unicode="&#x1e80;" horiz-adv-x="2504" 
d="M1554 1550h-256l-346 455h277zM553 0l-492 1434h230l387 -1149h37l385 1149h305l385 -1149h37l387 1149h229l-491 -1434h-291l-389 1163h-39l-389 -1163h-291z" />
    <glyph glyph-name="wgrave" unicode="&#x1e81;" horiz-adv-x="2125" 
d="M1364 1264h-256l-346 454h276zM477 0l-457 1147h236l334 -866h35l333 866h209l334 -866h35l334 866h235l-456 -1147h-246l-322 836h-37l-321 -836h-246z" />
    <glyph glyph-name="Wacute" unicode="&#x1e82;" horiz-adv-x="2504" 
d="M952 1550l326 455h276l-346 -455h-256zM553 0l-492 1434h230l387 -1149h37l385 1149h305l385 -1149h37l387 1149h229l-491 -1434h-291l-389 1163h-39l-389 -1163h-291z" />
    <glyph glyph-name="wacute" unicode="&#x1e83;" horiz-adv-x="2125" 
d="M762 1264l325 454h277l-346 -454h-256zM477 0l-457 1147h236l334 -866h35l333 866h209l334 -866h35l334 866h235l-456 -1147h-246l-322 836h-37l-321 -836h-246z" />
    <glyph glyph-name="Wdieresis" unicode="&#x1e84;" horiz-adv-x="2504" 
d="M895 1776q0 68 41.5 102.5t114.5 34.5q70 0 110.5 -34.5t40.5 -102.5q0 -69 -40.5 -104.5t-110.5 -35.5q-73 0 -114.5 35.5t-41.5 104.5zM1305 1776q0 69 41 103t114 34q70 0 111 -34.5t41 -102.5q0 -69 -41 -104.5t-111 -35.5q-72 0 -113.5 35.5t-41.5 104.5zM553 0
l-492 1434h230l387 -1149h37l385 1149h305l385 -1149h37l387 1149h229l-491 -1434h-291l-389 1163h-39l-389 -1163h-291z" />
    <glyph glyph-name="wdieresis" unicode="&#x1e85;" horiz-adv-x="2125" 
d="M705 1489q0 69 41 103t114 34q70 0 111 -34.5t41 -102.5t-41 -103.5t-111 -35.5q-73 0 -114 35t-41 104zM1114 1489q0 68 41.5 102.5t114.5 34.5q70 0 110.5 -34.5t40.5 -102.5q0 -69 -40.5 -104t-110.5 -35q-73 0 -114.5 35t-41.5 104zM477 0l-457 1147h236l334 -866h35
l333 866h209l334 -866h35l334 866h235l-456 -1147h-246l-322 836h-37l-321 -836h-246z" />
    <glyph glyph-name="uni1EA0" unicode="&#x1ea0;" horiz-adv-x="1830" 
d="M760 -348q0 69 41 103t114 34q70 0 111 -34.5t41 -102.5t-41 -103.5t-111 -35.5q-73 0 -114 35t-41 104zM61 0l635 1434h439l634 -1434h-245l-148 342h-921l-148 -342h-246zM532 526h766l-301 703h-163z" />
    <glyph glyph-name="uni1EA1" unicode="&#x1ea1;" horiz-adv-x="1507" 
d="M573 -348q0 68 41.5 102.5t114.5 34.5q70 0 111 -34.5t41 -102.5t-41 -103.5t-111 -35.5q-73 0 -114.5 35t-41.5 104zM102 348q0 173 147 261.5t437 88.5q273 0 432 -24v61q0 129 -80.5 184.5t-265.5 55.5q-306 0 -547 -53v190q255 55 523 55q313 0 454 -100.5
t141 -323.5v-743h-213l-12 168q-164 -191 -508 -191q-246 0 -377 96t-131 275zM1118 401v121q-121 2 -450 2q-336 0 -336 -184q0 -174 327 -174q97 0 191 25.5t170 80.5t98 129z" />
    <glyph glyph-name="uni1EA2" unicode="&#x1ea2;" horiz-adv-x="1830" 
d="M989 1575h-153q0 45 15.5 78.5t39 51t51 33.5t51 27.5t39 31.5t15.5 48q0 33 -31 53t-90 23q-98 3 -228 -31v133q146 33 248 31q130 -1 202.5 -51.5t72.5 -130.5q0 -53 -17 -92.5t-43 -59.5t-56 -37.5t-56 -29t-43 -31.5t-17 -47zM61 0l635 1434h439l634 -1434h-245
l-148 342h-921l-148 -342h-246zM532 526h766l-301 703h-163z" />
    <glyph glyph-name="uni1EA3" unicode="&#x1ea3;" horiz-adv-x="1507" 
d="M846 1288h-154q0 45 15.5 78.5t39 51t51 33.5t51 27.5t39 32t15.5 48.5q0 33 -31 52.5t-90 22.5q-100 3 -227 -30v133q142 32 248 30q130 -1 202 -51.5t72 -130.5q0 -53 -17 -92.5t-43 -59.5t-55.5 -37.5t-55.5 -29t-43 -31.5t-17 -47zM102 348q0 173 147 261.5t437 88.5
q273 0 432 -24v61q0 129 -80.5 184.5t-265.5 55.5q-306 0 -547 -53v190q255 55 523 55q313 0 454 -100.5t141 -323.5v-743h-213l-12 168q-164 -191 -508 -191q-246 0 -377 96t-131 275zM1118 401v121q-121 2 -450 2q-336 0 -336 -184q0 -174 327 -174q97 0 191 25.5
t170 80.5t98 129z" />
    <glyph glyph-name="uni1EA4" unicode="&#x1ea4;" horiz-adv-x="1830" 
d="M1483 1759h-189l213 359h234zM61 0l635 1434h439l634 -1434h-245l-148 342h-921l-148 -342h-246zM532 526h766l-301 703h-163zM526 1554l258 359h260l261 -359h-193l-166 218h-63l-166 -218h-191z" />
    <glyph glyph-name="uni1EA5" unicode="&#x1ea5;" horiz-adv-x="1507" 
d="M1325 1473h-188l213 358h233zM102 348q0 173 147 261.5t437 88.5q273 0 432 -24v61q0 129 -80.5 184.5t-265.5 55.5q-306 0 -547 -53v190q255 55 523 55q313 0 454 -100.5t141 -323.5v-743h-213l-12 168q-164 -191 -508 -191q-246 0 -377 96t-131 275zM1118 401v121
q-121 2 -450 2q-336 0 -336 -184q0 -174 327 -174q97 0 191 25.5t170 80.5t98 129zM369 1268l258 358h260l260 -358h-193l-166 217h-63l-166 -217h-190z" />
    <glyph glyph-name="uni1EA6" unicode="&#x1ea6;" horiz-adv-x="1830" 
d="M1556 1759h-188l-258 359h233zM61 0l635 1434h439l634 -1434h-245l-148 342h-921l-148 -342h-246zM532 526h766l-301 703h-163zM526 1554l258 359h260l261 -359h-193l-166 218h-63l-166 -218h-191z" />
    <glyph glyph-name="uni1EA7" unicode="&#x1ea7;" horiz-adv-x="1507" 
d="M1399 1473h-189l-258 358h234zM102 348q0 173 147 261.5t437 88.5q273 0 432 -24v61q0 129 -80.5 184.5t-265.5 55.5q-306 0 -547 -53v190q255 55 523 55q313 0 454 -100.5t141 -323.5v-743h-213l-12 168q-164 -191 -508 -191q-246 0 -377 96t-131 275zM1118 401v121
q-121 2 -450 2q-336 0 -336 -184q0 -174 327 -174q97 0 191 25.5t170 80.5t98 129zM369 1268l258 358h260l260 -358h-193l-166 217h-63l-166 -217h-190z" />
    <glyph glyph-name="uni1EA8" unicode="&#x1ea8;" horiz-adv-x="1830" 
d="M1462 1759h-153q0 45 15.5 78.5t39 51t51 33.5t51 27.5t39 32t15.5 48.5q0 33 -31 52.5t-90 22.5q-101 3 -228 -30v133q142 32 248 30q130 -1 202.5 -51.5t72.5 -130.5q0 -53 -17 -92.5t-43 -59.5t-56 -37.5t-56 -29t-43 -31.5t-17 -47zM61 0l635 1434h439l634 -1434
h-245l-148 342h-921l-148 -342h-246zM532 526h766l-301 703h-163zM526 1554l258 359h260l261 -359h-193l-166 218h-63l-166 -218h-191z" />
    <glyph glyph-name="uni1EA9" unicode="&#x1ea9;" horiz-adv-x="1507" 
d="M1305 1473h-154q0 45 15.5 78.5t39 51t51 33.5t51 27.5t39 31.5t15.5 48q0 33 -31 53t-90 23q-97 2 -227 -31v133q146 33 248 31q130 -1 202 -52t72 -131q0 -53 -17 -92.5t-43 -59.5t-55.5 -37t-55.5 -28.5t-43 -31.5t-17 -47zM102 348q0 173 147 261.5t437 88.5
q273 0 432 -24v61q0 129 -80.5 184.5t-265.5 55.5q-306 0 -547 -53v190q255 55 523 55q313 0 454 -100.5t141 -323.5v-743h-213l-12 168q-164 -191 -508 -191q-246 0 -377 96t-131 275zM1118 401v121q-121 2 -450 2q-336 0 -336 -184q0 -174 327 -174q97 0 191 25.5
t170 80.5t98 129zM369 1268l258 358h260l260 -358h-193l-166 217h-63l-166 -217h-190z" />
    <glyph glyph-name="uni1EAA" unicode="&#x1eaa;" horiz-adv-x="1830" 
d="M893 2091q-100 59 -164 59q-100 0 -199 -102v174q111 111 209 111q29 0 61.5 -9.5t53 -19.5t56.5 -29.5t51 -27.5q64 -33 124 -33q109 0 218 96v-174q-120 -104 -234 -104q-76 0 -176 59zM61 0l635 1434h439l634 -1434h-245l-148 342h-921l-148 -342h-246zM532 526h766
l-301 703h-163zM526 1554l258 359h260l261 -359h-193l-166 218h-63l-166 -218h-191z" />
    <glyph glyph-name="uni1EAB" unicode="&#x1eab;" horiz-adv-x="1507" 
d="M735 1804q-101 60 -164 60q-98 0 -198 -103v174q111 111 209 111q29 0 61.5 -9.5t53 -19.5t56 -29.5t50.5 -27.5q64 -33 125 -33q108 0 217 96v-174q-120 -104 -234 -104q-76 0 -176 59zM102 348q0 173 147 261.5t437 88.5q273 0 432 -24v61q0 129 -80.5 184.5
t-265.5 55.5q-306 0 -547 -53v190q255 55 523 55q313 0 454 -100.5t141 -323.5v-743h-213l-12 168q-164 -191 -508 -191q-246 0 -377 96t-131 275zM1118 401v121q-121 2 -450 2q-336 0 -336 -184q0 -174 327 -174q97 0 191 25.5t170 80.5t98 129zM369 1268l258 358h260
l260 -358h-193l-166 217h-63l-166 -217h-190z" />
    <glyph glyph-name="uni1EAC" unicode="&#x1eac;" horiz-adv-x="1830" 
d="M760 -348q0 69 41 103t114 34q70 0 111 -34.5t41 -102.5t-41 -103.5t-111 -35.5q-73 0 -114 35t-41 104zM61 0l635 1434h439l634 -1434h-245l-148 342h-921l-148 -342h-246zM532 526h766l-301 703h-163zM526 1554l258 359h260l261 -359h-193l-166 218h-63l-166 -218h-191
z" />
    <glyph glyph-name="uni1EAD" unicode="&#x1ead;" horiz-adv-x="1507" 
d="M573 -348q0 68 41.5 102.5t114.5 34.5q70 0 111 -34.5t41 -102.5t-41 -103.5t-111 -35.5q-73 0 -114.5 35t-41.5 104zM102 348q0 173 147 261.5t437 88.5q273 0 432 -24v61q0 129 -80.5 184.5t-265.5 55.5q-306 0 -547 -53v190q255 55 523 55q313 0 454 -100.5
t141 -323.5v-743h-213l-12 168q-164 -191 -508 -191q-246 0 -377 96t-131 275zM1118 401v121q-121 2 -450 2q-336 0 -336 -184q0 -174 327 -174q97 0 191 25.5t170 80.5t98 129zM369 1268l258 358h260l260 -358h-193l-166 217h-63l-166 -217h-190z" />
    <glyph glyph-name="uni1EAE" unicode="&#x1eae;" horiz-adv-x="1830" 
d="M991 1948h-188l213 358h233zM61 0l635 1434h439l634 -1434h-245l-148 342h-921l-148 -342h-246zM532 526h766l-301 703h-163zM913 1714q116 0 159.5 51t35.5 142h174q18 -147 -81.5 -250t-287.5 -103q-124 0 -212 49.5t-126 129t-28 174.5h176q-21 -193 190 -193z" />
    <glyph glyph-name="uni1EAF" unicode="&#x1eaf;" horiz-adv-x="1507" 
d="M834 1681h-189l213 359h234zM102 348q0 173 147 261.5t437 88.5q273 0 432 -24v61q0 129 -80.5 184.5t-265.5 55.5q-306 0 -547 -53v190q255 55 523 55q313 0 454 -100.5t141 -323.5v-743h-213l-12 168q-164 -191 -508 -191q-246 0 -377 96t-131 275zM1118 401v121
q-121 2 -450 2q-336 0 -336 -184q0 -174 327 -174q97 0 191 25.5t170 80.5t98 129zM756 1448q116 0 159 50.5t35 141.5h174q18 -147 -81 -249.5t-287 -102.5q-185 0 -284 102.5t-83 249.5h176q-21 -192 191 -192z" />
    <glyph glyph-name="uni1EB0" unicode="&#x1eb0;" horiz-adv-x="1830" 
d="M1016 1948h-189l-258 358h234zM61 0l635 1434h439l634 -1434h-245l-148 342h-921l-148 -342h-246zM532 526h766l-301 703h-163zM913 1714q116 0 159.5 51t35.5 142h174q18 -147 -81.5 -250t-287.5 -103q-124 0 -212 49.5t-126 129t-28 174.5h176q-21 -193 190 -193z" />
    <glyph glyph-name="uni1EB1" unicode="&#x1eb1;" horiz-adv-x="1507" 
d="M858 1681h-188l-258 359h233zM102 348q0 173 147 261.5t437 88.5q273 0 432 -24v61q0 129 -80.5 184.5t-265.5 55.5q-306 0 -547 -53v190q255 55 523 55q313 0 454 -100.5t141 -323.5v-743h-213l-12 168q-164 -191 -508 -191q-246 0 -377 96t-131 275zM1118 401v121
q-121 2 -450 2q-336 0 -336 -184q0 -174 327 -174q97 0 191 25.5t170 80.5t98 129zM756 1448q116 0 159 50.5t35 141.5h174q18 -147 -81 -249.5t-287 -102.5q-185 0 -284 102.5t-83 249.5h176q-21 -192 191 -192z" />
    <glyph glyph-name="uni1EB2" unicode="&#x1eb2;" horiz-adv-x="1830" 
d="M989 1937h-153q0 45 15.5 78.5t39 51t51 33.5t51 27.5t39 32t15.5 48.5q0 33 -31 53t-90 23q-98 3 -228 -31v133q146 33 248 31q130 -1 202.5 -52t72.5 -131q0 -53 -17 -92.5t-43 -59.5t-56 -37.5t-56 -29t-43 -31.5t-17 -47zM61 0l635 1434h439l634 -1434h-245l-148 342
h-921l-148 -342h-246zM532 526h766l-301 703h-163zM913 1714q116 0 159.5 51t35.5 142h174q18 -147 -81.5 -250t-287.5 -103q-124 0 -212 49.5t-126 129t-28 174.5h176q-21 -193 190 -193z" />
    <glyph glyph-name="uni1EB3" unicode="&#x1eb3;" horiz-adv-x="1507" 
d="M831 1671h-153q0 45 15.5 78.5t39 51t51 33.5t51 27.5t39 32t15.5 48.5q0 33 -31 52.5t-90 22.5q-100 3 -227 -30v133q142 32 247 30q130 -1 202.5 -51.5t72.5 -130.5q0 -53 -17 -92.5t-43 -59.5t-56 -37.5t-56 -29t-43 -31.5t-17 -47zM102 348q0 173 147 261.5t437 88.5
q273 0 432 -24v61q0 129 -80.5 184.5t-265.5 55.5q-306 0 -547 -53v190q255 55 523 55q313 0 454 -100.5t141 -323.5v-743h-213l-12 168q-164 -191 -508 -191q-246 0 -377 96t-131 275zM1118 401v121q-121 2 -450 2q-336 0 -336 -184q0 -174 327 -174q97 0 191 25.5
t170 80.5t98 129zM756 1448q116 0 159 50.5t35 141.5h174q18 -147 -81 -249.5t-287 -102.5q-185 0 -284 102.5t-83 249.5h176q-21 -192 191 -192z" />
    <glyph glyph-name="uni1EB4" unicode="&#x1eb4;" horiz-adv-x="1830" 
d="M891 2071q-100 59 -164 59q-100 0 -199 -102v174q110 110 209 110q29 0 61.5 -9.5t53 -19.5t56 -29.5t50.5 -27.5q64 -33 125 -33q107 0 217 97v-174q-121 -105 -233 -105q-75 0 -176 60zM61 0l635 1434h439l634 -1434h-245l-148 342h-921l-148 -342h-246zM532 526h766
l-301 703h-163zM913 1714q116 0 159.5 51t35.5 142h174q18 -147 -81.5 -250t-287.5 -103q-124 0 -212 49.5t-126 129t-28 174.5h176q-21 -193 190 -193z" />
    <glyph glyph-name="uni1EB5" unicode="&#x1eb5;" horiz-adv-x="1507" 
d="M733 1804q-101 60 -164 60q-98 0 -198 -103v174q111 111 209 111q29 0 61.5 -9.5t53 -19.5t56 -29.5t50.5 -27.5q64 -33 125 -33q108 0 217 96v-174q-120 -104 -234 -104q-76 0 -176 59zM102 348q0 173 147 261.5t437 88.5q273 0 432 -24v61q0 129 -80.5 184.5
t-265.5 55.5q-306 0 -547 -53v190q255 55 523 55q313 0 454 -100.5t141 -323.5v-743h-213l-12 168q-164 -191 -508 -191q-246 0 -377 96t-131 275zM1118 401v121q-121 2 -450 2q-336 0 -336 -184q0 -174 327 -174q97 0 191 25.5t170 80.5t98 129zM756 1448q116 0 159 50.5
t35 141.5h174q18 -147 -81 -249.5t-287 -102.5q-185 0 -284 102.5t-83 249.5h176q-21 -192 191 -192z" />
    <glyph glyph-name="uni1EB6" unicode="&#x1eb6;" horiz-adv-x="1830" 
d="M760 -348q0 69 41 103t114 34q70 0 111 -34.5t41 -102.5t-41 -103.5t-111 -35.5q-73 0 -114 35t-41 104zM61 0l635 1434h439l634 -1434h-245l-148 342h-921l-148 -342h-246zM532 526h766l-301 703h-163zM913 1714q116 0 159.5 51t35.5 142h174q18 -147 -81.5 -250
t-287.5 -103q-124 0 -212 49.5t-126 129t-28 174.5h176q-21 -193 190 -193z" />
    <glyph glyph-name="uni1EB7" unicode="&#x1eb7;" horiz-adv-x="1507" 
d="M573 -348q0 68 41.5 102.5t114.5 34.5q70 0 111 -34.5t41 -102.5t-41 -103.5t-111 -35.5q-73 0 -114.5 35t-41.5 104zM102 348q0 173 147 261.5t437 88.5q273 0 432 -24v61q0 129 -80.5 184.5t-265.5 55.5q-306 0 -547 -53v190q255 55 523 55q313 0 454 -100.5
t141 -323.5v-743h-213l-12 168q-164 -191 -508 -191q-246 0 -377 96t-131 275zM1118 401v121q-121 2 -450 2q-336 0 -336 -184q0 -174 327 -174q97 0 191 25.5t170 80.5t98 129zM756 1448q116 0 159 50.5t35 141.5h174q18 -147 -81 -249.5t-287 -102.5q-185 0 -284 102.5
t-83 249.5h176q-21 -192 191 -192z" />
    <glyph glyph-name="uni1EB8" unicode="&#x1eb8;" horiz-adv-x="1597" 
d="M678 -348q0 68 41.5 102.5t114.5 34.5q70 0 110.5 -34.5t40.5 -102.5q0 -69 -40.5 -104t-110.5 -35q-73 0 -114.5 35t-41.5 104zM205 0v1434h1249v-201h-1020v-381h856v-201h-856v-450h1020v-201h-1249z" />
    <glyph glyph-name="uni1EB9" unicode="&#x1eb9;" horiz-adv-x="1478" 
d="M674 -348q0 69 41 103t114 34q70 0 111 -34.5t41 -102.5t-41 -103.5t-111 -35.5q-73 0 -114 35t-41 104zM778 1167q273 0 435.5 -136.5t162.5 -368.5q0 -94 -16 -164h-1018q26 -154 160 -241t350 -87q95 0 233 15t232 38v-190q-234 -56 -451 -56q-236 1 -409.5 75.5
t-264 208.5t-90.5 312q0 264 186.5 429t489.5 165zM344 662h815q0 141 -108 227t-285 86q-172 0 -284 -83.5t-138 -229.5z" />
    <glyph glyph-name="uni1EBA" unicode="&#x1eba;" horiz-adv-x="1597" 
d="M913 1575h-153q0 45 15.5 78.5t39 51t51 33.5t51 27.5t39 31.5t15.5 48q0 33 -31 53t-90 23q-97 2 -227 -31v133q146 33 247 31q130 -1 202.5 -51.5t72.5 -130.5q0 -53 -17 -92.5t-43 -59.5t-56 -37.5t-56 -29t-43 -31.5t-17 -47zM205 0v1434h1249v-201h-1020v-381h856
v-201h-856v-450h1020v-201h-1249z" />
    <glyph glyph-name="uni1EBB" unicode="&#x1ebb;" horiz-adv-x="1478" 
d="M887 1288h-154q0 45 15.5 78.5t39 51t51 33.5t51 27.5t39 32t15.5 48.5q0 33 -31 52.5t-90 22.5q-100 3 -227 -30v133q142 32 248 30q130 -1 202 -51.5t72 -130.5q0 -53 -17 -92.5t-43 -59.5t-55.5 -37.5t-55.5 -29t-43 -31.5t-17 -47zM778 1167q273 0 435.5 -136.5
t162.5 -368.5q0 -94 -16 -164h-1018q26 -154 160 -241t350 -87q95 0 233 15t232 38v-190q-234 -56 -451 -56q-236 1 -409.5 75.5t-264 208.5t-90.5 312q0 264 186.5 429t489.5 165zM344 662h815q0 141 -108 227t-285 86q-172 0 -284 -83.5t-138 -229.5z" />
    <glyph glyph-name="uni1EBC" unicode="&#x1ebc;" horiz-adv-x="1597" 
d="M782 1655q-100 59 -164 59q-99 0 -198 -102v174q110 110 209 110q29 0 61.5 -9.5t53 -19.5t56 -29.5t50.5 -27.5q62 -32 125 -32q108 0 217 96v-174q-121 -105 -234 -105q-75 0 -176 60zM205 0v1434h1249v-201h-1020v-381h856v-201h-856v-450h1020v-201h-1249z" />
    <glyph glyph-name="uni1EBD" unicode="&#x1ebd;" horiz-adv-x="1478" 
d="M735 1368q-100 59 -164 59q-99 0 -198 -102v174q111 111 209 111q29 0 61.5 -9.5t53 -19.5t56 -29.5t50.5 -27.5q64 -33 125 -33q108 0 217 96v-174q-120 -104 -234 -104q-76 0 -176 59zM778 1167q273 0 435.5 -136.5t162.5 -368.5q0 -94 -16 -164h-1018
q26 -154 160 -241t350 -87q95 0 233 15t232 38v-190q-234 -56 -451 -56q-236 1 -409.5 75.5t-264 208.5t-90.5 312q0 264 186.5 429t489.5 165zM344 662h815q0 141 -108 227t-285 86q-172 0 -284 -83.5t-138 -229.5z" />
    <glyph glyph-name="uni1EBE" unicode="&#x1ebe;" horiz-adv-x="1597" 
d="M1372 1759h-188l213 359h233zM205 0v1434h1249v-201h-1020v-381h856v-201h-856v-450h1020v-201h-1249zM416 1554l258 359h260l260 -359h-193l-165 218h-64l-166 -218h-190z" />
    <glyph glyph-name="uni1EBF" unicode="&#x1ebf;" horiz-adv-x="1478" 
d="M1325 1473h-188l213 358h233zM778 1167q273 0 435.5 -136.5t162.5 -368.5q0 -94 -16 -164h-1018q26 -154 160 -241t350 -87q95 0 233 15t232 38v-190q-234 -56 -451 -56q-236 1 -409.5 75.5t-264 208.5t-90.5 312q0 264 186.5 429t489.5 165zM344 662h815q0 141 -108 227
t-285 86q-172 0 -284 -83.5t-138 -229.5zM369 1268l258 358h260l260 -358h-193l-166 217h-63l-166 -217h-190z" />
    <glyph glyph-name="uni1EC0" unicode="&#x1ec0;" horiz-adv-x="1597" 
d="M1446 1759h-189l-258 359h234zM205 0v1434h1249v-201h-1020v-381h856v-201h-856v-450h1020v-201h-1249zM416 1554l258 359h260l260 -359h-193l-165 218h-64l-166 -218h-190z" />
    <glyph glyph-name="uni1EC1" unicode="&#x1ec1;" horiz-adv-x="1478" 
d="M1399 1473h-189l-258 358h234zM778 1167q273 0 435.5 -136.5t162.5 -368.5q0 -94 -16 -164h-1018q26 -154 160 -241t350 -87q95 0 233 15t232 38v-190q-234 -56 -451 -56q-236 1 -409.5 75.5t-264 208.5t-90.5 312q0 264 186.5 429t489.5 165zM344 662h815
q0 141 -108 227t-285 86q-172 0 -284 -83.5t-138 -229.5zM369 1268l258 358h260l260 -358h-193l-166 217h-63l-166 -217h-190z" />
    <glyph glyph-name="uni1EC2" unicode="&#x1ec2;" horiz-adv-x="1597" 
d="M1352 1759h-154q0 45 15.5 78.5t39 51t51 33.5t51 27.5t39 32t15.5 48.5q0 33 -31 52.5t-90 22.5q-100 3 -227 -30v133q142 32 248 30q130 -1 202 -51.5t72 -130.5q0 -53 -17 -92.5t-43 -59.5t-55.5 -37.5t-55.5 -29t-43 -31.5t-17 -47zM205 0v1434h1249v-201h-1020v-381
h856v-201h-856v-450h1020v-201h-1249zM416 1554l258 359h260l260 -359h-193l-165 218h-64l-166 -218h-190z" />
    <glyph glyph-name="uni1EC3" unicode="&#x1ec3;" horiz-adv-x="1478" 
d="M1305 1473h-154q0 45 15.5 78.5t39 51t51 33.5t51 27.5t39 31.5t15.5 48q0 33 -31 53t-90 23q-97 2 -227 -31v133q146 33 248 31q130 -1 202 -52t72 -131q0 -53 -17 -92.5t-43 -59.5t-55.5 -37t-55.5 -28.5t-43 -31.5t-17 -47zM778 1167q273 0 435.5 -136.5t162.5 -368.5
q0 -94 -16 -164h-1018q26 -154 160 -241t350 -87q95 0 233 15t232 38v-190q-234 -56 -451 -56q-236 1 -409.5 75.5t-264 208.5t-90.5 312q0 264 186.5 429t489.5 165zM344 662h815q0 141 -108 227t-285 86q-172 0 -284 -83.5t-138 -229.5zM369 1268l258 358h260l260 -358
h-193l-166 217h-63l-166 -217h-190z" />
    <glyph glyph-name="uni1EC4" unicode="&#x1ec4;" horiz-adv-x="1597" 
d="M782 2091q-100 59 -164 59q-99 0 -198 -102v174q111 111 209 111q29 0 61.5 -9.5t53 -19.5t56 -29.5t50.5 -27.5q64 -33 125 -33q108 0 217 96v-174q-120 -104 -234 -104q-76 0 -176 59zM205 0v1434h1249v-201h-1020v-381h856v-201h-856v-450h1020v-201h-1249zM416 1554
l258 359h260l260 -359h-193l-165 218h-64l-166 -218h-190z" />
    <glyph glyph-name="uni1EC5" unicode="&#x1ec5;" horiz-adv-x="1478" 
d="M735 1804q-101 60 -164 60q-98 0 -198 -103v174q111 111 209 111q29 0 61.5 -9.5t53 -19.5t56 -29.5t50.5 -27.5q64 -33 125 -33q108 0 217 96v-174q-120 -104 -234 -104q-76 0 -176 59zM778 1167q273 0 435.5 -136.5t162.5 -368.5q0 -94 -16 -164h-1018
q26 -154 160 -241t350 -87q95 0 233 15t232 38v-190q-234 -56 -451 -56q-236 1 -409.5 75.5t-264 208.5t-90.5 312q0 264 186.5 429t489.5 165zM344 662h815q0 141 -108 227t-285 86q-172 0 -284 -83.5t-138 -229.5zM369 1268l258 358h260l260 -358h-193l-166 217h-63
l-166 -217h-190z" />
    <glyph glyph-name="uni1EC6" unicode="&#x1ec6;" horiz-adv-x="1597" 
d="M678 -348q0 68 41.5 102.5t114.5 34.5q70 0 110.5 -34.5t40.5 -102.5q0 -69 -40.5 -104t-110.5 -35q-73 0 -114.5 35t-41.5 104zM205 0v1434h1249v-201h-1020v-381h856v-201h-856v-450h1020v-201h-1249zM416 1554l258 359h260l260 -359h-193l-165 218h-64l-166 -218h-190
z" />
    <glyph glyph-name="uni1EC7" unicode="&#x1ec7;" horiz-adv-x="1478" 
d="M674 -348q0 69 41 103t114 34q70 0 111 -34.5t41 -102.5t-41 -103.5t-111 -35.5q-73 0 -114 35t-41 104zM778 1167q273 0 435.5 -136.5t162.5 -368.5q0 -94 -16 -164h-1018q26 -154 160 -241t350 -87q95 0 233 15t232 38v-190q-234 -56 -451 -56q-236 1 -409.5 75.5
t-264 208.5t-90.5 312q0 264 186.5 429t489.5 165zM344 662h815q0 141 -108 227t-285 86q-172 0 -284 -83.5t-138 -229.5zM369 1268l258 358h260l260 -358h-193l-166 217h-63l-166 -217h-190z" />
    <glyph glyph-name="uni1EC8" unicode="&#x1ec8;" horiz-adv-x="638" 
d="M393 1575h-153q0 45 15.5 78.5t39 51t51 33.5t51 27.5t39 31.5t15.5 48q0 33 -31 53t-90 23q-98 3 -228 -31v133q146 33 248 31q130 -1 202.5 -51.5t72.5 -130.5q0 -53 -17 -92.5t-43 -59.5t-56 -37.5t-56 -29t-43 -31.5t-17 -47zM205 0v1434h229v-1434h-229z" />
    <glyph glyph-name="uni1EC9" unicode="&#x1ec9;" horiz-adv-x="593" 
d="M371 1288h-154q0 45 15.5 78.5t39 51t51 33.5t51 27.5t39 32t15.5 48.5q0 33 -31 52.5t-90 22.5q-100 3 -227 -30v133q142 32 248 30q130 -1 202 -51.5t72 -130.5q0 -53 -17 -92.5t-43 -59.5t-55.5 -37.5t-55.5 -29t-43 -31.5t-17 -47zM184 0v1147h226v-1147h-226z" />
    <glyph glyph-name="uni1ECA" unicode="&#x1eca;" horiz-adv-x="638" 
d="M164 -348q0 69 41 103t114 34q70 0 111 -34.5t41 -102.5t-41 -103.5t-111 -35.5q-73 0 -114 35t-41 104zM205 0v1434h229v-1434h-229z" />
    <glyph glyph-name="uni1ECB" unicode="&#x1ecb;" horiz-adv-x="593" 
d="M141 -348q0 68 41.5 102.5t114.5 34.5q70 0 111 -34.5t41 -102.5t-41 -103.5t-111 -35.5q-73 0 -114.5 35t-41.5 104zM184 0v1147h226v-1147h-226zM143 1516q0 68 41.5 102.5t114.5 34.5q70 0 111 -34.5t41 -102.5q0 -69 -41 -104.5t-111 -35.5q-73 0 -114.5 35.5
t-41.5 104.5z" />
    <glyph glyph-name="uni1ECC" unicode="&#x1ecc;" horiz-adv-x="1923" 
d="M805 -348q0 68 41.5 102.5t114.5 34.5q70 0 110.5 -34.5t40.5 -102.5q0 -69 -40.5 -104t-110.5 -35q-73 0 -114.5 35t-41.5 104zM123 717q0 219 104.5 386.5t295.5 259t440 91.5q187 0 343 -53.5t264.5 -149t169 -233t60.5 -301.5t-60.5 -301.5t-169 -233t-264.5 -149
t-343 -53.5q-249 0 -440 91.5t-295.5 259t-104.5 386.5zM356 717q0 -247 168.5 -397t438.5 -150t437 149.5t167 397.5q0 247 -167 396t-437 149q-271 0 -439 -149t-168 -396z" />
    <glyph glyph-name="uni1ECD" unicode="&#x1ecd;" horiz-adv-x="1595" 
d="M641 -348q0 68 41.5 102.5t114.5 34.5q70 0 110.5 -34.5t40.5 -102.5q0 -69 -40.5 -104t-110.5 -35q-73 0 -114.5 35t-41.5 104zM102 573q0 267 192 430.5t505 163.5t503.5 -163.5t190.5 -430.5t-190.5 -430t-503.5 -163q-314 0 -505.5 163t-191.5 430zM336 573
q0 -183 128 -293t335 -110t334 110t127 293q0 182 -127 292t-334 110t-335 -110t-128 -292z" />
    <glyph glyph-name="uni1ECE" unicode="&#x1ece;" horiz-adv-x="1923" 
d="M1036 1575h-153q0 45 15.5 78.5t39 51t51 33.5t51 27.5t39 31.5t15.5 48q0 33 -31 53t-90 23q-98 3 -228 -31v133q146 33 248 31q130 -1 202.5 -51.5t72.5 -130.5q0 -53 -17 -92.5t-43 -59.5t-56 -37.5t-56 -29t-43 -31.5t-17 -47zM123 717q0 219 104.5 386.5t295.5 259
t440 91.5q187 0 343 -53.5t264.5 -149t169 -233t60.5 -301.5t-60.5 -301.5t-169 -233t-264.5 -149t-343 -53.5q-249 0 -440 91.5t-295.5 259t-104.5 386.5zM356 717q0 -247 168.5 -397t438.5 -150t437 149.5t167 397.5q0 247 -167 396t-437 149q-271 0 -439 -149t-168 -396z
" />
    <glyph glyph-name="uni1ECF" unicode="&#x1ecf;" horiz-adv-x="1595" 
d="M872 1288h-153q0 45 15.5 78.5t39 51t51 33.5t51 27.5t39 32t15.5 48.5q0 33 -31 52.5t-90 22.5q-100 3 -227 -30v133q142 32 247 30q130 -1 202.5 -51.5t72.5 -130.5q0 -53 -17 -92.5t-43 -59.5t-56 -37.5t-56 -29t-43 -31.5t-17 -47zM102 573q0 267 192 430.5
t505 163.5t503.5 -163.5t190.5 -430.5t-190.5 -430t-503.5 -163q-314 0 -505.5 163t-191.5 430zM336 573q0 -183 128 -293t335 -110t334 110t127 293q0 182 -127 292t-334 110t-335 -110t-128 -292z" />
    <glyph glyph-name="uni1ED0" unicode="&#x1ed0;" horiz-adv-x="1923" 
d="M1530 1759h-189l213 359h234zM123 717q0 219 104.5 386.5t295.5 259t440 91.5q187 0 343 -53.5t264.5 -149t169 -233t60.5 -301.5t-60.5 -301.5t-169 -233t-264.5 -149t-343 -53.5q-249 0 -440 91.5t-295.5 259t-104.5 386.5zM356 717q0 -247 168.5 -397t438.5 -150
t437 149.5t167 397.5q0 247 -167 396t-437 149q-271 0 -439 -149t-168 -396zM573 1554l258 359h261l260 -359h-193l-166 218h-63l-166 -218h-191z" />
    <glyph glyph-name="uni1ED1" unicode="&#x1ed1;" horiz-adv-x="1595" 
d="M1366 1473h-188l213 358h233zM102 573q0 267 192 430.5t505 163.5t503.5 -163.5t190.5 -430.5t-190.5 -430t-503.5 -163q-314 0 -505.5 163t-191.5 430zM336 573q0 -183 128 -293t335 -110t334 110t127 293q0 182 -127 292t-334 110t-335 -110t-128 -292zM410 1268
l258 358h260l260 -358h-193l-166 217h-63l-166 -217h-190z" />
    <glyph glyph-name="uni1ED2" unicode="&#x1ed2;" horiz-adv-x="1923" 
d="M1604 1759h-189l-258 359h234zM123 717q0 219 104.5 386.5t295.5 259t440 91.5q187 0 343 -53.5t264.5 -149t169 -233t60.5 -301.5t-60.5 -301.5t-169 -233t-264.5 -149t-343 -53.5q-249 0 -440 91.5t-295.5 259t-104.5 386.5zM356 717q0 -247 168.5 -397t438.5 -150
t437 149.5t167 397.5q0 247 -167 396t-437 149q-271 0 -439 -149t-168 -396zM573 1554l258 359h261l260 -359h-193l-166 218h-63l-166 -218h-191z" />
    <glyph glyph-name="uni1ED3" unicode="&#x1ed3;" horiz-adv-x="1595" 
d="M1440 1473h-189l-258 358h234zM102 573q0 267 192 430.5t505 163.5t503.5 -163.5t190.5 -430.5t-190.5 -430t-503.5 -163q-314 0 -505.5 163t-191.5 430zM336 573q0 -183 128 -293t335 -110t334 110t127 293q0 182 -127 292t-334 110t-335 -110t-128 -292zM410 1268
l258 358h260l260 -358h-193l-166 217h-63l-166 -217h-190z" />
    <glyph glyph-name="uni1ED4" unicode="&#x1ed4;" horiz-adv-x="1923" 
d="M1509 1759h-153q0 45 15.5 78.5t39 51t51 33.5t51 27.5t39 32t15.5 48.5q0 33 -31 52.5t-90 22.5q-100 3 -227 -30v133q142 32 247 30q130 -1 202.5 -51.5t72.5 -130.5q0 -53 -17 -92.5t-43 -59.5t-56 -37.5t-56 -29t-43 -31.5t-17 -47zM123 717q0 219 104.5 386.5
t295.5 259t440 91.5q187 0 343 -53.5t264.5 -149t169 -233t60.5 -301.5t-60.5 -301.5t-169 -233t-264.5 -149t-343 -53.5q-249 0 -440 91.5t-295.5 259t-104.5 386.5zM356 717q0 -247 168.5 -397t438.5 -150t437 149.5t167 397.5q0 247 -167 396t-437 149q-271 0 -439 -149
t-168 -396zM573 1554l258 359h261l260 -359h-193l-166 218h-63l-166 -218h-191z" />
    <glyph glyph-name="uni1ED5" unicode="&#x1ed5;" horiz-adv-x="1595" 
d="M1346 1473h-154q0 45 15.5 78.5t39 51t51 33.5t51 27.5t39 31.5t15.5 48q0 33 -31 53t-90 23q-97 2 -227 -31v133q146 33 248 31q130 -1 202 -52t72 -131q0 -53 -17 -92.5t-43 -59.5t-55.5 -37t-55.5 -28.5t-43 -31.5t-17 -47zM102 573q0 267 192 430.5t505 163.5
t503.5 -163.5t190.5 -430.5t-190.5 -430t-503.5 -163q-314 0 -505.5 163t-191.5 430zM336 573q0 -183 128 -293t335 -110t334 110t127 293q0 182 -127 292t-334 110t-335 -110t-128 -292zM410 1268l258 358h260l260 -358h-193l-166 217h-63l-166 -217h-190z" />
    <glyph glyph-name="uni1ED6" unicode="&#x1ed6;" horiz-adv-x="1923" 
d="M940 2091q-100 59 -164 59q-99 0 -198 -102v174q111 111 208 111q29 0 61.5 -9.5t53 -19.5t56.5 -29.5t51 -27.5q64 -33 125 -33q108 0 217 96v-174q-120 -104 -234 -104q-76 0 -176 59zM123 717q0 219 104.5 386.5t295.5 259t440 91.5q187 0 343 -53.5t264.5 -149
t169 -233t60.5 -301.5t-60.5 -301.5t-169 -233t-264.5 -149t-343 -53.5q-249 0 -440 91.5t-295.5 259t-104.5 386.5zM356 717q0 -247 168.5 -397t438.5 -150t437 149.5t167 397.5q0 247 -167 396t-437 149q-271 0 -439 -149t-168 -396zM573 1554l258 359h261l260 -359h-193
l-166 218h-63l-166 -218h-191z" />
    <glyph glyph-name="uni1ED7" unicode="&#x1ed7;" horiz-adv-x="1595" 
d="M776 1804q-101 60 -164 60q-98 0 -198 -103v174q111 111 209 111q29 0 61.5 -9.5t53 -19.5t56 -29.5t50.5 -27.5q64 -33 125 -33q108 0 217 96v-174q-120 -104 -234 -104q-76 0 -176 59zM102 573q0 267 192 430.5t505 163.5t503.5 -163.5t190.5 -430.5t-190.5 -430
t-503.5 -163q-314 0 -505.5 163t-191.5 430zM336 573q0 -183 128 -293t335 -110t334 110t127 293q0 182 -127 292t-334 110t-335 -110t-128 -292zM410 1268l258 358h260l260 -358h-193l-166 217h-63l-166 -217h-190z" />
    <glyph glyph-name="uni1ED8" unicode="&#x1ed8;" horiz-adv-x="1923" 
d="M805 -348q0 68 41.5 102.5t114.5 34.5q70 0 110.5 -34.5t40.5 -102.5q0 -69 -40.5 -104t-110.5 -35q-73 0 -114.5 35t-41.5 104zM123 717q0 219 104.5 386.5t295.5 259t440 91.5q187 0 343 -53.5t264.5 -149t169 -233t60.5 -301.5t-60.5 -301.5t-169 -233t-264.5 -149
t-343 -53.5q-249 0 -440 91.5t-295.5 259t-104.5 386.5zM356 717q0 -247 168.5 -397t438.5 -150t437 149.5t167 397.5q0 247 -167 396t-437 149q-271 0 -439 -149t-168 -396zM573 1554l258 359h261l260 -359h-193l-166 218h-63l-166 -218h-191z" />
    <glyph glyph-name="uni1ED9" unicode="&#x1ed9;" horiz-adv-x="1595" 
d="M641 -348q0 68 41.5 102.5t114.5 34.5q70 0 110.5 -34.5t40.5 -102.5q0 -69 -40.5 -104t-110.5 -35q-73 0 -114.5 35t-41.5 104zM102 573q0 267 192 430.5t505 163.5t503.5 -163.5t190.5 -430.5t-190.5 -430t-503.5 -163q-314 0 -505.5 163t-191.5 430zM336 573
q0 -183 128 -293t335 -110t334 110t127 293q0 182 -127 292t-334 110t-335 -110t-128 -292zM410 1268l258 358h260l260 -358h-193l-166 217h-63l-166 -217h-190z" />
    <glyph glyph-name="uni1EDA" unicode="&#x1eda;" horiz-adv-x="1923" 
d="M1008 1575h-189l213 358h234zM123 717q0 219 104.5 386.5t295.5 259t440 91.5q127 0 256 -29q68 2 117.5 16t77.5 34.5t44 51t20.5 58.5t4.5 64h207q0 -107 -50 -201t-145 -139q146 -98 225.5 -250t79.5 -342q0 -164 -60.5 -301.5t-169 -233t-264.5 -149t-343 -53.5
q-249 0 -440 91.5t-295.5 259t-104.5 386.5zM356 717q0 -247 168.5 -397t438.5 -150t437 149.5t167 397.5q0 247 -167 396t-437 149q-271 0 -439 -149t-168 -396z" />
    <glyph glyph-name="uni1EDB" unicode="&#x1edb;" horiz-adv-x="1595" 
d="M858 1288h-188l213 359h233zM102 573q0 267 192 430.5t505 163.5q95 0 200 -20h25q205 5 205 213h207q0 -99 -43.5 -188.5t-126.5 -139.5q109 -79 168 -197t59 -262q0 -267 -190.5 -430t-503.5 -163q-314 0 -505.5 163t-191.5 430zM336 573q0 -183 128 -293t335 -110
t334 110t127 293q0 182 -127 292t-334 110t-335 -110t-128 -292z" />
    <glyph glyph-name="uni1EDC" unicode="&#x1edc;" horiz-adv-x="1923" 
d="M1083 1575h-188l-258 358h233zM123 717q0 219 104.5 386.5t295.5 259t440 91.5q127 0 256 -29q68 2 117.5 16t77.5 34.5t44 51t20.5 58.5t4.5 64h207q0 -107 -50 -201t-145 -139q146 -98 225.5 -250t79.5 -342q0 -164 -60.5 -301.5t-169 -233t-264.5 -149t-343 -53.5
q-249 0 -440 91.5t-295.5 259t-104.5 386.5zM356 717q0 -247 168.5 -397t438.5 -150t437 149.5t167 397.5q0 247 -167 396t-437 149q-271 0 -439 -149t-168 -396z" />
    <glyph glyph-name="uni1EDD" unicode="&#x1edd;" horiz-adv-x="1595" 
d="M920 1288h-189l-258 359h234zM102 573q0 267 192 430.5t505 163.5q95 0 200 -20h25q205 5 205 213h207q0 -99 -43.5 -188.5t-126.5 -139.5q109 -79 168 -197t59 -262q0 -267 -190.5 -430t-503.5 -163q-314 0 -505.5 163t-191.5 430zM336 573q0 -183 128 -293t335 -110
t334 110t127 293q0 182 -127 292t-334 110t-335 -110t-128 -292z" />
    <glyph glyph-name="uni1EDE" unicode="&#x1ede;" horiz-adv-x="1923" 
d="M1036 1575h-153q0 45 15.5 78.5t39 51t51 33.5t51 27.5t39 31.5t15.5 48q0 33 -31 53t-90 23q-98 3 -228 -31v133q146 33 248 31q130 -1 202.5 -51.5t72.5 -130.5q0 -53 -17 -92.5t-43 -59.5t-56 -37.5t-56 -29t-43 -31.5t-17 -47zM123 717q0 219 104.5 386.5t295.5 259
t440 91.5q127 0 256 -29q68 2 117.5 16t77.5 34.5t44 51t20.5 58.5t4.5 64h207q0 -107 -50 -201t-145 -139q146 -98 225.5 -250t79.5 -342q0 -164 -60.5 -301.5t-169 -233t-264.5 -149t-343 -53.5q-249 0 -440 91.5t-295.5 259t-104.5 386.5zM356 717q0 -247 168.5 -397
t438.5 -150t437 149.5t167 397.5q0 247 -167 396t-437 149q-271 0 -439 -149t-168 -396z" />
    <glyph glyph-name="uni1EDF" unicode="&#x1edf;" horiz-adv-x="1595" 
d="M872 1288h-153q0 45 15.5 78.5t39 51t51 33.5t51 27.5t39 32t15.5 48.5q0 33 -31 52.5t-90 22.5q-100 3 -227 -30v133q142 32 247 30q130 -1 202.5 -51.5t72.5 -130.5q0 -53 -17 -92.5t-43 -59.5t-56 -37.5t-56 -29t-43 -31.5t-17 -47zM102 573q0 267 192 430.5
t505 163.5q95 0 200 -20h25q205 5 205 213h207q0 -99 -43.5 -188.5t-126.5 -139.5q109 -79 168 -197t59 -262q0 -267 -190.5 -430t-503.5 -163q-314 0 -505.5 163t-191.5 430zM336 573q0 -183 128 -293t335 -110t334 110t127 293q0 182 -127 292t-334 110t-335 -110
t-128 -292z" />
    <glyph glyph-name="uni1EE0" unicode="&#x1ee0;" horiz-adv-x="1923" 
d="M938 1655q-100 59 -164 59q-100 0 -199 -102v174q110 110 209 110q29 0 61.5 -9.5t53 -19.5t56.5 -29.5t51 -27.5q62 -32 124 -32q109 0 218 96v-174q-121 -105 -234 -105q-75 0 -176 60zM123 717q0 219 104.5 386.5t295.5 259t440 91.5q127 0 256 -29q68 2 117.5 16
t77.5 34.5t44 51t20.5 58.5t4.5 64h207q0 -107 -50 -201t-145 -139q146 -98 225.5 -250t79.5 -342q0 -164 -60.5 -301.5t-169 -233t-264.5 -149t-343 -53.5q-249 0 -440 91.5t-295.5 259t-104.5 386.5zM356 717q0 -247 168.5 -397t438.5 -150t437 149.5t167 397.5
q0 247 -167 396t-437 149q-271 0 -439 -149t-168 -396z" />
    <glyph glyph-name="uni1EE1" unicode="&#x1ee1;" horiz-adv-x="1595" 
d="M776 1430q-100 59 -164 59q-98 0 -198 -103v175q110 110 209 110q29 0 61.5 -9.5t53 -19.5t56 -29.5t50.5 -27.5q64 -33 125 -33q107 0 217 97v-174q-121 -105 -234 -105q-75 0 -176 60zM102 573q0 267 192 430.5t505 163.5q95 0 200 -20h25q205 5 205 213h207
q0 -99 -43.5 -188.5t-126.5 -139.5q109 -79 168 -197t59 -262q0 -267 -190.5 -430t-503.5 -163q-314 0 -505.5 163t-191.5 430zM336 573q0 -183 128 -293t335 -110t334 110t127 293q0 182 -127 292t-334 110t-335 -110t-128 -292z" />
    <glyph glyph-name="uni1EE2" unicode="&#x1ee2;" horiz-adv-x="1923" 
d="M805 -348q0 68 41.5 102.5t114.5 34.5q70 0 110.5 -34.5t40.5 -102.5q0 -69 -40.5 -104t-110.5 -35q-73 0 -114.5 35t-41.5 104zM123 717q0 219 104.5 386.5t295.5 259t440 91.5q127 0 256 -29q68 2 117.5 16t77.5 34.5t44 51t20.5 58.5t4.5 64h207q0 -107 -50 -201
t-145 -139q146 -98 225.5 -250t79.5 -342q0 -164 -60.5 -301.5t-169 -233t-264.5 -149t-343 -53.5q-249 0 -440 91.5t-295.5 259t-104.5 386.5zM356 717q0 -247 168.5 -397t438.5 -150t437 149.5t167 397.5q0 247 -167 396t-437 149q-271 0 -439 -149t-168 -396z" />
    <glyph glyph-name="uni1EE3" unicode="&#x1ee3;" horiz-adv-x="1595" 
d="M641 -348q0 68 41.5 102.5t114.5 34.5q70 0 110.5 -34.5t40.5 -102.5q0 -69 -40.5 -104t-110.5 -35q-73 0 -114.5 35t-41.5 104zM102 573q0 267 192 430.5t505 163.5q95 0 200 -20h25q205 5 205 213h207q0 -99 -43.5 -188.5t-126.5 -139.5q109 -79 168 -197t59 -262
q0 -267 -190.5 -430t-503.5 -163q-314 0 -505.5 163t-191.5 430zM336 573q0 -183 128 -293t335 -110t334 110t127 293q0 182 -127 292t-334 110t-335 -110t-128 -292z" />
    <glyph glyph-name="uni1EE4" unicode="&#x1ee4;" horiz-adv-x="1804" 
d="M745 -348q0 68 41.5 102.5t114.5 34.5q70 0 111 -34.5t41 -102.5t-41 -103.5t-111 -35.5q-73 0 -114.5 35t-41.5 104zM903 170q220 0 355 110t135 316v840h227v-840q0 -193 -90 -333t-251 -211.5t-376 -71.5q-216 0 -377.5 71.5t-251.5 211.5t-90 333v840h230v-840
q0 -206 133.5 -316t355.5 -110z" />
    <glyph glyph-name="uni1EE5" unicode="&#x1ee5;" 
d="M641 -348q0 68 41.5 102.5t114.5 34.5q70 0 110.5 -34.5t40.5 -102.5q0 -69 -40.5 -104t-110.5 -35q-73 0 -114.5 35t-41.5 104zM1202 0l-6 84q-124 -48 -261 -76t-247 -28q-224 0 -369 108t-145 270v789h225v-752q0 -104 87.5 -165.5t236.5 -61.5q97 0 222.5 26
t244.5 72v881h225v-1147h-213z" />
    <glyph glyph-name="uni1EE6" unicode="&#x1ee6;" horiz-adv-x="1804" 
d="M979 1575h-154q0 45 15.5 78.5t39 51t51 33.5t51 27.5t39 31.5t15.5 48q0 33 -31 53t-90 23q-97 2 -227 -31v133q146 33 248 31q130 -1 202 -51.5t72 -130.5q0 -53 -17 -92.5t-43 -59.5t-55.5 -37.5t-55.5 -29t-43 -31.5t-17 -47zM903 170q220 0 355 110t135 316v840h227
v-840q0 -193 -90 -333t-251 -211.5t-376 -71.5q-216 0 -377.5 71.5t-251.5 211.5t-90 333v840h230v-840q0 -206 133.5 -316t355.5 -110z" />
    <glyph glyph-name="uni1EE7" unicode="&#x1ee7;" 
d="M870 1288h-153q0 45 15.5 78.5t39 51t51 33.5t51 27.5t39 32t15.5 48.5q0 33 -31 52.5t-90 22.5q-100 3 -227 -30v133q142 32 247 30q130 -1 202.5 -51.5t72.5 -130.5q0 -53 -17 -92.5t-43 -59.5t-56 -37.5t-56 -29t-43 -31.5t-17 -47zM1202 0l-6 84q-124 -48 -261 -76
t-247 -28q-224 0 -369 108t-145 270v789h225v-752q0 -104 87.5 -165.5t236.5 -61.5q97 0 222.5 26t244.5 72v881h225v-1147h-213z" />
    <glyph glyph-name="uni1EE8" unicode="&#x1ee8;" horiz-adv-x="1804" 
d="M961 1575h-189l213 358h234zM903 170q220 0 355 110t135 316v840h28q205 5 205 213h207q0 -112 -55 -210.5t-158 -140.5v-702q0 -193 -90 -333t-251 -211.5t-376 -71.5q-216 0 -377.5 71.5t-251.5 211.5t-90 333v840h230v-840q0 -206 133.5 -316t355.5 -110z" />
    <glyph glyph-name="uni1EE9" unicode="&#x1ee9;" 
d="M862 1288h-188l213 359h233zM1202 0l-6 84q-124 -48 -261 -76t-247 -28q-224 0 -369 108t-145 270v789h225v-752q0 -104 87.5 -165.5t236.5 -61.5q97 0 222.5 26t244.5 72v881h41q192 10 192 213h207q0 -73 -23 -140.5t-72.5 -124.5t-119.5 -85v-1010h-213z" />
    <glyph glyph-name="uni1EEA" unicode="&#x1eea;" horiz-adv-x="1804" 
d="M1075 1575h-188l-258 358h233zM903 170q220 0 355 110t135 316v840h28q205 5 205 213h207q0 -112 -55 -210.5t-158 -140.5v-702q0 -193 -90 -333t-251 -211.5t-376 -71.5q-216 0 -377.5 71.5t-251.5 211.5t-90 333v840h230v-840q0 -206 133.5 -316t355.5 -110z" />
    <glyph glyph-name="uni1EEB" unicode="&#x1eeb;" 
d="M946 1288h-188l-258 359h233zM1202 0l-6 84q-124 -48 -261 -76t-247 -28q-224 0 -369 108t-145 270v789h225v-752q0 -104 87.5 -165.5t236.5 -61.5q97 0 222.5 26t244.5 72v881h41q192 10 192 213h207q0 -73 -23 -140.5t-72.5 -124.5t-119.5 -85v-1010h-213z" />
    <glyph glyph-name="uni1EEC" unicode="&#x1eec;" horiz-adv-x="1804" 
d="M979 1575h-154q0 45 15.5 78.5t39 51t51 33.5t51 27.5t39 31.5t15.5 48q0 33 -31 53t-90 23q-97 2 -227 -31v133q146 33 248 31q130 -1 202 -51.5t72 -130.5q0 -53 -17 -92.5t-43 -59.5t-55.5 -37.5t-55.5 -29t-43 -31.5t-17 -47zM903 170q220 0 355 110t135 316v840h28
q205 5 205 213h207q0 -112 -55 -210.5t-158 -140.5v-702q0 -193 -90 -333t-251 -211.5t-376 -71.5q-216 0 -377.5 71.5t-251.5 211.5t-90 333v840h230v-840q0 -206 133.5 -316t355.5 -110z" />
    <glyph glyph-name="uni1EED" unicode="&#x1eed;" 
d="M870 1288h-153q0 45 15.5 78.5t39 51t51 33.5t51 27.5t39 32t15.5 48.5q0 33 -31 52.5t-90 22.5q-100 3 -227 -30v133q142 32 247 30q130 -1 202.5 -51.5t72.5 -130.5q0 -53 -17 -92.5t-43 -59.5t-56 -37.5t-56 -29t-43 -31.5t-17 -47zM1202 0l-6 84q-124 -48 -261 -76
t-247 -28q-224 0 -369 108t-145 270v789h225v-752q0 -104 87.5 -165.5t236.5 -61.5q97 0 222.5 26t244.5 72v881h41q192 10 192 213h207q0 -73 -23 -140.5t-72.5 -124.5t-119.5 -85v-1010h-213z" />
    <glyph glyph-name="uni1EEE" unicode="&#x1eee;" horiz-adv-x="1804" 
d="M887 1655q-100 59 -164 59q-100 0 -199 -102v174q110 110 209 110q29 0 61.5 -9.5t53 -19.5t56 -29.5t50.5 -27.5q62 -32 125 -32q108 0 217 96v-174q-121 -105 -233 -105q-75 0 -176 60zM903 170q220 0 355 110t135 316v840h28q205 5 205 213h207q0 -112 -55 -210.5
t-158 -140.5v-702q0 -193 -90 -333t-251 -211.5t-376 -71.5q-216 0 -377.5 71.5t-251.5 211.5t-90 333v840h230v-840q0 -206 133.5 -316t355.5 -110z" />
    <glyph glyph-name="uni1EEF" unicode="&#x1eef;" 
d="M776 1368q-100 59 -164 59q-99 0 -198 -102v174q111 111 209 111q29 0 61.5 -9.5t53 -19.5t56 -29.5t50.5 -27.5q64 -33 125 -33q108 0 217 96v-174q-120 -104 -234 -104q-76 0 -176 59zM1202 0l-6 84q-124 -48 -261 -76t-247 -28q-224 0 -369 108t-145 270v789h225v-752
q0 -104 87.5 -165.5t236.5 -61.5q97 0 222.5 26t244.5 72v881h41q192 10 192 213h207q0 -73 -23 -140.5t-72.5 -124.5t-119.5 -85v-1010h-213z" />
    <glyph glyph-name="uni1EF0" unicode="&#x1ef0;" horiz-adv-x="1804" 
d="M745 -348q0 68 41.5 102.5t114.5 34.5q70 0 111 -34.5t41 -102.5t-41 -103.5t-111 -35.5q-73 0 -114.5 35t-41.5 104zM903 170q220 0 355 110t135 316v840h28q205 5 205 213h207q0 -112 -55 -210.5t-158 -140.5v-702q0 -193 -90 -333t-251 -211.5t-376 -71.5
q-216 0 -377.5 71.5t-251.5 211.5t-90 333v840h230v-840q0 -206 133.5 -316t355.5 -110z" />
    <glyph glyph-name="uni1EF1" unicode="&#x1ef1;" 
d="M641 -348q0 68 41.5 102.5t114.5 34.5q70 0 110.5 -34.5t40.5 -102.5q0 -69 -40.5 -104t-110.5 -35q-73 0 -114.5 35t-41.5 104zM1202 0l-6 84q-124 -48 -261 -76t-247 -28q-224 0 -369 108t-145 270v789h225v-752q0 -104 87.5 -165.5t236.5 -61.5q97 0 222.5 26
t244.5 72v881h41q192 10 192 213h207q0 -73 -23 -140.5t-72.5 -124.5t-119.5 -85v-1010h-213z" />
    <glyph glyph-name="Ygrave" unicode="&#x1ef2;" horiz-adv-x="1740" 
d="M1006 1575h-189l-258 358h234zM760 0v543l-699 891h271l512 -674h53l510 674h272l-690 -881v-553h-229z" />
    <glyph glyph-name="ygrave" unicode="&#x1ef3;" horiz-adv-x="1511" 
d="M899 1288h-188l-258 359h233zM680 -408h-221l250 490h-121l-568 1065h236l451 -862h106l442 862h236z" />
    <glyph glyph-name="uni1EF4" unicode="&#x1ef4;" horiz-adv-x="1740" 
d="M715 -348q0 69 41 103t114 34q70 0 111 -34.5t41 -102.5t-41 -103.5t-111 -35.5q-73 0 -114 35t-41 104zM760 0v543l-699 891h271l512 -674h53l510 674h272l-690 -881v-553h-229z" />
    <glyph glyph-name="uni1EF5" unicode="&#x1ef5;" horiz-adv-x="1511" 
d="M961 -348q0 69 41 103t114 34q70 0 111 -34.5t41 -102.5t-41 -103.5t-111 -35.5q-73 0 -114 35t-41 104zM680 -408h-221l250 490h-121l-568 1065h236l451 -862h106l442 862h236z" />
    <glyph glyph-name="uni1EF6" unicode="&#x1ef6;" horiz-adv-x="1740" 
d="M946 1575h-153q0 45 15.5 78.5t39 51t51 33.5t51 27.5t39 31.5t15.5 48q0 33 -31 53t-90 23q-98 3 -228 -31v133q146 33 248 31q130 -1 202.5 -51.5t72.5 -130.5q0 -53 -17 -92.5t-43 -59.5t-56 -37.5t-56 -29t-43 -31.5t-17 -47zM760 0v543l-699 891h271l512 -674h53
l510 674h272l-690 -881v-553h-229z" />
    <glyph glyph-name="uni1EF7" unicode="&#x1ef7;" horiz-adv-x="1511" 
d="M850 1288h-154q0 45 15.5 78.5t39 51t51 33.5t51 27.5t39 32t15.5 48.5q0 33 -31 52.5t-90 22.5q-100 3 -227 -30v133q142 32 248 30q130 -1 202 -51.5t72 -130.5q0 -53 -17 -92.5t-43 -59.5t-55.5 -37.5t-55.5 -29t-43 -31.5t-17 -47zM680 -408h-221l250 490h-121
l-568 1065h236l451 -862h106l442 862h236z" />
    <glyph glyph-name="uni1EF8" unicode="&#x1ef8;" horiz-adv-x="1740" 
d="M860 1655q-100 59 -164 59q-99 0 -198 -102v174q110 110 209 110q29 0 61.5 -9.5t53 -19.5t56 -29.5t50.5 -27.5q62 -32 125 -32q108 0 217 96v-174q-121 -105 -234 -105q-75 0 -176 60zM760 0v543l-699 891h271l512 -674h53l510 674h272l-690 -881v-553h-229z" />
    <glyph glyph-name="uni1EF9" unicode="&#x1ef9;" horiz-adv-x="1511" 
d="M737 1368q-100 59 -164 59q-99 0 -198 -102v174q111 111 209 111q29 0 61.5 -9.5t53 -19.5t56 -29.5t50.5 -27.5q64 -33 125 -33q108 0 217 96v-174q-120 -104 -234 -104q-76 0 -176 59zM680 -408h-221l250 490h-121l-568 1065h236l451 -862h106l442 862h236z" />
    <glyph glyph-name="endash" unicode="&#x2013;" horiz-adv-x="1413" 
d="M123 590v184h1167v-184h-1167z" />
    <glyph glyph-name="emdash" unicode="&#x2014;" horiz-adv-x="2582" 
d="M123 590v184h2296v-184h-2296z" />
    <glyph glyph-name="quoteleft" unicode="&#x2018;" horiz-adv-x="481" 
d="M399 1454l-71 -590h-246l133 590h184z" />
    <glyph glyph-name="quoteright" unicode="&#x2019;" horiz-adv-x="481" 
d="M82 864l72 590h245l-133 -590h-184z" />
    <glyph glyph-name="quotesinglbase" unicode="&#x201a;" horiz-adv-x="645" 
d="M164 -358l72 589h245l-133 -589h-184z" />
    <glyph glyph-name="quotedblleft" unicode="&#x201c;" horiz-adv-x="856" 
d="M774 1454l-72 -590h-245l133 590h184zM399 1454l-71 -590h-246l133 590h184z" />
    <glyph glyph-name="quotedblright" unicode="&#x201d;" horiz-adv-x="856" 
d="M82 864l72 590h245l-133 -590h-184zM457 864l71 590h246l-133 -590h-184z" />
    <glyph glyph-name="quotedblbase" unicode="&#x201e;" horiz-adv-x="1019" 
d="M164 -360l72 589h245l-133 -589h-184zM539 -360l71 589h246l-133 -589h-184z" />
    <glyph glyph-name="dagger" unicode="&#x2020;" horiz-adv-x="901" 
d="M338 -369v959h-215v184h215v735h225v-735h215v-184h-215v-959h-225z" />
    <glyph glyph-name="daggerdbl" unicode="&#x2021;" horiz-adv-x="1085" 
d="M430 -369v596h-307v185h307v319h-307v184h307v594h225v-594h308v-184h-308v-319h308v-185h-308v-596h-225z" />
    <glyph glyph-name="bullet" unicode="&#x2022;" horiz-adv-x="1118" 
d="M287 756q0 121 73 182t203 61q124 0 196 -61t72 -182q0 -122 -71.5 -182t-196.5 -60q-131 0 -203.5 60t-72.5 182z" />
    <glyph glyph-name="ellipsis" unicode="&#x2026;" horiz-adv-x="1646" 
d="M143 117q0 68 41.5 102.5t114.5 34.5q70 0 111 -34.5t41 -102.5q0 -69 -41 -104.5t-111 -35.5q-73 0 -114.5 35.5t-41.5 104.5zM692 117q0 68 41.5 102.5t114.5 34.5q70 0 110.5 -34.5t40.5 -102.5q0 -69 -40.5 -104.5t-110.5 -35.5q-73 0 -114.5 35.5t-41.5 104.5z
M1241 117q0 68 41.5 102.5t114.5 34.5q70 0 110.5 -34.5t40.5 -102.5q0 -69 -40.5 -104.5t-110.5 -35.5q-73 0 -114.5 35.5t-41.5 104.5z" />
    <glyph glyph-name="perthousand" unicode="&#x2030;" horiz-adv-x="3360" 
d="M639 -61l840 1556h229l-840 -1556h-229zM164 1024q0 194 117 312t309 118q191 0 307.5 -118.5t116.5 -311.5t-116.5 -311.5t-307.5 -118.5q-192 0 -309 118t-117 312zM387 1024q0 -114 55.5 -182t147.5 -68t146.5 68t54.5 182t-54.5 181t-146.5 67q-93 0 -148 -67
t-55 -181zM1364 428q0 194 117 312t309 118q191 0 307.5 -118.5t116.5 -311.5t-116.5 -311.5t-307.5 -118.5q-192 0 -309 118t-117 312zM2347 428q0 194 117 312t309 118q191 0 307.5 -118.5t116.5 -311.5t-116.5 -311.5t-307.5 -118.5q-192 0 -309 118t-117 312zM1587 428
q0 -114 55.5 -182t147.5 -68t146.5 68t54.5 182t-54.5 181t-146.5 67q-93 0 -148 -67t-55 -181zM2570 428q0 -114 55.5 -182t147.5 -68t146.5 68t54.5 182t-54.5 181t-146.5 67q-93 0 -148 -67t-55 -181z" />
    <glyph glyph-name="guilsinglleft" unicode="&#x2039;" horiz-adv-x="749" 
d="M123 719l256 319h248l-303 -389l303 -389h-248l-256 320v139z" />
    <glyph glyph-name="guilsinglright" unicode="&#x203a;" horiz-adv-x="749" 
d="M627 719v-139l-256 -320h-248l303 389l-303 389h248z" />
    <glyph glyph-name="fraction" unicode="&#x2044;" horiz-adv-x="839" 
d="M0 -61l637 1556h203l-637 -1556h-203z" />
    <glyph glyph-name="franc" unicode="&#x20a3;" horiz-adv-x="1740" 
d="M328 0v244h-205v184h205v1006h1249v-201h-1020v-381h856v-201h-856v-223h451v-184h-451v-244h-229z" />
    <glyph glyph-name="lira" unicode="&#x20a4;" horiz-adv-x="1705" 
d="M172 205q209 0 252 184h-260v184h270v156h-262v184h262v134q0 184 174 295.5t461 111.5q106 0 227.5 -13.5t196.5 -47.5v-187q-142 49 -397 49q-228 0 -330 -61t-102 -195v-86h714v-184h-714v-156h714v-184h-719q-12 -124 -61 -184h944v-205h-1370v205z" />
    <glyph glyph-name="Euro" unicode="&#x20ac;" horiz-adv-x="1861" 
d="M1128 172q145 0 299 19t271 51v-201q-236 -61 -572 -61q-262 0 -451 117.5t-267 328.5h-285v178h242q-7 65 -7 113q0 65 4 96h-239v178h278q75 219 266 341t459 122q336 0 572 -61v-201q-117 32 -271 51t-299 19q-167 0 -291.5 -70.5t-187.5 -200.5h684v-178h-735
q-6 -47 -6 -96q0 -66 8 -113h733v-178h-676q64 -123 186.5 -188.5t284.5 -65.5z" />
    <glyph glyph-name="trademark" unicode="&#x2122;" horiz-adv-x="2473" 
d="M516 596v682h-391v156h973v-156h-391v-682h-191zM1233 596v838h209l313 -398h31l313 398h211v-838h-192v561h-19l-250 -321h-155l-250 321h-21v-561h-190z" />
    <glyph glyph-name="estimated" unicode="&#x212e;" horiz-adv-x="1794" 
d="M862 117q165 0 267.5 54t199.5 187h262q-86 -182 -288.5 -294.5t-425.5 -112.5q-148 0 -278 51.5t-226.5 146t-152.5 238t-56 318.5q0 139 37 259t103.5 209.5t157.5 153t201 95.5t232 32q333 0 534 -228.5t201 -607.5h-1110v-362q59 -68 140.5 -103.5t201.5 -35.5z
M520 764h754v383q-158 139 -406 139q-118 0 -211 -40.5t-137 -98.5v-383z" />
    <glyph glyph-name="product" unicode="&#x220f;" horiz-adv-x="1708" 
d="M1155 -385v1634h-602v-1634h-225v1634h-205v185h1462v-185h-205v-1634h-225z" />
    <glyph glyph-name="summation" unicode="&#x2211;" horiz-adv-x="1374" 
d="M164 1249v185h1046v-185h-804l481 -649l-481 -649h804v-184h-1046v184l481 649z" />
    <glyph glyph-name="minus" unicode="&#x2212;" horiz-adv-x="901" 
d="M123 590v184h655v-184h-655z" />
    <glyph glyph-name="radical" unicode="&#x221a;" horiz-adv-x="1523" 
d="M82 963v184h364l306 -883l424 1264h225l-512 -1528h-271l-333 963h-203z" />
    <glyph glyph-name="infinity" unicode="&#x221e;" horiz-adv-x="2367" 
d="M164 618q0 227 140.5 361.5t377.5 134.5q154 0 282.5 -67t219.5 -195q91 128 219.5 195t282.5 67q237 0 377.5 -134.5t140.5 -361.5q0 -224 -141 -357.5t-377 -133.5q-154 0 -282.5 66.5t-219.5 193.5q-91 -127 -219.5 -193.5t-282.5 -66.5q-236 0 -377 133.5t-141 357.5
zM397 618q0 -130 80 -210t209 -80q107 0 206 72.5t179 217.5q-78 146 -177.5 220.5t-207.5 74.5q-130 0 -209.5 -81.5t-79.5 -213.5zM1970 618q0 132 -79.5 213.5t-209.5 81.5q-108 0 -207.5 -74.5t-177.5 -220.5q80 -145 179 -217.5t206 -72.5q129 0 209 80t80 210z" />
    <glyph glyph-name="integral" unicode="&#x222b;" horiz-adv-x="1060" 
d="M418 47v1184q0 195 135.5 301t384.5 106v-198q-160 0 -227.5 -59t-67.5 -197v-1184q0 -195 -135.5 -301.5t-384.5 -106.5v199q160 0 227.5 59t67.5 197z" />
    <glyph glyph-name="approxequal" unicode="&#x2248;" horiz-adv-x="1267" 
d="M614 602q-132 57 -229 57q-127 0 -262 -98v184q160 117 305 117q112 0 260 -65q129 -58 221 -58q122 0 236 99v-185q-132 -114 -277 -114q-110 0 -254 63z" />
    <glyph glyph-name="notequal" unicode="&#x2260;" horiz-adv-x="1167" 
d="M164 770v184h434l78 193h203l-78 -193h203v-184h-279l-80 -197h359v-184h-435l-77 -192h-203l78 192h-203v184h278l80 197h-358z" />
    <glyph glyph-name="lessequal" unicode="&#x2264;" horiz-adv-x="1275" 
d="M164 651v197l946 305v-205l-670 -198l670 -199v-205zM164 0v184h948v-184h-948z" />
    <glyph glyph-name="greaterequal" unicode="&#x2265;" horiz-adv-x="1275" 
d="M1112 651l-946 -305v205l670 199l-670 198v205l946 -305v-197zM1112 0h-948v184h948v-184z" />
    <glyph glyph-name="lozenge" unicode="&#x25ca;" horiz-adv-x="1470" 
d="M537 -160l-373 797l373 797h397l373 -797l-373 -797h-397zM399 637l275 -592h123l274 592l-274 592h-123z" />
    <glyph glyph-name="zero.numr" horiz-adv-x="1300" 
d="M125 975q0 219 140 349t386 130q245 0 386 -130t141 -349q0 -217 -141 -347t-386 -130q-246 0 -386 129.5t-140 347.5zM340 975q0 -141 84 -224t227 -83q141 0 225.5 83t84.5 224q0 142 -84 224.5t-226 82.5q-143 0 -227 -82.5t-84 -224.5z" />
    <glyph glyph-name="one.numr" horiz-adv-x="776" 
d="M317 502v751h-233v181h446v-932h-213z" />
    <glyph glyph-name="two.numr" horiz-adv-x="1144" 
d="M338 690h684v-180h-897v180q0 58 14 106t35 80t57.5 57.5t67.5 40t80.5 26.5t81.5 17t84 11q36 5 52 7t47 7t45.5 9.5t37.5 12t34.5 16.5t23.5 20.5t17 27t5 33.5q0 120 -248 123q-194 3 -389 -45v178q189 40 385 37q111 0 194 -14.5t146 -46.5t95 -88t32 -136
q0 -74 -26 -128.5t-54 -82.5t-94.5 -48.5t-97.5 -25t-114 -13.5l-24 -3q-51 -5 -85 -10.5t-73 -18t-62 -30t-38.5 -48t-15.5 -71.5z" />
    <glyph glyph-name="three.numr" horiz-adv-x="1132" 
d="M125 535v178q195 -44 405 -41q265 3 265 112q0 117 -285 117h-268v148h256q270 0 270 120q0 108 -244 111q-197 3 -383 -41v178q167 37 377 37q244 -1 354.5 -62t110.5 -192q0 -165 -168 -221q99 -29 146 -84.5t47 -140.5q0 -132 -117 -193t-373 -61q-218 -3 -393 35z
" />
    <glyph glyph-name="four.numr" horiz-adv-x="1214" 
d="M723 502v219h-639v180l500 533h350v-533h158v-180h-158v-219h-211zM319 901h404v352h-72z" />
    <glyph glyph-name="five.numr" horiz-adv-x="1126" 
d="M561 1055q226 0 334.5 -68t108.5 -209q0 -148 -114.5 -217.5t-359.5 -71.5q-232 0 -407 37v179q205 -46 420 -43q245 3 245 120q0 63 -63 91t-203 28h-381l-10 154l76 379h735v-181h-582l-36 -198h237z" />
    <glyph glyph-name="six.numr" horiz-adv-x="1206" 
d="M125 981q0 220 140.5 345t391.5 128q166 2 328 -22v-172q-156 24 -319 24q-142 0 -226 -67t-96 -189l-2 -4q169 76 328 76q200 0 306.5 -71.5t106.5 -207.5q0 -150 -120 -235.5t-328 -85.5q-248 0 -379 123.5t-131 357.5zM354 868q46 -202 287 -202q107 0 166 39.5
t59 111.5q0 62 -55.5 96.5t-153.5 34.5q-150 0 -303 -80z" />
    <glyph glyph-name="seven.numr" horiz-adv-x="1036" 
d="M381 504l350 751h-647v181h868v-181l-344 -751h-227z" />
    <glyph glyph-name="eight.numr" horiz-adv-x="1218" 
d="M125 762q0 163 213 217q-176 57 -176 209q0 129 117 197.5t329 68.5q214 0 331.5 -68.5t117.5 -197.5q0 -153 -174 -209q213 -54 213 -217q0 -129 -127 -196.5t-359 -67.5q-231 0 -358 67.5t-127 196.5zM377 1169q0 -60 61.5 -90t169.5 -30q110 0 172 30t62 90
q0 59 -62 89t-172 30q-107 0 -169 -30.5t-62 -88.5zM340 780q0 -58 71.5 -87t198.5 -29t198 29t71 87q0 61 -72 94t-197 33t-197.5 -33t-72.5 -94z" />
    <glyph glyph-name="nine.numr" horiz-adv-x="1206" 
d="M1083 973q0 -220 -140.5 -345t-391.5 -128q-163 -2 -330 22l2 172q156 -24 320 -24q141 0 225 66.5t96 189.5v4q-158 -76 -323 -76q-203 0 -309.5 71t-106.5 208q0 150 120 235.5t328 85.5q249 0 379.5 -123.5t130.5 -357.5zM854 1085q-25 103 -95.5 153t-191.5 50
q-108 0 -167.5 -40t-59.5 -113q0 -61 56.5 -95t154.5 -34q157 0 303 79z" />
    <glyph glyph-name="zero.dnom" horiz-adv-x="1298" 
d="M123 477q0 219 140 349t386 130q245 0 386 -130t141 -349q0 -217 -141 -347t-386 -130q-246 0 -386 129.5t-140 347.5zM338 477q0 -141 84 -224t227 -83q141 0 225 83t84 224q0 142 -83.5 224.5t-225.5 82.5q-143 0 -227 -82.5t-84 -224.5z" />
    <glyph glyph-name="one.dnom" horiz-adv-x="774" 
d="M315 0v752h-233v180h446v-932h-213z" />
    <glyph glyph-name="two.dnom" horiz-adv-x="1142" 
d="M336 180h684v-180h-897v180q0 58 14 106t35 80t57.5 57.5t67.5 40t80.5 26.5t81.5 17t84 11q36 5 52 7t47 7t45.5 9.5t37.5 12t34.5 16.5t23.5 20.5t17 27t5 33.5q0 120 -248 123q-194 3 -389 -45v178q189 40 385 37q111 0 194 -14.5t146 -46.5t95 -88t32 -136
q0 -74 -26 -128.5t-54 -82.5t-94.5 -48.5t-97.5 -25t-114 -13.5l-24 -3q-51 -5 -85 -10.5t-73 -18t-62 -30t-38.5 -48t-15.5 -71.5z" />
    <glyph glyph-name="three.dnom" horiz-adv-x="1128" 
d="M123 25v178q195 -44 405 -41q265 3 265 112q0 117 -285 117h-268v148h256q270 0 270 120q0 108 -244 111q-197 3 -383 -41v178q167 37 377 37q244 -1 354.5 -62t110.5 -192q0 -165 -168 -221q99 -29 146 -84.5t47 -140.5q0 -132 -117 -193t-373 -61q-218 -3 -393 35z" />
    <glyph glyph-name="four.dnom" horiz-adv-x="1212" 
d="M721 0v219h-639v180l500 533h350v-533h158v-180h-158v-219h-211zM317 399h404v353h-72z" />
    <glyph glyph-name="five.dnom" horiz-adv-x="1126" 
d="M561 553q226 0 334.5 -68t108.5 -209q0 -148 -114.5 -217t-359.5 -71q-232 0 -407 37v178q205 -46 420 -43q245 3 245 121q0 63 -63 90.5t-203 27.5h-381l-10 154l76 379h735v-180h-582l-36 -199h237z" />
    <glyph glyph-name="six.dnom" horiz-adv-x="1204" 
d="M123 469q0 220 140.5 345t391.5 128q166 2 328 -22v-172q-156 24 -319 24q-142 0 -226 -67t-96 -189l-2 -4q169 76 328 76q200 0 306.5 -71.5t106.5 -207.5q0 -150 -120 -235.5t-328 -85.5q-248 0 -379 123.5t-131 357.5zM352 356q46 -202 287 -202q107 0 166 39.5
t59 111.5q0 62 -55.5 96.5t-153.5 34.5q-150 0 -303 -80z" />
    <glyph glyph-name="seven.dnom" horiz-adv-x="1032" 
d="M379 0l350 752h-647v180h868v-180l-344 -752h-227z" />
    <glyph glyph-name="eight.dnom" horiz-adv-x="1216" 
d="M123 252q0 163 213 217q-176 57 -176 209q0 129 117 197.5t329 68.5q214 0 331.5 -68.5t117.5 -197.5q0 -153 -174 -209q213 -54 213 -217q0 -129 -127 -196.5t-359 -67.5q-231 0 -358 67.5t-127 196.5zM375 659q0 -60 61.5 -90t169.5 -30q110 0 172 30t62 90
q0 59 -62 89t-172 30q-107 0 -169 -30.5t-62 -88.5zM338 270q0 -58 71.5 -87t198.5 -29t198 29t71 87q0 61 -72 94t-197 33t-197.5 -33t-72.5 -94z" />
    <glyph glyph-name="nine.dnom" horiz-adv-x="1204" 
d="M1081 463q0 -220 -140.5 -345t-391.5 -128q-163 -2 -330 22l2 172q156 -24 320 -24q141 0 225 66.5t96 189.5v4q-158 -76 -323 -76q-203 0 -309.5 71t-106.5 208q0 150 120 235.5t328 85.5q249 0 379.5 -123.5t130.5 -357.5zM852 575q-25 103 -95.5 153t-191.5 50
q-108 0 -167.5 -40t-59.5 -113q0 -61 56.5 -95t154.5 -34q157 0 303 79z" />
    <glyph glyph-name="zero.tnum" horiz-adv-x="1638" 
d="M98 717q0 332 199 534.5t524 202.5q324 0 522.5 -203t198.5 -534t-198.5 -534t-522.5 -203q-325 0 -524 202.5t-199 534.5zM332 717q0 -248 135 -397.5t354 -149.5q218 0 353 149.5t135 397.5q0 247 -135 396t-353 149q-219 0 -354 -148.5t-135 -396.5z" />
    <glyph glyph-name="one.tnum" horiz-adv-x="1638" 
d="M303 0v213h408v1008h-371v213h600v-1221h395v-213h-1032z" />
    <glyph glyph-name="two.tnum" horiz-adv-x="1638" 
d="M406 213h1054v-213h-1284v213q0 85 19 154t52 118t80.5 87t100 63t115.5 44t123 32t125 25q5 1 8 1q54 10 85 16.5t78.5 18t75 22t62.5 26.5t55.5 35.5t39.5 44t27.5 56t8.5 68.5q0 231 -375 242q-127 3 -293.5 -17t-312.5 -53v201q281 60 563 57q113 -1 203.5 -12.5
t175.5 -40.5t142 -75.5t91.5 -121.5t34.5 -174q0 -62 -12 -115.5t-27.5 -93t-49 -74t-58 -57t-75 -43t-79 -31.5t-90.5 -24t-89.5 -17.5t-94.5 -14.5q-4 -1 -6 -1q-49 -7 -81.5 -12.5t-77 -15t-74 -19.5t-65.5 -25t-59 -32.5t-47.5 -42t-38 -53t-22 -65.5t-8.5 -81z" />
    <glyph glyph-name="three.tnum" horiz-adv-x="1638" 
d="M168 37v201q153 -29 334.5 -47t318.5 -15q418 9 418 221q0 230 -502 230h-403v176h385q230 0 350.5 61t120.5 178q0 206 -387 215q-132 3 -304 -14t-311 -47v201q290 56 568 53q340 -3 501.5 -97.5t161.5 -289.5q0 -249 -260 -342q309 -87 309 -346q0 -196 -173 -291
t-535 -98q-301 -3 -592 51z" />
    <glyph glyph-name="four.tnum" horiz-adv-x="1638" 
d="M1077 0v369h-1005v213l802 852h433v-852h260v-213h-260v-369h-230zM365 582h712v639h-110z" />
    <glyph glyph-name="five.tnum" horiz-adv-x="1638" 
d="M772 831q359 0 527.5 -104.5t168.5 -325.5q0 -215 -160 -314.5t-509 -102.5q-328 -3 -631 53v201q150 -30 352 -49t340 -15q193 5 286 63.5t93 176.5q0 124 -107.5 178.5t-353.5 54.5h-573l-10 184l118 603h1069v-213h-886l-76 -390h352z" />
    <glyph glyph-name="six.tnum" horiz-adv-x="1638" 
d="M123 717q0 164 59.5 300.5t168 231t264 147t343.5 52.5q173 0 416 -31v-198q-226 32 -424 32q-277 0 -430.5 -129t-163.5 -370v-7q279 150 570 150q278 0 434 -111.5t156 -314.5q0 -227 -174 -358t-476 -131q-364 0 -553.5 188t-189.5 549zM371 543q35 -190 158 -281.5
t343 -91.5q195 0 302.5 77t107.5 218q0 115 -92.5 176t-259.5 61q-280 0 -559 -159z" />
    <glyph glyph-name="seven.tnum" horiz-adv-x="1638" 
d="M659 0l551 1221h-1034v213h1284v-213l-542 -1221h-259z" />
    <glyph glyph-name="eight.tnum" horiz-adv-x="1638" 
d="M111 387q0 132 82.5 215t257.5 121q-145 38 -212 116.5t-67 202.5q0 137 81.5 231t224.5 137.5t341 43.5q197 0 339.5 -43.5t224 -137.5t81.5 -231q0 -124 -67 -202.5t-211 -116.5q175 -38 257.5 -121t82.5 -215q0 -138 -89.5 -230.5t-245 -134.5t-372.5 -42
q-332 0 -520 101t-188 306zM406 1042q0 -112 110.5 -167.5t302.5 -55.5q191 0 301.5 55.5t110.5 167.5t-110.5 167t-301.5 55q-192 0 -302.5 -55t-110.5 -167zM344 385q0 -111 126 -163t349 -52q145 0 248 21t164 70t61 124q0 116 -128 177t-345 61q-218 0 -346.5 -61
t-128.5 -177z" />
    <glyph glyph-name="nine.tnum" horiz-adv-x="1638" 
d="M1516 711q0 -219 -103 -385t-292.5 -256t-440.5 -90q-181 0 -416 30v199q233 -33 424 -33q277 0 430.5 129.5t163.5 372.5v4q-279 -150 -569 -150q-278 0 -434 111.5t-156 314.5q0 227 173.5 358.5t475.5 131.5q364 0 554 -188t190 -549zM1268 885q-35 190 -158.5 281
t-343.5 91q-195 0 -302.5 -76.5t-107.5 -217.5q0 -115 93 -176.5t260 -61.5q278 0 559 160z" />
    <glyph glyph-name="K.ss01" horiz-adv-x="1800" 
d="M205 0v1434h229v-758h21l888 758h314l-721 -607l823 -827h-303l-682 690l-340 -287v-403h-229z" />
    <glyph glyph-name="Q.ss01" horiz-adv-x="1943" 
d="M123 717q0 219 104.5 386.5t295.5 259t440 91.5q187 0 343 -53.5t264.5 -149t169 -233t60.5 -301.5q0 -182 -72 -329t-206 -245l262 -301h-279l-174 199q-162 -61 -368 -61q-249 0 -440 91.5t-295.5 259t-104.5 386.5zM356 717q0 -247 168.5 -397t438.5 -150
q111 0 227 33l-420 479h279l331 -379q90 73 138.5 178.5t48.5 235.5q0 247 -167 396t-437 149q-271 0 -439 -149t-168 -396z" />
    <glyph glyph-name="R.ss01" horiz-adv-x="1779" 
d="M205 0v1434h805q594 0 594 -447q0 -175 -117.5 -298.5t-298.5 -135.5l551 -553h-293l-545 551h-467v-551h-229zM1004 1241h-570v-508h570q194 0 280 61.5t86 192.5t-86 192.5t-280 61.5z" />
    <glyph glyph-name="k.ss01" horiz-adv-x="1544" 
d="M184 0v1516h226v-906l698 537h297l-590 -453l688 -694h-293l-559 567l-241 -186v-381h-226z" />
    <glyph glyph-name="zero.ss01" horiz-adv-x="1792" 
d="M123 717q0 219 96 386.5t272 259t406 91.5q229 0 404.5 -91.5t271.5 -259t96 -386.5t-96 -386.5t-271.5 -259t-404.5 -91.5q-230 0 -406 91.5t-272 259t-96 386.5zM356 717q0 -218 115 -361l709 838q-127 68 -283 68q-243 0 -392 -148.5t-149 -396.5zM1319 1075
l-707 -835q124 -70 285 -70q241 0 390 149.5t149 397.5q0 213 -117 358z" />
    </font>
</defs>
</svg>
