<?xml version="1.0" standalone="no"?>
<!DOCTYPE svg PUBLIC "-//W3C//DTD SVG 1.1//EN" "http://www.w3.org/Graphics/SVG/1.1/DTD/svg11.dtd" >
<svg xmlns="http://www.w3.org/2000/svg" xmlns:xlink="http://www.w3.org/1999/xlink" version="1.1">
<metadata>
Created by FontForge 20201107 at Mon May 13 07:37:55 2024
 By 
Copyright (c) 2022 by Eko Bimantara. All rights reserved. Viet hoa boi STYLEno.1 Fonts
</metadata>
<defs>
<font id="SVN-Adero-Light" horiz-adv-x="1597" >
  <font-face 
    font-family="SVN-Adero Light"
    font-weight="300"
    font-stretch="normal"
    units-per-em="2048"
    panose-1="0 0 0 0 0 0 0 0 0 0"
    ascent="1638"
    descent="-410"
    x-height="1147"
    cap-height="1434"
    bbox="-131 -488.504 3158 2398.11"
    underline-thickness="102"
    underline-position="-255"
    unicode-range="U+000D-25CA"
  />
<missing-glyph horiz-adv-x="1728" 
d="M184 0v1360h1360v-1360h-1360zM854 1108h-428v-754h375l43 -102h176q129 0 200.5 54.5t71.5 154.5q0 160 -155 209q125 71 125 188q0 93 -73 145t-200 52h-125zM592 952h229l23 -53h117q55 0 78.5 -26.5t23.5 -57.5q0 -38 -21.5 -65t-70.5 -27h-97l-20 102h-262v127z
M592 670h219l33 -86h155q107 0 107 -82q0 -37 -23 -65.5t-73 -28.5h-136l-20 104h-262v158z" />
    <glyph glyph-name=".notdef" horiz-adv-x="1728" 
d="M184 0v1360h1360v-1360h-1360zM854 1108h-428v-754h375l43 -102h176q129 0 200.5 54.5t71.5 154.5q0 160 -155 209q125 71 125 188q0 93 -73 145t-200 52h-125zM592 952h229l23 -53h117q55 0 78.5 -26.5t23.5 -57.5q0 -38 -21.5 -65t-70.5 -27h-97l-20 102h-262v127z
M592 670h219l33 -86h155q107 0 107 -82q0 -37 -23 -65.5t-73 -28.5h-136l-20 104h-262v158z" />
    <glyph glyph-name="uni0000" horiz-adv-x="0" 
 />
    <glyph glyph-name="uni0000" horiz-adv-x="0" 
 />
    <glyph glyph-name="uni000D" unicode="&#xd;" horiz-adv-x="512" 
 />
    <glyph glyph-name="space" unicode=" " horiz-adv-x="532" 
 />
    <glyph glyph-name="exclam" unicode="!" horiz-adv-x="614" 
d="M221 1454h172l-8 -995h-156zM178 96q0 59 35 89t98 30q59 0 93 -30.5t34 -88.5t-34 -87t-93 -29q-133 0 -133 116z" />
    <glyph glyph-name="quotedbl" unicode="&#x22;" horiz-adv-x="839" 
d="M109 885l69 569h189l-117 -569h-141zM475 885l68 569h188l-117 -569h-139z" />
    <glyph glyph-name="numbersign" unicode="#" horiz-adv-x="1613" 
d="M375 0h-150l150 432h-279l45 137h281l98 289h-274l47 137h274l152 439h149l-151 -439h370l152 439h150l-152 -439h281l-48 -137h-280l-98 -289h274l-45 -137h-277l-149 -432h-150l150 432h-371zM571 569h371l98 289h-370z" />
    <glyph glyph-name="dollar" unicode="$" horiz-adv-x="1572" 
d="M1229 516q0 103 -95 147t-333 48q-228 5 -365 45t-195.5 113.5t-58.5 189.5q0 355 523 385v321h163v-319q228 -6 457 -49v-148q-324 64 -557 58q-127 -2 -219 -27t-146.5 -79.5t-54.5 -135.5q0 -108 111 -158t372 -53q308 -3 437 -78t129 -250q0 -187 -133.5 -288.5
t-395.5 -116.5v-404h-163v402q-235 7 -527 63v150q19 -3 97.5 -17.5t141.5 -24.5t158 -19.5t177 -10.5q234 -2 355.5 63.5t121.5 192.5z" />
    <glyph glyph-name="percent" unicode="%" horiz-adv-x="2363" 
d="M668 -61l839 1556h168l-839 -1556h-168zM178 1038q0 189 111 302.5t297 113.5t296.5 -113.5t110.5 -302.5t-110.5 -303t-296.5 -114t-297 114t-111 303zM340 1038q0 -131 66 -206.5t180 -75.5t179.5 75.5t65.5 206.5t-65.5 206t-179.5 75t-180 -75.5t-66 -205.5z
M1368 408q0 189 112 303t298 114q184 0 295.5 -114t111.5 -303t-111 -302.5t-296 -113.5q-186 0 -298 113.5t-112 302.5zM1532 408q0 -131 66 -207t180 -76t179.5 76t65.5 207t-65.5 206.5t-179.5 75.5t-180 -75.5t-66 -206.5z" />
    <glyph glyph-name="ampersand" unicode="&#x26;" horiz-adv-x="1753" 
d="M1636 651h-198v-614q-290 -54 -582 -51q-346 3 -512 96t-166 285q0 131 85.5 220t254.5 132q-297 84 -297 344q0 193 156 288.5t485 98.5q199 3 426 -31v-145q-260 41 -459 35q-225 -6 -332.5 -70t-107.5 -188q0 -269 510 -269h737v-131zM1274 160v491h-387
q-264 0 -403.5 -70.5t-139.5 -199.5q0 -123 114.5 -186.5t356.5 -67.5q195 -5 459 33z" />
    <glyph glyph-name="quotesingle" unicode="'" horiz-adv-x="475" 
d="M109 885l69 569h189l-117 -569h-141z" />
    <glyph glyph-name="parenleft" unicode="(" horiz-adv-x="714" 
d="M178 604q0 568 275 891h165q-138 -160 -207 -390.5t-69 -500.5t69 -500.5t207 -390.5h-165q-275 323 -275 891z" />
    <glyph glyph-name="parenright" unicode=")" horiz-adv-x="714" 
d="M537 604q0 -568 -275 -891h-166q138 161 207.5 391.5t69.5 499.5t-69.5 499.5t-207.5 391.5h166q275 -323 275 -891z" />
    <glyph glyph-name="asterisk" unicode="*" horiz-adv-x="1073" 
d="M207 760l-70 119l283 155l-283 156l70 119l270 -170l-10 319h139l-10 -319l270 170l70 -119l-283 -156l283 -155l-70 -119l-270 170l10 -320h-139l10 320z" />
    <glyph glyph-name="plus" unicode="+" horiz-adv-x="1187" 
d="M137 614v138h389v389h136v-389h389v-138h-389v-389h-136v389h-389z" />
    <glyph glyph-name="comma" unicode="," horiz-adv-x="612" 
d="M178 -346l70 561h186l-117 -561h-139z" />
    <glyph glyph-name="hyphen" unicode="-" horiz-adv-x="915" 
d="M137 614v138h641v-138h-641z" />
    <glyph glyph-name="period" unicode="." horiz-adv-x="614" 
d="M178 96q0 59 35 88t98 29q59 0 93 -29.5t34 -87.5t-34 -88.5t-93 -30.5q-63 0 -98 30t-35 89z" />
    <glyph glyph-name="slash" unicode="/" horiz-adv-x="841" 
d="M27 -61l637 1556h151l-637 -1556h-151z" />
    <glyph glyph-name="zero" unicode="0" horiz-adv-x="1638" 
d="M115 717q0 333 192.5 535t513.5 202t513 -202t192 -535t-192 -535t-513 -202t-513.5 202t-192.5 535zM285 717q0 -271 145.5 -433.5t390.5 -162.5q244 0 389.5 162.5t145.5 433.5t-145.5 433.5t-389.5 162.5q-245 0 -390.5 -162.5t-145.5 -433.5z" />
    <glyph glyph-name="one" unicode="1" horiz-adv-x="829" 
d="M506 0v1278h-387v156h553v-1434h-166z" />
    <glyph glyph-name="two" unicode="2" horiz-adv-x="1638" 
d="M356 156h1090v-156h-1256v156q0 69 12 128.5t31 105t52 85t64 67t79.5 52.5t85.5 40.5t95 31.5t96 24.5t98 20.5q202 40 275 67q155 56 190 166q12 37 12 82q0 74 -33 129.5t-94 89t-140 51t-179 19.5q-261 6 -574 -66v148q281 60 545 57q641 -7 641 -424q0 -73 -18 -132
t-42.5 -100t-73.5 -75t-86 -53t-107 -38t-110 -27t-119 -22q-19 -3 -28 -5q-65 -11 -110.5 -21t-102.5 -27.5t-96 -37.5t-79 -52t-64 -70.5t-39 -93t-15 -120.5z" />
    <glyph glyph-name="three" unicode="3" horiz-adv-x="1638" 
d="M190 35v147q322 -63 607 -57q241 3 362 70.5t121 189.5q0 129 -136.5 195.5t-389.5 66.5h-408v133h389q239 0 369.5 71t130.5 200q0 123 -115 188t-338 68q-259 6 -571 -58v148q284 56 543 53q647 -6 647 -385q0 -256 -299 -346q171 -40 258.5 -128.5t87.5 -221.5
q0 -379 -688 -385q-286 -3 -570 51z" />
    <glyph glyph-name="four" unicode="4" horiz-adv-x="1638" 
d="M1116 0v395h-1012v156l816 883h362v-883h252v-156h-252v-395h-166zM317 551h799v727h-129z" />
    <glyph glyph-name="five" unicode="5" horiz-adv-x="1638" 
d="M791 819q330 0 491.5 -105t161.5 -319q0 -207 -162.5 -308.5t-497.5 -104.5q-292 -3 -591 53v147q142 -29 321 -46.5t313 -14.5q451 9 451 285q0 141 -117.5 208.5t-365.5 67.5h-572l-8 137l119 615h1026v-156h-893l-88 -459h412z" />
    <glyph glyph-name="six" unicode="6" horiz-adv-x="1638" 
d="M154 719q0 336 210.5 533t573.5 200q207 0 424 -41v-147q-225 46 -428 43q-287 -3 -446 -149.5t-166 -416.5q0 -6 1 -18t1 -18q302 174 594 174q272 0 419.5 -111t147.5 -317q0 -217 -166.5 -344t-450.5 -127q-348 0 -531 192.5t-183 546.5zM334 555q73 -434 538 -434
q206 0 325.5 87.5t119.5 240.5q0 141 -102.5 214.5t-294.5 73.5q-137 0 -290 -47.5t-296 -134.5z" />
    <glyph glyph-name="seven" unicode="7" horiz-adv-x="1638" 
d="M678 0l586 1278h-1074v156h1256v-156l-582 -1278h-186z" />
    <glyph glyph-name="eight" unicode="8" horiz-adv-x="1638" 
d="M125 381q0 272 371 348q-310 75 -310 328q0 191 169 294t464 103q293 0 462 -103t169 -294q0 -125 -77 -208.5t-232 -119.5q185 -38 277.5 -126t92.5 -222q0 -195 -184 -298t-508 -103t-509 103t-185 298zM356 1057q0 -123 124 -190.5t339 -67.5t339 67.5t124 190.5
t-124 189.5t-339 66.5t-339 -66.5t-124 -189.5zM295 379q0 -124 139.5 -191t384.5 -67q244 0 384 66.5t140 191.5q0 129 -141 201.5t-383 72.5q-243 0 -383.5 -72.5t-140.5 -201.5z" />
    <glyph glyph-name="nine" unicode="9" horiz-adv-x="1638" 
d="M1485 715q0 -336 -211 -533t-574 -200q-194 -2 -424 41v145q212 -43 429 -43q287 3 445.5 150t166.5 417q0 6 -1 18t-1 17q-302 -174 -594 -174q-272 0 -419.5 111t-147.5 317q0 217 166 344t450 127q349 0 532 -192t183 -545zM1305 877q-36 214 -170.5 325t-368.5 111
q-206 0 -325 -88t-119 -240q0 -143 102 -216t295 -73q137 0 289.5 47.5t296.5 133.5z" />
    <glyph glyph-name="colon" unicode=":" horiz-adv-x="614" 
d="M178 1053q0 57 35 86.5t98 29.5q59 0 93 -29.5t34 -86.5q0 -58 -34 -88.5t-93 -30.5q-63 0 -98 30t-35 89zM178 96q0 59 35 88t98 29q59 0 93 -29.5t34 -87.5t-34 -88.5t-93 -30.5q-63 0 -98 30t-35 89z" />
    <glyph glyph-name="semicolon" unicode=";" horiz-adv-x="622" 
d="M180 1053q0 57 35 86.5t98 29.5q59 0 93 -29.5t34 -86.5q0 -58 -34 -88.5t-93 -30.5q-63 0 -98 30t-35 89zM182 -346l70 561h188l-118 -561h-140z" />
    <glyph glyph-name="less" unicode="&#x3c;" horiz-adv-x="1226" 
d="M137 604v148l912 311v-152l-711 -233l711 -234v-151z" />
    <glyph glyph-name="equal" unicode="=" horiz-adv-x="1173" 
d="M178 788v138h819v-138h-819zM178 412v135h819v-135h-819z" />
    <glyph glyph-name="greater" unicode="&#x3e;" horiz-adv-x="1226" 
d="M1090 604l-912 -311v151l711 234l-711 233v152l912 -311v-148z" />
    <glyph glyph-name="question" unicode="?" horiz-adv-x="1314" 
d="M639 416h-156q-7 48 -7.5 89.5t4 75t16 63.5t24.5 52.5t34 44t39 36.5t46 31.5t49 27.5t53 26q59 27 96.5 47.5t70.5 49t48 63t15 78.5q0 102 -85 157t-249 58q-101 2 -227 -16t-232 -50v148q225 60 455 57q504 -6 504 -350q0 -54 -10 -98.5t-33 -79.5t-47 -61t-64.5 -51
t-72 -41.5t-83.5 -39.5q-27 -12 -48 -23t-42.5 -25t-36.5 -28.5t-28.5 -32.5t-21.5 -39t-12.5 -46.5t-4 -56t5.5 -66.5zM475 96q0 59 35 89t98 30q59 0 93 -30.5t34 -88.5t-34 -87t-93 -29q-133 0 -133 116z" />
    <glyph glyph-name="at" unicode="@" horiz-adv-x="2351" 
d="M1753 141q-205 0 -285 135q-158 -116 -376 -116q-213 0 -345.5 133t-132.5 344q0 217 129.5 347t346.5 130q177 0 346 -104l12 84h143v-594q0 -213 191 -213q106 0 165.5 94.5t59.5 271.5q0 389 -220.5 603t-621.5 214q-244 0 -431 -103.5t-288.5 -292.5t-101.5 -437
q0 -183 60 -337.5t167.5 -262t260 -167.5t333.5 -60q268 0 471 127l72 -138q-252 -139 -543 -139q-215 0 -399 72t-313 200t-202 310t-73 395q0 289 124 512.5t348.5 347t514.5 123.5q308 0 536.5 -116t351 -332t122.5 -508q0 -247 -115.5 -385t-306.5 -138zM1432 401
q-5 15 -5 41v437q-59 43 -140.5 69.5t-162.5 26.5q-159 0 -251.5 -91t-92.5 -247q0 -150 94.5 -244t247.5 -94q91 0 173.5 28.5t136.5 73.5z" />
    <glyph glyph-name="A" unicode="A" horiz-adv-x="1789" 
d="M76 0l641 1434h356l643 -1434h-178l-162 369h-960l-164 -369h-176zM473 504h844l-342 780h-158z" />
    <glyph glyph-name="B" unicode="B" horiz-adv-x="1769" 
d="M231 0v1434h779q291 0 430 -91t139 -284q0 -227 -231 -305v-17q284 -68 284 -342q0 -203 -138 -299t-429 -96h-834zM1006 1292h-607v-487h607q212 0 307.5 58t95.5 184q0 129 -95.5 187t-307.5 58zM1061 674h-662v-533h662q210 0 306.5 64.5t96.5 202.5q0 139 -96 202.5
t-307 63.5z" />
    <glyph glyph-name="C" unicode="C" horiz-adv-x="1691" 
d="M991 121q151 0 310.5 18.5t275.5 50.5v-149q-236 -61 -576 -61q-402 0 -633 198.5t-231 538.5t231 538.5t633 198.5q340 0 576 -61v-148q-115 32 -275 50t-311 18q-323 0 -504.5 -159t-181.5 -437t181.5 -437t504.5 -159z" />
    <glyph glyph-name="D" unicode="D" horiz-adv-x="1853" 
d="M231 0v1434h738q343 0 545 -194t202 -523t-202 -523t-545 -194h-738zM969 1292h-570v-1151h570q265 0 421 155t156 421t-156 420.5t-421 154.5z" />
    <glyph glyph-name="E" unicode="E" horiz-adv-x="1624" 
d="M231 0v1434h1237v-148h-1069v-459h901v-147h-901v-533h1069v-147h-1237z" />
    <glyph glyph-name="F" unicode="F" horiz-adv-x="1603" 
d="M231 0v1434h1237v-148h-1069v-459h901v-147h-901v-680h-168z" />
    <glyph glyph-name="G" unicode="G" horiz-adv-x="1835" 
d="M1022 121q239 0 469 37v594h168v-705q-304 -67 -633 -67q-418 0 -653.5 198t-235.5 539q0 340 236.5 538.5t648.5 198.5q347 0 582 -61v-148q-113 32 -276.5 50t-319.5 18q-330 0 -516.5 -159t-186.5 -437q0 -279 187.5 -437.5t529.5 -158.5z" />
    <glyph glyph-name="H" unicode="H" horiz-adv-x="1894" 
d="M231 0v1434h168v-609h1096v609h166v-1434h-166v678h-1096v-678h-168z" />
    <glyph glyph-name="I" unicode="I" horiz-adv-x="630" 
d="M231 0v1434h168v-1434h-168z" />
    <glyph glyph-name="J" unicode="J" horiz-adv-x="1392" 
d="M1014 461v973h168v-973q0 -230 -153 -355.5t-421 -125.5q-216 0 -471 61v147q265 -67 457 -67q215 0 317.5 80.5t102.5 259.5z" />
    <glyph glyph-name="K" unicode="K" horiz-adv-x="1859" 
d="M231 0v1434h168v-830h19l987 830h231l-788 -658q74 -17 144.5 -60.5t127 -99.5t110.5 -119.5t103 -123.5t95.5 -109t97.5 -78.5t100 -29.5h166v-156h-201q-71 0 -137 34t-120 89.5t-107.5 123t-109.5 136.5t-114.5 127.5t-134.5 99.5t-159 49l-310 -258v-401h-168z" />
    <glyph glyph-name="L" unicode="L" horiz-adv-x="1560" 
d="M231 0v1434h168v-1287h1024v-147h-1192z" />
    <glyph glyph-name="M" unicode="M" horiz-adv-x="2160" 
d="M231 0v1434h168l660 -830h43l659 830h168v-1434h-166v1155h-26l-574 -721h-166l-571 721h-27v-1155h-168z" />
    <glyph glyph-name="N" unicode="N" horiz-adv-x="1824" 
d="M231 0v1434h168l1002 -1155h26v1155h166v-1434h-168l-999 1153h-27v-1153h-168z" />
    <glyph glyph-name="O" unicode="O" horiz-adv-x="1929" 
d="M137 717q0 333 225 535t603 202t602.5 -202t224.5 -535t-224.5 -535t-602.5 -202t-603 202t-225 535zM305 717q0 -270 180.5 -433t479.5 -163q300 0 478.5 162.5t178.5 433.5t-178.5 433.5t-478.5 162.5q-299 0 -479.5 -163t-180.5 -433z" />
    <glyph glyph-name="P" unicode="P" horiz-adv-x="1728" 
d="M231 0v1434h793q288 0 427.5 -112.5t139.5 -338.5q0 -228 -139 -340.5t-428 -112.5h-625v-530h-168zM1020 1292h-621v-620h621q212 0 307.5 75t95.5 236q0 160 -95.5 234.5t-307.5 74.5z" />
    <glyph glyph-name="Q" unicode="Q" horiz-adv-x="1943" 
d="M137 717q0 333 225 535t603 202t602.5 -202t224.5 -535q0 -177 -66 -318.5t-188 -238.5q30 -53 54.5 -87t59 -67.5t76 -50t91.5 -16.5h82v-144h-117q-58 0 -108.5 16.5t-85 40t-70 65.5t-57 74.5t-52.5 86.5q-194 -98 -446 -98q-378 0 -603 202t-225 535zM305 717
q0 -270 180.5 -433t479.5 -163q208 0 366 84q-33 49 -63 83t-72 66.5t-95 49t-116 16.5h-172v149h172q74 0 137.5 -15.5t110 -39.5t89 -61.5t71 -72t59.5 -81.5q170 153 170 418q0 271 -178.5 433.5t-478.5 162.5q-299 0 -479.5 -163t-180.5 -433z" />
    <glyph glyph-name="R" unicode="R" horiz-adv-x="1837" 
d="M231 0v1434h793q288 0 427.5 -108t139.5 -325q0 -203 -110 -310t-320 -107h-49q61 -39 118.5 -100t97.5 -116t81.5 -106t89 -81.5t100.5 -30.5h162v-150h-198q-55 0 -103 18.5t-85.5 50t-72.5 72.5t-68 86.5t-67.5 92t-75.5 89.5t-87.5 77.5t-108.5 57.5t-133 29h-363
v-573h-168zM1020 1292h-621v-583h621q212 0 307.5 70t95.5 222q0 151 -95.5 221t-307.5 70z" />
    <glyph glyph-name="S" unicode="S" horiz-adv-x="1607" 
d="M1298 416q0 58 -23 99t-62.5 66t-108 40t-144.5 20t-186 6q-79 0 -138 3t-128 13t-118.5 26t-98 45t-78 68.5t-48 97t-18.5 130.5q0 417 678 424q276 3 570 -57v-148q-334 72 -607 66q-107 -2 -191.5 -19.5t-149 -51t-99.5 -89t-35 -129.5q0 -48 15 -84.5t47.5 -62
t76.5 -42.5t109.5 -26.5t137.5 -13.5t169 -4q74 0 128 -2.5t120 -11.5t113 -24.5t94 -44.5t76 -68.5t47 -98.5t18 -133q0 -214 -182 -323t-534 -105q-253 2 -605 63v150q22 -3 108 -17t155 -24.5t171.5 -20t188.5 -10.5q261 -2 396.5 72t135.5 221z" />
    <glyph glyph-name="T" unicode="T" horiz-adv-x="1726" 
d="M780 0v1286h-725v148h1616v-148h-725v-1286h-166z" />
    <glyph glyph-name="U" unicode="U" horiz-adv-x="1824" 
d="M913 121q250 0 392.5 123.5t142.5 351.5v840h164v-840q0 -291 -185.5 -453.5t-513.5 -162.5q-329 0 -515.5 162.5t-186.5 453.5v840h168v-840q0 -228 140.5 -351.5t393.5 -123.5z" />
    <glyph glyph-name="V" unicode="V" horiz-adv-x="1789" 
d="M717 0l-641 1434h176l565 -1284h158l563 1284h178l-643 -1434h-356z" />
    <glyph glyph-name="W" unicode="W" horiz-adv-x="2539" 
d="M580 0l-504 1434h166l432 -1231h45l430 1231h242l430 -1231h45l432 1231h166l-504 -1434h-236l-432 1239h-45l-432 -1239h-235z" />
    <glyph glyph-name="X" unicode="X" horiz-adv-x="1685" 
d="M80 1434h199l544 -633h49l539 633h199l-621 -723l617 -711h-199l-545 633h-47l-541 -635h-198l620 723z" />
    <glyph glyph-name="Y" unicode="Y" horiz-adv-x="1722" 
d="M780 0v563l-704 871h196l568 -709h43l565 709h199l-701 -867v-567h-166z" />
    <glyph glyph-name="Z" unicode="Z" horiz-adv-x="1548" 
d="M1440 1286l-1098 -1118v-21h1098v-147h-1331v147l1101 1121v18h-1101v148h1331v-148z" />
    <glyph glyph-name="bracketleft" unicode="[" horiz-adv-x="772" 
d="M178 -287v1782h498v-147h-334v-1487h334v-148h-498z" />
    <glyph glyph-name="backslash" unicode="\" horiz-adv-x="841" 
d="M815 -61h-151l-637 1556h151z" />
    <glyph glyph-name="bracketright" unicode="]" horiz-adv-x="772" 
d="M594 -287h-498v148h334v1487h-334v147h498v-1782z" />
    <glyph glyph-name="asciicircum" unicode="^" horiz-adv-x="1181" 
d="M510 1434h162l372 -830h-153l-301 676l-299 -676h-154z" />
    <glyph glyph-name="underscore" unicode="_" horiz-adv-x="1165" 
d="M137 -227v135h893v-135h-893z" />
    <glyph glyph-name="grave" unicode="`" horiz-adv-x="821" 
d="M674 1266h-189l-340 452h203z" />
    <glyph glyph-name="a" unicode="a" horiz-adv-x="1505" 
d="M117 342q0 172 138.5 257t422.5 85q303 0 473 -20v73q0 148 -92 218.5t-285 70.5q-288 0 -541 -55v141q254 55 525 55q286 0 421.5 -104t135.5 -322v-741h-156l-8 215q-77 -109 -220.5 -173.5t-324.5 -64.5q-239 0 -364 93t-125 272zM1151 401v148q-234 4 -485 4
q-195 0 -289 -53.5t-94 -163.5q0 -219 356 -219q112 0 219.5 34t188 100t104.5 150z" />
    <glyph glyph-name="b" unicode="b" horiz-adv-x="1667" 
d="M211 0v1516h164v-457q247 108 510 108q309 0 488 -161t179 -433q0 -271 -179 -432t-488 -161q-268 0 -520 112l-11 -92h-143zM866 119q242 0 380 122t138 332q0 209 -138 332t-380 123q-132 0 -265 -30t-226 -76v-697q94 -47 225.5 -76.5t265.5 -29.5z" />
    <glyph glyph-name="c" unicode="c" horiz-adv-x="1394" 
d="M840 -23q-337 1 -530 162.5t-193 433.5t193 433t530 161q210 0 440 -55v-141q-96 24 -224 39.5t-225 15.5q-255 0 -400.5 -122.5t-145.5 -330.5q0 -210 145 -331t401 -121q99 0 226.5 14.5t222.5 38.5v-141q-234 -56 -440 -56z" />
    <glyph glyph-name="d" unicode="d" horiz-adv-x="1675" 
d="M1462 0h-141l-10 92q-252 -112 -520 -112q-310 0 -489 160.5t-179 432.5t179 433t489 161q264 0 507 -108v457h164v-1516zM809 119q133 0 265 30t224 76v697q-91 46 -224.5 76t-264.5 30q-244 0 -382 -123t-138 -332q0 -210 138.5 -332t381.5 -122z" />
    <glyph glyph-name="e" unicode="e" horiz-adv-x="1478" 
d="M774 1167q266 0 427 -143.5t161 -382.5q0 -69 -12 -123h-1061q20 -187 161.5 -292t376.5 -105q107 0 244 14.5t225 38.5v-141q-216 -56 -458 -56q-336 1 -528.5 162.5t-192.5 433.5q0 268 179 431t478 163zM291 641h913q0 172 -120.5 278.5t-315.5 106.5
q-204 0 -330.5 -103t-146.5 -282z" />
    <glyph glyph-name="f" unicode="f" horiz-adv-x="1163" 
d="M342 0v1024h-322v123h322v76q0 188 130.5 301.5t346.5 113.5q78 0 178 -14t174 -47v-137q-75 26 -168 39.5t-157 13.5q-168 0 -254 -76.5t-86 -224.5v-45h624v-123h-624v-1024h-164z" />
    <glyph glyph-name="g" unicode="g" horiz-adv-x="1630" 
d="M1255 100v133q-224 -94 -471 -94q-310 0 -488.5 139.5t-178.5 374.5t178.5 374.5t488.5 139.5q246 0 478 -96l2 76h155v-1077q0 -214 -174 -342.5t-461 -128.5q-145 0 -300 26.5t-259 69.5v139q108 -39 257.5 -64t271.5 -24q237 3 369 96.5t132 257.5zM801 279
q245 0 454 90v569q-209 90 -454 90q-242 0 -380 -101.5t-138 -273.5q0 -173 138 -273.5t380 -100.5z" />
    <glyph glyph-name="h" unicode="h" 
d="M375 1516v-480q281 131 538 131q217 0 351.5 -108t134.5 -277v-782h-164v758q0 125 -93.5 197.5t-252.5 72.5q-233 0 -514 -131v-897h-164v1516h164z" />
    <glyph glyph-name="i" unicode="i" horiz-adv-x="587" 
d="M170 1495q0 56 33.5 84.5t93.5 28.5q56 0 88.5 -29t32.5 -84q0 -57 -32.5 -87t-88.5 -30q-60 0 -93.5 30t-33.5 87zM211 0v1147h164v-1147h-164z" />
    <glyph glyph-name="j" unicode="j" horiz-adv-x="929" 
d="M512 1495q0 56 33 84.5t92 28.5q57 0 90 -28.5t33 -84.5q0 -57 -33 -87t-90 -30q-58 0 -91.5 30t-33.5 87zM553 39v1108h164v-1139q0 -191 -116 -300t-318 -109q-179 0 -351 61v139q181 -53 326 -53q154 0 224.5 70.5t70.5 222.5z" />
    <glyph glyph-name="k" unicode="k" horiz-adv-x="1538" 
d="M211 0v1516h164v-959l762 590h219l-654 -506q66 -18 127.5 -55t108.5 -81t92 -94t85 -96t79.5 -83t84.5 -59.5t91 -22.5h141v-150h-178q-67 0 -126.5 26.5t-107 69.5t-93.5 95.5t-93.5 107.5t-97 102.5t-115.5 83t-139 47.5l-186 -143v-389h-164z" />
    <glyph glyph-name="l" unicode="l" horiz-adv-x="587" 
d="M211 0v1516h164v-1516h-164z" />
    <glyph glyph-name="m" unicode="m" horiz-adv-x="2308" 
d="M367 1147l4 -103q240 123 456 123q112 0 199 -42t141 -117q127 74 266 116.5t261 42.5q186 0 300.5 -108t114.5 -277v-782h-163v758q0 125 -77.5 197.5t-207.5 72.5q-194 0 -434 -131q16 -56 16 -115v-782h-164v758q0 125 -77 197.5t-207 72.5q-189 0 -420 -121v-907
h-164v1147h156z" />
    <glyph glyph-name="n" unicode="n" 
d="M367 1147l4 -113q289 133 542 133q217 0 351.5 -108t134.5 -277v-782h-164v758q0 125 -93.5 197.5t-252.5 72.5q-233 0 -514 -131v-897h-164v1147h156z" />
    <glyph glyph-name="o" unicode="o" horiz-adv-x="1589" 
d="M117 573q0 270 184.5 432t493.5 162t493.5 -162t184.5 -432t-184.5 -431.5t-493.5 -161.5t-493.5 161.5t-184.5 431.5zM285 573q0 -208 139 -330t371 -122q233 0 370.5 121.5t137.5 330.5q0 207 -138 330t-370 123q-231 0 -370.5 -123.5t-139.5 -329.5z" />
    <glyph glyph-name="p" unicode="p" horiz-adv-x="1681" 
d="M211 1145h143l11 -92q252 112 520 112q309 0 488 -161t179 -433t-179 -433t-488 -161q-256 0 -510 111v-418h-164v1475zM866 1026q-134 0 -265.5 -29.5t-225.5 -76.5v-697q95 -45 228 -75.5t263 -30.5q243 0 380.5 122.5t137.5 331.5q0 210 -138 332.5t-380 122.5z" />
    <glyph glyph-name="q" unicode="q" horiz-adv-x="1681" 
d="M1470 1145v-1475h-163v418q-254 -111 -510 -111q-309 0 -488.5 161.5t-179.5 432.5t179.5 432.5t488.5 161.5q268 0 520 -112l10 92h143zM815 1026q-242 0 -380 -122.5t-138 -332.5q0 -209 137.5 -331.5t380.5 -122.5q130 0 263.5 30.5t228.5 75.5v697q-94 46 -226 76
t-266 30z" />
    <glyph glyph-name="r" unicode="r" horiz-adv-x="1210" 
d="M211 1147h156l8 -248q97 123 243.5 195.5t309.5 72.5q112 0 186 -18v-145q-66 16 -153 16q-183 -2 -341 -81t-245 -216v-723h-164v1147z" />
    <glyph glyph-name="s" unicode="s" horiz-adv-x="1439" 
d="M1143 317q0 102 -97 144.5t-346 48.5q-56 1 -96 2.5t-92 6t-89 11.5t-79.5 18.5t-72 27.5t-58.5 39.5t-46 53t-27.5 68.5t-10.5 86q0 173 138.5 257t430.5 87q227 3 537 -57v-147q-343 71 -578 63q-189 -6 -274.5 -54.5t-85.5 -144.5q0 -67 41.5 -104t141 -55t288.5 -23
q66 -1 115.5 -4.5t109 -12t102.5 -22t85.5 -37.5t69 -55.5t43 -78.5t16.5 -105q0 -354 -623 -348q-243 2 -557 63v150q9 -1 96.5 -17.5t144 -25.5t155 -18.5t186.5 -10.5q219 -2 325.5 45t106.5 149z" />
    <glyph glyph-name="t" unicode="t" horiz-adv-x="1327" 
d="M377 1440l164 45v-338h651v-123h-651v-598q0 -156 86.5 -228.5t273.5 -72.5q69 0 162.5 13t169.5 42v-139q-135 -61 -356 -61q-235 0 -367.5 110t-132.5 305v629h-330v123h330v293z" />
    <glyph glyph-name="u" unicode="u" 
d="M1231 0l-4 113q-289 -133 -543 -133q-216 0 -350.5 108t-134.5 277v782h163v-758q0 -125 94 -197.5t253 -72.5q233 0 514 131v897h163v-1147h-155z" />
    <glyph glyph-name="v" unicode="v" horiz-adv-x="1505" 
d="M631 0l-590 1147h172l494 -973h92l493 973h172l-590 -1147h-243z" />
    <glyph glyph-name="w" unicode="w" horiz-adv-x="2191" 
d="M498 0l-457 1147h172l369 -946h53l371 946h180l370 -946h54l368 946h172l-456 -1147h-213l-361 926h-49l-360 -926h-213z" />
    <glyph glyph-name="x" unicode="x" horiz-adv-x="1372" 
d="M1126 0l-413 440h-60l-407 -440h-205l541 575l-539 572h205l414 -440h57l407 438h205l-536 -574l536 -571h-205z" />
    <glyph glyph-name="y" unicode="y" horiz-adv-x="1531" 
d="M680 -408h-162l238 463h-140l-575 1092h172l492 -944h126l484 944h176z" />
    <glyph glyph-name="z" unicode="z" horiz-adv-x="1388" 
d="M307 123h987v-123h-1198v123l985 901h-985v123h1198v-123z" />
    <glyph glyph-name="braceleft" unicode="{" horiz-adv-x="954" 
d="M96 532v144h189q35 0 54 21.5t19 58.5v512q0 100 56 163.5t149 63.5h295v-147h-246q-41 0 -65.5 -30t-24.5 -73v-485q0 -110 -84 -156q84 -46 84 -155v-486q0 -43 24.5 -72.5t65.5 -29.5h246v-148h-295q-92 0 -148.5 64t-56.5 164v512q0 37 -19 58t-54 21h-189z" />
    <glyph glyph-name="bar" unicode="|" horiz-adv-x="763" 
d="M301 -369v1878h164v-1878h-164z" />
    <glyph glyph-name="braceright" unicode="}" horiz-adv-x="954" 
d="M858 532h-188q-35 0 -54.5 -21t-19.5 -58v-512q0 -100 -56.5 -164t-148.5 -64h-295v148h246q41 0 65.5 29.5t24.5 72.5v486q0 109 84 155q-84 46 -84 156v485q0 43 -24.5 73t-65.5 30h-246v147h295q93 0 149 -63.5t56 -163.5v-512q0 -37 19.5 -58.5t54.5 -21.5h188v-144z
" />
    <glyph glyph-name="asciitilde" unicode="~" horiz-adv-x="1282" 
d="M631 631q-130 59 -230 59q-127 0 -264 -102v139q150 111 295 111q112 0 252 -64q129 -57 225 -57q125 0 236 100v-139q-126 -111 -264 -111q-110 0 -250 64z" />
    <glyph glyph-name="exclamdown" unicode="&#xa1;" horiz-adv-x="614" 
d="M178 1337q0 59 35 88t98 29q59 0 93 -29.5t34 -87.5t-34 -88t-93 -30q-63 0 -98 29.5t-35 88.5zM221 -20l8 995h156l8 -995h-172z" />
    <glyph glyph-name="cent" unicode="&#xa2;" horiz-adv-x="1501" 
d="M743 1362v311h164v-301q186 -2 416 -55v-141q-97 24 -222 39.5t-220 15.5q-249 0 -392 -122.5t-143 -330.5q0 -210 142.5 -331t392.5 -121q97 0 222 14.5t220 38.5v-141q-234 -54 -416 -56v-350h-164v363q-267 32 -416 186.5t-149 396.5t149.5 397t415.5 187z" />
    <glyph glyph-name="sterling" unicode="&#xa3;" horiz-adv-x="1703" 
d="M178 150q143 0 212 83t69 256v164h-281v135h281v250q0 192 161.5 304t438.5 112q97 0 220.5 -15t199.5 -46v-138q-77 26 -196.5 40t-207.5 14q-230 0 -340 -74t-110 -227v-220h727v-135h-727v-161q0 -131 -24 -214t-79 -128h1006v-150h-1350v150z" />
    <glyph glyph-name="currency" unicode="&#xa4;" horiz-adv-x="1337" 
d="M270 715q0 135 68 235l-201 199l96 98l201 -200q95 65 236 65q138 0 233 -65l201 200l96 -96l-201 -201q68 -95 68 -235q0 -139 -66 -236l199 -198l-96 -99l-201 201q-97 -66 -233 -66q-139 0 -236 66l-201 -201l-96 99l199 200q-66 97 -66 234zM406 715
q0 -119 72.5 -190.5t191.5 -71.5q118 0 190 71.5t72 190.5t-72 190.5t-190 71.5q-119 0 -191.5 -71.5t-72.5 -190.5z" />
    <glyph glyph-name="yen" unicode="&#xa5;" horiz-adv-x="1845" 
d="M379 559v135h356l-598 740h197l567 -709h43l565 709h199l-600 -740h356v-135h-1085zM379 193v135h1085v-135h-458v-193h-168v193h-459z" />
    <glyph glyph-name="brokenbar" unicode="&#xa6;" horiz-adv-x="763" 
d="M301 811v698h164v-698h-164zM301 -369v699h164v-699h-164z" />
    <glyph glyph-name="section" unicode="&#xa7;" horiz-adv-x="1566" 
d="M1223 119q0 99 -96 142t-330 46q-226 4 -362 41.5t-194.5 108t-58.5 182.5q0 140 90 227q-90 73 -90 211q0 363 606 369q231 3 531 -49v-148q-323 60 -553 54q-192 -2 -305 -59t-113 -171q0 -103 109 -150.5t366 -48.5q310 -4 438 -75.5t128 -237.5q0 -144 -84 -231
q84 -70 84 -207q0 -395 -644 -389q-244 2 -567 63v152q18 -3 97 -17.5t142 -24.5t158.5 -19.5t178.5 -10.5q229 -3 349 59t120 183zM1223 557q0 99 -96 142t-330 46q-230 3 -361 46q-88 -59 -88 -156q0 -103 109 -150.5t366 -48.5q212 -3 320 -37q80 64 80 158z" />
    <glyph glyph-name="dieresis" unicode="&#xa8;" horiz-adv-x="913" 
d="M137 1495q0 56 33 84.5t92 28.5q57 0 90 -28.5t33 -84.5q0 -57 -33 -87t-90 -30q-58 0 -91.5 30t-33.5 87zM528 1495q0 56 33.5 84.5t93.5 28.5q56 0 88.5 -29t32.5 -84q0 -57 -32.5 -87t-88.5 -30q-60 0 -93.5 30t-33.5 87z" />
    <glyph glyph-name="copyright" unicode="&#xa9;" horiz-adv-x="2074" 
d="M178 662q0 255 107 450t301.5 301.5t449.5 106.5q256 0 451 -106.5t302 -301.5t107 -450t-107 -450.5t-302.5 -302t-450.5 -106.5q-254 0 -449 106.5t-302 302t-107 450.5zM305 662q0 -218 91 -384t257 -257t383 -91q330 0 531.5 201t201.5 531t-201.5 530.5
t-531.5 200.5q-217 0 -383 -90.5t-257 -256.5t-91 -384zM1053 244q-243 0 -382 114t-139 306q0 194 139.5 307.5t385.5 113.5q121 0 311 -38v-123q-148 37 -317 37q-174 0 -271.5 -79t-97.5 -218q0 -138 97.5 -217.5t271.5 -79.5q173 0 317 36v-120q-173 -39 -315 -39z" />
    <glyph glyph-name="ordfeminine" unicode="&#xaa;" horiz-adv-x="1245" 
d="M137 803q0 136 110.5 203t334.5 67q228 0 368 -14v51q-1 112 -72.5 164.5t-222.5 52.5q-236 0 -426 -43v131q203 45 424 45q230 0 342.5 -84t112.5 -256v-590h-143l-11 160q-62 -82 -173.5 -130t-250.5 -48q-190 0 -291.5 75t-101.5 216zM952 848v108q-225 5 -364 5
q-148 0 -219.5 -39.5t-71.5 -122.5q0 -164 268 -164q132 0 246 59.5t141 153.5z" />
    <glyph glyph-name="guillemotleft" unicode="&#xab;" horiz-adv-x="1175" 
d="M137 702l269 326h184l-307 -381l307 -381h-184l-269 328v108zM586 702l270 326h182l-307 -381l307 -381h-182l-270 328v108z" />
    <glyph glyph-name="logicalnot" unicode="&#xac;" horiz-adv-x="1331" 
d="M137 696v135h1016v-483h-135v348h-881z" />
    <glyph glyph-name="registered" unicode="&#xae;" horiz-adv-x="2074" 
d="M178 662q0 255 107 450t301.5 301.5t449.5 106.5q256 0 451 -106.5t302 -301.5t107 -450t-107 -450.5t-302.5 -302t-450.5 -106.5q-254 0 -449 106.5t-302 302t-107 450.5zM305 662q0 -218 91 -384t257 -257t383 -91q330 0 531.5 201t201.5 531t-201.5 530.5
t-531.5 200.5q-217 0 -383 -90.5t-257 -256.5t-91 -384zM602 252v838h483q181 0 268 -66t87 -199q0 -232 -238 -247h-26q36 -23 72 -60.5t58.5 -67t53.5 -51.5t65 -22h99v-127h-119q-43 0 -80.5 17t-65.5 44t-55 60t-56 66.5t-60.5 62t-75 47.5t-94.5 22h-173v-317h-143z
M1085 971h-340v-299h340q109 0 160 36t51 113t-51.5 113.5t-159.5 36.5z" />
    <glyph glyph-name="macron" unicode="&#xaf;" horiz-adv-x="915" 
d="M137 1423v138h641v-138h-641z" />
    <glyph glyph-name="degree" unicode="&#xb0;" horiz-adv-x="958" 
d="M137 1112q0 154 94 248t248 94t248 -94t94 -248t-94 -249t-248 -95t-248 95t-94 249zM272 1112q0 -93 57 -150t150 -57t150 57t57 150q0 92 -57.5 148.5t-149.5 56.5t-149.5 -56.5t-57.5 -148.5z" />
    <glyph glyph-name="plusminus" unicode="&#xb1;" horiz-adv-x="1236" 
d="M162 666v135h389v336h135v-336h389v-135h-389v-336h-135v336h-389zM162 0v137h913v-137h-913z" />
    <glyph glyph-name="twosuperior" unicode="&#xb2;" horiz-adv-x="1134" 
d="M293 643h704v-133h-858v133q0 59 13.5 107.5t33.5 82t54.5 60.5t65.5 43t78 29.5t80 19.5t83 14q143 25 181 38q100 32 112 105q2 12 2 25q0 159 -289 162q-184 3 -371 -43v131q188 40 369 37q216 0 331 -66t115 -214q0 -67 -21.5 -117t-54 -78t-83.5 -47t-96.5 -28
t-106.5 -18q-25 -3 -37 -5q-56 -8 -94 -16.5t-81.5 -25.5t-69 -41t-43 -63.5t-17.5 -91.5z" />
    <glyph glyph-name="threesuperior" unicode="&#xb3;" horiz-adv-x="1120" 
d="M139 535v131q187 -42 385 -39q305 3 305 145q0 73 -82.5 110.5t-232.5 37.5h-266v110h254q143 0 222 39t79 113q0 140 -285 143q-187 3 -364 -39v131q167 37 360 37q227 -1 335.5 -63.5t108.5 -188.5q0 -168 -190 -223q215 -56 215 -227q0 -128 -114 -190t-353 -62
q-202 -3 -377 35z" />
    <glyph glyph-name="acute" unicode="&#xb4;" horiz-adv-x="821" 
d="M145 1266l326 452h203l-340 -452h-189z" />
    <glyph glyph-name="paragraph" unicode="&#xb6;" horiz-adv-x="1511" 
d="M623 -426v993q-199 0 -322 119t-123 313q0 195 123 315t322 120h163v-1860h-163zM1047 -426v1860h163v-1860h-163z" />
    <glyph glyph-name="periodcentered" unicode="&#xb7;" horiz-adv-x="614" 
d="M178 719q0 59 35 88t98 29q59 0 93 -29.5t34 -87.5t-34 -88.5t-93 -30.5q-63 0 -98 30t-35 89z" />
    <glyph glyph-name="cedilla" unicode="&#xb8;" horiz-adv-x="645" 
d="M367 -66q67 -32 103 -84t38 -116q0 -112 -96 -169.5t-275 -45.5v110q98 -10 157.5 28.5t57.5 111.5q0 44 -39 87t-106 72l55 95h154z" />
    <glyph glyph-name="onesuperior" unicode="&#xb9;" horiz-adv-x="770" 
d="M344 500v800h-246v132h400v-932h-154z" />
    <glyph glyph-name="ordmasculine" unicode="&#xba;" horiz-adv-x="1366" 
d="M137 989q0 214 147 341.5t398 127.5q252 0 398.5 -127t146.5 -342q0 -216 -146.5 -343.5t-398.5 -127.5q-251 0 -398 128t-147 343zM297 989q0 -156 104.5 -247t280.5 -91q177 0 281 91t104 247q0 155 -104 245.5t-281 90.5q-176 0 -280.5 -90.5t-104.5 -245.5z" />
    <glyph glyph-name="guillemotright" unicode="&#xbb;" horiz-adv-x="1175" 
d="M1038 702v-108l-268 -328h-184l307 381l-307 381h184zM590 702v-108l-271 -328h-182l307 381l-307 381h182z" />
    <glyph glyph-name="onequarter" unicode="&#xbc;" horiz-adv-x="2291" 
d="M567 -61l637 1556h152l-637 -1556h-152zM342 500v800h-246v132h400v-932h-154zM1845 0v242h-647v133l514 557h287v-557h155v-133h-155v-242h-154zM1372 375h473v424h-82z" />
    <glyph glyph-name="onehalf" unicode="&#xbd;" horiz-adv-x="2367" 
d="M567 -61l637 1556h152l-637 -1556h-152zM342 500v800h-246v132h400v-932h-154zM1528 133h704v-133h-860v133q0 59 13.5 107.5t33.5 82t54.5 60.5t65.5 43t78 29.5t80 19.5t83 14q145 25 187 40q100 36 107 114q1 7 1 14q0 156 -289 162q-185 0 -371 -43v131
q188 40 369 37q448 0 448 -282q0 -67 -24 -116.5t-49.5 -76t-88.5 -48t-92.5 -27t-109.5 -17.5q-25 -4 -37 -6q-56 -8 -93.5 -16t-80.5 -25.5t-68.5 -41.5t-43 -63.5t-17.5 -91.5z" />
    <glyph glyph-name="threequarters" unicode="&#xbe;" horiz-adv-x="2691" 
d="M969 -61l637 1556h151l-637 -1556h-151zM137 535v131q187 -42 385 -39q305 3 305 145q0 73 -82.5 110.5t-232.5 37.5h-266v110h254q143 0 222 39t79 113q0 140 -285 143q-187 3 -364 -39v131q167 37 360 37q227 -1 335.5 -63.5t108.5 -188.5q0 -168 -190 -223
q215 -56 215 -227q0 -128 -114 -190t-353 -62q-202 -3 -377 35zM2245 0v242h-648v133l514 557h287v-557h156v-133h-156v-242h-153zM1772 375h473v424h-82z" />
    <glyph glyph-name="questiondown" unicode="&#xbf;" horiz-adv-x="1314" 
d="M840 1339q0 -59 -35 -88.5t-98 -29.5q-59 0 -93 30t-34 88t34 87.5t93 29.5q63 0 98 -29t35 -88zM672 1040h155q12 -65 11.5 -119.5t-8.5 -95t-28.5 -75.5t-41.5 -58.5t-56 -47t-62 -38t-69 -33.5q-60 -27 -96.5 -47.5t-69.5 -48.5t-48 -62.5t-15 -78.5q0 -102 85 -157
t249 -58q102 -2 228 15.5t231 49.5v-147q-225 -60 -455 -57q-504 6 -504 350q0 54 10 98t32.5 79t46.5 61t64.5 51t72 41t83.5 40q38 17 65 32.5t53.5 36.5t42 45.5t25.5 56.5t9.5 74t-10.5 93z" />
    <glyph glyph-name="Agrave" unicode="&#xc0;" horiz-adv-x="1789" 
d="M76 0l641 1434h356l643 -1434h-178l-162 369h-960l-164 -369h-176zM473 504h844l-342 780h-158zM1014 1575h-164l-258 358h199z" />
    <glyph glyph-name="Aacute" unicode="&#xc1;" horiz-adv-x="1789" 
d="M76 0l641 1434h356l643 -1434h-178l-162 369h-960l-164 -369h-176zM473 504h844l-342 780h-158zM961 1575h-164l223 358h199z" />
    <glyph glyph-name="Acircumflex" unicode="&#xc2;" horiz-adv-x="1789" 
d="M76 0l641 1434h356l643 -1434h-178l-162 369h-960l-164 -369h-176zM473 504h844l-342 780h-158zM535 1554l266 359h194l269 -359h-160l-168 218h-76l-168 -218h-157z" />
    <glyph glyph-name="Atilde" unicode="&#xc3;" horiz-adv-x="1789" 
d="M76 0l641 1434h356l643 -1434h-178l-162 369h-960l-164 -369h-176zM473 504h844l-342 780h-158zM872 1663q-87 53 -155 53q-92 0 -189 -100v151q102 105 201 105q27 0 57.5 -9t49.5 -18.5t55 -29.5t49 -27q73 -39 129 -39q97 0 203 98v-151q-112 -101 -215 -101
q-34 0 -70 11.5t-57 23t-58 33.5z" />
    <glyph glyph-name="Adieresis" unicode="&#xc4;" horiz-adv-x="1789" 
d="M575 1782q0 56 33 84t92 28q57 0 90 -28.5t33 -83.5q0 -57 -33 -87t-90 -30q-58 0 -91.5 30t-33.5 87zM967 1782q0 56 33.5 84t93.5 28q56 0 88 -28.5t32 -83.5q0 -57 -32 -87t-88 -30q-60 0 -93.5 30t-33.5 87zM76 0l641 1434h356l643 -1434h-178l-162 369h-960
l-164 -369h-176zM473 504h844l-342 780h-158z" />
    <glyph glyph-name="Aring" unicode="&#xc5;" horiz-adv-x="1789" 
d="M612 1804q0 123 77.5 198t207.5 75q129 0 206 -75t77 -198q0 -125 -77 -199.5t-206 -74.5q-130 0 -207.5 74.5t-77.5 199.5zM748 1804q0 -65 40.5 -105t108.5 -40q67 0 107 40t40 105q0 64 -40 104t-107 40q-68 0 -108.5 -39.5t-40.5 -104.5zM76 0l641 1434h356
l643 -1434h-178l-162 369h-960l-164 -369h-176zM473 504h844l-342 780h-158z" />
    <glyph glyph-name="AE" unicode="&#xc6;" horiz-adv-x="2379" 
d="M1124 0v369h-708l-164 -369h-176l641 1434h1505v-148h-932v-459h766v-147h-766v-533h932v-147h-1098zM473 504h651v780h-307z" />
    <glyph glyph-name="Ccedilla" unicode="&#xc7;" horiz-adv-x="1691" 
d="M965 123q373 0 612 67v-149q-236 -58 -557 -61l-27 -46q68 -32 105 -84.5t37 -115.5q2 -112 -95 -169.5t-276 -45.5v110q98 -10 157.5 28t59.5 112q-2 45 -40.5 87.5t-106.5 71.5l34 58q-345 32 -538 226.5t-193 504.5q0 340 231 538.5t633 198.5q340 0 576 -61v-148
q-115 32 -275 50t-311 18q-323 0 -504.5 -159t-181.5 -437q0 -271 175 -429.5t485 -164.5z" />
    <glyph glyph-name="Egrave" unicode="&#xc8;" horiz-adv-x="1624" 
d="M231 0v1434h1237v-148h-1069v-459h901v-147h-901v-533h1069v-147h-1237zM1014 1575h-164l-258 358h199z" />
    <glyph glyph-name="Eacute" unicode="&#xc9;" horiz-adv-x="1624" 
d="M231 0v1434h1237v-148h-1069v-459h901v-147h-901v-533h1069v-147h-1237zM903 1575h-164l224 358h198z" />
    <glyph glyph-name="Ecircumflex" unicode="&#xca;" horiz-adv-x="1624" 
d="M231 0v1434h1237v-148h-1069v-459h901v-147h-901v-533h1069v-147h-1237zM467 1554l266 359h195l268 -359h-160l-168 218h-75l-168 -218h-158z" />
    <glyph glyph-name="Edieresis" unicode="&#xcb;" horiz-adv-x="1624" 
d="M494 1782q0 56 32.5 84t91.5 28q57 0 90 -28.5t33 -83.5q0 -57 -33 -87t-90 -30q-58 0 -91 30t-33 87zM885 1782q0 56 33.5 84t93.5 28q56 0 88.5 -28.5t32.5 -83.5q0 -57 -32.5 -87t-88.5 -30q-60 0 -93.5 30t-33.5 87zM231 0v1434h1237v-148h-1069v-459h901v-147h-901
v-533h1069v-147h-1237z" />
    <glyph glyph-name="Igrave" unicode="&#xcc;" horiz-adv-x="630" 
d="M231 0v1434h168v-1434h-168zM403 1575h-163l-258 358h198z" />
    <glyph glyph-name="Iacute" unicode="&#xcd;" horiz-adv-x="630" 
d="M231 0v1434h168v-1434h-168zM395 1575h-164l224 358h198z" />
    <glyph glyph-name="Icircumflex" unicode="&#xce;" horiz-adv-x="630" 
d="M-111 1554l308 441h235l309 -441h-190l-199 299h-76l-198 -299h-189zM231 0v1434h168v-1434h-168z" />
    <glyph glyph-name="Idieresis" unicode="&#xcf;" horiz-adv-x="630" 
d="M-4 1782q0 56 33 84t92 28q57 0 90 -28.5t33 -83.5q0 -57 -33 -87t-90 -30q-58 0 -91.5 30t-33.5 87zM387 1782q0 56 33.5 84t93.5 28q56 0 88.5 -28.5t32.5 -83.5q0 -57 -32.5 -87t-88.5 -30q-60 0 -93.5 30t-33.5 87zM231 0v1434h168v-1434h-168z" />
    <glyph glyph-name="Eth" unicode="&#xd0;" horiz-adv-x="1925" 
d="M303 0v653h-248v135h248v646h737q343 0 545.5 -194t202.5 -523t-202.5 -523t-545.5 -194h-737zM1040 1292h-569v-504h547v-135h-547v-512h569q265 0 421.5 155t156.5 421t-156.5 420.5t-421.5 154.5z" />
    <glyph glyph-name="Ntilde" unicode="&#xd1;" horiz-adv-x="1824" 
d="M889 1712q-80 53 -141 53q-84 0 -173 -100v147q94 105 183 105q25 0 53 -9.5t45 -18.5t50 -29.5t44 -26.5q66 -39 117 -39q86 0 184 98v-147q-100 -100 -194 -100q-31 0 -63.5 11t-53 23t-51.5 33zM231 0v1434h168l1002 -1155h26v1155h166v-1434h-168l-999 1153h-27
v-1153h-168z" />
    <glyph glyph-name="Ograve" unicode="&#xd2;" horiz-adv-x="1929" 
d="M137 717q0 333 225 535t603 202t602.5 -202t224.5 -535t-224.5 -535t-602.5 -202t-603 202t-225 535zM305 717q0 -270 180.5 -433t479.5 -163q300 0 478.5 162.5t178.5 433.5t-178.5 433.5t-478.5 162.5q-299 0 -479.5 -163t-180.5 -433zM1067 1575h-164l-258 358h199z
" />
    <glyph glyph-name="Oacute" unicode="&#xd3;" horiz-adv-x="1929" 
d="M137 717q0 333 225 535t603 202t602.5 -202t224.5 -535t-224.5 -535t-602.5 -202t-603 202t-225 535zM305 717q0 -270 180.5 -433t479.5 -163q300 0 478.5 162.5t178.5 433.5t-178.5 433.5t-478.5 162.5q-299 0 -479.5 -163t-180.5 -433zM1028 1575h-164l223 358h199z
" />
    <glyph glyph-name="Ocircumflex" unicode="&#xd4;" horiz-adv-x="1929" 
d="M137 717q0 333 225 535t603 202t602.5 -202t224.5 -535t-224.5 -535t-602.5 -202t-603 202t-225 535zM305 717q0 -270 180.5 -433t479.5 -163q300 0 478.5 162.5t178.5 433.5t-178.5 433.5t-478.5 162.5q-299 0 -479.5 -163t-180.5 -433zM600 1554l266 359h195l268 -359
h-160l-168 218h-75l-168 -218h-158z" />
    <glyph glyph-name="Otilde" unicode="&#xd5;" horiz-adv-x="1929" 
d="M137 717q0 333 225 535t603 202t602.5 -202t224.5 -535t-224.5 -535t-602.5 -202t-603 202t-225 535zM305 717q0 -270 180.5 -433t479.5 -163q300 0 478.5 162.5t178.5 433.5t-178.5 433.5t-478.5 162.5q-299 0 -479.5 -163t-180.5 -433zM936 1663q-87 53 -156 53
q-91 0 -188 -100v151q102 105 201 105q27 0 57.5 -9t49.5 -18.5t55 -29.5t49 -27q73 -39 129 -39q96 0 202 98v-151q-112 -101 -215 -101q-33 0 -69.5 11.5t-56.5 22.5t-58 34z" />
    <glyph glyph-name="Odieresis" unicode="&#xd6;" horiz-adv-x="1929" 
d="M645 1782q0 56 33 84t92 28q57 0 90 -28.5t33 -83.5q0 -57 -33 -87t-90 -30q-58 0 -91.5 30t-33.5 87zM1036 1782q0 56 33.5 84t93.5 28q56 0 88.5 -28.5t32.5 -83.5q0 -57 -32.5 -87t-88.5 -30q-60 0 -93.5 30t-33.5 87zM137 717q0 333 225 535t603 202t602.5 -202
t224.5 -535t-224.5 -535t-602.5 -202t-603 202t-225 535zM305 717q0 -270 180.5 -433t479.5 -163q300 0 478.5 162.5t178.5 433.5t-178.5 433.5t-478.5 162.5q-299 0 -479.5 -163t-180.5 -433z" />
    <glyph glyph-name="multiply" unicode="&#xd7;" horiz-adv-x="1097" 
d="M178 958l96 97l275 -277l274 277l97 -97l-275 -276l275 -274l-97 -97l-274 275l-275 -275l-96 97l275 274z" />
    <glyph glyph-name="Oslash" unicode="&#xd8;" horiz-adv-x="1929" 
d="M137 717q0 333 225 535t603 202q102 0 219 -20l45 112h149l-59 -149q224 -78 348.5 -256.5t124.5 -423.5q0 -333 -224.5 -535t-602.5 -202q-104 0 -217 20l-52 -127h-149l65 164q-224 80 -349.5 258t-125.5 422zM305 717q0 -193 95.5 -334.5t267.5 -208.5l460 1122
q-87 17 -163 17q-299 0 -479.5 -163t-180.5 -433zM1262 1260l-459 -1125q71 -14 162 -14q300 0 478.5 162.5t178.5 433.5q0 195 -94 336t-266 207z" />
    <glyph glyph-name="Ugrave" unicode="&#xd9;" horiz-adv-x="1824" 
d="M913 121q250 0 392.5 123.5t142.5 351.5v840h164v-840q0 -291 -185.5 -453.5t-513.5 -162.5q-329 0 -515.5 162.5t-186.5 453.5v840h168v-840q0 -228 140.5 -351.5t393.5 -123.5zM1087 1575h-163l-258 358h198z" />
    <glyph glyph-name="Uacute" unicode="&#xda;" horiz-adv-x="1824" 
d="M913 121q250 0 392.5 123.5t142.5 351.5v840h164v-840q0 -291 -185.5 -453.5t-513.5 -162.5q-329 0 -515.5 162.5t-186.5 453.5v840h168v-840q0 -228 140.5 -351.5t393.5 -123.5zM948 1575h-164l224 358h198z" />
    <glyph glyph-name="Ucircumflex" unicode="&#xdb;" horiz-adv-x="1824" 
d="M487 1554l308 441h235l309 -441h-190l-199 299h-76l-198 -299h-189zM913 121q250 0 392.5 123.5t142.5 351.5v840h164v-840q0 -291 -185.5 -453.5t-513.5 -162.5q-329 0 -515.5 162.5t-186.5 453.5v840h168v-840q0 -228 140.5 -351.5t393.5 -123.5z" />
    <glyph glyph-name="Udieresis" unicode="&#xdc;" horiz-adv-x="1824" 
d="M594 1782q0 56 33 84t92 28q57 0 90 -28.5t33 -83.5q0 -57 -33 -87t-90 -30q-58 0 -91.5 30t-33.5 87zM985 1782q0 56 33.5 84t93.5 28q56 0 88.5 -28.5t32.5 -83.5q0 -57 -32.5 -87t-88.5 -30q-60 0 -93.5 30t-33.5 87zM913 121q250 0 392.5 123.5t142.5 351.5v840h164
v-840q0 -291 -185.5 -453.5t-513.5 -162.5q-329 0 -515.5 162.5t-186.5 453.5v840h168v-840q0 -228 140.5 -351.5t393.5 -123.5z" />
    <glyph glyph-name="Yacute" unicode="&#xdd;" horiz-adv-x="1722" 
d="M780 0v563l-704 871h196l568 -709h43l565 709h199l-701 -867v-567h-166zM899 1575h-164l223 358h199z" />
    <glyph glyph-name="Thorn" unicode="&#xde;" horiz-adv-x="1728" 
d="M231 0v1434h168v-265h625q288 0 427.5 -112.5t139.5 -339.5t-139 -339t-428 -112h-625v-266h-168zM399 408h621q212 0 307.5 74.5t95.5 234.5q0 161 -95.5 235t-307.5 74h-621v-618z" />
    <glyph glyph-name="germandbls" unicode="&#xdf;" horiz-adv-x="1712" 
d="M211 0v1200q0 125 69.5 225.5t194.5 156.5t281 56q268 0 399 -91t131 -257q0 -66 -20 -120t-51.5 -90t-70 -66.5t-77 -54.5t-70 -47.5t-51.5 -53.5t-20 -65q0 -39 28 -64.5t74.5 -37t105.5 -23.5t120.5 -21.5t120.5 -32.5t105.5 -55.5t74.5 -92t28 -140.5
q0 -350 -457 -344q-229 3 -397 63v150q68 -26 178.5 -48.5t216.5 -23.5q150 -1 220.5 45.5t70.5 144.5q0 71 -36 116t-94 65t-127.5 32t-139.5 25t-128 36t-94 73t-36 128q0 49 19.5 91.5t51 73.5t69.5 60t76 57.5t69.5 58t51 69t19.5 84.5q0 99 -93.5 155t-266.5 56
q-186 0 -283.5 -83.5t-97.5 -240.5v-1169h-164z" />
    <glyph glyph-name="agrave" unicode="&#xe0;" horiz-adv-x="1505" 
d="M117 342q0 172 138.5 257t422.5 85q303 0 473 -20v73q0 148 -92 218.5t-285 70.5q-288 0 -541 -55v141q254 55 525 55q286 0 421.5 -104t135.5 -322v-741h-156l-8 215q-77 -109 -220.5 -173.5t-324.5 -64.5q-239 0 -364 93t-125 272zM1151 401v148q-234 4 -485 4
q-195 0 -289 -53.5t-94 -163.5q0 -219 356 -219q112 0 219.5 34t188 100t104.5 150zM889 1288h-164l-258 359h199z" />
    <glyph glyph-name="aacute" unicode="&#xe1;" horiz-adv-x="1505" 
d="M117 342q0 172 138.5 257t422.5 85q303 0 473 -20v73q0 148 -92 218.5t-285 70.5q-288 0 -541 -55v141q254 55 525 55q286 0 421.5 -104t135.5 -322v-741h-156l-8 215q-77 -109 -220.5 -173.5t-324.5 -64.5q-239 0 -364 93t-125 272zM1151 401v148q-234 4 -485 4
q-195 0 -289 -53.5t-94 -163.5q0 -219 356 -219q112 0 219.5 34t188 100t104.5 150zM795 1288h-164l223 359h199z" />
    <glyph glyph-name="acircumflex" unicode="&#xe2;" horiz-adv-x="1505" 
d="M117 342q0 172 138.5 257t422.5 85q303 0 473 -20v73q0 148 -92 218.5t-285 70.5q-288 0 -541 -55v141q254 55 525 55q286 0 421.5 -104t135.5 -322v-741h-156l-8 215q-77 -109 -220.5 -173.5t-324.5 -64.5q-239 0 -364 93t-125 272zM1151 401v148q-234 4 -485 4
q-195 0 -289 -53.5t-94 -163.5q0 -219 356 -219q112 0 219.5 34t188 100t104.5 150zM391 1268l266 358h195l268 -358h-159l-168 217h-76l-168 -217h-158z" />
    <glyph glyph-name="atilde" unicode="&#xe3;" horiz-adv-x="1505" 
d="M117 342q0 172 138.5 257t422.5 85q303 0 473 -20v73q0 148 -92 218.5t-285 70.5q-288 0 -541 -55v141q254 55 525 55q286 0 421.5 -104t135.5 -322v-741h-156l-8 215q-77 -109 -220.5 -173.5t-324.5 -64.5q-239 0 -364 93t-125 272zM1151 401v148q-234 4 -485 4
q-195 0 -289 -53.5t-94 -163.5q0 -219 356 -219q112 0 219.5 34t188 100t104.5 150zM731 1376q-89 54 -156 54q-90 0 -188 -101v152q101 104 201 104q27 0 57.5 -9t49.5 -18.5t55 -29.5t49 -27q73 -39 129 -39q95 0 202 99v-152q-111 -100 -215 -100q-34 0 -69.5 11
t-56.5 22.5t-58 33.5z" />
    <glyph glyph-name="adieresis" unicode="&#xe4;" horiz-adv-x="1505" 
d="M434 1495q0 56 33 84.5t92 28.5q57 0 90 -28.5t33 -84.5q0 -57 -33 -87t-90 -30q-58 0 -91.5 30t-33.5 87zM825 1495q0 56 33.5 84.5t93.5 28.5q56 0 88.5 -29t32.5 -84q0 -57 -32.5 -87t-88.5 -30q-60 0 -93.5 30t-33.5 87zM117 342q0 172 138.5 257t422.5 85
q303 0 473 -20v73q0 148 -92 218.5t-285 70.5q-288 0 -541 -55v141q254 55 525 55q286 0 421.5 -104t135.5 -322v-741h-156l-8 215q-77 -109 -220.5 -173.5t-324.5 -64.5q-239 0 -364 93t-125 272zM1151 401v148q-234 4 -485 4q-195 0 -289 -53.5t-94 -163.5
q0 -219 356 -219q112 0 219.5 34t188 100t104.5 150z" />
    <glyph glyph-name="aring" unicode="&#xe5;" horiz-adv-x="1505" 
d="M469 1518q0 123 77.5 197.5t207.5 74.5q129 0 205.5 -74.5t76.5 -197.5q0 -125 -76.5 -200t-205.5 -75q-130 0 -207.5 75t-77.5 200zM604 1518q0 -65 41 -105.5t109 -40.5q67 0 107 40.5t40 105.5q0 64 -40 103.5t-107 39.5q-69 0 -109.5 -39t-40.5 -104zM117 342
q0 172 138.5 257t422.5 85q303 0 473 -20v73q0 148 -92 218.5t-285 70.5q-288 0 -541 -55v141q254 55 525 55q286 0 421.5 -104t135.5 -322v-741h-156l-8 215q-77 -109 -220.5 -173.5t-324.5 -64.5q-239 0 -364 93t-125 272zM1151 401v148q-234 4 -485 4q-195 0 -289 -53.5
t-94 -163.5q0 -219 356 -219q112 0 219.5 34t188 100t104.5 150z" />
    <glyph glyph-name="ae" unicode="&#xe6;" horiz-adv-x="2521" 
d="M117 342q0 172 138.5 257t422.5 85q303 0 473 -20v73q0 148 -92 218.5t-285 70.5q-288 0 -541 -55v141q254 55 525 55q424 0 518 -247q80 118 219 182.5t322 64.5q266 0 426.5 -143.5t160.5 -382.5q0 -69 -12 -123h-1061q20 -187 162 -292t377 -105q107 0 244 14.5
t225 38.5v-141q-216 -56 -459 -56q-188 0 -332.5 58.5t-232.5 165.5v-201h-156l-8 215q-77 -109 -220.5 -173.5t-324.5 -64.5q-239 0 -364 93t-125 272zM1333 641h914q0 172 -121 278.5t-316 106.5q-204 0 -330.5 -103t-146.5 -282zM1151 401v148q-238 4 -485 4
q-195 0 -289 -53.5t-94 -163.5q0 -219 356 -219q112 0 219.5 34t188 100t104.5 150z" />
    <glyph glyph-name="ccedilla" unicode="&#xe7;" horiz-adv-x="1394" 
d="M823 -23l-28 -49q67 -32 103 -84t38 -114q0 -114 -95.5 -170.5t-275.5 -46.5v112q98 -12 157.5 25.5t57.5 111.5q0 46 -39 89t-106 71l39 70q-263 37 -410 190.5t-147 390.5q0 272 193 433t530 161q210 0 440 -55v-141q-96 24 -224 39.5t-225 15.5q-255 0 -400.5 -122.5
t-145.5 -330.5q0 -210 145 -331t401 -121q99 0 226.5 14.5t222.5 38.5v-141q-243 -56 -457 -56z" />
    <glyph glyph-name="egrave" unicode="&#xe8;" horiz-adv-x="1478" 
d="M774 1167q266 0 427 -143.5t161 -382.5q0 -69 -12 -123h-1061q20 -187 161.5 -292t376.5 -105q107 0 244 14.5t225 38.5v-141q-216 -56 -458 -56q-336 1 -528.5 162.5t-192.5 433.5q0 268 179 431t478 163zM291 641h913q0 172 -120.5 278.5t-315.5 106.5
q-204 0 -330.5 -103t-146.5 -282zM909 1288h-164l-258 359h199z" />
    <glyph glyph-name="eacute" unicode="&#xe9;" horiz-adv-x="1478" 
d="M774 1167q266 0 427 -143.5t161 -382.5q0 -69 -12 -123h-1061q20 -187 161.5 -292t376.5 -105q107 0 244 14.5t225 38.5v-141q-216 -56 -458 -56q-336 1 -528.5 162.5t-192.5 433.5q0 268 179 431t478 163zM291 641h913q0 172 -120.5 278.5t-315.5 106.5
q-204 0 -330.5 -103t-146.5 -282zM829 1288h-163l223 359h198z" />
    <glyph glyph-name="ecircumflex" unicode="&#xea;" horiz-adv-x="1478" 
d="M774 1167q266 0 427 -143.5t161 -382.5q0 -69 -12 -123h-1061q20 -187 161.5 -292t376.5 -105q107 0 244 14.5t225 38.5v-141q-216 -56 -458 -56q-336 1 -528.5 162.5t-192.5 433.5q0 268 179 431t478 163zM291 641h913q0 172 -120.5 278.5t-315.5 106.5
q-204 0 -330.5 -103t-146.5 -282zM391 1268l266 358h195l268 -358h-159l-168 217h-76l-168 -217h-158z" />
    <glyph glyph-name="edieresis" unicode="&#xeb;" horiz-adv-x="1478" 
d="M420 1495q0 56 33 84.5t92 28.5q57 0 90 -28.5t33 -84.5q0 -57 -33 -87t-90 -30q-58 0 -91.5 30t-33.5 87zM811 1495q0 56 33.5 84.5t93.5 28.5q56 0 88.5 -29t32.5 -84q0 -57 -32.5 -87t-88.5 -30q-60 0 -93.5 30t-33.5 87zM774 1167q266 0 427 -143.5t161 -382.5
q0 -69 -12 -123h-1061q20 -187 161.5 -292t376.5 -105q107 0 244 14.5t225 38.5v-141q-216 -56 -458 -56q-336 1 -528.5 162.5t-192.5 433.5q0 268 179 431t478 163zM291 641h913q0 172 -120.5 278.5t-315.5 106.5q-204 0 -330.5 -103t-146.5 -282z" />
    <glyph glyph-name="igrave" unicode="&#xec;" horiz-adv-x="587" 
d="M211 0v1147h164v-1147h-164zM379 1288h-164l-258 359h199z" />
    <glyph glyph-name="iacute" unicode="&#xed;" horiz-adv-x="587" 
d="M211 0v1147h164v-1147h-164zM375 1288h-164l223 359h199z" />
    <glyph glyph-name="icircumflex" unicode="&#xee;" horiz-adv-x="587" 
d="M-131 1268l307 440h236l309 -440h-191l-198 299h-76l-199 -299h-188zM211 0v1147h164v-1147h-164z" />
    <glyph glyph-name="idieresis" unicode="&#xef;" horiz-adv-x="587" 
d="M-27 1495q0 56 33 84.5t92 28.5q57 0 90 -28.5t33 -84.5q0 -57 -33 -87t-90 -30q-58 0 -91.5 30t-33.5 87zM365 1495q0 56 33.5 84.5t93.5 28.5q56 0 88 -28.5t32 -84.5q0 -57 -32 -87t-88 -30q-60 0 -93.5 30t-33.5 87zM211 0v1147h164v-1147h-164z" />
    <glyph glyph-name="eth" unicode="&#xf0;" horiz-adv-x="1499" 
d="M1370 719q0 -361 -170.5 -550t-494.5 -189q-266 0 -421 120t-155 334q0 206 137.5 322t388.5 116q267 0 543 -165q0 168 -66.5 288.5t-211.5 196.5l-240 -231l-80 86l197 192q-183 65 -449 68l27 145q321 -3 545 -96l170 162l79 -86l-135 -129q164 -94 250 -242t86 -342z
M1188 551q-129 85 -267 131.5t-262 46.5q-172 0 -266 -77.5t-94 -219.5q0 -149 105.5 -230t297.5 -81q425 0 486 430z" />
    <glyph glyph-name="ntilde" unicode="&#xf1;" 
d="M774 1425q-82 54 -141 54q-82 0 -172 -101v148q93 104 182 104q25 0 53 -9.5t45 -18t51 -29.5t44 -27q66 -39 116 -39q86 0 185 99v-148q-100 -100 -195 -100q-31 0 -63.5 11t-53 23t-51.5 33zM367 1147l4 -113q289 133 542 133q217 0 351.5 -108t134.5 -277v-782h-164
v758q0 125 -93.5 197.5t-252.5 72.5q-233 0 -514 -131v-897h-164v1147h156z" />
    <glyph glyph-name="ograve" unicode="&#xf2;" horiz-adv-x="1589" 
d="M117 573q0 270 184.5 432t493.5 162t493.5 -162t184.5 -432t-184.5 -431.5t-493.5 -161.5t-493.5 161.5t-184.5 431.5zM285 573q0 -208 139 -330t371 -122q233 0 370.5 121.5t137.5 330.5q0 207 -138 330t-370 123q-231 0 -370.5 -123.5t-139.5 -329.5zM893 1288h-164
l-258 359h199z" />
    <glyph glyph-name="oacute" unicode="&#xf3;" horiz-adv-x="1589" 
d="M117 573q0 270 184.5 432t493.5 162t493.5 -162t184.5 -432t-184.5 -431.5t-493.5 -161.5t-493.5 161.5t-184.5 431.5zM285 573q0 -208 139 -330t371 -122q233 0 370.5 121.5t137.5 330.5q0 207 -138 330t-370 123q-231 0 -370.5 -123.5t-139.5 -329.5zM850 1288h-164
l223 359h199z" />
    <glyph glyph-name="ocircumflex" unicode="&#xf4;" horiz-adv-x="1589" 
d="M432 1268l266 358h195l268 -358h-160l-167 217h-76l-168 -217h-158zM117 573q0 270 184.5 432t493.5 162t493.5 -162t184.5 -432t-184.5 -431.5t-493.5 -161.5t-493.5 161.5t-184.5 431.5zM285 573q0 -208 139 -330t371 -122q233 0 370.5 121.5t137.5 330.5
q0 207 -138 330t-370 123q-231 0 -370.5 -123.5t-139.5 -329.5z" />
    <glyph glyph-name="otilde" unicode="&#xf5;" horiz-adv-x="1589" 
d="M117 573q0 270 184.5 432t493.5 162t493.5 -162t184.5 -432t-184.5 -431.5t-493.5 -161.5t-493.5 161.5t-184.5 431.5zM285 573q0 -208 139 -330t371 -122q233 0 370.5 121.5t137.5 330.5q0 207 -138 330t-370 123q-231 0 -370.5 -123.5t-139.5 -329.5zM770 1376
q-89 54 -156 54q-90 0 -188 -101v152q101 104 201 104q27 0 57.5 -9t49.5 -18.5t55 -29.5t49 -27q73 -39 129 -39q95 0 202 99v-152q-111 -100 -215 -100q-34 0 -69.5 11t-56.5 22.5t-58 33.5z" />
    <glyph glyph-name="odieresis" unicode="&#xf6;" horiz-adv-x="1589" 
d="M475 1495q0 56 33 84.5t92 28.5q57 0 90 -28.5t33 -84.5q0 -57 -33 -87t-90 -30q-58 0 -91.5 30t-33.5 87zM866 1495q0 56 33.5 84.5t93.5 28.5q56 0 88.5 -29t32.5 -84q0 -57 -32.5 -87t-88.5 -30q-60 0 -93.5 30t-33.5 87zM117 573q0 270 184.5 432t493.5 162
t493.5 -162t184.5 -432t-184.5 -431.5t-493.5 -161.5t-493.5 161.5t-184.5 431.5zM285 573q0 -208 139 -330t371 -122q233 0 370.5 121.5t137.5 330.5q0 207 -138 330t-370 123q-231 0 -370.5 -123.5t-139.5 -329.5z" />
    <glyph glyph-name="divide" unicode="&#xf7;" horiz-adv-x="1187" 
d="M465 1051q0 116 133 116q59 0 93 -29t34 -87t-34 -88.5t-93 -30.5q-63 0 -98 30t-35 89zM137 506v135h914v-135h-914zM465 96q0 59 35 88t98 29q59 0 93 -29.5t34 -87.5t-34 -88.5t-93 -30.5q-63 0 -98 30t-35 89z" />
    <glyph glyph-name="oslash" unicode="&#xf8;" horiz-adv-x="1589" 
d="M117 573q0 270 184.5 432t493.5 162q83 0 157 -12l49 121h150l-61 -156q181 -63 282 -206t101 -341q0 -270 -184.5 -431.5t-493.5 -161.5q-79 0 -168 14l-37 -92h-152l54 129q-178 65 -276.5 206t-98.5 336zM285 573q0 -145 68.5 -249t193.5 -156l348 850q-62 8 -100 8
q-231 0 -370.5 -123.5t-139.5 -329.5zM1032 983l-350 -852q58 -10 113 -10q233 0 370.5 121.5t137.5 330.5q0 147 -71 252.5t-200 157.5z" />
    <glyph glyph-name="ugrave" unicode="&#xf9;" 
d="M1231 0l-4 113q-289 -133 -543 -133q-216 0 -350.5 108t-134.5 277v782h163v-758q0 -125 94 -197.5t253 -72.5q233 0 514 131v897h163v-1147h-155zM952 1288h-164l-258 359h199z" />
    <glyph glyph-name="uacute" unicode="&#xfa;" 
d="M1231 0l-4 113q-289 -133 -543 -133q-216 0 -350.5 108t-134.5 277v782h163v-758q0 -125 94 -197.5t253 -72.5q233 0 514 131v897h163v-1147h-155zM844 1288h-164l223 359h199z" />
    <glyph glyph-name="ucircumflex" unicode="&#xfb;" 
d="M375 1268l307 440h236l309 -440h-191l-198 299h-76l-199 -299h-188zM1231 0l-4 113q-289 -133 -543 -133q-216 0 -350.5 108t-134.5 277v782h163v-758q0 -125 94 -197.5t253 -72.5q233 0 514 131v897h163v-1147h-155z" />
    <glyph glyph-name="udieresis" unicode="&#xfc;" 
d="M479 1495q0 56 33 84.5t92 28.5q57 0 90 -28.5t33 -84.5q0 -57 -33 -87t-90 -30q-58 0 -91.5 30t-33.5 87zM870 1495q0 56 33.5 84.5t93.5 28.5q56 0 88.5 -29t32.5 -84q0 -57 -32.5 -87t-88.5 -30q-60 0 -93.5 30t-33.5 87zM1231 0l-4 113q-289 -133 -543 -133
q-216 0 -350.5 108t-134.5 277v782h163v-758q0 -125 94 -197.5t253 -72.5q233 0 514 131v897h163v-1147h-155z" />
    <glyph glyph-name="yacute" unicode="&#xfd;" horiz-adv-x="1531" 
d="M680 -408h-162l238 463h-140l-575 1092h172l492 -944h126l484 944h176zM815 1288h-164l223 359h199z" />
    <glyph glyph-name="thorn" unicode="&#xfe;" horiz-adv-x="1681" 
d="M375 88v-418h-164v1846h164v-457q247 108 510 108q309 0 488 -161t179 -433q0 -271 -179 -432t-488 -161q-263 0 -510 108zM866 119q242 0 380 122t138 332q0 209 -138 332t-380 123q-132 0 -265 -30t-226 -76v-697q94 -47 225.5 -76.5t265.5 -29.5z" />
    <glyph glyph-name="ydieresis" unicode="&#xff;" horiz-adv-x="1531" 
d="M446 1495q0 56 33 84.5t92 28.5q57 0 90 -28.5t33 -84.5q0 -57 -33 -87t-90 -30q-58 0 -91.5 30t-33.5 87zM838 1495q0 56 33.5 84.5t93.5 28.5q56 0 88 -28.5t32 -84.5q0 -57 -32.5 -87t-87.5 -30q-60 0 -93.5 30t-33.5 87zM680 -408h-162l238 463h-140l-575 1092h172
l492 -944h126l484 944h176z" />
    <glyph glyph-name="Amacron" unicode="&#x100;" horiz-adv-x="1789" 
d="M575 1710v137h642v-137h-642zM76 0l641 1434h356l643 -1434h-178l-162 369h-960l-164 -369h-176zM473 504h844l-342 780h-158z" />
    <glyph glyph-name="amacron" unicode="&#x101;" horiz-adv-x="1505" 
d="M432 1423v138h641v-138h-641zM117 342q0 172 138.5 257t422.5 85q303 0 473 -20v73q0 148 -92 218.5t-285 70.5q-288 0 -541 -55v141q254 55 525 55q286 0 421.5 -104t135.5 -322v-741h-156l-8 215q-77 -109 -220.5 -173.5t-324.5 -64.5q-239 0 -364 93t-125 272z
M1151 401v148q-234 4 -485 4q-195 0 -289 -53.5t-94 -163.5q0 -219 356 -219q112 0 219.5 34t188 100t104.5 150z" />
    <glyph glyph-name="Abreve" unicode="&#x102;" horiz-adv-x="1789" 
d="M76 0l641 1434h356l643 -1434h-178l-162 369h-960l-164 -369h-176zM473 504h844l-342 780h-158zM897 1686q120 0 168 63t39 158h139q16 -148 -76.5 -250.5t-269.5 -102.5q-117 0 -199.5 49.5t-118 128.5t-26.5 175h141q-10 -94 37.5 -157.5t165.5 -63.5z" />
    <glyph glyph-name="abreve" unicode="&#x103;" horiz-adv-x="1505" 
d="M117 342q0 172 138.5 257t422.5 85q303 0 473 -20v73q0 148 -92 218.5t-285 70.5q-288 0 -541 -55v141q254 55 525 55q286 0 421.5 -104t135.5 -322v-741h-156l-8 215q-77 -109 -220.5 -173.5t-324.5 -64.5q-239 0 -364 93t-125 272zM1151 401v148q-234 4 -485 4
q-195 0 -289 -53.5t-94 -163.5q0 -219 356 -219q112 0 219.5 34t188 100t104.5 150zM754 1419q120 0 168 63t39 158h139q16 -148 -76.5 -250t-269.5 -102q-117 0 -199.5 49t-118 128t-26.5 175h141q-10 -94 37.5 -157.5t165.5 -63.5z" />
    <glyph glyph-name="Aogonek" unicode="&#x104;" horiz-adv-x="1789" 
d="M76 0l641 1434h356l643 -1434h-39q-110 -113 -110 -233q0 -75 55.5 -110.5t155.5 -23.5v-112q-367 -27 -367 203q0 155 137 276h-10l-162 369h-960l-164 -369h-176zM473 504h844l-342 780h-158z" />
    <glyph glyph-name="aogonek" unicode="&#x105;" horiz-adv-x="1505" 
d="M117 342q0 172 138.5 257t422.5 85q303 0 473 -20v73q0 148 -92 218.5t-285 70.5q-288 0 -541 -55v141q254 55 525 55q286 0 421.5 -104t135.5 -322v-741h-17q-112 -112 -112 -233q0 -75 55.5 -110.5t155.5 -23.5v-112q-367 -27 -367 203q0 154 137 276h-8l-8 215
q-77 -109 -220.5 -173.5t-324.5 -64.5q-239 0 -364 93t-125 272zM1151 401v148q-234 4 -485 4q-195 0 -289 -53.5t-94 -163.5q0 -219 356 -219q112 0 219.5 34t188 100t104.5 150z" />
    <glyph glyph-name="Cacute" unicode="&#x106;" horiz-adv-x="1691" 
d="M582 1552l325 453h203l-340 -453h-188zM991 121q151 0 310.5 18.5t275.5 50.5v-149q-236 -61 -576 -61q-402 0 -633 198.5t-231 538.5t231 538.5t633 198.5q340 0 576 -61v-148q-115 32 -275 50t-311 18q-323 0 -504.5 -159t-181.5 -437t181.5 -437t504.5 -159z" />
    <glyph glyph-name="cacute" unicode="&#x107;" horiz-adv-x="1394" 
d="M424 1266l326 452h202l-340 -452h-188zM840 -23q-337 1 -530 162.5t-193 433.5t193 433t530 161q210 0 440 -55v-141q-96 24 -224 39.5t-225 15.5q-255 0 -400.5 -122.5t-145.5 -330.5q0 -210 145 -331t401 -121q99 0 226.5 14.5t222.5 38.5v-141q-234 -56 -440 -56z" />
    <glyph glyph-name="Ccircumflex" unicode="&#x108;" horiz-adv-x="1691" 
d="M422 1554l307 441h236l309 -441h-191l-198 299h-76l-199 -299h-188zM991 121q151 0 310.5 18.5t275.5 50.5v-149q-236 -61 -576 -61q-402 0 -633 198.5t-231 538.5t231 538.5t633 198.5q340 0 576 -61v-148q-115 32 -275 50t-311 18q-323 0 -504.5 -159t-181.5 -437
t181.5 -437t504.5 -159z" />
    <glyph glyph-name="ccircumflex" unicode="&#x109;" horiz-adv-x="1394" 
d="M262 1268l307 440h236l309 -440h-190l-199 299h-76l-198 -299h-189zM840 -23q-337 1 -530 162.5t-193 433.5t193 433t530 161q210 0 440 -55v-141q-96 24 -224 39.5t-225 15.5q-255 0 -400.5 -122.5t-145.5 -330.5q0 -210 145 -331t401 -121q99 0 226.5 14.5t222.5 38.5
v-141q-234 -56 -440 -56z" />
    <glyph glyph-name="Cdotaccent" unicode="&#x10a;" horiz-adv-x="1691" 
d="M723 1782q0 56 33 84t92 28q57 0 90 -28.5t33 -83.5q0 -57 -33 -87t-90 -30q-58 0 -91.5 30t-33.5 87zM991 121q151 0 310.5 18.5t275.5 50.5v-149q-236 -61 -576 -61q-402 0 -633 198.5t-231 538.5t231 538.5t633 198.5q340 0 576 -61v-148q-115 32 -275 50t-311 18
q-323 0 -504.5 -159t-181.5 -437t181.5 -437t504.5 -159z" />
    <glyph glyph-name="cdotaccent" unicode="&#x10b;" horiz-adv-x="1394" 
d="M565 1495q0 56 33 84.5t92 28.5q57 0 90 -28.5t33 -84.5q0 -57 -33 -87t-90 -30q-58 0 -91.5 30t-33.5 87zM840 -23q-337 1 -530 162.5t-193 433.5t193 433t530 161q210 0 440 -55v-141q-96 24 -224 39.5t-225 15.5q-255 0 -400.5 -122.5t-145.5 -330.5q0 -210 145 -331
t401 -121q99 0 226.5 14.5t222.5 38.5v-141q-234 -56 -440 -56z" />
    <glyph glyph-name="Ccaron" unicode="&#x10c;" horiz-adv-x="1691" 
d="M729 1554l-307 441h188l199 -299h76l198 299h191l-309 -441h-236zM991 121q151 0 310.5 18.5t275.5 50.5v-149q-236 -61 -576 -61q-402 0 -633 198.5t-231 538.5t231 538.5t633 198.5q340 0 576 -61v-148q-115 32 -275 50t-311 18q-323 0 -504.5 -159t-181.5 -437
t181.5 -437t504.5 -159z" />
    <glyph glyph-name="ccaron" unicode="&#x10d;" horiz-adv-x="1394" 
d="M569 1268l-307 440h189l198 -299h76l199 299h190l-309 -440h-236zM840 -23q-337 1 -530 162.5t-193 433.5t193 433t530 161q210 0 440 -55v-141q-96 24 -224 39.5t-225 15.5q-255 0 -400.5 -122.5t-145.5 -330.5q0 -210 145 -331t401 -121q99 0 226.5 14.5t222.5 38.5
v-141q-234 -56 -440 -56z" />
    <glyph glyph-name="Dcaron" unicode="&#x10e;" horiz-adv-x="1853" 
d="M809 1554l-307 441h188l199 -299h76l198 299h191l-310 -441h-235zM231 0v1434h738q343 0 545 -194t202 -523t-202 -523t-545 -194h-738zM969 1292h-570v-1151h570q265 0 421 155t156 421t-156 420.5t-421 154.5z" />
    <glyph glyph-name="dcaron" unicode="&#x10f;" horiz-adv-x="2121" 
d="M1462 0h-141l-10 92q-252 -112 -520 -112q-310 0 -489 160.5t-179 432.5t179 433t489 161q264 0 507 -108v457h164v-1516zM1769 885l70 569h189l-117 -569h-142zM809 119q133 0 265 30t224 76v697q-91 46 -224.5 76t-264.5 30q-244 0 -382 -123t-138 -332
q0 -210 138.5 -332t381.5 -122z" />
    <glyph glyph-name="Dcroat" unicode="&#x110;" horiz-adv-x="1925" 
d="M303 0v653h-248v135h248v646h737q343 0 545.5 -194t202.5 -523t-202.5 -523t-545.5 -194h-737zM1040 1292h-569v-504h547v-135h-547v-512h569q265 0 421.5 155t156.5 421t-156.5 420.5t-421.5 154.5z" />
    <glyph glyph-name="dcroat" unicode="&#x111;" horiz-adv-x="1718" 
d="M1462 0h-141l-10 92q-252 -112 -520 -112q-310 0 -489 160.5t-179 432.5t179 433t489 161q264 0 507 -108v209h-331v123h331v125h164v-125h201v-123h-201v-1268zM809 119q133 0 265 30t224 76v697q-91 46 -224.5 76t-264.5 30q-244 0 -382 -123t-138 -332
q0 -210 138.5 -332t381.5 -122z" />
    <glyph glyph-name="Emacron" unicode="&#x112;" horiz-adv-x="1624" 
d="M492 1710v137h641v-137h-641zM231 0v1434h1237v-148h-1069v-459h901v-147h-901v-533h1069v-147h-1237z" />
    <glyph glyph-name="emacron" unicode="&#x113;" horiz-adv-x="1478" 
d="M420 1423v138h641v-138h-641zM774 1167q266 0 427 -143.5t161 -382.5q0 -69 -12 -123h-1061q20 -187 161.5 -292t376.5 -105q107 0 244 14.5t225 38.5v-141q-216 -56 -458 -56q-336 1 -528.5 162.5t-192.5 433.5q0 268 179 431t478 163zM291 641h913q0 172 -120.5 278.5
t-315.5 106.5q-204 0 -330.5 -103t-146.5 -282z" />
    <glyph glyph-name="Ebreve" unicode="&#x114;" horiz-adv-x="1624" 
d="M811 1714q104 0 155.5 66.5t43.5 158.5h135q10 -97 -24 -176.5t-114.5 -129.5t-195.5 -50q-170 0 -259 103t-75 253h137q-10 -91 42 -158t155 -67zM231 0v1434h1237v-148h-1069v-459h901v-147h-901v-533h1069v-147h-1237z" />
    <glyph glyph-name="ebreve" unicode="&#x115;" horiz-adv-x="1478" 
d="M739 1427q104 0 155.5 67t43.5 159h135q10 -97 -24 -177t-114.5 -130t-195.5 -50q-170 0 -258.5 103.5t-74.5 253.5h137q-10 -91 41.5 -158.5t154.5 -67.5zM774 1167q266 0 427 -143.5t161 -382.5q0 -69 -12 -123h-1061q20 -187 161.5 -292t376.5 -105q107 0 244 14.5
t225 38.5v-141q-216 -56 -458 -56q-336 1 -528.5 162.5t-192.5 433.5q0 268 179 431t478 163zM291 641h913q0 172 -120.5 278.5t-315.5 106.5q-204 0 -330.5 -103t-146.5 -282z" />
    <glyph glyph-name="Edotaccent" unicode="&#x116;" horiz-adv-x="1624" 
d="M690 1782q0 56 33 84t92 28q57 0 90 -28.5t33 -83.5q0 -57 -33 -87t-90 -30q-58 0 -91.5 30t-33.5 87zM231 0v1434h1237v-148h-1069v-459h901v-147h-901v-533h1069v-147h-1237z" />
    <glyph glyph-name="edotaccent" unicode="&#x117;" horiz-adv-x="1478" 
d="M616 1495q0 56 33 84.5t92 28.5q57 0 90 -28.5t33 -84.5q0 -57 -33 -87t-90 -30q-58 0 -91.5 30t-33.5 87zM774 1167q266 0 427 -143.5t161 -382.5q0 -69 -12 -123h-1061q20 -187 161.5 -292t376.5 -105q107 0 244 14.5t225 38.5v-141q-216 -56 -458 -56
q-336 1 -528.5 162.5t-192.5 433.5q0 268 179 431t478 163zM291 641h913q0 172 -120.5 278.5t-315.5 106.5q-204 0 -330.5 -103t-146.5 -282z" />
    <glyph glyph-name="Eogonek" unicode="&#x118;" horiz-adv-x="1624" 
d="M231 0v1434h1237v-148h-1069v-459h901v-147h-901v-533h1069v-147h-571q-113 -116 -113 -233q0 -75 55.5 -110.5t155.5 -23.5v-112q-364 -27 -364 203q0 157 131 276h-531z" />
    <glyph glyph-name="eogonek" unicode="&#x119;" horiz-adv-x="1478" 
d="M774 1167q266 0 427 -143.5t161 -382.5q0 -69 -12 -123h-1061q20 -187 161.5 -292t376.5 -105q107 0 244 14.5t225 38.5v-141q-221 -56 -491 -56q-92 -106 -92 -210q0 -75 55.5 -110.5t155.5 -23.5v-112q-367 -27 -367 203q0 148 121 266q-265 37 -413 191t-148 392
q0 268 179 431t478 163zM291 641h913q0 172 -120.5 278.5t-315.5 106.5q-204 0 -330.5 -103t-146.5 -282z" />
    <glyph glyph-name="Ecaron" unicode="&#x11a;" horiz-adv-x="1624" 
d="M694 1554l-307 441h188l199 -299h76l199 299h190l-309 -441h-236zM231 0v1434h1237v-148h-1069v-459h901v-147h-901v-533h1069v-147h-1237z" />
    <glyph glyph-name="ecaron" unicode="&#x11b;" horiz-adv-x="1478" 
d="M621 1268l-308 440h189l198 -299h76l199 299h190l-309 -440h-235zM774 1167q266 0 427 -143.5t161 -382.5q0 -69 -12 -123h-1061q20 -187 161.5 -292t376.5 -105q107 0 244 14.5t225 38.5v-141q-216 -56 -458 -56q-336 1 -528.5 162.5t-192.5 433.5q0 268 179 431
t478 163zM291 641h913q0 172 -120.5 278.5t-315.5 106.5q-204 0 -330.5 -103t-146.5 -282z" />
    <glyph glyph-name="Gcircumflex" unicode="&#x11c;" horiz-adv-x="1835" 
d="M494 1554l307 441h235l310 -441h-191l-199 299h-75l-199 -299h-188zM1022 121q239 0 469 37v594h168v-705q-304 -67 -633 -67q-418 0 -653.5 198t-235.5 539q0 340 236.5 538.5t648.5 198.5q347 0 582 -61v-148q-113 32 -276.5 50t-319.5 18q-330 0 -516.5 -159
t-186.5 -437q0 -279 187.5 -437.5t529.5 -158.5z" />
    <glyph glyph-name="gcircumflex" unicode="&#x11d;" horiz-adv-x="1630" 
d="M391 1268l307 440h236l309 -440h-190l-199 299h-76l-198 -299h-189zM1255 100v133q-224 -94 -471 -94q-310 0 -488.5 139.5t-178.5 374.5t178.5 374.5t488.5 139.5q246 0 478 -96l2 76h155v-1077q0 -214 -174 -342.5t-461 -128.5q-145 0 -300 26.5t-259 69.5v139
q108 -39 257.5 -64t271.5 -24q237 3 369 96.5t132 257.5zM801 279q245 0 454 90v569q-209 90 -454 90q-242 0 -380 -101.5t-138 -273.5q0 -173 138 -273.5t380 -100.5z" />
    <glyph glyph-name="Gbreve" unicode="&#x11e;" horiz-adv-x="1835" 
d="M918 1714q104 0 155 66.5t43 158.5h135q10 -97 -23.5 -176.5t-114 -129.5t-195.5 -50q-170 0 -259 103t-75 253h137q-10 -91 42 -158t155 -67zM1022 121q239 0 469 37v594h168v-705q-304 -67 -633 -67q-418 0 -653.5 198t-235.5 539q0 340 236.5 538.5t648.5 198.5
q347 0 582 -61v-148q-113 32 -276.5 50t-319.5 18q-330 0 -516.5 -159t-186.5 -437q0 -279 187.5 -437.5t529.5 -158.5z" />
    <glyph glyph-name="gbreve" unicode="&#x11f;" horiz-adv-x="1630" 
d="M815 1427q104 0 155.5 67t43.5 159h135q10 -97 -24 -177t-114.5 -130t-195.5 -50q-170 0 -259 103.5t-75 253.5h137q-10 -91 42 -158.5t155 -67.5zM1255 100v133q-224 -94 -471 -94q-310 0 -488.5 139.5t-178.5 374.5t178.5 374.5t488.5 139.5q246 0 478 -96l2 76h155
v-1077q0 -214 -174 -342.5t-461 -128.5q-145 0 -300 26.5t-259 69.5v139q108 -39 257.5 -64t271.5 -24q237 3 369 96.5t132 257.5zM801 279q245 0 454 90v569q-209 90 -454 90q-242 0 -380 -101.5t-138 -273.5q0 -173 138 -273.5t380 -100.5z" />
    <glyph glyph-name="Gdotaccent" unicode="&#x120;" horiz-adv-x="1835" 
d="M795 1782q0 56 33 84t92 28q57 0 89.5 -28t32.5 -84q0 -57 -32.5 -87t-89.5 -30q-58 0 -91.5 30t-33.5 87zM1022 121q239 0 469 37v594h168v-705q-304 -67 -633 -67q-418 0 -653.5 198t-235.5 539q0 340 236.5 538.5t648.5 198.5q347 0 582 -61v-148q-113 32 -276.5 50
t-319.5 18q-330 0 -516.5 -159t-186.5 -437q0 -279 187.5 -437.5t529.5 -158.5z" />
    <glyph glyph-name="gdotaccent" unicode="&#x121;" horiz-adv-x="1630" 
d="M692 1495q0 56 33 84.5t92 28.5q57 0 90 -28.5t33 -84.5q0 -57 -33 -87t-90 -30q-58 0 -91.5 30t-33.5 87zM1255 100v133q-224 -94 -471 -94q-310 0 -488.5 139.5t-178.5 374.5t178.5 374.5t488.5 139.5q246 0 478 -96l2 76h155v-1077q0 -214 -174 -342.5t-461 -128.5
q-145 0 -300 26.5t-259 69.5v139q108 -39 257.5 -64t271.5 -24q237 3 369 96.5t132 257.5zM801 279q245 0 454 90v569q-209 90 -454 90q-242 0 -380 -101.5t-138 -273.5q0 -173 138 -273.5t380 -100.5z" />
    <glyph glyph-name="uni0122" unicode="&#x122;" horiz-adv-x="1835" 
d="M1022 121q239 0 469 37v594h168v-705q-304 -67 -633 -67q-418 0 -653.5 198t-235.5 539q0 340 236.5 538.5t648.5 198.5q347 0 582 -61v-148q-113 32 -276.5 50t-319.5 18q-330 0 -516.5 -159t-186.5 -437q0 -279 187.5 -437.5t529.5 -158.5zM952 -465h-153l51 406h186z
" />
    <glyph glyph-name="uni0123" unicode="&#x123;" horiz-adv-x="1630" 
d="M795 1696h153l-51 -406h-186zM1255 100v133q-224 -94 -471 -94q-310 0 -488.5 139.5t-178.5 374.5t178.5 374.5t488.5 139.5q246 0 478 -96l2 76h155v-1077q0 -214 -174 -342.5t-461 -128.5q-145 0 -300 26.5t-259 69.5v139q108 -39 257.5 -64t271.5 -24q237 3 369 96.5
t132 257.5zM801 279q245 0 454 90v569q-209 90 -454 90q-242 0 -380 -101.5t-138 -273.5q0 -173 138 -273.5t380 -100.5z" />
    <glyph glyph-name="Hcircumflex" unicode="&#x124;" horiz-adv-x="1894" 
d="M522 1554l307 441h236l309 -441h-190l-199 299h-76l-198 -299h-189zM231 0v1434h168v-609h1096v609h166v-1434h-166v678h-1096v-678h-168z" />
    <glyph glyph-name="hcircumflex" unicode="&#x125;" 
d="M-131 1554l307 441h236l309 -441h-191l-198 299h-76l-199 -299h-188zM375 1516v-480q281 131 538 131q217 0 351.5 -108t134.5 -277v-782h-164v758q0 125 -93.5 197.5t-252.5 72.5q-233 0 -514 -131v-897h-164v1516h164z" />
    <glyph glyph-name="Hbar" unicode="&#x126;" horiz-adv-x="1947" 
d="M260 0v1049h-143v137h143v248h166v-248h1096v248h168v-248h143v-137h-143v-1049h-168v678h-1096v-678h-166zM426 825h1096v224h-1096v-224z" />
    <glyph glyph-name="hbar" unicode="&#x127;" horiz-adv-x="1640" 
d="M418 1516v-125h332v-123h-332v-232q281 131 538 131q217 0 351.5 -108t134.5 -277v-782h-164v758q0 125 -93.5 197.5t-252.5 72.5q-233 0 -514 -131v-897h-164v1268h-199v123h199v125h164z" />
    <glyph glyph-name="Itilde" unicode="&#x128;" horiz-adv-x="630" 
d="M231 0v1434h168v-1434h-168zM291 1663q-87 53 -156 53q-91 0 -188 -100v151q102 105 200 105q27 0 57.5 -9t49.5 -18.5t55 -29.5t49 -27q73 -39 129 -39q97 0 203 98v-151q-112 -101 -215 -101q-33 0 -69.5 11.5t-56.5 22.5t-58 34z" />
    <glyph glyph-name="itilde" unicode="&#x129;" horiz-adv-x="587" 
d="M211 0v1147h164v-1147h-164zM272 1376q-82 54 -139 54q-80 0 -166 -101v152q91 104 178 104q23 0 51 -9.5t43.5 -18t50 -30t42.5 -26.5q63 -39 112 -39q85 0 181 99v-152q-97 -100 -191 -100q-67 0 -162 67z" />
    <glyph glyph-name="Imacron" unicode="&#x12a;" horiz-adv-x="630" 
d="M-4 1710v137h641v-137h-641zM231 0v1434h168v-1434h-168z" />
    <glyph glyph-name="imacron" unicode="&#x12b;" horiz-adv-x="587" 
d="M-27 1423v138h641v-138h-641zM211 0v1147h164v-1147h-164z" />
    <glyph glyph-name="Iogonek" unicode="&#x12e;" horiz-adv-x="630" 
d="M113 -276q0 157 137 276h-19v1434h168v-1434h-20q-113 -119 -113 -233q0 -75 55.5 -110.5t155.5 -23.5v-112q-364 -27 -364 203z" />
    <glyph glyph-name="iogonek" unicode="&#x12f;" horiz-adv-x="587" 
d="M170 1495q0 56 33.5 84.5t93.5 28.5q56 0 88.5 -29t32.5 -84q0 -57 -32.5 -87t-88.5 -30q-60 0 -93.5 30t-33.5 87zM211 0v1147h164v-1147h-19q-112 -118 -112 -233q0 -75 55.5 -110.5t155.5 -23.5v-112q-365 -27 -365 203q0 157 137 276h-16z" />
    <glyph glyph-name="Idotaccent" unicode="&#x130;" horiz-adv-x="630" 
d="M193 1782q0 56 32.5 84t91.5 28q57 0 90 -28.5t33 -83.5q0 -57 -33 -87t-90 -30q-58 0 -91 30t-33 87zM231 0v1434h168v-1434h-168z" />
    <glyph glyph-name="dotlessi" unicode="&#x131;" horiz-adv-x="587" 
d="M211 0v1147h164v-1147h-164z" />
    <glyph glyph-name="IJ" unicode="&#x132;" horiz-adv-x="2023" 
d="M231 0v1434h168v-1434h-168zM1645 461v973h167v-973q0 -230 -152.5 -355.5t-420.5 -125.5q-216 0 -471 61v147q265 -67 457 -67q215 0 317.5 80.5t102.5 259.5z" />
    <glyph glyph-name="ij" unicode="&#x133;" horiz-adv-x="1515" 
d="M170 1495q0 56 33.5 84.5t93.5 28.5q56 0 88.5 -29t32.5 -84q0 -57 -32.5 -87t-88.5 -30q-60 0 -93.5 30t-33.5 87zM1100 1495q0 56 33 84.5t92 28.5q57 0 90 -28.5t33 -84.5q0 -57 -33 -87t-90 -30q-58 0 -91.5 30t-33.5 87zM211 0v1147h164v-1147h-164zM1141 39v1108
h164v-1139q0 -190 -116 -299.5t-319 -109.5q-178 0 -350 61v139q181 -53 326 -53q154 0 224.5 70.5t70.5 222.5z" />
    <glyph glyph-name="Jcircumflex" unicode="&#x134;" horiz-adv-x="1392" 
d="M668 1554l307 441h235l310 -441h-191l-199 299h-75l-199 -299h-188zM1014 461v973h168v-973q0 -230 -153 -355.5t-421 -125.5q-216 0 -471 61v147q265 -67 457 -67q215 0 317.5 80.5t102.5 259.5z" />
    <glyph glyph-name="jcircumflex" unicode="&#x135;" horiz-adv-x="929" 
d="M201 1268l307 440h235l310 -440h-191l-198 299h-76l-199 -299h-188zM553 39v1108h164v-1139q0 -191 -116 -300t-318 -109q-179 0 -351 61v139q181 -53 326 -53q154 0 224.5 70.5t70.5 222.5z" />
    <glyph glyph-name="uni0136" unicode="&#x136;" horiz-adv-x="1859" 
d="M231 0v1434h168v-830h19l987 830h231l-788 -658q74 -17 144.5 -60.5t127 -99.5t110.5 -119.5t103 -123.5t95.5 -109t97.5 -78.5t100 -29.5h166v-156h-201q-71 0 -137 34t-120 89.5t-107.5 123t-109.5 136.5t-114.5 127.5t-134.5 99.5t-159 49l-310 -258v-401h-168z
M979 -465h-154l52 406h186z" />
    <glyph glyph-name="uni0137" unicode="&#x137;" horiz-adv-x="1538" 
d="M211 0v1516h164v-959l762 590h219l-654 -506q66 -18 127.5 -55t108.5 -81t92 -94t85 -96t79.5 -83t84.5 -59.5t91 -22.5h141v-150h-178q-67 0 -126.5 26.5t-107 69.5t-93.5 95.5t-93.5 107.5t-97 102.5t-115.5 83t-139 47.5l-186 -143v-389h-164zM803 -465h-154l51 406
h187z" />
    <glyph glyph-name="kgreenlandic" unicode="&#x138;" horiz-adv-x="1538" 
d="M211 0v1147h164v-590l762 590h219l-654 -506q66 -18 127.5 -55t108.5 -81t92 -94t85 -96t79.5 -83t84.5 -59.5t91 -22.5h141v-150h-178q-67 0 -126.5 26.5t-107 69.5t-93.5 95.5t-93.5 107.5t-97 102.5t-115.5 83t-139 47.5l-186 -143v-389h-164z" />
    <glyph glyph-name="Lacute" unicode="&#x139;" horiz-adv-x="1560" 
d="M147 1552l326 453h203l-340 -453h-189zM231 0v1434h168v-1287h1024v-147h-1192z" />
    <glyph glyph-name="lacute" unicode="&#x13a;" horiz-adv-x="587" 
d="M29 1579l325 453h203l-340 -453h-188zM211 0v1516h164v-1516h-164z" />
    <glyph glyph-name="uni013B" unicode="&#x13b;" horiz-adv-x="1560" 
d="M231 0v1434h168v-1287h1024v-147h-1192zM815 -465h-153l51 406h186z" />
    <glyph glyph-name="uni013C" unicode="&#x13c;" horiz-adv-x="587" 
d="M211 0v1516h164v-1516h-164zM328 -465h-154l51 406h187z" />
    <glyph glyph-name="Lcaron" unicode="&#x13d;" horiz-adv-x="1560" 
d="M942 926l70 569h188l-117 -569h-141zM231 0v1434h168v-1287h1024v-147h-1192z" />
    <glyph glyph-name="lcaron" unicode="&#x13e;" horiz-adv-x="1034" 
d="M211 0v1516h164v-1516h-164zM682 885l70 569h188l-117 -569h-141z" />
    <glyph glyph-name="Ldot" unicode="&#x13f;" horiz-adv-x="1560" 
d="M231 0v1434h168v-1287h1024v-147h-1192zM891 874q0 59 35 88t98 29q59 0 93 -29.5t34 -87.5t-34 -88t-93 -30q-63 0 -98 29.5t-35 88.5z" />
    <glyph glyph-name="ldot" unicode="&#x140;" horiz-adv-x="1202" 
d="M211 0v1516h164v-1516h-164zM766 719q0 59 35 88t98 29q59 0 93 -29.5t34 -87.5t-34 -88.5t-93 -30.5q-63 0 -98 30t-35 89z" />
    <glyph glyph-name="Lslash" unicode="&#x141;" horiz-adv-x="1611" 
d="M283 0v569l-228 -90v137l228 89v729h168v-664l536 211v-137l-536 -209v-488h1024v-147h-1192z" />
    <glyph glyph-name="lslash" unicode="&#x142;" horiz-adv-x="798" 
d="M317 0v631l-262 -103v136l262 104v748h164v-685l262 105v-137l-262 -105v-694h-164z" />
    <glyph glyph-name="Nacute" unicode="&#x143;" horiz-adv-x="1824" 
d="M649 1552l326 453h203l-340 -453h-189zM231 0v1434h168l1002 -1155h26v1155h166v-1434h-168l-999 1153h-27v-1153h-168z" />
    <glyph glyph-name="nacute" unicode="&#x144;" 
d="M535 1266l325 452h203l-340 -452h-188zM367 1147l4 -113q289 133 542 133q217 0 351.5 -108t134.5 -277v-782h-164v758q0 125 -93.5 197.5t-252.5 72.5q-233 0 -514 -131v-897h-164v1147h156z" />
    <glyph glyph-name="uni0145" unicode="&#x145;" horiz-adv-x="1824" 
d="M231 0v1434h168l1002 -1155h26v1155h166v-1434h-168l-999 1153h-27v-1153h-168zM946 -465h-153l51 406h186z" />
    <glyph glyph-name="uni0146" unicode="&#x146;" 
d="M367 1147l4 -113q289 133 542 133q217 0 351.5 -108t134.5 -277v-782h-164v758q0 125 -93.5 197.5t-252.5 72.5q-233 0 -514 -131v-897h-164v1147h156zM834 -465h-154l51 406h187z" />
    <glyph glyph-name="Ncaron" unicode="&#x147;" horiz-adv-x="1824" 
d="M795 1554l-308 441h189l198 -299h76l199 299h190l-309 -441h-235zM231 0v1434h168l1002 -1155h26v1155h166v-1434h-168l-999 1153h-27v-1153h-168z" />
    <glyph glyph-name="ncaron" unicode="&#x148;" 
d="M682 1268l-307 440h188l199 -299h76l198 299h191l-309 -440h-236zM367 1147l4 -113q289 133 542 133q217 0 351.5 -108t134.5 -277v-782h-164v758q0 125 -93.5 197.5t-252.5 72.5q-233 0 -514 -131v-897h-164v1147h156z" />
    <glyph glyph-name="napostrophe" unicode="&#x149;" horiz-adv-x="1767" 
d="M27 1167l69 570h189l-117 -570h-141zM537 1147l4 -113q289 133 542 133q217 0 351.5 -108t134.5 -277v-782h-164v758q0 125 -93.5 197.5t-252.5 72.5q-233 0 -514 -131v-897h-164v1147h156z" />
    <glyph glyph-name="Omacron" unicode="&#x14c;" horiz-adv-x="1929" 
d="M645 1710v137h641v-137h-641zM137 717q0 333 225 535t603 202t602.5 -202t224.5 -535t-224.5 -535t-602.5 -202t-603 202t-225 535zM305 717q0 -270 180.5 -433t479.5 -163q300 0 478.5 162.5t178.5 433.5t-178.5 433.5t-478.5 162.5q-299 0 -479.5 -163t-180.5 -433z
" />
    <glyph glyph-name="omacron" unicode="&#x14d;" horiz-adv-x="1589" 
d="M475 1423v138h641v-138h-641zM117 573q0 270 184.5 432t493.5 162t493.5 -162t184.5 -432t-184.5 -431.5t-493.5 -161.5t-493.5 161.5t-184.5 431.5zM285 573q0 -208 139 -330t371 -122q233 0 370.5 121.5t137.5 330.5q0 207 -138 330t-370 123q-231 0 -370.5 -123.5
t-139.5 -329.5z" />
    <glyph glyph-name="Obreve" unicode="&#x14e;" horiz-adv-x="1929" 
d="M965 1714q104 0 155 66.5t43 158.5h135q10 -97 -23.5 -176.5t-114 -129.5t-195.5 -50q-170 0 -259 103t-75 253h137q-10 -91 42 -158t155 -67zM137 717q0 333 225 535t603 202t602.5 -202t224.5 -535t-224.5 -535t-602.5 -202t-603 202t-225 535zM305 717
q0 -270 180.5 -433t479.5 -163q300 0 478.5 162.5t178.5 433.5t-178.5 433.5t-478.5 162.5q-299 0 -479.5 -163t-180.5 -433z" />
    <glyph glyph-name="obreve" unicode="&#x14f;" horiz-adv-x="1589" 
d="M795 1427q104 0 155 67t43 159h135q10 -97 -23.5 -177t-114 -130t-195.5 -50q-170 0 -259 103.5t-75 253.5h137q-10 -91 42 -158.5t155 -67.5zM117 573q0 270 184.5 432t493.5 162t493.5 -162t184.5 -432t-184.5 -431.5t-493.5 -161.5t-493.5 161.5t-184.5 431.5z
M285 573q0 -208 139 -330t371 -122q233 0 370.5 121.5t137.5 330.5q0 207 -138 330t-370 123q-231 0 -370.5 -123.5t-139.5 -329.5z" />
    <glyph glyph-name="Ohungarumlaut" unicode="&#x150;" horiz-adv-x="1929" 
d="M561 1559l213 440h193l-236 -440h-170zM963 1559l213 440h192l-235 -440h-170zM137 717q0 333 225 535t603 202t602.5 -202t224.5 -535t-224.5 -535t-602.5 -202t-603 202t-225 535zM305 717q0 -270 180.5 -433t479.5 -163q300 0 478.5 162.5t178.5 433.5t-178.5 433.5
t-478.5 162.5q-299 0 -479.5 -163t-180.5 -433z" />
    <glyph glyph-name="ohungarumlaut" unicode="&#x151;" horiz-adv-x="1589" 
d="M391 1272l213 440h193l-236 -440h-170zM793 1272l213 440h192l-235 -440h-170zM117 573q0 270 184.5 432t493.5 162t493.5 -162t184.5 -432t-184.5 -431.5t-493.5 -161.5t-493.5 161.5t-184.5 431.5zM285 573q0 -208 139 -330t371 -122q233 0 370.5 121.5t137.5 330.5
q0 207 -138 330t-370 123q-231 0 -370.5 -123.5t-139.5 -329.5z" />
    <glyph glyph-name="OE" unicode="&#x152;" horiz-adv-x="2521" 
d="M137 717q0 333 225 535t603 202q156 0 356 -20h1042v-148h-931v-459h766v-147h-766v-533h931v-147h-1042q-208 -20 -356 -20q-378 0 -603 202t-225 535zM1264 143v1147q-157 23 -299 23q-299 0 -479.5 -163t-180.5 -433q0 -271 181 -435t479 -161q164 0 299 22z" />
    <glyph glyph-name="oe" unicode="&#x153;" horiz-adv-x="2666" 
d="M117 573q0 270 184.5 432t493.5 162q210 0 363.5 -78.5t230.5 -220.5q74 141 222.5 220t350.5 79q266 0 427 -143.5t161 -382.5q0 -65 -13 -123h-1060q19 -187 160.5 -292t377.5 -105q107 0 244 14.5t225 38.5v-141q-220 -56 -459 -56q-228 1 -392 81.5t-244 224.5
q-76 -144 -230 -223.5t-364 -79.5q-309 0 -493.5 161.5t-184.5 431.5zM1479 641h913q0 172 -121 278.5t-317 106.5q-204 0 -329.5 -102.5t-145.5 -282.5zM285 573q0 -208 139 -330t371 -122q233 0 370.5 121.5t137.5 330.5q0 207 -138 330t-370 123q-231 0 -370.5 -123.5
t-139.5 -329.5z" />
    <glyph glyph-name="Racute" unicode="&#x154;" horiz-adv-x="1837" 
d="M655 1552l326 453h203l-340 -453h-189zM231 0v1434h793q288 0 427.5 -108t139.5 -325q0 -203 -110 -310t-320 -107h-49q61 -39 118.5 -100t97.5 -116t81.5 -106t89 -81.5t100.5 -30.5h162v-150h-198q-55 0 -103 18.5t-85.5 50t-72.5 72.5t-68 86.5t-67.5 92t-75.5 89.5
t-87.5 77.5t-108.5 57.5t-133 29h-363v-573h-168zM1020 1292h-621v-583h621q212 0 307.5 70t95.5 222q0 151 -95.5 221t-307.5 70z" />
    <glyph glyph-name="racute" unicode="&#x155;" horiz-adv-x="1210" 
d="M340 1266l326 452h202l-340 -452h-188zM211 1147h156l8 -248q97 123 243.5 195.5t309.5 72.5q112 0 186 -18v-145q-66 16 -153 16q-183 -2 -341 -81t-245 -216v-723h-164v1147z" />
    <glyph glyph-name="uni0156" unicode="&#x156;" horiz-adv-x="1837" 
d="M231 0v1434h793q288 0 427.5 -108t139.5 -325q0 -203 -110 -310t-320 -107h-49q61 -39 118.5 -100t97.5 -116t81.5 -106t89 -81.5t100.5 -30.5h162v-150h-198q-55 0 -103 18.5t-85.5 50t-72.5 72.5t-68 86.5t-67.5 92t-75.5 89.5t-87.5 77.5t-108.5 57.5t-133 29h-363
v-573h-168zM1020 1292h-621v-583h621q212 0 307.5 70t95.5 222q0 151 -95.5 221t-307.5 70zM952 -465h-153l51 406h186z" />
    <glyph glyph-name="uni0157" unicode="&#x157;" horiz-adv-x="1210" 
d="M211 1147h156l8 -248q97 123 243.5 195.5t309.5 72.5q112 0 186 -18v-145q-66 16 -153 16q-183 -2 -341 -81t-245 -216v-723h-164v1147zM324 -465h-154l51 406h187z" />
    <glyph glyph-name="Rcaron" unicode="&#x158;" horiz-adv-x="1837" 
d="M801 1554l-307 441h188l199 -299h75l199 299h191l-310 -441h-235zM231 0v1434h793q288 0 427.5 -108t139.5 -325q0 -203 -110 -310t-320 -107h-49q61 -39 118.5 -100t97.5 -116t81.5 -106t89 -81.5t100.5 -30.5h162v-150h-198q-55 0 -103 18.5t-85.5 50t-72.5 72.5
t-68 86.5t-67.5 92t-75.5 89.5t-87.5 77.5t-108.5 57.5t-133 29h-363v-573h-168zM1020 1292h-621v-583h621q212 0 307.5 70t95.5 222q0 151 -95.5 221t-307.5 70z" />
    <glyph glyph-name="rcaron" unicode="&#x159;" horiz-adv-x="1210" 
d="M487 1268l-307 440h189l198 -299h76l199 299h190l-309 -440h-236zM211 1147h156l8 -248q97 123 243.5 195.5t309.5 72.5q112 0 186 -18v-145q-66 16 -153 16q-183 -2 -341 -81t-245 -216v-723h-164v1147z" />
    <glyph glyph-name="Sacute" unicode="&#x15a;" horiz-adv-x="1607" 
d="M541 1552l325 453h203l-340 -453h-188zM1298 416q0 58 -23 99t-62.5 66t-108 40t-144.5 20t-186 6q-79 0 -138 3t-128 13t-118.5 26t-98 45t-78 68.5t-48 97t-18.5 130.5q0 417 678 424q276 3 570 -57v-148q-334 72 -607 66q-107 -2 -191.5 -19.5t-149 -51t-99.5 -89
t-35 -129.5q0 -48 15 -84.5t47.5 -62t76.5 -42.5t109.5 -26.5t137.5 -13.5t169 -4q74 0 128 -2.5t120 -11.5t113 -24.5t94 -44.5t76 -68.5t47 -98.5t18 -133q0 -214 -182 -323t-534 -105q-253 2 -605 63v150q22 -3 108 -17t155 -24.5t171.5 -20t188.5 -10.5q261 -2 396.5 72
t135.5 221z" />
    <glyph glyph-name="sacute" unicode="&#x15b;" horiz-adv-x="1439" 
d="M457 1266l325 452h203l-340 -452h-188zM1143 317q0 102 -97 144.5t-346 48.5q-56 1 -96 2.5t-92 6t-89 11.5t-79.5 18.5t-72 27.5t-58.5 39.5t-46 53t-27.5 68.5t-10.5 86q0 173 138.5 257t430.5 87q227 3 537 -57v-147q-343 71 -578 63q-189 -6 -274.5 -54.5
t-85.5 -144.5q0 -67 41.5 -104t141 -55t288.5 -23q66 -1 115.5 -4.5t109 -12t102.5 -22t85.5 -37.5t69 -55.5t43 -78.5t16.5 -105q0 -354 -623 -348q-243 2 -557 63v150q9 -1 96.5 -17.5t144 -25.5t155 -18.5t186.5 -10.5q219 -2 325.5 45t106.5 149z" />
    <glyph glyph-name="Scircumflex" unicode="&#x15c;" horiz-adv-x="1607" 
d="M379 1554l307 441h236l309 -441h-191l-198 299h-76l-199 -299h-188zM1298 416q0 58 -23 99t-62.5 66t-108 40t-144.5 20t-186 6q-79 0 -138 3t-128 13t-118.5 26t-98 45t-78 68.5t-48 97t-18.5 130.5q0 417 678 424q276 3 570 -57v-148q-334 72 -607 66
q-107 -2 -191.5 -19.5t-149 -51t-99.5 -89t-35 -129.5q0 -48 15 -84.5t47.5 -62t76.5 -42.5t109.5 -26.5t137.5 -13.5t169 -4q74 0 128 -2.5t120 -11.5t113 -24.5t94 -44.5t76 -68.5t47 -98.5t18 -133q0 -214 -182 -323t-534 -105q-253 2 -605 63v150q22 -3 108 -17
t155 -24.5t171.5 -20t188.5 -10.5q261 -2 396.5 72t135.5 221z" />
    <glyph glyph-name="scircumflex" unicode="&#x15d;" horiz-adv-x="1439" 
d="M295 1268l307 440h236l309 -440h-191l-198 299h-76l-199 -299h-188zM1143 317q0 102 -97 144.5t-346 48.5q-56 1 -96 2.5t-92 6t-89 11.5t-79.5 18.5t-72 27.5t-58.5 39.5t-46 53t-27.5 68.5t-10.5 86q0 173 138.5 257t430.5 87q227 3 537 -57v-147q-343 71 -578 63
q-189 -6 -274.5 -54.5t-85.5 -144.5q0 -67 41.5 -104t141 -55t288.5 -23q66 -1 115.5 -4.5t109 -12t102.5 -22t85.5 -37.5t69 -55.5t43 -78.5t16.5 -105q0 -354 -623 -348q-243 2 -557 63v150q9 -1 96.5 -17.5t144 -25.5t155 -18.5t186.5 -10.5q219 -2 325.5 45t106.5 149z
" />
    <glyph glyph-name="Scedilla" unicode="&#x15e;" horiz-adv-x="1607" 
d="M1298 416q0 57 -22.5 98.5t-60 66.5t-99.5 40t-129 20t-160 6q-79 0 -138.5 2.5t-127 9t-116.5 19t-99.5 31.5t-84 47.5t-61 67t-40.5 90.5t-13 116q0 417 674 424q280 3 574 -57v-148q-334 72 -609 66q-106 -2 -190 -19.5t-148.5 -51t-99.5 -89t-35 -129.5
q0 -71 33.5 -117.5t105 -71.5t162 -34.5t226.5 -9.5q62 0 108.5 -1.5t102 -6t97.5 -12.5t87 -22.5t77 -34.5t62.5 -48.5t49 -65.5t29.5 -85.5t11 -106.5q0 -193 -148.5 -301t-438.5 -125l-29 -50q67 -32 104 -84.5t37 -115.5q2 -112 -95 -169.5t-276 -45.5v110
q98 -10 158 28t60 112q-2 45 -41 87.5t-107 71.5l33 56q-253 5 -578 61v150q22 -3 108 -17t155.5 -24.5t172 -20t189.5 -10.5q260 -2 395 72t135 221z" />
    <glyph glyph-name="scedilla" unicode="&#x15f;" horiz-adv-x="1439" 
d="M1143 317q0 102 -97 144.5t-346 48.5q-56 1 -96 2.5t-92 6t-89 11.5t-79.5 18.5t-72 27.5t-58.5 39.5t-46 53t-27.5 68.5t-10.5 86q0 173 138.5 257t430.5 87q227 3 537 -57v-147q-343 71 -578 63q-189 -6 -274.5 -54.5t-85.5 -144.5q0 -67 41.5 -104t141 -55t288.5 -23
q66 -1 115.5 -4.5t109 -12t102.5 -22t85.5 -37.5t69 -55.5t43 -78.5t16.5 -105q0 -322 -516 -346l-29 -50q67 -32 103 -84t38 -116q0 -112 -95.5 -169.5t-274.5 -45.5v110q98 -10 157.5 28.5t57.5 111.5q0 44 -39.5 87t-106.5 72l31 56q-224 6 -506 61v150q8 -1 69 -12.5
t88.5 -16.5t91.5 -14.5t110.5 -14.5t110 -9.5t122.5 -4.5q213 0 317.5 47.5t104.5 146.5z" />
    <glyph glyph-name="Scaron" unicode="&#x160;" horiz-adv-x="1607" 
d="M686 1554l-307 441h188l199 -299h76l198 299h191l-309 -441h-236zM1298 416q0 58 -23 99t-62.5 66t-108 40t-144.5 20t-186 6q-79 0 -138 3t-128 13t-118.5 26t-98 45t-78 68.5t-48 97t-18.5 130.5q0 417 678 424q276 3 570 -57v-148q-334 72 -607 66
q-107 -2 -191.5 -19.5t-149 -51t-99.5 -89t-35 -129.5q0 -48 15 -84.5t47.5 -62t76.5 -42.5t109.5 -26.5t137.5 -13.5t169 -4q74 0 128 -2.5t120 -11.5t113 -24.5t94 -44.5t76 -68.5t47 -98.5t18 -133q0 -214 -182 -323t-534 -105q-253 2 -605 63v150q22 -3 108 -17
t155 -24.5t171.5 -20t188.5 -10.5q261 -2 396.5 72t135.5 221z" />
    <glyph glyph-name="scaron" unicode="&#x161;" horiz-adv-x="1439" 
d="M602 1268l-307 440h188l199 -299h76l198 299h191l-309 -440h-236zM1143 317q0 102 -97 144.5t-346 48.5q-56 1 -96 2.5t-92 6t-89 11.5t-79.5 18.5t-72 27.5t-58.5 39.5t-46 53t-27.5 68.5t-10.5 86q0 173 138.5 257t430.5 87q227 3 537 -57v-147q-343 71 -578 63
q-189 -6 -274.5 -54.5t-85.5 -144.5q0 -67 41.5 -104t141 -55t288.5 -23q66 -1 115.5 -4.5t109 -12t102.5 -22t85.5 -37.5t69 -55.5t43 -78.5t16.5 -105q0 -354 -623 -348q-243 2 -557 63v150q9 -1 96.5 -17.5t144 -25.5t155 -18.5t186.5 -10.5q219 -2 325.5 45t106.5 149z
" />
    <glyph glyph-name="uni0162" unicode="&#x162;" horiz-adv-x="1726" 
d="M780 0v1286h-725v148h1616v-148h-725v-1286h-8l-39 -66q68 -33 107.5 -85.5t40.5 -114.5q0 -112 -96 -169.5t-275 -45.5v110q98 -10 157 28.5t58 111.5q0 44 -39.5 87t-106.5 72l43 72h-8z" />
    <glyph glyph-name="uni0163" unicode="&#x163;" horiz-adv-x="1327" 
d="M377 1440l164 45v-338h651v-123h-651v-598q0 -156 86.5 -228.5t273.5 -72.5q69 0 162.5 13t169.5 42v-139q-72 -33 -173.5 -48t-187.5 -13l-28 -50q67 -32 104 -84.5t37 -115.5q2 -112 -95 -169.5t-276 -45.5v110q98 -11 157.5 27.5t59.5 111.5q-2 45 -40.5 88t-106.5 72
l41 70q-167 32 -257.5 135.5t-90.5 265.5v629h-330v123h330v293z" />
    <glyph glyph-name="Tcaron" unicode="&#x164;" horiz-adv-x="1726" 
d="M745 1554l-307 441h189l198 -299h76l199 299h190l-309 -441h-236zM780 0v1286h-725v148h1616v-148h-725v-1286h-166z" />
    <glyph glyph-name="tcaron" unicode="&#x165;" horiz-adv-x="1341" 
d="M872 1358l70 569h188l-116 -569h-142zM377 1440l164 45v-338h651v-123h-651v-598q0 -156 86.5 -228.5t273.5 -72.5q69 0 162.5 13t169.5 42v-139q-135 -61 -356 -61q-235 0 -367.5 110t-132.5 305v629h-330v123h330v293z" />
    <glyph glyph-name="Tbar" unicode="&#x166;" horiz-adv-x="1726" 
d="M780 0v547h-383v137h383v602h-725v148h1616v-148h-725v-602h385v-137h-385v-547h-166z" />
    <glyph glyph-name="tbar" unicode="&#x167;" horiz-adv-x="1327" 
d="M377 1440l164 45v-338h651v-123h-651v-322h600v-137h-600v-139q0 -156 86.5 -228.5t273.5 -72.5q69 0 162.5 13t169.5 42v-139q-135 -61 -356 -61q-235 0 -367.5 110t-132.5 305v170h-330v137h330v322h-330v123h330v293z" />
    <glyph glyph-name="Utilde" unicode="&#x168;" horiz-adv-x="1824" 
d="M913 121q250 0 392.5 123.5t142.5 351.5v840h164v-840q0 -291 -185.5 -453.5t-513.5 -162.5q-329 0 -515.5 162.5t-186.5 453.5v840h168v-840q0 -228 140.5 -351.5t393.5 -123.5zM881 1663q-87 53 -156 53q-91 0 -188 -100v151q102 105 200 105q27 0 57.5 -9t49.5 -18.5
t55 -29.5t49 -27q73 -39 129 -39q97 0 203 98v-151q-112 -101 -215 -101q-33 0 -69.5 11.5t-56.5 22.5t-58 34z" />
    <glyph glyph-name="utilde" unicode="&#x169;" 
d="M1231 0l-4 113q-289 -133 -543 -133q-216 0 -350.5 108t-134.5 277v782h163v-758q0 -125 94 -197.5t253 -72.5q233 0 514 131v897h163v-1147h-155zM766 1376q-89 54 -156 54q-90 0 -188 -101v152q101 104 201 104q27 0 57.5 -9t49.5 -18.5t55 -29.5t49 -27
q73 -39 129 -39q95 0 202 99v-152q-111 -100 -215 -100q-34 0 -69.5 11t-56.5 22.5t-58 33.5z" />
    <glyph glyph-name="Umacron" unicode="&#x16a;" horiz-adv-x="1824" 
d="M592 1710v137h641v-137h-641zM913 121q250 0 392.5 123.5t142.5 351.5v840h164v-840q0 -291 -185.5 -453.5t-513.5 -162.5q-329 0 -515.5 162.5t-186.5 453.5v840h168v-840q0 -228 140.5 -351.5t393.5 -123.5z" />
    <glyph glyph-name="umacron" unicode="&#x16b;" 
d="M479 1423v138h641v-138h-641zM1231 0l-4 113q-289 -133 -543 -133q-216 0 -350.5 108t-134.5 277v782h163v-758q0 -125 94 -197.5t253 -72.5q233 0 514 131v897h163v-1147h-155z" />
    <glyph glyph-name="Ubreve" unicode="&#x16c;" horiz-adv-x="1824" 
d="M911 1714q104 0 155.5 66.5t43.5 158.5h135q10 -97 -24 -176.5t-114.5 -129.5t-195.5 -50q-170 0 -258.5 103t-74.5 253h137q-10 -91 41.5 -158t154.5 -67zM913 121q250 0 392.5 123.5t142.5 351.5v840h164v-840q0 -291 -185.5 -453.5t-513.5 -162.5q-329 0 -515.5 162.5
t-186.5 453.5v840h168v-840q0 -228 140.5 -351.5t393.5 -123.5z" />
    <glyph glyph-name="ubreve" unicode="&#x16d;" 
d="M799 1427q104 0 155 67t43 159h136q10 -97 -24 -177t-114.5 -130t-195.5 -50q-170 0 -259 103.5t-75 253.5h137q-10 -91 42 -158.5t155 -67.5zM1231 0l-4 113q-289 -133 -543 -133q-216 0 -350.5 108t-134.5 277v782h163v-758q0 -125 94 -197.5t253 -72.5q233 0 514 131
v897h163v-1147h-155z" />
    <glyph glyph-name="Uring" unicode="&#x16e;" horiz-adv-x="1824" 
d="M629 1804q0 124 77 198.5t207 74.5q129 0 206 -75t77 -198q0 -125 -77 -199.5t-206 -74.5q-130 0 -207 74.5t-77 199.5zM764 1804q0 -65 40.5 -105t108.5 -40q67 0 107.5 40t40.5 105q0 64 -40.5 104t-107.5 40q-68 0 -108.5 -39.5t-40.5 -104.5zM913 121
q250 0 392.5 123.5t142.5 351.5v840h164v-840q0 -291 -185.5 -453.5t-513.5 -162.5q-329 0 -515.5 162.5t-186.5 453.5v840h168v-840q0 -228 140.5 -351.5t393.5 -123.5z" />
    <glyph glyph-name="uring" unicode="&#x16f;" 
d="M516 1518q0 123 77.5 197.5t207.5 74.5q129 0 205.5 -74.5t76.5 -197.5q0 -125 -76.5 -200t-205.5 -75q-130 0 -207.5 75t-77.5 200zM651 1518q0 -65 41 -105.5t109 -40.5q67 0 107 40.5t40 105.5q0 64 -40 103.5t-107 39.5q-69 0 -109.5 -39t-40.5 -104zM1231 0l-4 113
q-289 -133 -543 -133q-216 0 -350.5 108t-134.5 277v782h163v-758q0 -125 94 -197.5t253 -72.5q233 0 514 131v897h163v-1147h-155z" />
    <glyph glyph-name="Uhungarumlaut" unicode="&#x170;" horiz-adv-x="1824" 
d="M510 1559l213 440h192l-235 -440h-170zM911 1559l213 440h193l-236 -440h-170zM913 121q250 0 392.5 123.5t142.5 351.5v840h164v-840q0 -291 -185.5 -453.5t-513.5 -162.5q-329 0 -515.5 162.5t-186.5 453.5v840h168v-840q0 -228 140.5 -351.5t393.5 -123.5z" />
    <glyph glyph-name="uhungarumlaut" unicode="&#x171;" 
d="M395 1272l213 440h193l-236 -440h-170zM797 1272l213 440h192l-235 -440h-170zM1231 0l-4 113q-289 -133 -543 -133q-216 0 -350.5 108t-134.5 277v782h163v-758q0 -125 94 -197.5t253 -72.5q233 0 514 131v897h163v-1147h-155z" />
    <glyph glyph-name="Uogonek" unicode="&#x172;" horiz-adv-x="1824" 
d="M913 121q250 0 392.5 123.5t142.5 351.5v840h164v-840q0 -276 -165 -435.5t-464 -178.5q-98 -107 -98 -218q0 -75 55.5 -110.5t155.5 -24.5v-110q-367 -27 -367 202q0 147 117 261q-300 17 -467.5 178.5t-167.5 435.5v840h168v-840q0 -228 140.5 -351.5t393.5 -123.5z
" />
    <glyph glyph-name="uogonek" unicode="&#x173;" 
d="M1231 0l-4 113q-289 -133 -543 -133q-216 0 -350.5 108t-134.5 277v782h163v-758q0 -125 94 -197.5t253 -72.5q233 0 514 131v897h163v-1147h-18q-113 -113 -113 -233q0 -75 55.5 -111t155.5 -25v-110q-364 -27 -364 203q0 156 135 276h-6z" />
    <glyph glyph-name="Wcircumflex" unicode="&#x174;" horiz-adv-x="2539" 
d="M846 1554l307 441h236l309 -441h-191l-198 299h-76l-199 -299h-188zM580 0l-504 1434h166l432 -1231h45l430 1231h242l430 -1231h45l432 1231h166l-504 -1434h-236l-432 1239h-45l-432 -1239h-235z" />
    <glyph glyph-name="wcircumflex" unicode="&#x175;" horiz-adv-x="2191" 
d="M670 1268l307 440h235l310 -440h-191l-198 299h-76l-199 -299h-188zM498 0l-457 1147h172l369 -946h53l371 946h180l370 -946h54l368 946h172l-456 -1147h-213l-361 926h-49l-360 -926h-213z" />
    <glyph glyph-name="Ycircumflex" unicode="&#x176;" horiz-adv-x="1722" 
d="M436 1554l307 441h236l309 -441h-190l-199 299h-76l-198 -299h-189zM780 0v563l-704 871h196l568 -709h43l565 709h199l-701 -867v-567h-166z" />
    <glyph glyph-name="ycircumflex" unicode="&#x177;" horiz-adv-x="1531" 
d="M340 1268l307 440h236l309 -440h-191l-198 299h-76l-199 -299h-188zM680 -408h-162l238 463h-140l-575 1092h172l492 -944h126l484 944h176z" />
    <glyph glyph-name="Ydieresis" unicode="&#x178;" horiz-adv-x="1722" 
d="M541 1782q0 56 33 84t92 28q57 0 89.5 -28t32.5 -84q0 -57 -32.5 -87t-89.5 -30q-58 0 -91.5 30t-33.5 87zM932 1782q0 56 33.5 84t93.5 28q56 0 88.5 -28.5t32.5 -83.5q0 -57 -32.5 -87t-88.5 -30q-60 0 -93.5 30t-33.5 87zM780 0v563l-704 871h196l568 -709h43l565 709
h199l-701 -867v-567h-166z" />
    <glyph glyph-name="Zacute" unicode="&#x179;" horiz-adv-x="1548" 
d="M510 1552l326 453h202l-340 -453h-188zM1440 1286l-1098 -1118v-21h1098v-147h-1331v147l1101 1121v18h-1101v148h1331v-148z" />
    <glyph glyph-name="zacute" unicode="&#x17a;" horiz-adv-x="1388" 
d="M430 1266l326 452h202l-340 -452h-188zM307 123h987v-123h-1198v123l985 901h-985v123h1198v-123z" />
    <glyph glyph-name="Zdotaccent" unicode="&#x17b;" horiz-adv-x="1548" 
d="M651 1782q0 56 33 84t92 28q57 0 90 -28.5t33 -83.5q0 -57 -33 -87t-90 -30q-58 0 -91.5 30t-33.5 87zM1440 1286l-1098 -1118v-21h1098v-147h-1331v147l1101 1121v18h-1101v148h1331v-148z" />
    <glyph glyph-name="zdotaccent" unicode="&#x17c;" horiz-adv-x="1388" 
d="M571 1495q0 56 33 84.5t92 28.5q57 0 90 -28.5t33 -84.5q0 -57 -33 -87t-90 -30q-58 0 -91.5 30t-33.5 87zM307 123h987v-123h-1198v123l985 901h-985v123h1198v-123z" />
    <glyph glyph-name="Zcaron" unicode="&#x17d;" horiz-adv-x="1548" 
d="M657 1554l-307 441h189l198 -299h76l199 299h190l-309 -441h-236zM1440 1286l-1098 -1118v-21h1098v-147h-1331v147l1101 1121v18h-1101v148h1331v-148z" />
    <glyph glyph-name="zcaron" unicode="&#x17e;" horiz-adv-x="1388" 
d="M578 1268l-308 440h189l198 -299h76l199 299h190l-309 -440h-235zM307 123h987v-123h-1198v123l985 901h-985v123h1198v-123z" />
    <glyph glyph-name="longs" unicode="&#x17f;" horiz-adv-x="1048" 
d="M211 0v1223q0 188 131 301.5t348 113.5q77 0 176.5 -14t173.5 -47v-137q-74 26 -167 39.5t-156 13.5q-169 0 -255.5 -76.5t-86.5 -224.5v-1192h-164z" />
    <glyph glyph-name="florin" unicode="&#x192;" horiz-adv-x="1687" 
d="M850 1024l-137 -977q-26 -188 -164.5 -302t-339.5 -114q-31 0 -113 7l19 145q59 -6 90 -6q150 0 238 76.5t110 224.5l133 946h-321l18 123h322l8 76q26 188 172.5 301.5t363.5 113.5q78 0 176.5 -14t167.5 -47l-20 -137q-69 26 -161 39.5t-155 13.5q-168 0 -265.5 -76.5
t-119.5 -224.5l-4 -45h625l-18 -123h-625z" />
    <glyph glyph-name="Ohorn" unicode="&#x1a0;" horiz-adv-x="1929" 
d="M137 717q0 333 225 535t603 202q113 0 223 -22q62 -3 110.5 4t79.5 23t52 36t31 47t14 51.5t4 55.5h166q0 -106 -49.5 -190t-143.5 -124q163 -96 251.5 -255t88.5 -363q0 -333 -224.5 -535t-602.5 -202t-603 202t-225 535zM305 717q0 -270 180.5 -433t479.5 -163
q300 0 478.5 162.5t178.5 433.5t-178.5 433.5t-478.5 162.5q-299 0 -479.5 -163t-180.5 -433z" />
    <glyph glyph-name="ohorn" unicode="&#x1a1;" horiz-adv-x="1589" 
d="M117 573q0 270 184.5 432t493.5 162q105 0 204 -22q63 -2 110 9.5t74 31t43.5 50t21.5 59.5t5 65h166q0 -104 -48 -186.5t-140 -124.5q117 -79 179.5 -200.5t62.5 -275.5q0 -270 -184.5 -431.5t-493.5 -161.5t-493.5 161.5t-184.5 431.5zM285 573q0 -208 139 -330
t371 -122q233 0 370.5 121.5t137.5 330.5q0 207 -138 330t-370 123q-231 0 -370.5 -123.5t-139.5 -329.5z" />
    <glyph glyph-name="Uhorn" unicode="&#x1af;" horiz-adv-x="1824" 
d="M913 121q250 0 392.5 123.5t142.5 351.5v840h10q217 0 217 213h166q0 -117 -58.5 -204.5t-170.5 -123.5v-725q0 -291 -185.5 -453.5t-513.5 -162.5q-329 0 -515.5 162.5t-186.5 453.5v840h168v-840q0 -228 140.5 -351.5t393.5 -123.5z" />
    <glyph glyph-name="uhorn" unicode="&#x1b0;" 
d="M1231 0l-4 113q-289 -133 -543 -133q-216 0 -350.5 108t-134.5 277v782h163v-758q0 -125 94 -197.5t253 -72.5q233 0 514 131v897h22q205 5 205 213h166q0 -116 -59 -204t-171 -124v-1032h-155z" />
    <glyph glyph-name="uni0218" unicode="&#x218;" horiz-adv-x="1607" 
d="M1298 416q0 58 -23 99t-62.5 66t-108 40t-144.5 20t-186 6q-79 0 -138 3t-128 13t-118.5 26t-98 45t-78 68.5t-48 97t-18.5 130.5q0 417 678 424q276 3 570 -57v-148q-334 72 -607 66q-107 -2 -191.5 -19.5t-149 -51t-99.5 -89t-35 -129.5q0 -48 15 -84.5t47.5 -62
t76.5 -42.5t109.5 -26.5t137.5 -13.5t169 -4q74 0 128 -2.5t120 -11.5t113 -24.5t94 -44.5t76 -68.5t47 -98.5t18 -133q0 -214 -182 -323t-534 -105q-253 2 -605 63v150q22 -3 108 -17t155 -24.5t171.5 -20t188.5 -10.5q261 -2 396.5 72t135.5 221zM840 -465h-154l51 406
h187z" />
    <glyph glyph-name="uni0219" unicode="&#x219;" horiz-adv-x="1439" 
d="M1143 317q0 102 -97 144.5t-346 48.5q-56 1 -96 2.5t-92 6t-89 11.5t-79.5 18.5t-72 27.5t-58.5 39.5t-46 53t-27.5 68.5t-10.5 86q0 173 138.5 257t430.5 87q227 3 537 -57v-147q-343 71 -578 63q-189 -6 -274.5 -54.5t-85.5 -144.5q0 -67 41.5 -104t141 -55t288.5 -23
q66 -1 115.5 -4.5t109 -12t102.5 -22t85.5 -37.5t69 -55.5t43 -78.5t16.5 -105q0 -354 -623 -348q-243 2 -557 63v150q9 -1 96.5 -17.5t144 -25.5t155 -18.5t186.5 -10.5q219 -2 325.5 45t106.5 149zM754 -465h-154l51 406h187z" />
    <glyph glyph-name="uni021A" unicode="&#x21a;" horiz-adv-x="1726" 
d="M780 0v1286h-725v148h1616v-148h-725v-1286h-166zM899 -465h-154l52 406h186z" />
    <glyph glyph-name="uni021B" unicode="&#x21b;" horiz-adv-x="1327" 
d="M377 1440l164 45v-338h651v-123h-651v-598q0 -156 86.5 -228.5t273.5 -72.5q69 0 162.5 13t169.5 42v-139q-135 -61 -356 -61q-235 0 -367.5 110t-132.5 305v629h-330v123h330v293zM698 -465h-153l51 406h186z" />
    <glyph glyph-name="uni0237" unicode="&#x237;" horiz-adv-x="929" 
d="M553 39v1108h164v-1139q0 -191 -116 -300t-318 -109q-179 0 -351 61v139q181 -53 326 -53q154 0 224.5 70.5t70.5 222.5z" />
    <glyph glyph-name="circumflex" unicode="&#x2c6;" horiz-adv-x="1124" 
d="M137 1268l307 440h236l309 -440h-190l-199 299h-76l-198 -299h-189z" />
    <glyph glyph-name="caron" unicode="&#x2c7;" horiz-adv-x="1124" 
d="M444 1268l-307 440h189l198 -299h76l199 299h190l-309 -440h-236z" />
    <glyph glyph-name="breve" unicode="&#x2d8;" horiz-adv-x="948" 
d="M473 1427q104 0 155.5 67t43.5 159h135q10 -97 -24 -177t-114.5 -130t-195.5 -50q-170 0 -259 103.5t-75 253.5h137q-10 -91 42 -158.5t155 -67.5z" />
    <glyph glyph-name="dotaccent" unicode="&#x2d9;" horiz-adv-x="520" 
d="M137 1495q0 56 33 84.5t92 28.5q57 0 90 -28.5t33 -84.5q0 -57 -33 -87t-90 -30q-58 0 -91.5 30t-33.5 87z" />
    <glyph glyph-name="ring" unicode="&#x2da;" horiz-adv-x="841" 
d="M137 1518q0 123 77.5 197.5t207.5 74.5q129 0 206 -74.5t77 -197.5q0 -125 -77 -200t-206 -75q-130 0 -207.5 75t-77.5 200zM272 1518q0 -65 41 -105.5t109 -40.5q67 0 107 40.5t40 105.5q0 64 -40 103.5t-107 39.5q-69 0 -109.5 -39t-40.5 -104z" />
    <glyph glyph-name="ogonek" unicode="&#x2db;" horiz-adv-x="638" 
d="M137 -276q0 173 156 299h133q-66 -60 -100.5 -127t-34.5 -129q0 -75 55.5 -110.5t155.5 -23.5v-112q-365 -27 -365 203z" />
    <glyph glyph-name="tilde" unicode="&#x2dc;" horiz-adv-x="950" 
d="M451 1425q-82 54 -142 54q-82 0 -172 -101v148q93 104 182 104q25 0 53 -9.5t45 -18t51 -29.5t44 -27q66 -39 117 -39q85 0 184 99v-148q-100 -100 -195 -100q-31 0 -63 11t-52 23t-52 33z" />
    <glyph glyph-name="hungarumlaut" unicode="&#x2dd;" horiz-adv-x="1081" 
d="M137 1272l213 440h193l-236 -440h-170zM539 1272l213 440h192l-235 -440h-170z" />
    <glyph glyph-name="uni0326" unicode="&#x326;" horiz-adv-x="532" 
d="M309 -465h-153l51 406h186z" />
    <glyph glyph-name="uni0394" unicode="&#x394;" horiz-adv-x="1871" 
d="M137 137l641 1297h316l641 -1297v-137h-1598v137zM313 137h1248l-568 1147h-114z" />
    <glyph glyph-name="uni03A9" unicode="&#x3a9;" horiz-adv-x="2015" 
d="M1008 1454q367 0 563 -190t196 -535q0 -196 -96 -355.5t-248 -236.5h414v-137h-631v137q183 98 287 251t104 343q0 281 -150 431.5t-439 150.5t-439.5 -150.5t-150.5 -431.5q0 -190 104 -343t287 -251v-137h-631v137h414q-152 77 -248 236.5t-96 355.5q0 345 196.5 535
t563.5 190z" />
    <glyph glyph-name="uni03BC" unicode="&#x3bc;" horiz-adv-x="1583" 
d="M1231 0l-4 113q-289 -133 -543 -133q-208 0 -322 108v-514h-163v1573h163v-758q0 -125 94 -197.5t253 -72.5q233 0 514 131v897h163v-1147h-155z" />
    <glyph glyph-name="pi" unicode="&#x3c0;" horiz-adv-x="1818" 
d="M1253 0v1010h-686v-1010h-164v1010h-225v137h1464v-137h-225v-1010h-164z" />
    <glyph glyph-name="Wgrave" unicode="&#x1e80;" horiz-adv-x="2539" 
d="M1534 1552h-188l-340 453h202zM580 0l-504 1434h166l432 -1231h45l430 1231h242l430 -1231h45l432 1231h166l-504 -1434h-236l-432 1239h-45l-432 -1239h-235z" />
    <glyph glyph-name="wgrave" unicode="&#x1e81;" horiz-adv-x="2191" 
d="M1360 1266h-189l-340 452h203zM498 0l-457 1147h172l369 -946h53l371 946h180l370 -946h54l368 946h172l-456 -1147h-213l-361 926h-49l-360 -926h-213z" />
    <glyph glyph-name="Wacute" unicode="&#x1e82;" horiz-adv-x="2539" 
d="M1006 1552l325 453h203l-340 -453h-188zM580 0l-504 1434h166l432 -1231h45l430 1231h242l430 -1231h45l432 1231h166l-504 -1434h-236l-432 1239h-45l-432 -1239h-235z" />
    <glyph glyph-name="wacute" unicode="&#x1e83;" horiz-adv-x="2191" 
d="M831 1266l326 452h203l-340 -452h-189zM498 0l-457 1147h172l369 -946h53l371 946h180l370 -946h54l368 946h172l-456 -1147h-213l-361 926h-49l-360 -926h-213z" />
    <glyph glyph-name="Wdieresis" unicode="&#x1e84;" horiz-adv-x="2539" 
d="M950 1782q0 56 33 84t92 28q57 0 90 -28.5t33 -83.5q0 -57 -33 -87t-90 -30q-58 0 -91.5 30t-33.5 87zM1341 1782q0 56 33.5 84t93.5 28q56 0 88.5 -28.5t32.5 -83.5q0 -57 -32.5 -87t-88.5 -30q-60 0 -93.5 30t-33.5 87zM580 0l-504 1434h166l432 -1231h45l430 1231h242
l430 -1231h45l432 1231h166l-504 -1434h-236l-432 1239h-45l-432 -1239h-235z" />
    <glyph glyph-name="wdieresis" unicode="&#x1e85;" horiz-adv-x="2191" 
d="M776 1495q0 56 33 84.5t92 28.5q57 0 90 -28.5t33 -84.5q0 -57 -33 -87t-90 -30q-58 0 -91.5 30t-33.5 87zM1167 1495q0 56 33.5 84.5t93.5 28.5q56 0 88.5 -29t32.5 -84q0 -57 -32.5 -87t-88.5 -30q-60 0 -93.5 30t-33.5 87zM498 0l-457 1147h172l369 -946h53l371 946
h180l370 -946h54l368 946h172l-456 -1147h-213l-361 926h-49l-360 -926h-213z" />
    <glyph glyph-name="uni1EA0" unicode="&#x1ea0;" horiz-adv-x="1789" 
d="M768 -324q0 56 33.5 84.5t93.5 28.5q56 0 88.5 -29t32.5 -84q0 -57 -32.5 -86.5t-88.5 -29.5q-60 0 -93.5 29.5t-33.5 86.5zM76 0l641 1434h356l643 -1434h-178l-162 369h-960l-164 -369h-176zM473 504h844l-342 780h-158z" />
    <glyph glyph-name="uni1EA1" unicode="&#x1ea1;" horiz-adv-x="1505" 
d="M621 -324q0 56 33.5 84.5t93.5 28.5q56 0 88 -28.5t32 -84.5q0 -57 -32 -86.5t-88 -29.5q-60 0 -93.5 29.5t-33.5 86.5zM117 342q0 172 138.5 257t422.5 85q303 0 473 -20v73q0 148 -92 218.5t-285 70.5q-288 0 -541 -55v141q254 55 525 55q286 0 421.5 -104t135.5 -322
v-741h-156l-8 215q-77 -109 -220.5 -173.5t-324.5 -64.5q-239 0 -364 93t-125 272zM1151 401v148q-234 4 -485 4q-195 0 -289 -53.5t-94 -163.5q0 -219 356 -219q112 0 219.5 34t188 100t104.5 150z" />
    <glyph glyph-name="uni1EA2" unicode="&#x1ea2;" horiz-adv-x="1789" 
d="M961 1575h-130q0 44 15 76.5t37 49.5t48.5 32.5t48.5 27.5t37 33.5t15 50.5q0 68 -119 74q-89 3 -206 -31v127q132 33 227 31q120 -1 185 -48.5t65 -125.5q0 -50 -16.5 -87.5t-41.5 -58t-53.5 -39t-53.5 -31.5t-41.5 -33.5t-16.5 -47.5zM76 0l641 1434h356l643 -1434
h-178l-162 369h-960l-164 -369h-176zM473 504h844l-342 780h-158z" />
    <glyph glyph-name="uni1EA3" unicode="&#x1ea3;" horiz-adv-x="1505" 
d="M836 1288h-129q0 44 15 76.5t37 49.5t48 33t48 28t37 33.5t15 50.5q0 67 -119 73q-92 3 -206 -30v127q128 33 227 30q120 -1 185 -48.5t65 -125.5q0 -50 -16.5 -87.5t-41.5 -58t-53.5 -39t-53.5 -31.5t-41.5 -33.5t-16.5 -47.5zM117 342q0 172 138.5 257t422.5 85
q303 0 473 -20v73q0 148 -92 218.5t-285 70.5q-288 0 -541 -55v141q254 55 525 55q286 0 421.5 -104t135.5 -322v-741h-156l-8 215q-77 -109 -220.5 -173.5t-324.5 -64.5q-239 0 -364 93t-125 272zM1151 401v148q-234 4 -485 4q-195 0 -289 -53.5t-94 -163.5
q0 -219 356 -219q112 0 219.5 34t188 100t104.5 150z" />
    <glyph glyph-name="uni1EA4" unicode="&#x1ea4;" horiz-adv-x="1789" 
d="M1417 1759h-164l224 359h198zM76 0l641 1434h356l643 -1434h-178l-162 369h-960l-164 -369h-176zM473 504h844l-342 780h-158zM535 1554l266 359h194l269 -359h-160l-168 218h-76l-168 -218h-157z" />
    <glyph glyph-name="uni1EA5" unicode="&#x1ea5;" horiz-adv-x="1505" 
d="M1274 1473h-164l223 358h199zM117 342q0 172 138.5 257t422.5 85q303 0 473 -20v73q0 148 -92 218.5t-285 70.5q-288 0 -541 -55v141q254 55 525 55q286 0 421.5 -104t135.5 -322v-741h-156l-8 215q-77 -109 -220.5 -173.5t-324.5 -64.5q-239 0 -364 93t-125 272z
M1151 401v148q-234 4 -485 4q-195 0 -289 -53.5t-94 -163.5q0 -219 356 -219q112 0 219.5 34t188 100t104.5 150zM391 1268l266 358h195l268 -358h-159l-168 217h-76l-168 -217h-158z" />
    <glyph glyph-name="uni1EA6" unicode="&#x1ea6;" horiz-adv-x="1789" 
d="M1495 1759h-164l-258 359h199zM76 0l641 1434h356l643 -1434h-178l-162 369h-960l-164 -369h-176zM473 504h844l-342 780h-158zM535 1554l266 359h194l269 -359h-160l-168 218h-76l-168 -218h-157z" />
    <glyph glyph-name="uni1EA7" unicode="&#x1ea7;" horiz-adv-x="1505" 
d="M1352 1473h-164l-258 358h198zM117 342q0 172 138.5 257t422.5 85q303 0 473 -20v73q0 148 -92 218.5t-285 70.5q-288 0 -541 -55v141q254 55 525 55q286 0 421.5 -104t135.5 -322v-741h-156l-8 215q-77 -109 -220.5 -173.5t-324.5 -64.5q-239 0 -364 93t-125 272z
M1151 401v148q-234 4 -485 4q-195 0 -289 -53.5t-94 -163.5q0 -219 356 -219q112 0 219.5 34t188 100t104.5 150zM391 1268l266 358h195l268 -358h-159l-168 217h-76l-168 -217h-158z" />
    <glyph glyph-name="uni1EA8" unicode="&#x1ea8;" horiz-adv-x="1789" 
d="M1397 1759h-129q0 44 15 76.5t37 49.5t48 33t48 28t37 33.5t15 50.5q0 67 -118 73q-93 3 -207 -30v127q128 33 227 30q120 -1 185 -48.5t65 -125.5q0 -50 -16.5 -87.5t-41.5 -58t-53.5 -39t-53.5 -31.5t-41.5 -33.5t-16.5 -47.5zM76 0l641 1434h356l643 -1434h-178
l-162 369h-960l-164 -369h-176zM473 504h844l-342 780h-158zM535 1554l266 359h194l269 -359h-160l-168 218h-76l-168 -218h-157z" />
    <glyph glyph-name="uni1EA9" unicode="&#x1ea9;" horiz-adv-x="1505" 
d="M1253 1473h-129q0 44 15 76.5t37 49.5t48.5 32.5t48.5 27.5t37 33.5t15 50.5q0 68 -119 74q-90 3 -207 -31v127q132 33 228 31q120 -1 185 -48.5t65 -126.5q0 -59 -23 -100t-56 -63t-66 -39t-56 -40t-23 -54zM117 342q0 172 138.5 257t422.5 85q303 0 473 -20v73
q0 148 -92 218.5t-285 70.5q-288 0 -541 -55v141q254 55 525 55q286 0 421.5 -104t135.5 -322v-741h-156l-8 215q-77 -109 -220.5 -173.5t-324.5 -64.5q-239 0 -364 93t-125 272zM1151 401v148q-234 4 -485 4q-195 0 -289 -53.5t-94 -163.5q0 -219 356 -219q112 0 219.5 34
t188 100t104.5 150zM391 1268l266 358h195l268 -358h-159l-168 217h-76l-168 -217h-158z" />
    <glyph glyph-name="uni1EAA" unicode="&#x1eaa;" horiz-adv-x="1789" 
d="M872 2089q-87 53 -155 53q-92 0 -189 -100v151q102 105 201 105q27 0 57.5 -9t49.5 -18.5t55 -29.5t49 -27q73 -39 129 -39q97 0 203 98v-151q-112 -101 -215 -101q-34 0 -70 11.5t-57 23t-58 33.5zM76 0l641 1434h356l643 -1434h-178l-162 369h-960l-164 -369h-176z
M473 504h844l-342 780h-158zM535 1554l266 359h194l269 -359h-160l-168 218h-76l-168 -218h-157z" />
    <glyph glyph-name="uni1EAB" unicode="&#x1eab;" horiz-adv-x="1505" 
d="M729 1802q-87 53 -156 53q-91 0 -188 -100v152q101 104 201 104q27 0 57.5 -9t49.5 -18.5t55 -29.5t49 -27q73 -39 129 -39q95 0 202 99v-152q-111 -100 -215 -100q-34 0 -69.5 11t-56.5 22.5t-58 33.5zM117 342q0 172 138.5 257t422.5 85q303 0 473 -20v73
q0 148 -92 218.5t-285 70.5q-288 0 -541 -55v141q254 55 525 55q286 0 421.5 -104t135.5 -322v-741h-156l-8 215q-77 -109 -220.5 -173.5t-324.5 -64.5q-239 0 -364 93t-125 272zM1151 401v148q-234 4 -485 4q-195 0 -289 -53.5t-94 -163.5q0 -219 356 -219q112 0 219.5 34
t188 100t104.5 150zM391 1268l266 358h195l268 -358h-159l-168 217h-76l-168 -217h-158z" />
    <glyph glyph-name="uni1EAC" unicode="&#x1eac;" horiz-adv-x="1789" 
d="M768 -324q0 56 33.5 84.5t93.5 28.5q56 0 88.5 -29t32.5 -84q0 -57 -32.5 -86.5t-88.5 -29.5q-60 0 -93.5 29.5t-33.5 86.5zM76 0l641 1434h356l643 -1434h-178l-162 369h-960l-164 -369h-176zM473 504h844l-342 780h-158zM535 1554l266 359h194l269 -359h-160l-168 218
h-76l-168 -218h-157z" />
    <glyph glyph-name="uni1EAD" unicode="&#x1ead;" horiz-adv-x="1505" 
d="M621 -324q0 56 33.5 84.5t93.5 28.5q56 0 88 -28.5t32 -84.5q0 -57 -32 -86.5t-88 -29.5q-60 0 -93.5 29.5t-33.5 86.5zM117 342q0 172 138.5 257t422.5 85q303 0 473 -20v73q0 148 -92 218.5t-285 70.5q-288 0 -541 -55v141q254 55 525 55q286 0 421.5 -104t135.5 -322
v-741h-156l-8 215q-77 -109 -220.5 -173.5t-324.5 -64.5q-239 0 -364 93t-125 272zM1151 401v148q-234 4 -485 4q-195 0 -289 -53.5t-94 -163.5q0 -219 356 -219q112 0 219.5 34t188 100t104.5 150zM391 1268l266 358h195l268 -358h-159l-168 217h-76l-168 -217h-158z" />
    <glyph glyph-name="uni1EAE" unicode="&#x1eae;" horiz-adv-x="1789" 
d="M956 1948h-163l223 358h198zM76 0l641 1434h356l643 -1434h-178l-162 369h-960l-164 -369h-176zM473 504h844l-342 780h-158zM897 1686q120 0 168 63t39 158h139q16 -148 -76.5 -250.5t-269.5 -102.5q-117 0 -199.5 49.5t-118 128.5t-26.5 175h141q-10 -94 37.5 -157.5
t165.5 -63.5z" />
    <glyph glyph-name="uni1EAF" unicode="&#x1eaf;" horiz-adv-x="1505" 
d="M813 1681h-164l223 359h199zM117 342q0 172 138.5 257t422.5 85q303 0 473 -20v73q0 148 -92 218.5t-285 70.5q-288 0 -541 -55v141q254 55 525 55q286 0 421.5 -104t135.5 -322v-741h-156l-8 215q-77 -109 -220.5 -173.5t-324.5 -64.5q-239 0 -364 93t-125 272z
M1151 401v148q-234 4 -485 4q-195 0 -289 -53.5t-94 -163.5q0 -219 356 -219q112 0 219.5 34t188 100t104.5 150zM754 1419q120 0 168 63t39 158h139q16 -148 -76.5 -250t-269.5 -102q-117 0 -199.5 49t-118 128t-26.5 175h141q-10 -94 37.5 -157.5t165.5 -63.5z" />
    <glyph glyph-name="uni1EB0" unicode="&#x1eb0;" horiz-adv-x="1789" 
d="M995 1948h-164l-258 358h199zM76 0l641 1434h356l643 -1434h-178l-162 369h-960l-164 -369h-176zM473 504h844l-342 780h-158zM897 1686q120 0 168 63t39 158h139q16 -148 -76.5 -250.5t-269.5 -102.5q-117 0 -199.5 49.5t-118 128.5t-26.5 175h141q-10 -94 37.5 -157.5
t165.5 -63.5z" />
    <glyph glyph-name="uni1EB1" unicode="&#x1eb1;" horiz-adv-x="1505" 
d="M852 1681h-164l-258 359h199zM117 342q0 172 138.5 257t422.5 85q303 0 473 -20v73q0 148 -92 218.5t-285 70.5q-288 0 -541 -55v141q254 55 525 55q286 0 421.5 -104t135.5 -322v-741h-156l-8 215q-77 -109 -220.5 -173.5t-324.5 -64.5q-239 0 -364 93t-125 272z
M1151 401v148q-234 4 -485 4q-195 0 -289 -53.5t-94 -163.5q0 -219 356 -219q112 0 219.5 34t188 100t104.5 150zM754 1419q120 0 168 63t39 158h139q16 -148 -76.5 -250t-269.5 -102q-117 0 -199.5 49t-118 128t-26.5 175h141q-10 -94 37.5 -157.5t165.5 -63.5z" />
    <glyph glyph-name="uni1EB2" unicode="&#x1eb2;" horiz-adv-x="1789" 
d="M958 1927h-129q0 44 15 76.5t37 49.5t48.5 33t48.5 28t37 33.5t15 50.5q0 67 -119 73q-92 3 -206 -30v126q132 33 227 31q120 -1 185 -48.5t65 -125.5q0 -50 -16.5 -87.5t-41.5 -58t-54 -39t-54 -31.5t-41.5 -33.5t-16.5 -47.5zM76 0l641 1434h356l643 -1434h-178
l-162 369h-960l-164 -369h-176zM473 504h844l-342 780h-158zM897 1686q120 0 168 63t39 158h139q16 -148 -76.5 -250.5t-269.5 -102.5q-117 0 -199.5 49.5t-118 128.5t-26.5 175h141q-10 -94 37.5 -157.5t165.5 -63.5z" />
    <glyph glyph-name="uni1EB3" unicode="&#x1eb3;" horiz-adv-x="1505" 
d="M815 1661h-129q0 44 15 76.5t37 49.5t48.5 32.5t48.5 27.5t37 33.5t15 50.5q0 68 -119 74q-90 3 -207 -31v127q132 33 227 31q120 -1 185 -48.5t65 -125.5q0 -50 -16.5 -87.5t-41.5 -58t-53.5 -39t-53.5 -31.5t-41.5 -33.5t-16.5 -47.5zM117 342q0 172 138.5 257
t422.5 85q303 0 473 -20v73q0 148 -92 218.5t-285 70.5q-288 0 -541 -55v141q254 55 525 55q286 0 421.5 -104t135.5 -322v-741h-156l-8 215q-77 -109 -220.5 -173.5t-324.5 -64.5q-239 0 -364 93t-125 272zM1151 401v148q-234 4 -485 4q-195 0 -289 -53.5t-94 -163.5
q0 -219 356 -219q112 0 219.5 34t188 100t104.5 150zM754 1419q120 0 168 63t39 158h139q16 -148 -76.5 -250t-269.5 -102q-117 0 -199.5 49t-118 128t-26.5 175h141q-10 -94 37.5 -157.5t165.5 -63.5z" />
    <glyph glyph-name="uni1EB4" unicode="&#x1eb4;" horiz-adv-x="1789" 
d="M872 2079q-87 53 -155 53q-92 0 -189 -100v151q102 105 201 105q27 0 57.5 -9t49.5 -18.5t55 -29.5t49 -27q73 -39 129 -39q97 0 203 98v-152q-111 -100 -215 -100q-34 0 -70 11.5t-57 23t-58 33.5zM76 0l641 1434h356l643 -1434h-178l-162 369h-960l-164 -369h-176z
M473 504h844l-342 780h-158zM897 1686q120 0 168 63t39 158h139q16 -148 -76.5 -250.5t-269.5 -102.5q-117 0 -199.5 49.5t-118 128.5t-26.5 175h141q-10 -94 37.5 -157.5t165.5 -63.5z" />
    <glyph glyph-name="uni1EB5" unicode="&#x1eb5;" horiz-adv-x="1505" 
d="M729 1812q-89 54 -156 54q-90 0 -188 -101v152q101 104 201 104q27 0 57.5 -9t49.5 -18.5t55 -29.5t49 -27q73 -39 129 -39q95 0 202 99v-152q-111 -100 -215 -100q-34 0 -69.5 11t-56.5 22.5t-58 33.5zM117 342q0 172 138.5 257t422.5 85q303 0 473 -20v73
q0 148 -92 218.5t-285 70.5q-288 0 -541 -55v141q254 55 525 55q286 0 421.5 -104t135.5 -322v-741h-156l-8 215q-77 -109 -220.5 -173.5t-324.5 -64.5q-239 0 -364 93t-125 272zM1151 401v148q-234 4 -485 4q-195 0 -289 -53.5t-94 -163.5q0 -219 356 -219q112 0 219.5 34
t188 100t104.5 150zM754 1419q120 0 168 63t39 158h139q16 -148 -76.5 -250t-269.5 -102q-117 0 -199.5 49t-118 128t-26.5 175h141q-10 -94 37.5 -157.5t165.5 -63.5z" />
    <glyph glyph-name="uni1EB6" unicode="&#x1eb6;" horiz-adv-x="1789" 
d="M768 -324q0 56 33.5 84.5t93.5 28.5q56 0 88.5 -29t32.5 -84q0 -57 -32.5 -86.5t-88.5 -29.5q-60 0 -93.5 29.5t-33.5 86.5zM76 0l641 1434h356l643 -1434h-178l-162 369h-960l-164 -369h-176zM473 504h844l-342 780h-158zM897 1686q120 0 168 63t39 158h139
q16 -148 -76.5 -250.5t-269.5 -102.5q-117 0 -199.5 49.5t-118 128.5t-26.5 175h141q-10 -94 37.5 -157.5t165.5 -63.5z" />
    <glyph glyph-name="uni1EB7" unicode="&#x1eb7;" horiz-adv-x="1505" 
d="M621 -324q0 56 33.5 84.5t93.5 28.5q56 0 88 -28.5t32 -84.5q0 -57 -32 -86.5t-88 -29.5q-60 0 -93.5 29.5t-33.5 86.5zM117 342q0 172 138.5 257t422.5 85q303 0 473 -20v73q0 148 -92 218.5t-285 70.5q-288 0 -541 -55v141q254 55 525 55q286 0 421.5 -104t135.5 -322
v-741h-156l-8 215q-77 -109 -220.5 -173.5t-324.5 -64.5q-239 0 -364 93t-125 272zM1151 401v148q-234 4 -485 4q-195 0 -289 -53.5t-94 -163.5q0 -219 356 -219q112 0 219.5 34t188 100t104.5 150zM754 1419q120 0 168 63t39 158h139q16 -148 -76.5 -250t-269.5 -102
q-117 0 -199.5 49t-118 128t-26.5 175h141q-10 -94 37.5 -157.5t165.5 -63.5z" />
    <glyph glyph-name="uni1EB8" unicode="&#x1eb8;" horiz-adv-x="1624" 
d="M727 -324q0 56 33.5 84.5t93.5 28.5q56 0 88.5 -29t32.5 -84q0 -57 -32.5 -86.5t-88.5 -29.5q-60 0 -93.5 29.5t-33.5 86.5zM231 0v1434h1237v-148h-1069v-459h901v-147h-901v-533h1069v-147h-1237z" />
    <glyph glyph-name="uni1EB9" unicode="&#x1eb9;" horiz-adv-x="1478" 
d="M682 -324q0 56 33.5 84.5t93.5 28.5q56 0 88.5 -29t32.5 -84q0 -57 -32.5 -86.5t-88.5 -29.5q-60 0 -93.5 29.5t-33.5 86.5zM774 1167q266 0 427 -143.5t161 -382.5q0 -69 -12 -123h-1061q20 -187 161.5 -292t376.5 -105q107 0 244 14.5t225 38.5v-141q-216 -56 -458 -56
q-336 1 -528.5 162.5t-192.5 433.5q0 268 179 431t478 163zM291 641h913q0 172 -120.5 278.5t-315.5 106.5q-204 0 -330.5 -103t-146.5 -282z" />
    <glyph glyph-name="uni1EBA" unicode="&#x1eba;" horiz-adv-x="1624" 
d="M920 1575h-129q0 44 15 76.5t37 49.5t48 32.5t48 27.5t37 33.5t15 50.5q0 68 -119 74q-89 3 -206 -31v127q132 33 227 31q120 -1 185 -48.5t65 -125.5q0 -50 -16.5 -87.5t-41.5 -58t-53.5 -39t-53.5 -31.5t-41.5 -33.5t-16.5 -47.5zM231 0v1434h1237v-148h-1069v-459h901
v-147h-901v-533h1069v-147h-1237z" />
    <glyph glyph-name="uni1EBB" unicode="&#x1ebb;" horiz-adv-x="1478" 
d="M840 1288h-129q0 44 15 76.5t37 49.5t48 33t48 28t37 33.5t15 50.5q0 67 -118 73q-93 3 -207 -30v127q128 33 227 30q120 -1 185 -48.5t65 -125.5q0 -50 -16.5 -87.5t-41.5 -58t-53.5 -39t-53.5 -31.5t-41.5 -33.5t-16.5 -47.5zM774 1167q266 0 427 -143.5t161 -382.5
q0 -69 -12 -123h-1061q20 -187 161.5 -292t376.5 -105q107 0 244 14.5t225 38.5v-141q-216 -56 -458 -56q-336 1 -528.5 162.5t-192.5 433.5q0 268 179 431t478 163zM291 641h913q0 172 -120.5 278.5t-315.5 106.5q-204 0 -330.5 -103t-146.5 -282z" />
    <glyph glyph-name="uni1EBC" unicode="&#x1ebc;" horiz-adv-x="1624" 
d="M803 1663q-87 53 -156 53q-91 0 -188 -100v151q102 105 200 105q27 0 57.5 -9t49.5 -18.5t55 -29.5t49 -27q73 -39 129 -39q97 0 203 98v-151q-112 -101 -215 -101q-33 0 -69.5 11.5t-56.5 22.5t-58 34zM231 0v1434h1237v-148h-1069v-459h901v-147h-901v-533h1069v-147
h-1237z" />
    <glyph glyph-name="uni1EBD" unicode="&#x1ebd;" horiz-adv-x="1478" 
d="M727 1376q-89 54 -156 54q-90 0 -188 -101v152q101 104 201 104q27 0 57.5 -9t49.5 -18.5t55 -29.5t49 -27q73 -39 129 -39q95 0 202 99v-152q-111 -100 -215 -100q-34 0 -69.5 11t-56.5 22.5t-58 33.5zM774 1167q266 0 427 -143.5t161 -382.5q0 -69 -12 -123h-1061
q20 -187 161.5 -292t376.5 -105q107 0 244 14.5t225 38.5v-141q-216 -56 -458 -56q-336 1 -528.5 162.5t-192.5 433.5q0 268 179 431t478 163zM291 641h913q0 172 -120.5 278.5t-315.5 106.5q-204 0 -330.5 -103t-146.5 -282z" />
    <glyph glyph-name="uni1EBE" unicode="&#x1ebe;" horiz-adv-x="1624" 
d="M1350 1759h-164l223 359h199zM231 0v1434h1237v-148h-1069v-459h901v-147h-901v-533h1069v-147h-1237zM467 1554l266 359h195l268 -359h-160l-168 218h-75l-168 -218h-158z" />
    <glyph glyph-name="uni1EBF" unicode="&#x1ebf;" horiz-adv-x="1478" 
d="M1274 1473h-164l223 358h199zM774 1167q266 0 427 -143.5t161 -382.5q0 -69 -12 -123h-1061q20 -187 161.5 -292t376.5 -105q107 0 244 14.5t225 38.5v-141q-216 -56 -458 -56q-336 1 -528.5 162.5t-192.5 433.5q0 268 179 431t478 163zM291 641h913q0 172 -120.5 278.5
t-315.5 106.5q-204 0 -330.5 -103t-146.5 -282zM391 1268l266 358h195l268 -358h-159l-168 217h-76l-168 -217h-158z" />
    <glyph glyph-name="uni1EC0" unicode="&#x1ec0;" horiz-adv-x="1624" 
d="M1427 1759h-163l-258 359h198zM231 0v1434h1237v-148h-1069v-459h901v-147h-901v-533h1069v-147h-1237zM467 1554l266 359h195l268 -359h-160l-168 218h-75l-168 -218h-158z" />
    <glyph glyph-name="uni1EC1" unicode="&#x1ec1;" horiz-adv-x="1478" 
d="M1352 1473h-164l-258 358h198zM774 1167q266 0 427 -143.5t161 -382.5q0 -69 -12 -123h-1061q20 -187 161.5 -292t376.5 -105q107 0 244 14.5t225 38.5v-141q-216 -56 -458 -56q-336 1 -528.5 162.5t-192.5 433.5q0 268 179 431t478 163zM291 641h913q0 172 -120.5 278.5
t-315.5 106.5q-204 0 -330.5 -103t-146.5 -282zM391 1268l266 358h195l268 -358h-159l-168 217h-76l-168 -217h-158z" />
    <glyph glyph-name="uni1EC2" unicode="&#x1ec2;" horiz-adv-x="1624" 
d="M1329 1759h-129q0 44 15 76.5t37 49.5t48.5 33t48.5 28t37 33.5t15 50.5q0 67 -119 73q-93 3 -207 -30v127q128 33 228 30q120 -1 184.5 -48.5t64.5 -125.5q0 -50 -16.5 -87.5t-41.5 -58t-53.5 -39t-53.5 -31.5t-41.5 -33.5t-16.5 -47.5zM231 0v1434h1237v-148h-1069
v-459h901v-147h-901v-533h1069v-147h-1237zM467 1554l266 359h195l268 -359h-160l-168 218h-75l-168 -218h-158z" />
    <glyph glyph-name="uni1EC3" unicode="&#x1ec3;" horiz-adv-x="1478" 
d="M1253 1473h-129q0 44 15 76.5t37 49.5t48.5 32.5t48.5 27.5t37 33.5t15 50.5q0 68 -119 74q-90 3 -207 -31v127q132 33 228 31q120 -1 185 -48.5t65 -126.5q0 -59 -23 -100t-56 -63t-66 -39t-56 -40t-23 -54zM774 1167q266 0 427 -143.5t161 -382.5q0 -69 -12 -123h-1061
q20 -187 161.5 -292t376.5 -105q107 0 244 14.5t225 38.5v-141q-216 -56 -458 -56q-336 1 -528.5 162.5t-192.5 433.5q0 268 179 431t478 163zM291 641h913q0 172 -120.5 278.5t-315.5 106.5q-204 0 -330.5 -103t-146.5 -282zM391 1268l266 358h195l268 -358h-159l-168 217
h-76l-168 -217h-158z" />
    <glyph glyph-name="uni1EC4" unicode="&#x1ec4;" horiz-adv-x="1624" 
d="M805 2089q-87 53 -156 53q-91 0 -188 -100v151q102 105 201 105q27 0 57 -9t49.5 -18.5t54.5 -29.5t49 -27q73 -39 129 -39q97 0 203 98v-151q-112 -101 -215 -101q-33 0 -69.5 11.5t-56.5 22.5t-58 34zM231 0v1434h1237v-148h-1069v-459h901v-147h-901v-533h1069v-147
h-1237zM467 1554l266 359h195l268 -359h-160l-168 218h-75l-168 -218h-158z" />
    <glyph glyph-name="uni1EC5" unicode="&#x1ec5;" horiz-adv-x="1478" 
d="M729 1802q-87 53 -156 53q-91 0 -188 -100v152q101 104 201 104q27 0 57.5 -9t49.5 -18.5t55 -29.5t49 -27q73 -39 129 -39q95 0 202 99v-152q-111 -100 -215 -100q-34 0 -69.5 11t-56.5 22.5t-58 33.5zM774 1167q266 0 427 -143.5t161 -382.5q0 -69 -12 -123h-1061
q20 -187 161.5 -292t376.5 -105q107 0 244 14.5t225 38.5v-141q-216 -56 -458 -56q-336 1 -528.5 162.5t-192.5 433.5q0 268 179 431t478 163zM291 641h913q0 172 -120.5 278.5t-315.5 106.5q-204 0 -330.5 -103t-146.5 -282zM391 1268l266 358h195l268 -358h-159l-168 217
h-76l-168 -217h-158z" />
    <glyph glyph-name="uni1EC6" unicode="&#x1ec6;" horiz-adv-x="1624" 
d="M727 -324q0 56 33.5 84.5t93.5 28.5q56 0 88.5 -29t32.5 -84q0 -57 -32.5 -86.5t-88.5 -29.5q-60 0 -93.5 29.5t-33.5 86.5zM231 0v1434h1237v-148h-1069v-459h901v-147h-901v-533h1069v-147h-1237zM467 1554l266 359h195l268 -359h-160l-168 218h-75l-168 -218h-158z
" />
    <glyph glyph-name="uni1EC7" unicode="&#x1ec7;" horiz-adv-x="1478" 
d="M682 -324q0 56 33.5 84.5t93.5 28.5q56 0 88.5 -29t32.5 -84q0 -57 -32.5 -86.5t-88.5 -29.5q-60 0 -93.5 29.5t-33.5 86.5zM774 1167q266 0 427 -143.5t161 -382.5q0 -69 -12 -123h-1061q20 -187 161.5 -292t376.5 -105q107 0 244 14.5t225 38.5v-141q-216 -56 -458 -56
q-336 1 -528.5 162.5t-192.5 433.5q0 268 179 431t478 163zM291 641h913q0 172 -120.5 278.5t-315.5 106.5q-204 0 -330.5 -103t-146.5 -282zM391 1268l266 358h195l268 -358h-159l-168 217h-76l-168 -217h-158z" />
    <glyph glyph-name="uni1EC8" unicode="&#x1ec8;" horiz-adv-x="630" 
d="M379 1575h-129q0 44 15 76.5t37 49.5t48.5 32.5t48.5 27.5t37 33.5t15 50.5q0 68 -119 74q-90 3 -207 -31v127q132 33 227 31q120 -1 185 -48.5t65 -125.5q0 -50 -16.5 -87.5t-41.5 -58t-53.5 -39t-53.5 -31.5t-41.5 -33.5t-16.5 -47.5zM231 0v1434h168v-1434h-168z" />
    <glyph glyph-name="uni1EC9" unicode="&#x1ec9;" horiz-adv-x="587" 
d="M354 1288h-129q0 44 15 76.5t37 49.5t48.5 33t48.5 28t37 33.5t15 50.5q0 67 -119 73q-93 3 -207 -30v127q128 33 228 30q120 -1 185 -48.5t65 -125.5q0 -49 -16.5 -87t-41.5 -58.5t-54 -39t-54 -31.5t-41.5 -33.5t-16.5 -47.5zM211 0v1147h164v-1147h-164z" />
    <glyph glyph-name="uni1ECA" unicode="&#x1eca;" horiz-adv-x="630" 
d="M188 -324q0 56 33.5 84.5t93.5 28.5q56 0 88.5 -29t32.5 -84q0 -57 -32.5 -86.5t-88.5 -29.5q-60 0 -93.5 29.5t-33.5 86.5zM231 0v1434h168v-1434h-168z" />
    <glyph glyph-name="uni1ECB" unicode="&#x1ecb;" horiz-adv-x="587" 
d="M166 -324q0 56 33.5 84.5t93.5 28.5q56 0 88.5 -29t32.5 -84q0 -57 -32.5 -86.5t-88.5 -29.5q-60 0 -93.5 29.5t-33.5 86.5zM170 1495q0 56 33.5 84.5t93.5 28.5q56 0 88.5 -29t32.5 -84q0 -57 -32.5 -87t-88.5 -30q-60 0 -93.5 30t-33.5 87zM211 0v1147h164v-1147h-164z
" />
    <glyph glyph-name="uni1ECC" unicode="&#x1ecc;" horiz-adv-x="1929" 
d="M838 -324q0 56 33.5 84.5t93.5 28.5q56 0 88 -28.5t32 -84.5q0 -57 -32 -86.5t-88 -29.5q-60 0 -93.5 29.5t-33.5 86.5zM137 717q0 333 225 535t603 202t602.5 -202t224.5 -535t-224.5 -535t-602.5 -202t-603 202t-225 535zM305 717q0 -270 180.5 -433t479.5 -163
q300 0 478.5 162.5t178.5 433.5t-178.5 433.5t-478.5 162.5q-299 0 -479.5 -163t-180.5 -433z" />
    <glyph glyph-name="uni1ECD" unicode="&#x1ecd;" horiz-adv-x="1589" 
d="M668 -324q0 56 33.5 84.5t93.5 28.5q56 0 88 -28.5t32 -84.5q0 -57 -32 -86.5t-88 -29.5q-60 0 -93.5 29.5t-33.5 86.5zM117 573q0 270 184.5 432t493.5 162t493.5 -162t184.5 -432t-184.5 -431.5t-493.5 -161.5t-493.5 161.5t-184.5 431.5zM285 573q0 -208 139 -330
t371 -122q233 0 370.5 121.5t137.5 330.5q0 207 -138 330t-370 123q-231 0 -370.5 -123.5t-139.5 -329.5z" />
    <glyph glyph-name="uni1ECE" unicode="&#x1ece;" horiz-adv-x="1929" 
d="M1028 1575h-129q0 44 15 76.5t37 49.5t48.5 32.5t48.5 27.5t37 33.5t15 50.5q0 68 -119 74q-90 3 -207 -31v127q132 33 227 31q120 -1 185 -48.5t65 -125.5q0 -50 -16.5 -87.5t-41.5 -58t-53.5 -39t-53.5 -31.5t-41.5 -33.5t-16.5 -47.5zM137 717q0 333 225 535t603 202
t602.5 -202t224.5 -535t-224.5 -535t-602.5 -202t-603 202t-225 535zM305 717q0 -270 180.5 -433t479.5 -163q300 0 478.5 162.5t178.5 433.5t-178.5 433.5t-478.5 162.5q-299 0 -479.5 -163t-180.5 -433z" />
    <glyph glyph-name="uni1ECF" unicode="&#x1ecf;" horiz-adv-x="1589" 
d="M858 1288h-129q0 44 15 76.5t37 49.5t48.5 33t48.5 28t37 33.5t15 50.5q0 67 -119 73q-93 3 -207 -30v127q128 33 227 30q120 -1 185 -48.5t65 -125.5q0 -50 -16.5 -87.5t-41.5 -58t-53.5 -39t-53.5 -31.5t-41.5 -33.5t-16.5 -47.5zM117 573q0 270 184.5 432t493.5 162
t493.5 -162t184.5 -432t-184.5 -431.5t-493.5 -161.5t-493.5 161.5t-184.5 431.5zM285 573q0 -208 139 -330t371 -122q233 0 370.5 121.5t137.5 330.5q0 207 -138 330t-370 123q-231 0 -370.5 -123.5t-139.5 -329.5z" />
    <glyph glyph-name="uni1ED0" unicode="&#x1ed0;" horiz-adv-x="1929" 
d="M1483 1759h-164l223 359h199zM137 717q0 333 225 535t603 202t602.5 -202t224.5 -535t-224.5 -535t-602.5 -202t-603 202t-225 535zM305 717q0 -270 180.5 -433t479.5 -163q300 0 478.5 162.5t178.5 433.5t-178.5 433.5t-478.5 162.5q-299 0 -479.5 -163t-180.5 -433z
M600 1554l266 359h195l268 -359h-160l-168 218h-75l-168 -218h-158z" />
    <glyph glyph-name="uni1ED1" unicode="&#x1ed1;" horiz-adv-x="1589" 
d="M1315 1473h-164l223 358h199zM432 1268l266 358h195l268 -358h-160l-167 217h-76l-168 -217h-158zM117 573q0 270 184.5 432t493.5 162t493.5 -162t184.5 -432t-184.5 -431.5t-493.5 -161.5t-493.5 161.5t-184.5 431.5zM285 573q0 -208 139 -330t371 -122
q233 0 370.5 121.5t137.5 330.5q0 207 -138 330t-370 123q-231 0 -370.5 -123.5t-139.5 -329.5z" />
    <glyph glyph-name="uni1ED2" unicode="&#x1ed2;" horiz-adv-x="1929" 
d="M1561 1759h-164l-258 359h198zM137 717q0 333 225 535t603 202t602.5 -202t224.5 -535t-224.5 -535t-602.5 -202t-603 202t-225 535zM305 717q0 -270 180.5 -433t479.5 -163q300 0 478.5 162.5t178.5 433.5t-178.5 433.5t-478.5 162.5q-299 0 -479.5 -163t-180.5 -433z
M600 1554l266 359h195l268 -359h-160l-168 218h-75l-168 -218h-158z" />
    <glyph glyph-name="uni1ED3" unicode="&#x1ed3;" horiz-adv-x="1589" 
d="M1393 1473h-164l-258 358h198zM432 1268l266 358h195l268 -358h-160l-167 217h-76l-168 -217h-158zM117 573q0 270 184.5 432t493.5 162t493.5 -162t184.5 -432t-184.5 -431.5t-493.5 -161.5t-493.5 161.5t-184.5 431.5zM285 573q0 -208 139 -330t371 -122
q233 0 370.5 121.5t137.5 330.5q0 207 -138 330t-370 123q-231 0 -370.5 -123.5t-139.5 -329.5z" />
    <glyph glyph-name="uni1ED4" unicode="&#x1ed4;" horiz-adv-x="1929" 
d="M1462 1759h-129q0 44 15 76.5t37 49.5t48.5 33t48.5 28t37 33.5t15 50.5q0 67 -119 73q-93 3 -207 -30v127q128 33 228 30q120 -1 185 -48.5t65 -125.5q0 -50 -16.5 -87.5t-41.5 -58t-54 -39t-54 -31.5t-41.5 -33.5t-16.5 -47.5zM137 717q0 333 225 535t603 202
t602.5 -202t224.5 -535t-224.5 -535t-602.5 -202t-603 202t-225 535zM305 717q0 -270 180.5 -433t479.5 -163q300 0 478.5 162.5t178.5 433.5t-178.5 433.5t-478.5 162.5q-299 0 -479.5 -163t-180.5 -433zM600 1554l266 359h195l268 -359h-160l-168 218h-75l-168 -218h-158z
" />
    <glyph glyph-name="uni1ED5" unicode="&#x1ed5;" horiz-adv-x="1589" 
d="M1294 1473h-129q0 44 15 76.5t37 49.5t48.5 32.5t48.5 27.5t37 33.5t15 50.5q0 68 -119 74q-90 3 -207 -31v127q132 33 228 31q120 -1 185 -48.5t65 -126.5q0 -59 -23 -100t-56 -63t-66 -39t-56 -40t-23 -54zM432 1268l266 358h195l268 -358h-160l-167 217h-76l-168 -217
h-158zM117 573q0 270 184.5 432t493.5 162t493.5 -162t184.5 -432t-184.5 -431.5t-493.5 -161.5t-493.5 161.5t-184.5 431.5zM285 573q0 -208 139 -330t371 -122q233 0 370.5 121.5t137.5 330.5q0 207 -138 330t-370 123q-231 0 -370.5 -123.5t-139.5 -329.5z" />
    <glyph glyph-name="uni1ED6" unicode="&#x1ed6;" horiz-adv-x="1929" 
d="M938 2089q-87 53 -156 53q-91 0 -188 -100v151q102 105 201 105q27 0 57.5 -9t49.5 -18.5t55 -29.5t49 -27q73 -39 129 -39q96 0 202 98v-151q-112 -101 -215 -101q-33 0 -69.5 11.5t-56.5 22.5t-58 34zM137 717q0 333 225 535t603 202t602.5 -202t224.5 -535
t-224.5 -535t-602.5 -202t-603 202t-225 535zM305 717q0 -270 180.5 -433t479.5 -163q300 0 478.5 162.5t178.5 433.5t-178.5 433.5t-478.5 162.5q-299 0 -479.5 -163t-180.5 -433zM600 1554l266 359h195l268 -359h-160l-168 218h-75l-168 -218h-158z" />
    <glyph glyph-name="uni1ED7" unicode="&#x1ed7;" horiz-adv-x="1589" 
d="M770 1802q-87 53 -156 53q-91 0 -188 -100v152q101 104 201 104q27 0 57.5 -9t49.5 -18.5t55 -29.5t49 -27q73 -39 129 -39q95 0 202 99v-152q-111 -100 -215 -100q-34 0 -69.5 11t-56.5 22.5t-58 33.5zM432 1268l266 358h195l268 -358h-160l-167 217h-76l-168 -217h-158
zM117 573q0 270 184.5 432t493.5 162t493.5 -162t184.5 -432t-184.5 -431.5t-493.5 -161.5t-493.5 161.5t-184.5 431.5zM285 573q0 -208 139 -330t371 -122q233 0 370.5 121.5t137.5 330.5q0 207 -138 330t-370 123q-231 0 -370.5 -123.5t-139.5 -329.5z" />
    <glyph glyph-name="uni1ED8" unicode="&#x1ed8;" horiz-adv-x="1929" 
d="M838 -324q0 56 33.5 84.5t93.5 28.5q56 0 88 -28.5t32 -84.5q0 -57 -32 -86.5t-88 -29.5q-60 0 -93.5 29.5t-33.5 86.5zM137 717q0 333 225 535t603 202t602.5 -202t224.5 -535t-224.5 -535t-602.5 -202t-603 202t-225 535zM305 717q0 -270 180.5 -433t479.5 -163
q300 0 478.5 162.5t178.5 433.5t-178.5 433.5t-478.5 162.5q-299 0 -479.5 -163t-180.5 -433zM600 1554l266 359h195l268 -359h-160l-168 218h-75l-168 -218h-158z" />
    <glyph glyph-name="uni1ED9" unicode="&#x1ed9;" horiz-adv-x="1589" 
d="M668 -324q0 56 33.5 84.5t93.5 28.5q56 0 88 -28.5t32 -84.5q0 -57 -32 -86.5t-88 -29.5q-60 0 -93.5 29.5t-33.5 86.5zM432 1268l266 358h195l268 -358h-160l-167 217h-76l-168 -217h-158zM117 573q0 270 184.5 432t493.5 162t493.5 -162t184.5 -432t-184.5 -431.5
t-493.5 -161.5t-493.5 161.5t-184.5 431.5zM285 573q0 -208 139 -330t371 -122q233 0 370.5 121.5t137.5 330.5q0 207 -138 330t-370 123q-231 0 -370.5 -123.5t-139.5 -329.5z" />
    <glyph glyph-name="uni1EDA" unicode="&#x1eda;" horiz-adv-x="1929" 
d="M1028 1575h-164l223 358h199zM137 717q0 333 225 535t603 202q113 0 223 -22q62 -3 110.5 4t79.5 23t52 36t31 47t14 51.5t4 55.5h166q0 -106 -49.5 -190t-143.5 -124q163 -96 251.5 -255t88.5 -363q0 -333 -224.5 -535t-602.5 -202t-603 202t-225 535zM305 717
q0 -270 180.5 -433t479.5 -163q300 0 478.5 162.5t178.5 433.5t-178.5 433.5t-478.5 162.5q-299 0 -479.5 -163t-180.5 -433z" />
    <glyph glyph-name="uni1EDB" unicode="&#x1edb;" horiz-adv-x="1589" 
d="M850 1288h-164l223 359h199zM117 573q0 270 184.5 432t493.5 162q105 0 204 -22q63 -2 110 9.5t74 31t43.5 50t21.5 59.5t5 65h166q0 -104 -48 -186.5t-140 -124.5q117 -79 179.5 -200.5t62.5 -275.5q0 -270 -184.5 -431.5t-493.5 -161.5t-493.5 161.5t-184.5 431.5z
M285 573q0 -208 139 -330t371 -122q233 0 370.5 121.5t137.5 330.5q0 207 -138 330t-370 123q-231 0 -370.5 -123.5t-139.5 -329.5z" />
    <glyph glyph-name="uni1EDC" unicode="&#x1edc;" horiz-adv-x="1929" 
d="M1067 1575h-164l-258 358h199zM137 717q0 333 225 535t603 202q113 0 223 -22q62 -3 110.5 4t79.5 23t52 36t31 47t14 51.5t4 55.5h166q0 -106 -49.5 -190t-143.5 -124q163 -96 251.5 -255t88.5 -363q0 -333 -224.5 -535t-602.5 -202t-603 202t-225 535zM305 717
q0 -270 180.5 -433t479.5 -163q300 0 478.5 162.5t178.5 433.5t-178.5 433.5t-478.5 162.5q-299 0 -479.5 -163t-180.5 -433z" />
    <glyph glyph-name="uni1EDD" unicode="&#x1edd;" horiz-adv-x="1589" 
d="M893 1288h-164l-258 359h199zM117 573q0 270 184.5 432t493.5 162q105 0 204 -22q63 -2 110 9.5t74 31t43.5 50t21.5 59.5t5 65h166q0 -104 -48 -186.5t-140 -124.5q117 -79 179.5 -200.5t62.5 -275.5q0 -270 -184.5 -431.5t-493.5 -161.5t-493.5 161.5t-184.5 431.5z
M285 573q0 -208 139 -330t371 -122q233 0 370.5 121.5t137.5 330.5q0 207 -138 330t-370 123q-231 0 -370.5 -123.5t-139.5 -329.5z" />
    <glyph glyph-name="uni1EDE" unicode="&#x1ede;" horiz-adv-x="1929" 
d="M1028 1575h-129q0 44 15 76.5t37 49.5t48.5 32.5t48.5 27.5t37 33.5t15 50.5q0 68 -119 74q-90 3 -207 -31v127q132 33 227 31q120 -1 185 -48.5t65 -125.5q0 -50 -16.5 -87.5t-41.5 -58t-53.5 -39t-53.5 -31.5t-41.5 -33.5t-16.5 -47.5zM137 717q0 333 225 535t603 202
q113 0 223 -22q62 -3 110.5 4t79.5 23t52 36t31 47t14 51.5t4 55.5h166q0 -106 -49.5 -190t-143.5 -124q163 -96 251.5 -255t88.5 -363q0 -333 -224.5 -535t-602.5 -202t-603 202t-225 535zM305 717q0 -270 180.5 -433t479.5 -163q300 0 478.5 162.5t178.5 433.5
t-178.5 433.5t-478.5 162.5q-299 0 -479.5 -163t-180.5 -433z" />
    <glyph glyph-name="uni1EDF" unicode="&#x1edf;" horiz-adv-x="1589" 
d="M858 1288h-129q0 44 15 76.5t37 49.5t48.5 33t48.5 28t37 33.5t15 50.5q0 67 -119 73q-93 3 -207 -30v127q128 33 227 30q120 -1 185 -48.5t65 -125.5q0 -50 -16.5 -87.5t-41.5 -58t-53.5 -39t-53.5 -31.5t-41.5 -33.5t-16.5 -47.5zM117 573q0 270 184.5 432t493.5 162
q105 0 204 -22q63 -2 110 9.5t74 31t43.5 50t21.5 59.5t5 65h166q0 -104 -48 -186.5t-140 -124.5q117 -79 179.5 -200.5t62.5 -275.5q0 -270 -184.5 -431.5t-493.5 -161.5t-493.5 161.5t-184.5 431.5zM285 573q0 -208 139 -330t371 -122q233 0 370.5 121.5t137.5 330.5
q0 207 -138 330t-370 123q-231 0 -370.5 -123.5t-139.5 -329.5z" />
    <glyph glyph-name="uni1EE0" unicode="&#x1ee0;" horiz-adv-x="1929" 
d="M936 1683q-89 54 -156 54q-90 0 -188 -101v152q101 104 201 104q27 0 57.5 -9t49.5 -18.5t55 -29.5t49 -27q73 -39 129 -39q95 0 202 99v-152q-111 -100 -215 -100q-34 0 -69.5 11t-56.5 22.5t-58 33.5zM137 717q0 333 225 535t603 202q113 0 223 -22q62 -3 110.5 4
t79.5 23t52 36t31 47t14 51.5t4 55.5h166q0 -106 -49.5 -190t-143.5 -124q163 -96 251.5 -255t88.5 -363q0 -333 -224.5 -535t-602.5 -202t-603 202t-225 535zM305 717q0 -270 180.5 -433t479.5 -163q300 0 478.5 162.5t178.5 433.5t-178.5 433.5t-478.5 162.5
q-299 0 -479.5 -163t-180.5 -433z" />
    <glyph glyph-name="uni1EE1" unicode="&#x1ee1;" horiz-adv-x="1589" 
d="M770 1397q-87 53 -156 53q-91 0 -188 -100v151q102 105 201 105q27 0 57.5 -9t49.5 -18.5t55 -29.5t49 -27q73 -39 129 -39q96 0 202 98v-151q-112 -101 -215 -101q-33 0 -69.5 11.5t-56.5 22.5t-58 34zM117 573q0 270 184.5 432t493.5 162q105 0 204 -22q63 -2 110 9.5
t74 31t43.5 50t21.5 59.5t5 65h166q0 -104 -48 -186.5t-140 -124.5q117 -79 179.5 -200.5t62.5 -275.5q0 -270 -184.5 -431.5t-493.5 -161.5t-493.5 161.5t-184.5 431.5zM285 573q0 -208 139 -330t371 -122q233 0 370.5 121.5t137.5 330.5q0 207 -138 330t-370 123
q-231 0 -370.5 -123.5t-139.5 -329.5z" />
    <glyph glyph-name="uni1EE2" unicode="&#x1ee2;" horiz-adv-x="1929" 
d="M838 -324q0 56 33.5 84.5t93.5 28.5q56 0 88 -28.5t32 -84.5q0 -57 -32 -86.5t-88 -29.5q-60 0 -93.5 29.5t-33.5 86.5zM137 717q0 333 225 535t603 202q113 0 223 -22q62 -3 110.5 4t79.5 23t52 36t31 47t14 51.5t4 55.5h166q0 -106 -49.5 -190t-143.5 -124
q163 -96 251.5 -255t88.5 -363q0 -333 -224.5 -535t-602.5 -202t-603 202t-225 535zM305 717q0 -270 180.5 -433t479.5 -163q300 0 478.5 162.5t178.5 433.5t-178.5 433.5t-478.5 162.5q-299 0 -479.5 -163t-180.5 -433z" />
    <glyph glyph-name="uni1EE3" unicode="&#x1ee3;" horiz-adv-x="1589" 
d="M668 -324q0 56 33.5 84.5t93.5 28.5q56 0 88 -28.5t32 -84.5q0 -57 -32 -86.5t-88 -29.5q-60 0 -93.5 29.5t-33.5 86.5zM117 573q0 270 184.5 432t493.5 162q105 0 204 -22q63 -2 110 9.5t74 31t43.5 50t21.5 59.5t5 65h166q0 -104 -48 -186.5t-140 -124.5
q117 -79 179.5 -200.5t62.5 -275.5q0 -270 -184.5 -431.5t-493.5 -161.5t-493.5 161.5t-184.5 431.5zM285 573q0 -208 139 -330t371 -122q233 0 370.5 121.5t137.5 330.5q0 207 -138 330t-370 123q-231 0 -370.5 -123.5t-139.5 -329.5z" />
    <glyph glyph-name="uni1EE4" unicode="&#x1ee4;" horiz-adv-x="1824" 
d="M784 -324q0 56 33.5 84.5t93.5 28.5q56 0 88.5 -29t32.5 -84q0 -57 -32.5 -86.5t-88.5 -29.5q-60 0 -93.5 29.5t-33.5 86.5zM913 121q250 0 392.5 123.5t142.5 351.5v840h164v-840q0 -291 -185.5 -453.5t-513.5 -162.5q-329 0 -515.5 162.5t-186.5 453.5v840h168v-840
q0 -228 140.5 -351.5t393.5 -123.5z" />
    <glyph glyph-name="uni1EE5" unicode="&#x1ee5;" 
d="M662 -324q0 56 33 84.5t93 28.5q56 0 88.5 -29t32.5 -84q0 -57 -32.5 -86.5t-88.5 -29.5q-60 0 -93 29.5t-33 86.5zM1231 0l-4 113q-289 -133 -543 -133q-216 0 -350.5 108t-134.5 277v782h163v-758q0 -125 94 -197.5t253 -72.5q233 0 514 131v897h163v-1147h-155z" />
    <glyph glyph-name="uni1EE6" unicode="&#x1ee6;" horiz-adv-x="1824" 
d="M975 1575h-129q0 44 15 76.5t37 49.5t48.5 32.5t48.5 27.5t37 33.5t15 50.5q0 68 -119 74q-90 3 -207 -31v127q132 33 227 31q120 -1 185 -48.5t65 -125.5q0 -50 -16.5 -87.5t-41.5 -58t-53.5 -39t-53.5 -31.5t-41.5 -33.5t-16.5 -47.5zM913 121q250 0 392.5 123.5
t142.5 351.5v840h164v-840q0 -291 -185.5 -453.5t-513.5 -162.5q-329 0 -515.5 162.5t-186.5 453.5v840h168v-840q0 -228 140.5 -351.5t393.5 -123.5z" />
    <glyph glyph-name="uni1EE7" unicode="&#x1ee7;" 
d="M858 1288h-129q0 44 15 76.5t37 49.5t48.5 33t48.5 28t37 33.5t15 50.5q0 67 -119 73q-93 3 -207 -30v127q128 33 227 30q120 -1 185 -48.5t65 -125.5q0 -50 -16.5 -87.5t-41.5 -58t-53.5 -39t-53.5 -31.5t-41.5 -33.5t-16.5 -47.5zM1231 0l-4 113q-289 -133 -543 -133
q-216 0 -350.5 108t-134.5 277v782h163v-758q0 -125 94 -197.5t253 -72.5q233 0 514 131v897h163v-1147h-155z" />
    <glyph glyph-name="uni1EE8" unicode="&#x1ee8;" horiz-adv-x="1824" 
d="M948 1575h-164l224 358h198zM913 121q250 0 392.5 123.5t142.5 351.5v840h10q217 0 217 213h166q0 -117 -58.5 -204.5t-170.5 -123.5v-725q0 -291 -185.5 -453.5t-513.5 -162.5q-329 0 -515.5 162.5t-186.5 453.5v840h168v-840q0 -228 140.5 -351.5t393.5 -123.5z" />
    <glyph glyph-name="uni1EE9" unicode="&#x1ee9;" 
d="M844 1288h-164l223 359h199zM1231 0l-4 113q-289 -133 -543 -133q-216 0 -350.5 108t-134.5 277v782h163v-758q0 -125 94 -197.5t253 -72.5q233 0 514 131v897h22q205 5 205 213h166q0 -116 -59 -204t-171 -124v-1032h-155z" />
    <glyph glyph-name="uni1EEA" unicode="&#x1eea;" horiz-adv-x="1824" 
d="M1087 1575h-163l-258 358h198zM913 121q250 0 392.5 123.5t142.5 351.5v840h10q217 0 217 213h166q0 -117 -58.5 -204.5t-170.5 -123.5v-725q0 -291 -185.5 -453.5t-513.5 -162.5q-329 0 -515.5 162.5t-186.5 453.5v840h168v-840q0 -228 140.5 -351.5t393.5 -123.5z" />
    <glyph glyph-name="uni1EEB" unicode="&#x1eeb;" 
d="M952 1288h-164l-258 359h199zM1231 0l-4 113q-289 -133 -543 -133q-216 0 -350.5 108t-134.5 277v782h163v-758q0 -125 94 -197.5t253 -72.5q233 0 514 131v897h22q205 5 205 213h166q0 -116 -59 -204t-171 -124v-1032h-155z" />
    <glyph glyph-name="uni1EEC" unicode="&#x1eec;" horiz-adv-x="1824" 
d="M975 1575h-129q0 44 15 76.5t37 49.5t48.5 32.5t48.5 27.5t37 33.5t15 50.5q0 68 -119 74q-90 3 -207 -31v127q132 33 227 31q120 -1 185 -48.5t65 -125.5q0 -50 -16.5 -87.5t-41.5 -58t-53.5 -39t-53.5 -31.5t-41.5 -33.5t-16.5 -47.5zM913 121q250 0 392.5 123.5
t142.5 351.5v840h10q217 0 217 213h166q0 -117 -58.5 -204.5t-170.5 -123.5v-725q0 -291 -185.5 -453.5t-513.5 -162.5q-329 0 -515.5 162.5t-186.5 453.5v840h168v-840q0 -228 140.5 -351.5t393.5 -123.5z" />
    <glyph glyph-name="uni1EED" unicode="&#x1eed;" 
d="M858 1288h-129q0 44 15 76.5t37 49.5t48.5 33t48.5 28t37 33.5t15 50.5q0 67 -119 73q-93 3 -207 -30v127q128 33 227 30q120 -1 185 -48.5t65 -125.5q0 -50 -16.5 -87.5t-41.5 -58t-53.5 -39t-53.5 -31.5t-41.5 -33.5t-16.5 -47.5zM1231 0l-4 113q-289 -133 -543 -133
q-216 0 -350.5 108t-134.5 277v782h163v-758q0 -125 94 -197.5t253 -72.5q233 0 514 131v897h22q205 5 205 213h166q0 -116 -59 -204t-171 -124v-1032h-155z" />
    <glyph glyph-name="uni1EEE" unicode="&#x1eee;" horiz-adv-x="1824" 
d="M881 1663q-87 53 -156 53q-91 0 -188 -100v151q102 105 200 105q27 0 57.5 -9t49.5 -18.5t55 -29.5t49 -27q73 -39 129 -39q97 0 203 98v-151q-112 -101 -215 -101q-33 0 -69.5 11.5t-56.5 22.5t-58 34zM913 121q250 0 392.5 123.5t142.5 351.5v840h10q217 0 217 213h166
q0 -117 -58.5 -204.5t-170.5 -123.5v-725q0 -291 -185.5 -453.5t-513.5 -162.5q-329 0 -515.5 162.5t-186.5 453.5v840h168v-840q0 -228 140.5 -351.5t393.5 -123.5z" />
    <glyph glyph-name="uni1EEF" unicode="&#x1eef;" 
d="M766 1376q-89 54 -156 54q-90 0 -188 -101v152q101 104 201 104q27 0 57.5 -9t49.5 -18.5t55 -29.5t49 -27q73 -39 129 -39q95 0 202 99v-152q-111 -100 -215 -100q-34 0 -69.5 11t-56.5 22.5t-58 33.5zM1231 0l-4 113q-289 -133 -543 -133q-216 0 -350.5 108t-134.5 277
v782h163v-758q0 -125 94 -197.5t253 -72.5q233 0 514 131v897h22q205 5 205 213h166q0 -116 -59 -204t-171 -124v-1032h-155z" />
    <glyph glyph-name="uni1EF0" unicode="&#x1ef0;" horiz-adv-x="1824" 
d="M784 -324q0 56 33.5 84.5t93.5 28.5q56 0 88.5 -29t32.5 -84q0 -57 -32.5 -86.5t-88.5 -29.5q-60 0 -93.5 29.5t-33.5 86.5zM913 121q250 0 392.5 123.5t142.5 351.5v840h10q217 0 217 213h166q0 -117 -58.5 -204.5t-170.5 -123.5v-725q0 -291 -185.5 -453.5
t-513.5 -162.5q-329 0 -515.5 162.5t-186.5 453.5v840h168v-840q0 -228 140.5 -351.5t393.5 -123.5z" />
    <glyph glyph-name="uni1EF1" unicode="&#x1ef1;" 
d="M662 -324q0 56 33 84.5t93 28.5q56 0 88.5 -29t32.5 -84q0 -57 -32.5 -86.5t-88.5 -29.5q-60 0 -93 29.5t-33 86.5zM1231 0l-4 113q-289 -133 -543 -133q-216 0 -350.5 108t-134.5 277v782h163v-758q0 -125 94 -197.5t253 -72.5q233 0 514 131v897h22q205 5 205 213h166
q0 -116 -59 -204t-171 -124v-1032h-155z" />
    <glyph glyph-name="Ygrave" unicode="&#x1ef2;" horiz-adv-x="1722" 
d="M1006 1575h-164l-258 358h198zM780 0v563l-704 871h196l568 -709h43l565 709h199l-701 -867v-567h-166z" />
    <glyph glyph-name="ygrave" unicode="&#x1ef3;" horiz-adv-x="1531" 
d="M932 1288h-164l-258 359h199zM680 -408h-162l238 463h-140l-575 1092h172l492 -944h126l484 944h176z" />
    <glyph glyph-name="uni1EF4" unicode="&#x1ef4;" horiz-adv-x="1722" 
d="M733 -324q0 56 33.5 84.5t93.5 28.5q56 0 88.5 -29t32.5 -84q0 -57 -32.5 -86.5t-88.5 -29.5q-60 0 -93.5 29.5t-33.5 86.5zM780 0v563l-704 871h196l568 -709h43l565 709h199l-701 -867v-567h-166z" />
    <glyph glyph-name="uni1EF5" unicode="&#x1ef5;" horiz-adv-x="1531" 
d="M969 -324q0 56 33.5 84.5t93.5 28.5q56 0 88.5 -29t32.5 -84q0 -57 -32.5 -86.5t-88.5 -29.5q-60 0 -93.5 29.5t-33.5 86.5zM680 -408h-162l238 463h-140l-575 1092h172l492 -944h126l484 944h176z" />
    <glyph glyph-name="uni1EF6" unicode="&#x1ef6;" horiz-adv-x="1722" 
d="M926 1575h-129q0 44 15 76.5t37 49.5t48 32.5t48 27.5t37 33.5t15 50.5q0 68 -118 74q-90 3 -207 -31v127q132 33 227 31q120 -1 185 -48.5t65 -125.5q0 -50 -16.5 -87.5t-41.5 -58t-53.5 -39t-53.5 -31.5t-41.5 -33.5t-16.5 -47.5zM780 0v563l-704 871h196l568 -709h43
l565 709h199l-701 -867v-567h-166z" />
    <glyph glyph-name="uni1EF7" unicode="&#x1ef7;" horiz-adv-x="1531" 
d="M829 1288h-129q0 44 15 76.5t37 49.5t48.5 33t48.5 28t37 33.5t15 50.5q0 67 -119 73q-93 3 -207 -30v127q128 33 228 30q120 -1 185 -48.5t65 -125.5q0 -49 -16.5 -87t-41.5 -58.5t-54 -39t-54 -31.5t-41.5 -33.5t-16.5 -47.5zM680 -408h-162l238 463h-140l-575 1092
h172l492 -944h126l484 944h176z" />
    <glyph glyph-name="uni1EF8" unicode="&#x1ef8;" horiz-adv-x="1722" 
d="M838 1663q-87 53 -156 53q-91 0 -188 -100v151q102 105 200 105q27 0 57.5 -9t49.5 -18.5t55 -29.5t49 -27q73 -39 129 -39q97 0 203 98v-151q-112 -101 -215 -101q-33 0 -69.5 11.5t-56.5 22.5t-58 34zM780 0v563l-704 871h196l568 -709h43l565 709h199l-701 -867v-567
h-166z" />
    <glyph glyph-name="uni1EF9" unicode="&#x1ef9;" horiz-adv-x="1531" 
d="M739 1376q-89 54 -155 54q-91 0 -189 -101v152q101 104 201 104q27 0 57.5 -9t49.5 -18.5t55 -29.5t49 -27q73 -39 129 -39q96 0 203 99v-152q-111 -100 -215 -100q-34 0 -69.5 11t-57.5 22.5t-58 33.5zM680 -408h-162l238 463h-140l-575 1092h172l492 -944h126l484 944
h176z" />
    <glyph glyph-name="endash" unicode="&#x2013;" horiz-adv-x="1429" 
d="M137 614v138h1157v-138h-1157z" />
    <glyph glyph-name="emdash" unicode="&#x2014;" horiz-adv-x="2578" 
d="M137 614v138h2278v-138h-2278z" />
    <glyph glyph-name="quoteleft" unicode="&#x2018;" horiz-adv-x="475" 
d="M367 1454l-70 -569h-188l116 569h142z" />
    <glyph glyph-name="quoteright" unicode="&#x2019;" horiz-adv-x="475" 
d="M109 885l69 569h189l-117 -569h-141z" />
    <glyph glyph-name="quotesinglbase" unicode="&#x201a;" horiz-adv-x="612" 
d="M178 -346l70 561h186l-117 -561h-139z" />
    <glyph glyph-name="quotedblleft" unicode="&#x201c;" horiz-adv-x="839" 
d="M731 1454l-69 -569h-187l117 569h139zM367 1454l-70 -569h-188l116 569h142z" />
    <glyph glyph-name="quotedblright" unicode="&#x201d;" horiz-adv-x="839" 
d="M109 885l69 569h189l-117 -569h-141zM475 885l68 569h188l-117 -569h-139z" />
    <glyph glyph-name="quotedblbase" unicode="&#x201e;" horiz-adv-x="976" 
d="M178 -348l68 569h188l-117 -569h-139zM543 -348l69 569h187l-117 -569h-139z" />
    <glyph glyph-name="dagger" unicode="&#x2020;" horiz-adv-x="915" 
d="M375 -369v981h-238v138h238v759h164v-759h239v-138h-239v-981h-164z" />
    <glyph glyph-name="daggerdbl" unicode="&#x2021;" horiz-adv-x="1038" 
d="M436 -369v619h-299v137h299v369h-299v137h299v616h164v-616h301v-137h-301v-369h301v-137h-301v-619h-164z" />
    <glyph glyph-name="bullet" unicode="&#x2022;" horiz-adv-x="1089" 
d="M301 756q0 110 65.5 164.5t182.5 54.5q111 0 175 -55t64 -164t-64 -163t-175 -54q-118 0 -183 54t-65 163z" />
    <glyph glyph-name="ellipsis" unicode="&#x2026;" horiz-adv-x="1646" 
d="M170 96q0 59 35 88t98 29q59 0 93 -29.5t34 -87.5t-34 -88.5t-93 -30.5q-63 0 -98 30t-35 89zM719 96q0 59 35 88t98 29q59 0 93 -29.5t34 -87.5t-34 -88.5t-93 -30.5q-63 0 -98 30t-35 89zM1268 96q0 59 35 88t98 29q59 0 93 -29.5t34 -87.5t-34 -88.5t-93 -30.5
q-63 0 -98 30t-35 89z" />
    <glyph glyph-name="perthousand" unicode="&#x2030;" horiz-adv-x="3334" 
d="M668 -61l839 1556h168l-839 -1556h-168zM178 1038q0 189 111 302.5t297 113.5t296.5 -113.5t110.5 -302.5t-110.5 -303t-296.5 -114t-297 114t-111 303zM340 1038q0 -131 66 -206.5t180 -75.5t179.5 75.5t65.5 206.5t-65.5 206t-179.5 75t-180 -75.5t-66 -205.5z
M1368 408q0 189 112 303t298 114q184 0 295.5 -114t111.5 -303t-111 -302.5t-296 -113.5q-186 0 -298 113.5t-112 302.5zM2341 408q0 189 111.5 303t297.5 114q185 0 296.5 -114t111.5 -303t-111.5 -302.5t-296.5 -113.5q-186 0 -297.5 113.5t-111.5 302.5zM1532 408
q0 -131 66 -207t180 -76t179.5 76t65.5 207t-65.5 206.5t-179.5 75.5t-180 -75.5t-66 -206.5zM2503 408q0 -131 66.5 -207t180.5 -76t179 76t65 207t-65 206.5t-179 75.5t-180.5 -76t-66.5 -206z" />
    <glyph glyph-name="guilsinglleft" unicode="&#x2039;" horiz-adv-x="727" 
d="M137 702l269 326h184l-307 -381l307 -381h-184l-269 328v108z" />
    <glyph glyph-name="guilsinglright" unicode="&#x203a;" horiz-adv-x="727" 
d="M590 702v-108l-271 -328h-182l307 381l-307 381h182z" />
    <glyph glyph-name="fraction" unicode="&#x2044;" horiz-adv-x="841" 
d="M27 -61l637 1556h151l-637 -1556h-151z" />
    <glyph glyph-name="franc" unicode="&#x20a3;" horiz-adv-x="1781" 
d="M369 0v266h-219v135h219v1033h1235v-148h-1069v-459h903v-147h-903v-279h471v-135h-471v-266h-166z" />
    <glyph glyph-name="lira" unicode="&#x20a4;" horiz-adv-x="1710" 
d="M182 150q125 0 192.5 64.5t82.5 197.5h-279v137h285v199h-281v137h281v153q0 192 162 304t438 112q97 0 220.5 -15t199.5 -46v-138q-77 26 -196 40t-206 14q-231 0 -340.5 -74t-109.5 -227v-123h725v-137h-725v-199h725v-137h-729q-9 -190 -99 -262h1004v-150h-1350v150z
" />
    <glyph glyph-name="Euro" unicode="&#x20ac;" horiz-adv-x="1869" 
d="M1157 121q287 0 537 69v-149q-236 -61 -533 -61q-284 0 -475 124t-264 347h-285v133h254q-10 72 -10 133q0 69 8 121h-252v131h281q70 230 262 357.5t481 127.5q297 0 533 -61v-148q-247 68 -537 68q-213 0 -356.5 -89.5t-204.5 -254.5h731v-131h-768q-8 -52 -8 -121
q0 -65 10 -133h766v-133h-725q62 -157 205 -243.5t350 -86.5z" />
    <glyph glyph-name="trademark" unicode="&#x2122;" horiz-adv-x="2453" 
d="M543 606v711h-406v117h950v-117h-403v-711h-141zM1249 606v828h154l346 -439h25l346 439h155v-828h-141v619h-16l-295 -377h-121l-295 377h-16v-619h-142z" />
    <glyph glyph-name="estimated" unicode="&#x212e;" horiz-adv-x="1794" 
d="M862 117q165 0 267.5 54t199.5 187h262q-86 -182 -288.5 -294.5t-425.5 -112.5q-148 0 -278 51.5t-226.5 146t-152.5 238t-56 318.5q0 139 37 259t103.5 209.5t157.5 153t201 95.5t232 32q333 0 534 -228.5t201 -607.5h-1110v-362q59 -68 140.5 -103.5t201.5 -35.5z
M520 764h754v383q-158 139 -406 139q-118 0 -211 -40.5t-137 -98.5v-383z" />
    <glyph glyph-name="product" unicode="&#x220f;" horiz-adv-x="1736" 
d="M1212 -385v1681h-686v-1681h-164v1681h-225v138h1465v-138h-226v-1681h-164z" />
    <glyph glyph-name="summation" unicode="&#x2211;" horiz-adv-x="1372" 
d="M178 1296v138h1018v-138h-842l510 -694l-510 -694h842v-137h-1018v137l508 694z" />
    <glyph glyph-name="minus" unicode="&#x2212;" horiz-adv-x="915" 
d="M137 614v138h641v-138h-641z" />
    <glyph glyph-name="radical" unicode="&#x221a;" horiz-adv-x="1536" 
d="M96 1010v137h332l342 -957l467 1338h164l-531 -1528h-196l-363 1010h-215z" />
    <glyph glyph-name="infinity" unicode="&#x221e;" horiz-adv-x="2377" 
d="M178 618q0 220 136 350t366 130q321 0 508 -307q187 307 510 307q230 0 366 -130t136 -350q0 -217 -136 -346t-366 -129q-324 0 -510 306q-186 -306 -508 -306q-230 0 -366 129t-136 346zM346 618q0 -148 93.5 -237.5t242.5 -89.5q258 0 424 327q-162 332 -424 332
q-150 0 -243 -91t-93 -241zM2030 618q0 150 -92 241t-242 91q-262 0 -424 -332q166 -327 424 -327q149 0 241.5 89.5t92.5 237.5z" />
    <glyph glyph-name="integral" unicode="&#x222b;" horiz-adv-x="1130" 
d="M483 53v1170q0 207 132 314t378 101v-147q-180 7 -263 -64.5t-83 -234.5v-1172q0 -206 -132 -313t-378 -100v145q180 -6 263 66t83 235z" />
    <glyph glyph-name="approxequal" unicode="&#x2248;" horiz-adv-x="1282" 
d="M631 631q-130 59 -230 59q-127 0 -264 -102v139q150 111 295 111q112 0 252 -64q129 -57 225 -57q125 0 236 100v-139q-126 -111 -264 -111q-110 0 -250 64z" />
    <glyph glyph-name="notequal" unicode="&#x2260;" horiz-adv-x="1173" 
d="M178 788v138h438l91 221h149l-90 -221h231v-138h-286l-99 -241h385v-135h-442l-86 -215h-152l89 215h-228v135h283l98 241h-381z" />
    <glyph glyph-name="lessequal" unicode="&#x2264;" horiz-adv-x="1267" 
d="M178 684v147l912 312v-152l-711 -233l711 -234v-153zM178 0v137h914v-137h-914z" />
    <glyph glyph-name="greaterequal" unicode="&#x2265;" horiz-adv-x="1267" 
d="M1092 684l-914 -313v153l713 234l-713 233v152l914 -312v-147zM1092 0h-914v137h914v-137z" />
    <glyph glyph-name="lozenge" unicode="&#x25ca;" horiz-adv-x="1458" 
d="M557 -160l-379 797l379 797h344l381 -797l-381 -797h-344zM350 637l307 -647h144l309 647l-309 647h-144z" />
    <glyph glyph-name="zero.numr" horiz-adv-x="1292" 
d="M139 975q0 219 134.5 349t373.5 130q237 0 372.5 -130t135.5 -349q0 -218 -135.5 -347.5t-372.5 -129.5q-239 0 -373.5 129.5t-134.5 347.5zM295 975q0 -161 94.5 -256.5t257.5 -95.5q162 0 256 95t94 257t-94 257t-256 95q-164 0 -258 -95t-94 -257z" />
    <glyph glyph-name="one.numr" horiz-adv-x="772" 
d="M344 500v800h-246v132h400v-932h-154z" />
    <glyph glyph-name="two.numr" horiz-adv-x="1134" 
d="M293 643h704v-133h-858v133q0 59 13.5 107.5t33.5 82t54.5 60.5t65.5 43t78 29.5t80 19.5t83 14q143 25 181 38q100 32 112 105q2 12 2 25q0 159 -289 162q-184 3 -371 -43v131q188 40 369 37q216 0 331 -66t115 -214q0 -67 -21.5 -117t-54 -78t-83.5 -47t-96.5 -28
t-106.5 -18q-25 -3 -37 -5q-56 -8 -94 -16.5t-81.5 -25.5t-69 -41t-43 -63.5t-17.5 -91.5z" />
    <glyph glyph-name="three.numr" horiz-adv-x="1122" 
d="M139 535v131q187 -42 385 -39q305 3 305 145q0 73 -82.5 110.5t-232.5 37.5h-266v110h254q143 0 222 39t79 113q0 140 -285 143q-187 3 -364 -39v131q167 37 360 37q227 -1 335.5 -63.5t108.5 -188.5q0 -168 -190 -223q215 -56 215 -227q0 -128 -114 -190t-353 -62
q-202 -3 -377 35z" />
    <glyph glyph-name="four.numr" horiz-adv-x="1191" 
d="M745 502v241h-647v134l514 557h287v-557h156v-134h-156v-241h-154zM272 877h473v423h-81z" />
    <glyph glyph-name="five.numr" horiz-adv-x="1114" 
d="M555 1042q422 0 422 -272q0 -141 -112 -210.5t-343 -72.5q-210 0 -385 37v133q186 -43 395 -43q289 6 289 158q0 79 -71.5 117.5t-219.5 38.5h-376l-9 114l78 392h695v-134h-582l-49 -258h268z" />
    <glyph glyph-name="six.numr" horiz-adv-x="1181" 
d="M139 979q0 221 133 345.5t373 129.5q152 3 313 -29v-127q-158 31 -307 31q-161 -3 -253 -85.5t-101 -233.5v-21q184 96 356 96q191 0 291 -70.5t100 -207.5q0 -142 -113.5 -225.5t-307.5 -83.5q-235 0 -359.5 125.5t-124.5 355.5zM307 872q22 -123 102.5 -187t217.5 -64
q122 0 191 49t69 135q0 83 -62.5 125.5t-179.5 42.5q-163 0 -338 -101z" />
    <glyph glyph-name="seven.numr" horiz-adv-x="1034" 
d="M401 504l375 799h-678v133h840v-133l-369 -799h-168z" />
    <glyph glyph-name="eight.numr" horiz-adv-x="1212" 
d="M139 758q0 170 234 223q-197 56 -197 215q0 122 114 190t316 68q203 0 316.5 -67.5t113.5 -190.5q0 -160 -194 -215q233 -52 233 -223q0 -124 -123 -192t-346 -68q-222 0 -344.5 68t-122.5 192zM332 1184q0 -70 73.5 -110t200.5 -40q129 0 202 39.5t73 110.5
q0 69 -73.5 108t-201.5 39q-127 0 -200.5 -39t-73.5 -108zM295 770q0 -72 83 -112t228 -40q147 0 229.5 40t82.5 112q0 74 -83 116t-229 42q-145 0 -228 -42t-83 -116z" />
    <glyph glyph-name="nine.numr" horiz-adv-x="1181" 
d="M1044 973q0 -221 -134 -346.5t-373 -128.5q-149 -3 -314 26v127q159 -28 309 -28q164 2 258.5 90t94.5 250q-181 -99 -355 -99q-193 0 -292 71t-99 210q0 142 113 225.5t307 83.5q236 0 360.5 -126t124.5 -355zM877 1079q-24 123 -104.5 187.5t-217.5 64.5
q-121 0 -190.5 -49.5t-69.5 -136.5q0 -81 63 -123.5t179 -42.5q172 0 340 100z" />
    <glyph glyph-name="zero.dnom" horiz-adv-x="1290" 
d="M137 471q0 219 134.5 349t373.5 130q237 0 372.5 -130t135.5 -349q0 -218 -135.5 -347.5t-372.5 -129.5q-239 0 -373.5 129.5t-134.5 347.5zM293 471q0 -160 95 -256t257 -96t256 95.5t94 256.5q0 162 -94 257t-256 95t-257 -95t-95 -257z" />
    <glyph glyph-name="one.dnom" horiz-adv-x="770" 
d="M340 0v799h-244v133h402v-932h-158z" />
    <glyph glyph-name="two.dnom" horiz-adv-x="1134" 
d="M293 133h704v-133h-860v133q0 59 13.5 107.5t33.5 82t54.5 60.5t65.5 43t78 29.5t80 19.5t83 14q145 25 187 40q100 36 107 114q1 7 1 14q0 156 -289 162q-185 0 -371 -43v131q188 40 369 37q448 0 448 -282q0 -67 -24 -116.5t-49.5 -76t-88.5 -48t-92.5 -27
t-109.5 -17.5q-25 -4 -37 -6q-56 -8 -93.5 -16t-80.5 -25.5t-68.5 -41.5t-43 -63.5t-17.5 -91.5z" />
    <glyph glyph-name="three.dnom" horiz-adv-x="1118" 
d="M137 23v133q187 -42 385 -39q305 3 305 145q0 72 -83 110t-232 38h-266v110h254q143 0 222 39t79 113q0 140 -285 143q-174 3 -364 -39v131q167 37 360 37q227 -3 335.5 -64.5t108.5 -187.5q0 -170 -190 -225q215 -53 215 -227q0 -127 -114.5 -188.5t-352.5 -61.5
q-211 -3 -377 33z" />
    <glyph glyph-name="four.dnom" horiz-adv-x="1189" 
d="M743 0v242h-647v133l514 557h287v-557h156v-133h-156v-242h-154zM270 375h473v424h-81z" />
    <glyph glyph-name="five.dnom" horiz-adv-x="1112" 
d="M555 541q422 0 422 -273q0 -141 -112 -210t-343 -72q-210 0 -385 37v133q186 -43 395 -43q287 6 287 157q0 80 -71 118t-220 38h-374l-9 115l76 391h697v-133h-584l-49 -258h270z" />
    <glyph glyph-name="six.dnom" horiz-adv-x="1177" 
d="M137 469q0 221 133 345.5t373 129.5q152 3 313 -29v-127q-158 31 -307 31q-161 -3 -253 -85.5t-101 -233.5v-21q184 96 356 96q191 0 291 -70.5t100 -207.5q0 -142 -113.5 -225.5t-307.5 -83.5q-235 0 -359.5 125.5t-124.5 355.5zM305 362q22 -123 102.5 -187t217.5 -64
q122 0 191 49t69 135q0 83 -62.5 125.5t-179.5 42.5q-163 0 -338 -101z" />
    <glyph glyph-name="seven.dnom" horiz-adv-x="1032" 
d="M399 0l375 799h-678v133h840v-133l-369 -799h-168z" />
    <glyph glyph-name="eight.dnom" horiz-adv-x="1210" 
d="M137 248q0 170 234 225q-97 27 -147 82t-50 131q0 122 114 190t316 68q203 0 316.5 -67.5t113.5 -190.5q0 -158 -194 -213q233 -55 233 -225q0 -124 -123 -192t-346 -68q-222 0 -344.5 68t-122.5 192zM330 674q0 -70 73.5 -110t200.5 -40q128 0 201.5 40t73.5 110
t-73 108.5t-202 38.5q-127 0 -200.5 -38.5t-73.5 -108.5zM293 260q0 -71 82.5 -110t228.5 -39q147 0 229 38.5t82 110.5q0 74 -82.5 116t-228.5 42q-145 0 -228 -42t-83 -116z" />
    <glyph glyph-name="nine.dnom" horiz-adv-x="1177" 
d="M1042 465q0 -221 -134 -346.5t-373 -128.5q-149 -3 -314 26v127q159 -28 309 -28q164 2 258.5 90t94.5 250q-181 -99 -355 -99q-193 0 -292 71t-99 210q0 142 113 225.5t307 83.5q236 0 360.5 -126t124.5 -355zM874 571q-48 252 -321 252q-121 0 -190.5 -49.5
t-69.5 -136.5q0 -81 63 -123.5t179 -42.5q171 0 339 100z" />
    <glyph glyph-name="zero.tnum" horiz-adv-x="1638" 
d="M115 717q0 333 192.5 535t513.5 202t513 -202t192 -535t-192 -535t-513 -202t-513.5 202t-192.5 535zM285 717q0 -271 145.5 -433.5t390.5 -162.5q244 0 389.5 162.5t145.5 433.5t-145.5 433.5t-389.5 162.5q-245 0 -390.5 -162.5t-145.5 -433.5z" />
    <glyph glyph-name="one.tnum" horiz-adv-x="1638" 
d="M315 0v156h433v1122h-388v156h553v-1278h410v-156h-1008z" />
    <glyph glyph-name="two.tnum" horiz-adv-x="1638" 
d="M356 156h1090v-156h-1256v156q0 69 12 128.5t31 105t52 85t64 67t79.5 52.5t85.5 40.5t95 31.5t96 24.5t98 20.5q202 40 275 67q155 56 190 166q12 37 12 82q0 74 -33 129.5t-94 89t-140 51t-179 19.5q-261 6 -574 -66v148q281 60 545 57q641 -7 641 -424q0 -73 -18 -132
t-42.5 -100t-73.5 -75t-86 -53t-107 -38t-110 -27t-119 -22q-19 -3 -28 -5q-65 -11 -110.5 -21t-102.5 -27.5t-96 -37.5t-79 -52t-64 -70.5t-39 -93t-15 -120.5z" />
    <glyph glyph-name="three.tnum" horiz-adv-x="1638" 
d="M190 35v147q322 -63 607 -57q241 3 362 70.5t121 189.5q0 129 -136.5 195.5t-389.5 66.5h-408v133h389q239 0 369.5 71t130.5 200q0 123 -115 188t-338 68q-259 6 -571 -58v148q284 56 543 53q647 -6 647 -385q0 -256 -299 -346q171 -40 258.5 -128.5t87.5 -221.5
q0 -379 -688 -385q-286 -3 -570 51z" />
    <glyph glyph-name="four.tnum" horiz-adv-x="1638" 
d="M1116 0v395h-1012v156l816 883h362v-883h252v-156h-252v-395h-166zM317 551h799v727h-129z" />
    <glyph glyph-name="five.tnum" horiz-adv-x="1638" 
d="M791 819q330 0 491.5 -105t161.5 -319q0 -207 -162.5 -308.5t-497.5 -104.5q-292 -3 -591 53v147q142 -29 321 -46.5t313 -14.5q451 9 451 285q0 141 -117.5 208.5t-365.5 67.5h-572l-8 137l119 615h1026v-156h-893l-88 -459h412z" />
    <glyph glyph-name="six.tnum" horiz-adv-x="1638" 
d="M154 719q0 336 210.5 533t573.5 200q207 0 424 -41v-147q-225 46 -428 43q-287 -3 -446 -149.5t-166 -416.5q0 -6 1 -18t1 -18q302 174 594 174q272 0 419.5 -111t147.5 -317q0 -217 -166.5 -344t-450.5 -127q-348 0 -531 192.5t-183 546.5zM334 555q73 -434 538 -434
q206 0 325.5 87.5t119.5 240.5q0 141 -102.5 214.5t-294.5 73.5q-137 0 -290 -47.5t-296 -134.5z" />
    <glyph glyph-name="seven.tnum" horiz-adv-x="1638" 
d="M678 0l586 1278h-1074v156h1256v-156l-582 -1278h-186z" />
    <glyph glyph-name="eight.tnum" horiz-adv-x="1638" 
d="M125 381q0 272 371 348q-310 75 -310 328q0 191 169 294t464 103q293 0 462 -103t169 -294q0 -125 -77 -208.5t-232 -119.5q185 -38 277.5 -126t92.5 -222q0 -195 -184 -298t-508 -103t-509 103t-185 298zM356 1057q0 -123 124 -190.5t339 -67.5t339 67.5t124 190.5
t-124 189.5t-339 66.5t-339 -66.5t-124 -189.5zM295 379q0 -124 139.5 -191t384.5 -67q244 0 384 66.5t140 191.5q0 129 -141 201.5t-383 72.5q-243 0 -383.5 -72.5t-140.5 -201.5z" />
    <glyph glyph-name="nine.tnum" horiz-adv-x="1638" 
d="M1485 715q0 -336 -211 -533t-574 -200q-194 -2 -424 41v145q212 -43 429 -43q287 3 445.5 150t166.5 417q0 6 -1 18t-1 17q-302 -174 -594 -174q-272 0 -419.5 111t-147.5 317q0 217 166 344t450 127q349 0 532 -192t183 -545zM1305 877q-36 214 -170.5 325t-368.5 111
q-206 0 -325 -88t-119 -240q0 -143 102 -216t295 -73q137 0 289.5 47.5t296.5 133.5z" />
    <glyph glyph-name="K.ss01" horiz-adv-x="1816" 
d="M231 0v1434h168v-830h19l987 830h231l-739 -617l852 -817h-223l-748 717l-379 -316v-401h-168z" />
    <glyph glyph-name="Q.ss01" horiz-adv-x="1943" 
d="M137 717q0 333 225 535t603 202t602.5 -202t224.5 -535q0 -189 -75 -338.5t-214 -247.5l252 -289h-205l-186 213q-173 -75 -399 -75q-378 0 -603 202t-225 535zM305 717q0 -270 180.5 -433t479.5 -163q168 0 295 53l-445 508h205l379 -434q108 79 165.5 198.5t57.5 270.5
q0 271 -178.5 433.5t-478.5 162.5q-299 0 -479.5 -163t-180.5 -433z" />
    <glyph glyph-name="R.ss01" horiz-adv-x="1769" 
d="M231 0v1434h793q288 0 427.5 -108t139.5 -325q0 -192 -121.5 -305.5t-339.5 -120.5l572 -575h-215l-567 573h-521v-573h-168zM1020 1292h-621v-583h609q223 0 319 68.5t96 223.5q0 151 -95.5 221t-307.5 70z" />
    <glyph glyph-name="k.ss01" horiz-adv-x="1527" 
d="M211 0v1516h164v-959l762 590h219l-586 -453l696 -694h-215l-602 602l-274 -213v-389h-164z" />
    <glyph glyph-name="zero.ss01" horiz-adv-x="1785" 
d="M137 717q0 333 206 535t550 202q227 0 398.5 -91.5t264.5 -258.5t93 -387q0 -333 -206 -535t-550 -202t-550 202t-206 535zM305 717q0 -254 141 -414l779 922q-144 88 -332 88q-268 0 -428 -162.5t-160 -433.5zM1329 1137l-778 -920q140 -96 342 -96q268 0 427 162.5
t159 433.5q0 261 -150 420z" />
    </font>
</defs>
</svg>
