<svg width="37" height="63" viewBox="0 0 37 63" fill="none" xmlns="http://www.w3.org/2000/svg">
<path d="M12.8774 19V8.98072H18.7744C21.7945 8.98072 23.1543 9.81089 23.1543 11.6716C23.1543 12.7308 22.6247 13.4465 21.4939 13.8329V13.9617C22.8394 14.2909 23.4692 15.0352 23.4692 16.2375C23.4692 18.1412 22.138 19 19.0893 19H12.8774ZM18.7315 10.7842H15.1532V13.1745H18.7315C20.2201 13.1745 20.8212 12.8167 20.8212 11.9722C20.8212 11.1277 20.2058 10.7842 18.7315 10.7842ZM19.0607 14.6631H15.1532V17.1965H19.0607C20.535 17.1965 21.1504 16.8244 21.1504 15.9227C21.1504 15.0352 20.535 14.6631 19.0607 14.6631Z" fill="#75604B"/>
<circle cx="18.2169" cy="44.7831" r="17.8373" stroke="#75604B" stroke-width="0.759036"/>
<path d="M11.3855 54.7546C13.5455 47.9167 15.712 41.0919 17.8915 34.1565L24.3975 54.7611V54.8391L22.8882 53.2647C21.3267 51.6187 19.7523 49.9791 18.1909 48.3136C17.9892 48.0924 17.8395 48.0794 17.6313 48.3136C15.5689 50.5061 13.5065 52.6661 11.4376 54.8196L11.3855 54.7546Z" fill="#7C6D5B"/>
</svg>
