<svg width="48" height="48" viewBox="0 0 48 48" fill="none" xmlns="http://www.w3.org/2000/svg">
<path d="M47.5719 24C47.5719 37.0181 37.0186 47.5714 24.0005 47.5714C10.9823 47.5714 0.42906 37.0181 0.42906 24C0.42906 10.9819 10.9823 0.428571 24.0005 0.428571C37.0186 0.428571 47.5719 10.9819 47.5719 24Z" fill="white" stroke="#009337" stroke-width="0.857143"/>
<path d="M10.6297 29V20.6H15.3457C17.6977 20.6 18.8257 21.548 18.8257 23.324C18.8257 25.112 17.6977 26.048 15.3457 26.048H11.9737V29H10.6297ZM15.3097 21.728H11.9737V24.92H15.3097C16.8457 24.92 17.4577 24.404 17.4577 23.324C17.4577 22.244 16.8457 21.728 15.3097 21.728ZM20.743 29V20.6H25.243C27.871 20.6 29.611 22.208 29.611 24.8C29.611 27.392 27.871 29 25.243 29H20.743ZM25.243 21.728H22.087V27.872H25.243C27.019 27.872 28.243 26.744 28.243 24.8C28.243 22.856 27.019 21.728 25.243 21.728ZM31.5359 29V20.6H38.8559V21.776H32.8799V24.008H37.8959V25.184H32.8799V29H31.5359Z" fill="#009337"/>
</svg>
