<svg width="49" height="48" viewBox="0 0 49 48" fill="none" xmlns="http://www.w3.org/2000/svg">
<path d="M48.25 24C48.25 36.8406 37.8406 47.25 25 47.25C12.1594 47.25 1.75 36.8406 1.75 24C1.75 11.1594 12.1594 0.75 25 0.75C37.8406 0.75 48.25 11.1594 48.25 24Z" fill="white" stroke="#009337" stroke-width="1.5"/>
<path d="M32.1994 21.6C34.8504 21.6 36.9994 19.451 36.9994 16.8C36.9994 14.149 34.8504 12 32.1994 12C29.5484 12 27.3994 14.149 27.3994 16.8C27.3994 19.451 29.5484 21.6 32.1994 21.6Z" stroke="#009337" stroke-width="1.5"/>
<path d="M44.2 37.44L38.8648 32.64C37.6534 31.5494 36.1078 30.9022 34.4808 30.8041C32.8538 30.706 31.2416 31.1629 29.908 32.1L29.1904 32.604C28.266 33.2536 27.1421 33.5563 26.0165 33.4588C24.8909 33.3614 23.8357 32.87 23.0368 32.0712L12.7408 21.7752C11.7504 20.7857 10.4212 20.2095 9.02202 20.1632C7.62287 20.1168 6.25839 20.6038 5.20476 21.5256L1.67676 24.612" stroke="#009337" stroke-width="1.5" stroke-linecap="round"/>
</svg>
