<svg width="48" height="48" viewBox="0 0 48 48" fill="none" xmlns="http://www.w3.org/2000/svg">
<path d="M46.5893 24C46.5893 36.4757 36.4757 46.5893 24 46.5893C11.5243 46.5893 1.41071 36.4757 1.41071 24C1.41071 11.5243 11.5243 1.41071 24 1.41071C36.4757 1.41071 46.5893 11.5243 46.5893 24Z" fill="white" stroke="white" stroke-width="0.821429"/>
<path d="M11.7294 28.251V27.124C12.8219 27.331 14.3284 27.492 15.3979 27.469C17.0194 27.4345 17.7439 26.9745 17.7439 26.227C17.7439 25.3415 16.7319 24.939 14.9264 24.939H12.6609V23.95H14.8229C16.5479 23.95 17.4679 23.4785 17.4679 22.6045C17.4679 21.8225 16.7319 21.4315 15.2944 21.397C14.2939 21.374 12.8794 21.5235 11.8444 21.742V20.615C12.8104 20.431 13.8914 20.3045 15.0299 20.316C17.5714 20.339 18.7559 21.029 18.7559 22.4895C18.7559 23.4095 18.2844 24.0535 17.2954 24.41C18.4684 24.7435 19.0319 25.376 19.0319 26.3535C19.0319 27.8255 17.7669 28.5155 15.0529 28.5385C13.8799 28.55 12.7299 28.435 11.7294 28.251ZM20.6741 24.433C20.6741 21.949 22.5256 20.3275 25.3661 20.3275C26.2861 20.3275 26.9071 20.3965 27.7006 20.5V21.6155C26.9071 21.5005 26.2746 21.4315 25.3201 21.4315C23.2501 21.4315 22.0656 22.432 21.9851 24.2375C21.9851 24.2375 21.9851 24.2605 21.9851 24.272C23.0546 23.697 24.0551 23.4325 25.1821 23.4325C27.2521 23.4325 28.4941 24.295 28.4941 25.8245C28.4941 27.5265 27.1141 28.573 24.8486 28.573C22.1231 28.573 20.6741 27.1355 20.6741 24.433ZM22.0656 25.4105C22.3301 26.8365 23.2386 27.5035 24.8831 27.5035C26.3436 27.5035 27.1831 26.9055 27.1831 25.8475C27.1831 24.9735 26.4356 24.5135 25.2051 24.5135C24.1471 24.5135 23.0316 24.8585 22.0656 25.4105ZM29.7339 24.433C29.7339 21.949 31.3554 20.293 33.7934 20.293C36.2199 20.293 37.8414 21.949 37.8414 24.433C37.8414 26.917 36.2199 28.573 33.7934 28.573C31.3554 28.573 29.7339 26.917 29.7339 24.433ZM31.0449 24.433C31.0449 26.296 32.1604 27.5035 33.7934 27.5035C35.4149 27.5035 36.5304 26.296 36.5304 24.433C36.5304 22.57 35.4149 21.374 33.7934 21.374C32.1604 21.374 31.0449 22.57 31.0449 24.433Z" fill="#009337"/>
<circle cx="41.3026" cy="9.04971" r="3.88125" fill="white" stroke="#009337" stroke-width="1.4375"/>
</svg>
