<svg width="308" height="66" viewBox="0 0 308 66" fill="none" xmlns="http://www.w3.org/2000/svg">
<path d="M306.762 23.0801V32.2823H277.111V23.0801H306.762Z" fill="white" fill-opacity="0.5"/>
<path d="M1.19489 23.0801V32.2823H30.8465V23.0801H1.19489Z" fill="white" fill-opacity="0.5"/>
<path d="M306.762 33.2852V42.4874H277.111V33.2852H306.762Z" fill="white" fill-opacity="0.5"/>
<path d="M1.19489 33.2852V42.4874H30.8465V33.2852H1.19489Z" fill="white" fill-opacity="0.5"/>
<path d="M306.762 43.4873V52.6895H277.111V43.4873H306.762Z" fill="white" fill-opacity="0.5"/>
<path d="M1.19489 43.4873V52.6895H30.8465V43.4873H1.19489Z" fill="white" fill-opacity="0.5"/>
<path d="M306.762 5.74222V11.877H277.111V0.629883H302.672L306.762 5.74222Z" fill="white" fill-opacity="0.5"/>
<path d="M1.19489 5.74222V11.877H30.8465V0.629883H5.28476L1.19489 5.74222Z" fill="white" fill-opacity="0.5"/>
<path d="M306.762 59.8261V53.6913H277.111V64.9385H302.672L306.762 59.8261Z" fill="white" fill-opacity="0.5"/>
<path d="M1.19489 59.8261V53.6913H30.8465V64.9385H5.28476L1.19489 59.8261Z" fill="white" fill-opacity="0.5"/>
<path d="M306.762 12.8779V22.0801H277.111V12.8779H306.762Z" fill="white" fill-opacity="0.5"/>
<path d="M1.19489 12.8779V22.0801H30.8465V12.8779H1.19489Z" fill="white" fill-opacity="0.5"/>
<path d="M156.518 0.629883L156.517 32.2828H165.027V0.629883H156.518Z" fill="white" fill-opacity="0.5"/>
<path d="M35.1155 0.629883L35.1152 32.2828H43.6252V0.629883H35.1155Z" fill="white" fill-opacity="0.5"/>
<path d="M156.518 33.2852L156.517 64.9383H165.027V33.2852H156.518Z" fill="white" fill-opacity="0.5"/>
<path d="M166.28 0.629883L166.279 32.2828H174.789V0.629883H166.28Z" fill="white" fill-opacity="0.5"/>
<path d="M44.8775 0.629883L44.8773 32.2828H53.3873V0.629883H44.8775Z" fill="white" fill-opacity="0.5"/>
<path d="M166.28 33.2852L166.279 64.9383H174.789V33.2852H166.28Z" fill="white" fill-opacity="0.5"/>
<path d="M44.8775 33.2852L44.8773 64.9383H53.3873V33.2852H44.8775Z" fill="white" fill-opacity="0.5"/>
<path d="M176.042 0.629883L176.041 32.2828H184.551V0.629883H176.042Z" fill="white" fill-opacity="0.5"/>
<path d="M54.6395 0.629883L54.6393 32.2828H63.1493V0.629883H54.6395Z" fill="white" fill-opacity="0.5"/>
<path d="M176.042 33.2852L176.041 64.9383H184.551V33.2852H176.042Z" fill="white" fill-opacity="0.5"/>
<path d="M54.6395 33.2852L54.6393 64.9383H63.1493V33.2852H54.6395Z" fill="white" fill-opacity="0.5"/>
<path d="M185.804 0.629883L185.803 32.2828H194.313V0.629883H185.804Z" fill="white" fill-opacity="0.5"/>
<path d="M64.4015 0.629883L64.4012 32.2828H72.9112V0.629883H64.4015Z" fill="white" fill-opacity="0.5"/>
<path d="M185.804 33.2852L185.803 64.9383H194.313V33.2852H185.804Z" fill="white" fill-opacity="0.5"/>
<path d="M64.4015 33.2852L64.4012 64.9383H72.9112V33.2852H64.4015Z" fill="white" fill-opacity="0.5"/>
<path d="M195.566 0.629883L195.565 32.2828H204.075V0.629883H195.566Z" fill="white" fill-opacity="0.5"/>
<path d="M74.1635 0.629883L74.1633 32.2828H82.6733V0.629883H74.1635Z" fill="white" fill-opacity="0.5"/>
<path d="M195.566 33.2852L195.565 64.9383H204.075V33.2852H195.566Z" fill="white" fill-opacity="0.5"/>
<path d="M74.1635 33.2852L74.1633 64.9383H82.6733V33.2852H74.1635Z" fill="white" fill-opacity="0.5"/>
<path d="M205.328 0.629883L205.327 32.2828H213.837V0.629883H205.328Z" fill="white" fill-opacity="0.5"/>
<path d="M83.9256 0.629883L83.9253 32.2828H92.4353V0.629883H83.9256Z" fill="white" fill-opacity="0.5"/>
<path d="M205.328 33.2852L205.327 64.9383H213.837V33.2852H205.328Z" fill="white" fill-opacity="0.5"/>
<path d="M83.9256 33.2852L83.9253 64.9383H92.4353V33.2852H83.9256Z" fill="white" fill-opacity="0.5"/>
<path d="M215.09 0.629883L215.089 32.2828H223.599V0.629883H215.09Z" fill="white" fill-opacity="0.5"/>
<path d="M93.6876 0.629883L93.6873 32.2828H102.197V0.629883H93.6876Z" fill="white" fill-opacity="0.5"/>
<path d="M215.09 33.2852L215.089 64.9383H223.599V33.2852H215.09Z" fill="white" fill-opacity="0.5"/>
<path d="M93.6876 33.2852L93.6873 64.9383H102.197V33.2852H93.6876Z" fill="white" fill-opacity="0.5"/>
<path d="M224.852 0.629883L224.851 32.2828H233.361V0.629883H224.852Z" fill="white" fill-opacity="0.5"/>
<path d="M103.45 0.629883L103.449 32.2828H111.959V0.629883H103.45Z" fill="white" fill-opacity="0.5"/>
<path d="M224.852 33.2852L224.851 64.9383H233.361V33.2852H224.852Z" fill="white" fill-opacity="0.5"/>
<path d="M103.45 33.2852L103.449 64.9383H111.959V33.2852H103.45Z" fill="white" fill-opacity="0.5"/>
<path d="M234.614 0.629883L234.613 32.2828H243.123V0.629883H234.614Z" fill="white" fill-opacity="0.5"/>
<path d="M113.212 0.629883L113.211 32.2828H121.721V0.629883H113.212Z" fill="white" fill-opacity="0.5"/>
<path d="M234.614 33.2852L234.613 64.9383H243.123V33.2852H234.614Z" fill="white" fill-opacity="0.5"/>
<path d="M113.212 33.2852L113.211 64.9383H121.721V33.2852H113.212Z" fill="white" fill-opacity="0.5"/>
<path d="M244.376 0.629883L244.375 32.2828H252.885V0.629883H244.376Z" fill="white" fill-opacity="0.5"/>
<path d="M122.974 0.629883L122.973 32.2828H131.483V0.629883H122.974Z" fill="white" fill-opacity="0.5"/>
<path d="M244.376 33.2852L244.375 64.9383H252.885V33.2852H244.376Z" fill="white" fill-opacity="0.5"/>
<path d="M122.974 33.2852L122.973 64.9383H131.483V33.2852H122.974Z" fill="white" fill-opacity="0.5"/>
<path d="M254.137 0.629883L254.136 32.2828H262.646V0.629883H254.137Z" fill="white" fill-opacity="0.5"/>
<path d="M132.736 0.629883L132.735 32.2828H141.245V0.629883H132.736Z" fill="white" fill-opacity="0.5"/>
<path d="M254.137 33.2852L254.136 64.9383H262.646V33.2852H254.137Z" fill="white" fill-opacity="0.5"/>
<path d="M132.736 33.2852L132.735 64.9383H141.245V33.2852H132.736Z" fill="white" fill-opacity="0.5"/>
<path d="M263.899 0.629883L263.898 32.2828H272.408V0.629883H263.899Z" fill="white" fill-opacity="0.5"/>
<path d="M142.498 0.629883L142.497 32.2828H151.007V0.629883H142.498Z" fill="white" fill-opacity="0.5"/>
<path d="M263.899 33.2852L263.898 64.9383H272.408V33.2852H263.899Z" fill="white" fill-opacity="0.5"/>
<path d="M142.498 33.2852L142.497 64.9383H151.007V33.2852H142.498Z" fill="white" fill-opacity="0.5"/>
<path d="M35.1155 33.2852L35.1152 64.9383H43.6252V33.2852H35.1155Z" fill="white" stroke="white" stroke-width="0.2"/>
</svg>
