<svg width="192" height="168" viewBox="0 0 192 168" fill="none" xmlns="http://www.w3.org/2000/svg">
<path d="M179.613 68.6517L53.2155 68.7011L50.0609 21.3823L45.3109 21.5161C45.7961 35.4437 46.7784 63.9003 46.8267 66.3065C46.8749 68.7127 45.6151 68.7821 44.9792 68.5161L7.74372 66.9993L7.65531 71.1048C24.7648 72.1879 28.0371 72.4051 37.8481 72.7286C47.5446 73.0483 47.8954 72.6859 48.5692 76.7086L51.2796 98.5473L13.0606 103.371L13.8521 108.096L52.1343 103.65L59.1645 161.146L64.2353 160.297L57.0913 103.469L185.223 102.138L179.613 68.6517Z" fill="white"/>
<path d="M129.139 86.3838L129.194 95.3164L169.365 94.846L169.113 86.0583L129.139 86.3838Z" fill="#009337"/>
<path d="M168.766 76.0553L129.007 76.3446L129.132 84.3713L169.088 83.9371L168.766 76.0553Z" fill="#009337"/>
<path d="M120.844 76.5968L81.1221 77.1036L80.9767 84.8403L120.933 84.406L120.844 76.5968Z" fill="#009337"/>
<path d="M121.119 95.4397L81.163 95.8739L80.8923 86.9775L120.74 86.5613L121.119 95.4397Z" fill="#009337"/>
<path d="M55.7929 79.4477L57.5556 96.5889L79.2053 96.0917L78.8854 80.9442L55.7929 79.4477Z" fill="#D3B89C"/>
<path d="M170.866 74.0289L79.0496 74.6563L78.5396 71.6121L178.015 70.3723L178.981 76.1345L175.241 76.3139L170.866 74.0289Z" fill="#D3B89C"/>
<path d="M58.0694 101.644L57.5413 98.4908L178.756 96.6271L175.806 79.0143L179.473 78.3999L183.097 100.035L58.0694 101.644Z" fill="#D3B89C"/>
</svg>
