<svg width="192" height="168" viewBox="0 0 192 168" fill="none" xmlns="http://www.w3.org/2000/svg">
<path d="M179.615 68.6519L53.2171 68.7014L50.0625 21.3826L45.3125 21.5164C45.7977 35.4439 46.78 63.9005 46.8283 66.3067C46.8765 68.7129 45.6167 68.7824 44.9808 68.5163L7.74532 66.9996L7.6569 71.1051C24.7664 72.1881 28.0387 72.4053 37.8497 72.7288C47.5462 73.0485 47.8969 72.6861 48.5708 76.7088L51.2812 98.5476L13.0622 103.371L13.8537 108.096L52.1359 103.65L59.1661 161.146L64.237 160.297L57.0929 103.469L185.225 102.138L179.615 68.6519Z" fill="white"/>
<path d="M129.141 86.3839L129.195 95.3165L169.367 94.8462L169.115 86.0584L129.141 86.3839Z" fill="#D3B89C"/>
<path d="M168.767 76.0555L129.009 76.3449L129.134 84.3716L169.09 83.9373L168.767 76.0555Z" fill="#D3B89C"/>
<path d="M120.846 76.597L81.1237 77.1039L80.9783 84.8405L120.934 84.4063L120.846 76.597Z" fill="#D3B89C"/>
<path d="M121.12 95.4399L81.1646 95.8742L80.8939 86.9777L120.742 86.5615L121.12 95.4399Z" fill="#D3B89C"/>
<path d="M55.7945 79.4479L57.5572 96.5891L79.2069 96.0919L78.887 80.9444L55.7945 79.4479Z" fill="#D3B89C"/>
<path d="M170.868 74.0291L79.0512 74.6564L78.5413 71.6122L178.017 70.3724L178.982 76.1347L175.242 76.3141L170.868 74.0291Z" fill="#D3B89C"/>
<path d="M58.071 101.644L57.5428 98.491L178.758 96.6273L175.807 79.0144L179.474 78.4001L183.099 100.036L58.071 101.644Z" fill="#D3B89C"/>
</svg>
