<svg width="84" height="72" viewBox="0 0 84 72" fill="none" xmlns="http://www.w3.org/2000/svg">
<g clip-path="url(#clip0_2011_172)">
<path d="M0.0419131 48.6455L6.84887 48.6679C10.244 48.6679 11.8786 50.0694 11.8591 52.6284C11.8395 55.1874 10.216 56.5692 6.82932 56.5524L1.96161 56.5356L1.93926 60.8156H0L0.0419131 48.6455ZM1.97558 50.2852L1.95882 54.9071L6.77622 54.9239C8.99212 54.9239 9.87791 54.1868 9.8835 52.6228C9.88909 51.0588 9.00888 50.3104 6.79019 50.302L1.97558 50.2852Z" fill="#009337"/>
<path d="M15.6789 48.6992H17.6182L17.6014 53.635L26.1241 53.663L26.1408 48.73H28.0801L28.041 60.8916H26.0989L26.1185 55.3672L17.5958 55.3363L17.579 60.8608H15.637L15.6789 48.6992Z" fill="#009337"/>
<path d="M42.6022 55.8975L42.6273 48.7754H44.5498L44.5247 55.8975C44.5247 59.2357 42.0824 61.1193 38.447 61.108C34.8116 61.0968 32.3722 59.1937 32.3833 55.8583L32.4085 48.7334H34.3477L34.3254 55.8695C34.3254 58.2659 36.0299 59.488 38.4526 59.4964C40.8753 59.5048 42.5938 58.294 42.6022 55.8975Z" fill="#009337"/>
<path d="M52.3403 48.8262H54.2795L59.4378 55.34H59.8877L65.0879 48.8598H67.044L67.002 61.0214H65.0628L65.0935 52.0383H64.8309L60.5919 57.3329H58.7197L54.5282 52.0074H54.2683L54.2376 60.9906H52.2983L52.3403 48.8262Z" fill="#009337"/>
<path d="M76.1983 56.4632L70.3162 48.8954H72.602L76.9136 54.6273H77.3579L81.6891 48.9263H83.9944L78.1264 56.3763L78.1096 61.0683H76.1703L76.1983 56.4632Z" fill="#009337"/>
<path d="M21.0133 67.6044H24.794V68.2911H21.8292V69.289H24.3022V69.956H21.8264V71.1276H24.7912V71.8115H21.0105L21.0133 67.6044Z" fill="#009337"/>
<path d="M28.9939 70.0654C28.1891 70.0654 27.1943 70.029 27.1999 68.8378C27.1999 67.8455 28.0773 67.5849 29.2956 67.5765C29.8869 67.5727 30.4769 67.6309 31.0561 67.7502V68.4482C30.4434 68.3155 29.819 68.2451 29.1923 68.2379C28.5468 68.2548 28.0242 68.4033 28.0242 68.8714C28.0242 69.3955 28.639 69.4011 29.1 69.3983C30.3156 69.3983 31.2628 69.4544 31.2573 70.612C31.2573 71.4921 30.5279 71.9209 29.0497 71.8985C28.4324 71.8877 27.8172 71.823 27.2111 71.7051V71.0016C27.8256 71.1308 28.4501 71.2058 29.0777 71.2258C29.9719 71.2258 30.4385 71.0296 30.4413 70.5867C30.4441 70.1439 29.9048 70.0654 28.9939 70.0654Z" fill="#009337"/>
<path d="M35.3731 68.3392H33.3779V67.6553L38.1897 67.6721V68.356H36.189V71.8764H35.3731V68.3392Z" fill="#009337"/>
<path d="M41.3112 67.6747H42.8146L44.6029 71.879H43.7367L43.3427 70.9401H40.7607L40.3639 71.8762H39.4949L41.3112 67.6747ZM43.0884 70.3122L42.2864 68.3783H41.8309L41.0206 70.3038L43.0884 70.3122Z" fill="#009337"/>
<path d="M47.9448 68.384H45.9497V67.6973L50.7587 67.7141V68.384H48.7552V71.9044H47.9337L47.9448 68.384Z" fill="#009337"/>
<path d="M53.1172 67.714H56.8979V68.4007H53.9331V69.3985H56.4061V70.0656H53.9303V71.2372H56.8951V71.9211H53.1144L53.1172 67.714Z" fill="#009337"/>
<path d="M60.7373 70.166C59.9353 70.166 58.9406 70.1296 58.9434 68.9411C58.9434 67.9489 59.8236 67.6883 61.0391 67.6799C61.6303 67.6761 62.2204 67.7343 62.7995 67.8536V68.5516C62.1883 68.4162 61.5645 68.3457 60.9385 68.3413C60.2902 68.3413 59.7705 68.5039 59.7677 68.9748C59.7677 69.4961 60.3824 69.5045 60.8435 69.4989C62.059 69.4989 63.0063 69.555 63.0035 70.7154C63.0035 71.5927 62.2742 72.0215 60.7932 71.9991C60.1759 71.9881 59.5607 71.9234 58.9545 71.8057V71.105C59.5698 71.2345 60.1955 71.3087 60.8239 71.3264C61.7153 71.3264 62.1848 71.133 62.1848 70.6873C62.1848 70.2417 61.6483 70.1744 60.7373 70.166Z" fill="#009337"/>
<path d="M35.2139 15.1513C34.7808 14.3385 34.3002 13.5453 33.9257 12.7044C33.4367 11.6113 33.0371 10.479 32.5789 9.37182C32.4916 9.09754 32.33 8.85299 32.1122 8.6655C31.3008 8.1028 30.4614 7.58173 29.5973 7.1043C29.3514 6.97256 28.6612 6.77076 28.2924 7.08468C27.7028 7.5892 28.3734 8.64868 28.555 8.90374C30.0388 11.0115 32.7465 14.0078 35.0993 15.2859L35.2139 15.1513Z" fill="#009337"/>
<path d="M41.2639 11.9989C41.5433 11.116 41.7501 10.2163 42.0742 9.35577C42.499 8.23463 43.0159 7.14992 43.4714 6.04279C43.6028 5.78311 43.6608 5.49231 43.6391 5.20193C43.4611 4.22765 43.2335 3.26313 42.9573 2.31217C42.8762 2.03189 42.5297 1.40965 42.0491 1.37041C41.2751 1.30875 41.0068 2.5336 40.9537 2.84472C40.5178 5.38692 40.3306 9.43706 41.0851 12.0045L41.2639 11.9989Z" fill="#009337"/>
<path d="M33.7665 0.851546C34.127 0.851546 34.8843 1.27197 35.8874 2.45759C37.0345 3.8639 38.0136 5.40004 38.8047 7.03467C38.7712 8.65192 38.7823 9.5152 39.0674 10.7849C38.7519 10.6998 38.4272 10.6537 38.1005 10.6476C37.8328 10.6426 37.5668 10.6912 37.3181 10.7905C37.0093 10.9145 36.7211 11.0846 36.463 11.295C36.002 10.2131 35.6247 9.85155 34.6272 9.68338C33.8252 7.39904 33.3194 5.22402 33.2021 3.51707C33.0819 1.76528 33.4117 0.974874 33.6659 0.871168C33.698 0.858953 33.7322 0.853238 33.7665 0.854352M33.7665 0.0499268C33.6268 0.0502865 33.4885 0.0769059 33.3586 0.128407C31.8049 0.773066 32.1402 5.24083 34.0404 10.4177C35.3481 10.5495 35.3481 10.5495 36.2144 12.8758C36.4987 12.2705 36.9964 11.7922 37.6115 11.5333C37.7642 11.4764 37.9265 11.4497 38.0893 11.4548C38.8521 11.5087 39.5908 11.7452 40.2438 12.1443C39.5591 9.83193 39.548 9.14242 39.5955 6.85528C37.5892 2.81355 35.2447 0.0499268 33.7554 0.0499268H33.7665Z" fill="#009337"/>
<path d="M60.0781 12.0608C61.4389 12.0608 61.9279 12.3803 61.9978 12.5513C62.0676 12.7223 61.9139 13.3922 60.7236 14.5133C59.6058 15.5588 57.8706 16.6939 55.8531 17.717C55.501 17.717 55.1601 17.717 54.8471 17.717C53.9292 17.7005 53.0126 17.7946 52.1171 17.9973C52.3006 17.4278 52.3006 16.8149 52.1171 16.2455C51.9924 15.9363 51.8229 15.6473 51.6141 15.3878C52.6927 14.9253 53.0532 14.5469 53.2208 13.5463C55.8419 12.6158 58.3232 12.086 60.0865 12.086M60.0865 11.2844C58.1751 11.2844 55.4479 11.8618 52.4887 12.9661C52.3602 14.2779 52.3602 14.2779 50.0381 15.1467C50.6423 15.4318 51.12 15.931 51.3794 16.5482C51.6392 17.1788 51.2257 18.4289 50.773 19.1885C52.6228 18.6279 53.4304 18.5214 54.8555 18.5214C55.2048 18.5214 55.5932 18.5214 56.0431 18.5214C60.4609 16.3155 63.3418 13.7005 62.7494 12.2514C62.47 11.5871 61.5088 11.2676 60.0892 11.2676L60.0865 11.2844Z" fill="#009337"/>
<path d="M47.5229 30.5263C47.984 31.6054 48.3612 31.9669 49.3588 32.1351C50.1635 34.4166 50.6721 36.5917 50.7895 38.3014C50.9124 40.0532 50.5827 40.8464 50.3312 40.9501C50.299 40.9619 50.2649 40.9676 50.2306 40.9669C49.8673 40.9669 49.1129 40.5465 48.1069 39.3637C46.9591 37.9578 45.9782 36.4227 45.184 34.7894C45.2148 33.1722 45.2036 32.3089 44.9186 31.0392C45.2332 31.1234 45.557 31.1686 45.8826 31.1737C46.1509 31.1782 46.4176 31.1306 46.6678 31.0336C46.9752 30.9068 47.2631 30.7369 47.5229 30.5291M47.7688 28.9482C47.4851 29.554 46.9872 30.0325 46.3716 30.2908C46.2191 30.3487 46.0568 30.3763 45.8938 30.3721C45.1323 30.3183 44.3947 30.0828 43.7422 29.6854C44.4296 31.9978 44.438 32.6845 44.3933 34.9716C46.4024 39.0105 48.7496 41.7714 50.2418 41.7714C50.3806 41.7713 50.5181 41.7447 50.6469 41.6929C52.2006 41.0454 51.8625 36.5776 49.954 31.4036C48.649 31.2746 48.649 31.2746 47.78 28.9482H47.7688Z" fill="#009337"/>
<path d="M31.9028 23.7489C31.7206 24.3186 31.7206 24.9311 31.9028 25.5007C32.028 25.8102 32.1984 26.0993 32.4085 26.3584C31.3299 26.8209 30.9723 27.1993 30.8046 28.2027C28.1779 29.136 25.6938 29.6686 23.9306 29.6686C22.5781 29.6686 22.0891 29.3491 22.0193 29.1809C21.9494 29.0127 22.1031 28.34 23.2907 27.2189C24.4084 26.1734 26.1437 25.0354 28.1584 24.0124C28.4993 24.0124 28.829 24.0124 29.1364 24.0124C30.0636 24.0307 30.9897 23.9366 31.8944 23.7321M33.2468 22.5381C31.3858 23.0987 30.5783 23.2108 29.1364 23.2108C28.7927 23.2108 28.4127 23.2108 27.9739 23.194C23.5617 25.4082 20.6808 28.0261 21.2676 29.4724C21.547 30.1339 22.5055 30.4534 23.9194 30.4534C25.8307 30.4534 28.5608 29.8732 31.5255 28.7717C31.6541 27.4599 31.6541 27.4599 33.9734 26.5882C33.3688 26.3036 32.8909 25.8043 32.6321 25.1868C32.3722 24.5562 32.783 23.3061 33.2357 22.5465L33.2468 22.5381Z" fill="#009337"/>
<path d="M47.7633 14.0672C48.5736 13.6327 49.3616 13.1506 50.1971 12.7723C51.2869 12.2818 52.4158 11.8837 53.5196 11.4213C53.7919 11.333 54.0346 11.171 54.2209 10.9532C54.7819 10.1398 55.3005 9.29785 55.7746 8.43062C55.9059 8.18397 56.1099 7.48885 55.7969 7.12168C55.294 6.52747 54.2377 7.20296 53.9834 7.38235C51.8849 8.87347 48.9006 11.6035 47.6291 13.9551L47.7633 14.0672Z" fill="#009337"/>
<path d="M50.1133 0.80405C50.1476 0.803419 50.1817 0.809119 50.2139 0.820867C50.4067 0.90215 50.7532 1.48234 50.6889 3.10801C50.6303 4.60754 50.2279 6.56954 49.5544 8.66048C47.9337 9.31635 47.4671 9.71996 46.2739 11.0906C46.0862 10.934 45.8773 10.8047 45.6536 10.7066C45.2375 10.5272 44.7903 10.432 44.3375 10.4263C44.0483 10.4282 43.7604 10.4639 43.4796 10.5328C43.6026 10.2105 43.7423 9.86291 43.9043 9.47331C44.814 7.2038 45.9994 5.05553 47.4336 3.07717C48.7162 1.39545 49.669 0.792841 50.1133 0.792841M50.1133 -0.0115846C48.3417 -0.0115846 45.363 3.87038 43.1666 9.165C42.7733 10.0887 42.4264 11.0317 42.1272 11.9903C42.7754 11.6287 43.5103 11.2279 44.3375 11.2279C44.6841 11.2291 45.027 11.2996 45.3462 11.4353C45.7266 11.6341 46.0579 11.9156 46.3158 12.2594C48.0343 10.2609 48.216 10.0171 50.1971 9.25469C51.7675 4.56269 51.9631 0.669514 50.5213 0.0697009C50.3921 0.0153876 50.2534 -0.0122595 50.1133 -0.0115846Z" fill="#009337"/>
<path d="M52.3765 22.3526C52.7007 22.4759 53.036 22.6077 53.4048 22.759C56.1069 23.8633 58.5101 25.2087 60.1727 26.5429C61.9834 27.9948 62.1678 28.83 62.0868 29.029C62.0057 29.228 61.5279 29.5279 60.1308 29.5279C58.5939 29.5279 56.5233 29.1355 54.2627 28.4236C53.5948 26.8007 53.1897 26.3355 51.8149 25.1499C51.9697 24.9606 52.0967 24.7501 52.1921 24.5248C52.4776 23.8375 52.5402 23.0775 52.3709 22.3526M50.9458 21.0156C51.4516 21.9181 51.9713 22.9636 51.4572 24.2249C51.2642 24.6082 50.986 24.9419 50.644 25.2003C52.6504 26.9129 52.8795 27.0922 53.6647 29.0739C56.1796 29.9007 58.4598 30.3323 60.128 30.3323C61.5698 30.3323 62.5534 30.0072 62.8273 29.3345C63.5175 27.6388 59.435 24.3622 53.7066 22.0191C52.6532 21.5902 51.9378 21.3211 50.9458 21.0156Z" fill="#009337"/>
<path d="M37.7317 30.7106C37.9217 30.8647 38.1324 30.9911 38.3576 31.0862C38.7921 31.266 39.2568 31.3611 39.7268 31.3665C39.9928 31.3666 40.258 31.3375 40.5176 31.2796C40.4002 31.5907 40.2717 31.9158 40.1236 32.2914C39.2432 34.58 38.0831 36.7501 36.6698 38.752C35.4096 40.4562 34.4595 41.0588 34.0292 41.0588C33.9967 41.0597 33.9644 41.054 33.9342 41.042C33.7386 40.9663 33.3753 40.3889 33.4256 38.7632C33.5374 36.8696 33.8934 34.9985 34.4847 33.1967C36.0942 32.5156 36.5553 32.1064 37.7317 30.719M37.673 29.539C35.9824 31.5627 35.8036 31.7981 33.8336 32.5969C32.3302 37.3113 32.1877 41.2073 33.6352 41.7875C33.7606 41.837 33.8944 41.8617 34.0292 41.8604C35.798 41.8604 38.7376 37.9364 40.8669 32.5885C41.2351 31.6974 41.5578 30.7881 41.8337 29.8641C41.2053 30.2799 40.4784 30.5217 39.7268 30.5649C39.3586 30.5627 38.9943 30.4894 38.6538 30.349C38.2696 30.1575 37.9342 29.8804 37.673 29.539Z" fill="#009337"/>
<path d="M23.9866 12.3944C25.5095 12.3944 27.5382 12.7588 29.7345 13.4174C30.4219 15.0291 30.8355 15.4888 32.2271 16.6575C32.0739 16.849 31.9488 17.0613 31.8554 17.2882C31.5793 17.9759 31.5188 18.7317 31.6822 19.4548C31.372 19.3427 31.0479 19.2166 30.6734 19.068C27.9573 18.0029 25.5375 16.6912 23.8525 15.3794C22.025 13.9556 21.8294 13.1371 21.8965 12.9213C21.9635 12.7055 22.4917 12.3944 23.9754 12.3944M23.9754 11.5928C22.4553 11.5928 21.4242 11.9319 21.1504 12.6298C20.4853 14.3368 24.6126 17.5545 30.3716 19.8164C31.4307 20.2312 32.0985 20.4751 33.0961 20.7665C32.5764 19.8724 32.0929 18.8494 32.5903 17.5797C32.7785 17.1941 33.0518 16.8567 33.3895 16.5931C31.3608 14.9114 31.1261 14.7348 30.3158 12.7616C27.8595 11.9936 25.6297 11.5928 23.9754 11.5928Z" fill="#009337"/>
<path d="M50.9013 20.1438C51.7815 20.4241 52.6785 20.6315 53.5364 20.9594C54.6541 21.3827 55.7299 21.904 56.8337 22.3609C57.0925 22.4927 57.3824 22.5508 57.6719 22.529C58.6423 22.3492 59.6029 22.12 60.5501 21.8423C60.8156 21.7611 61.4471 21.4163 61.4862 20.9314C61.5477 20.155 60.3266 19.8831 60.0192 19.8299C57.4875 19.3954 53.4553 19.2049 50.8985 19.9644L50.9013 20.1438Z" fill="#009337"/>
<path d="M48.856 26.6404C49.2891 27.4532 49.7669 28.2436 50.1441 29.0817C50.6331 30.1748 51.0299 31.3072 51.4882 32.4143C51.5772 32.6869 51.7385 32.9301 51.9549 33.1178C52.7663 33.6796 53.6057 34.1997 54.4697 34.6762C54.7156 34.8079 55.4086 35.0126 55.7747 34.6986C56.3643 34.1913 55.6937 33.1346 55.512 32.8796C54.031 30.7746 51.3205 27.7812 48.9677 26.5059L48.856 26.6404Z" fill="#009337"/>
<path d="M42.7922 29.8223C42.5268 30.7052 42.306 31.6077 41.9819 32.4682C41.5571 33.5893 41.0402 34.6712 40.5847 35.7784C40.4533 36.038 40.3954 36.3288 40.417 36.6192C40.5949 37.5954 40.8225 38.5617 41.0989 39.5146C41.1799 39.7949 41.5264 40.4143 42.007 40.4535C42.781 40.5152 43.0493 39.2903 43.1024 38.982C43.5383 36.437 43.7255 32.3897 42.9711 29.8223H42.7922Z" fill="#009337"/>
<path d="M36.2815 27.7422C35.4712 28.1794 34.6832 28.6587 33.8477 29.0371C32.7579 29.5276 31.629 29.9284 30.528 30.3881C30.2544 30.4767 30.0106 30.6397 29.8239 30.859C29.2633 31.6726 28.7447 32.5146 28.2702 33.3816C28.1389 33.6282 27.9377 34.3205 28.2507 34.6905C28.7537 35.2819 29.8071 34.6092 30.0614 34.427C32.1599 32.9387 35.1443 30.2087 36.4185 27.8543L36.2815 27.7422Z" fill="#009337"/>
<path d="M33.1546 21.6768C32.2744 21.3965 31.3774 21.1891 30.5223 20.864C29.4046 20.4379 28.326 19.9166 27.2222 19.4625C26.9633 19.3312 26.6732 19.274 26.384 19.2972C25.4126 19.4757 24.4511 19.704 23.503 19.9811C23.2376 20.0623 22.606 20.4099 22.5669 20.892C22.5054 21.6684 23.7266 21.9403 24.0339 21.9935C26.5656 22.4308 30.6006 22.6185 33.1546 21.859V21.6768Z" fill="#009337"/>
<path d="M41.94 23.4711C43.3814 23.4711 44.5499 22.299 44.5499 20.8532C44.5499 19.4074 43.3814 18.2354 41.94 18.2354C40.4986 18.2354 39.3301 19.4074 39.3301 20.8532C39.3301 22.299 40.4986 23.4711 41.94 23.4711Z" fill="#009337"/>
<path d="M39.4641 15.7798C40.0906 15.7798 40.5986 15.2703 40.5986 14.6419C40.5986 14.0134 40.0906 13.5039 39.4641 13.5039C38.8375 13.5039 38.3296 14.0134 38.3296 14.6419C38.3296 15.2703 38.8375 15.7798 39.4641 15.7798Z" fill="#009337"/>
<path d="M44.6028 28.2749C45.2293 28.2749 45.7372 27.7655 45.7372 27.137C45.7372 26.5085 45.2293 25.999 44.6028 25.999C43.9762 25.999 43.4683 26.5085 43.4683 27.137C43.4683 27.7655 43.9762 28.2749 44.6028 28.2749Z" fill="#009337"/>
<path d="M35.8036 24.6061C36.4302 24.6061 36.9381 24.0966 36.9381 23.4682C36.9381 22.8397 36.4302 22.3302 35.8036 22.3302C35.1771 22.3302 34.6691 22.8397 34.6691 23.4682C34.6691 24.0966 35.1771 24.6061 35.8036 24.6061Z" fill="#009337"/>
<path d="M48.2607 19.4516C48.8872 19.4516 49.3952 18.9422 49.3952 18.3137C49.3952 17.6852 48.8872 17.1757 48.2607 17.1757C47.6341 17.1757 47.1262 17.6852 47.1262 18.3137C47.1262 18.9422 47.6341 19.4516 48.2607 19.4516Z" fill="#009337"/>
<path d="M37.7989 18.6388C37.8641 18.6394 37.9287 18.6527 37.9889 18.678C38.0524 18.7025 38.1101 18.7401 38.1583 18.7884C38.2064 18.8367 38.2439 18.8946 38.2683 18.9583C38.2996 19.0342 38.3117 19.1167 38.3036 19.1984C38.2955 19.2801 38.2673 19.3586 38.2217 19.4268C38.1761 19.495 38.1144 19.5509 38.0421 19.5894C37.9698 19.628 37.8891 19.648 37.8073 19.6478C37.7418 19.6486 37.677 19.6352 37.6172 19.6086C37.5537 19.5841 37.496 19.5465 37.4479 19.4982C37.3997 19.4499 37.3622 19.392 37.3378 19.3283C37.3065 19.2524 37.2944 19.1699 37.3025 19.0882C37.3107 19.0064 37.3388 18.928 37.3844 18.8598C37.43 18.7916 37.4917 18.7357 37.564 18.6971C37.6363 18.6586 37.717 18.6385 37.7989 18.6388ZM37.7989 18.123C37.5478 18.1226 37.3056 18.2159 37.1193 18.3846C36.9329 18.5534 36.8158 18.7856 36.7907 19.0362C36.7656 19.2867 36.8343 19.5377 36.9834 19.7403C37.1325 19.9429 37.3513 20.0826 37.5974 20.1323C37.8435 20.1821 38.0993 20.1382 38.315 20.0093C38.5306 19.8804 38.6908 19.6757 38.7643 19.4349C38.8379 19.1942 38.8196 18.9346 38.7129 18.7066C38.6063 18.4787 38.4189 18.2986 38.1873 18.2015C38.0642 18.15 37.9322 18.1233 37.7989 18.123Z" fill="#009337"/>
<path d="M46.2597 22.1699C46.3336 22.1694 46.4066 22.1854 46.4735 22.2167C46.5404 22.248 46.5995 22.2939 46.6465 22.351C46.6935 22.4081 46.7273 22.4749 46.7453 22.5467C46.7634 22.6185 46.7653 22.6935 46.7509 22.7661C46.7365 22.8387 46.7062 22.9072 46.6621 22.9666C46.618 23.026 46.5613 23.0749 46.4961 23.1096C46.4309 23.1442 46.3588 23.1639 46.2851 23.1672C46.2113 23.1705 46.1377 23.1573 46.0697 23.1285C45.9642 23.0838 45.8773 23.004 45.8236 22.9026C45.77 22.8011 45.7529 22.6842 45.7752 22.5715C45.7976 22.4588 45.858 22.3574 45.9462 22.2842C46.0345 22.211 46.1452 22.1707 46.2597 22.1699ZM46.2597 21.6514C46.008 21.6508 45.765 21.7442 45.578 21.9134C45.3911 22.0826 45.2735 22.3154 45.2483 22.5667C45.223 22.818 45.2918 23.0697 45.4413 23.273C45.5909 23.4762 45.8104 23.6163 46.0572 23.6662C46.304 23.7161 46.5605 23.6721 46.7768 23.5428C46.9931 23.4135 47.1537 23.2081 47.2274 22.9666C47.3011 22.7251 47.2826 22.4648 47.1756 22.2362C47.0685 22.0076 46.8805 21.8271 46.6482 21.7298C46.5252 21.6778 46.3931 21.6511 46.2597 21.6514Z" fill="#009337"/>
<path d="M40.2689 24.6598C40.3342 24.6601 40.3988 24.6734 40.459 24.699C40.5221 24.7243 40.5794 24.7621 40.6274 24.8103C40.6755 24.8585 40.7132 24.916 40.7384 24.9793C40.7689 25.0553 40.7805 25.1375 40.7721 25.219C40.7636 25.3004 40.7354 25.3786 40.69 25.4466C40.6445 25.5146 40.5831 25.5704 40.5112 25.6091C40.4393 25.6479 40.359 25.6684 40.2773 25.6688C40.1788 25.6701 40.0822 25.6413 40.0004 25.5862C39.9185 25.5311 39.8553 25.4524 39.8191 25.3605C39.7935 25.3002 39.7804 25.2354 39.7804 25.1699C39.7804 25.1044 39.7935 25.0396 39.8191 24.9793C39.8559 24.8879 39.9193 24.8096 40.001 24.7546C40.0827 24.6997 40.179 24.6705 40.2773 24.671M40.2773 24.1553C40.0255 24.1547 39.7825 24.2481 39.5956 24.4173C39.4087 24.5865 39.2911 24.8194 39.2659 25.0706C39.2406 25.3219 39.3094 25.5737 39.4589 25.7769C39.6084 25.9801 39.828 26.1202 40.0748 26.1701C40.3216 26.22 40.5781 26.176 40.7944 26.0467C41.0107 25.9174 41.1713 25.712 41.245 25.4705C41.3187 25.229 41.3002 24.9687 41.1932 24.7401C41.0861 24.5115 40.8981 24.331 40.6657 24.2338C40.5428 24.1817 40.4107 24.155 40.2773 24.1553Z" fill="#009337"/>
<path d="M43.7898 16.1666C43.9134 16.176 44.029 16.2319 44.1133 16.3231C44.1977 16.4143 44.2445 16.5341 44.2445 16.6585C44.2445 16.7829 44.1977 16.9027 44.1133 16.9939C44.029 17.0852 43.9134 17.1411 43.7898 17.1504C43.7254 17.1501 43.6617 17.1368 43.6025 17.1112C43.4974 17.0681 43.4106 16.9897 43.3568 16.8894C43.303 16.7891 43.2857 16.6732 43.3079 16.5615C43.33 16.4498 43.3902 16.3493 43.4781 16.2772C43.5661 16.2052 43.6762 16.1661 43.7898 16.1666ZM43.7898 15.6593C43.5599 15.6603 43.3374 15.741 43.1599 15.8876C42.9825 16.0342 42.861 16.2378 42.8159 16.464C42.7709 16.6901 42.8051 16.9249 42.9128 17.1286C43.0205 17.3324 43.1951 17.4925 43.4069 17.5821C43.5285 17.6316 43.6585 17.6573 43.7898 17.6577C44.0202 17.6584 44.2437 17.5788 44.4222 17.4325C44.6006 17.2862 44.7228 17.0823 44.768 16.8556C44.8132 16.6289 44.7786 16.3936 44.67 16.1897C44.5614 15.9858 44.3856 15.8261 44.1726 15.7378C44.0515 15.6861 43.9213 15.6594 43.7898 15.6593Z" fill="#009337"/>
</g>
<defs>
<clipPath id="clip0_2011_172">
<rect width="84" height="72" fill="white"/>
</clipPath>
</defs>
</svg>
