<svg width="84" height="42" viewBox="0 0 84 42" fill="none" xmlns="http://www.w3.org/2000/svg">
<g clip-path="url(#clip0_4001_1350)">
<path d="M35.214 15.1517C34.7809 14.3389 34.3003 13.5457 33.9258 12.7048C33.4368 11.6117 33.0373 10.4793 32.579 9.37219C32.4917 9.0979 32.3302 8.85336 32.1123 8.66586C31.3009 8.10316 30.4615 7.58209 29.5974 7.10467C29.3515 6.97293 28.6614 6.77113 28.2925 7.08505C27.7029 7.58956 28.3735 8.64904 28.5552 8.9041C30.0389 11.0119 32.7466 14.0081 35.0995 15.2862L35.214 15.1517Z" fill="#009337"/>
<path d="M41.2636 11.9984C41.5431 11.1155 41.7499 10.2158 42.074 9.35528C42.4987 8.23414 43.0157 7.14943 43.4712 6.0423C43.6025 5.78262 43.6605 5.49182 43.6388 5.20144C43.4608 4.22716 43.2333 3.26265 42.957 2.31169C42.876 2.0314 42.5295 1.40916 42.0489 1.36992C41.2748 1.30826 41.0066 2.53311 40.9535 2.84423C40.5176 5.38643 40.3303 9.43657 41.0848 12.004L41.2636 11.9984Z" fill="#009337"/>
<path d="M33.7665 0.851546C34.127 0.851546 34.8843 1.27197 35.8874 2.45759C37.0345 3.8639 38.0136 5.40004 38.8047 7.03467C38.7712 8.65192 38.7823 9.5152 39.0674 10.7849C38.7519 10.6998 38.4272 10.6537 38.1005 10.6476C37.8328 10.6426 37.5668 10.6912 37.3181 10.7905C37.0093 10.9145 36.7211 11.0846 36.463 11.295C36.002 10.2131 35.6247 9.85155 34.6272 9.68338C33.8252 7.39904 33.3194 5.22402 33.2021 3.51707C33.0819 1.76528 33.4117 0.974874 33.6659 0.871168C33.698 0.858953 33.7322 0.853238 33.7665 0.854352M33.7665 0.0499268C33.6268 0.0502865 33.4885 0.0769059 33.3586 0.128407C31.8049 0.773066 32.1402 5.24083 34.0404 10.4177C35.3481 10.5495 35.3481 10.5495 36.2144 12.8758C36.4987 12.2705 36.9964 11.7922 37.6115 11.5333C37.7642 11.4764 37.9265 11.4497 38.0893 11.4548C38.8521 11.5087 39.5908 11.7452 40.2438 12.1443C39.5591 9.83193 39.548 9.14242 39.5955 6.85528C37.5892 2.81355 35.2447 0.0499268 33.7554 0.0499268H33.7665Z" fill="#009337"/>
<path d="M60.0778 12.0603C61.4387 12.0603 61.9277 12.3798 61.9975 12.5508C62.0674 12.7218 61.9137 13.3917 60.7233 14.5128C59.6056 15.5583 57.8703 16.6934 55.8528 17.7165C55.5007 17.7165 55.1598 17.7165 54.8469 17.7165C53.9289 17.7 53.0124 17.7941 52.1168 17.9968C52.3003 17.4273 52.3003 16.8144 52.1168 16.245C51.9921 15.9358 51.8227 15.6468 51.6138 15.3873C52.6924 14.9248 53.0529 14.5464 53.2206 13.5458C55.8416 12.6153 58.323 12.0855 60.0862 12.0855M60.0862 11.2839C58.1749 11.2839 55.4476 11.8613 52.4885 12.9656C52.3599 14.2774 52.3599 14.2774 50.0378 15.1463C50.6421 15.4313 51.1198 15.9305 51.3791 16.5477C51.639 17.1783 51.2254 18.4284 50.7727 19.188C52.6226 18.6274 53.4301 18.5209 54.8552 18.5209C55.2045 18.5209 55.5929 18.5209 56.0428 18.5209C60.4606 16.3151 63.3416 13.7 62.7492 12.2509C62.4698 11.5866 61.5085 11.2671 60.089 11.2671L60.0862 11.2839Z" fill="#009337"/>
<path d="M47.5229 30.5258C47.984 31.6049 48.3612 31.9664 49.3588 32.1346C50.1635 34.4162 50.6721 36.5912 50.7895 38.3009C50.9124 40.0527 50.5827 40.8459 50.3312 40.9496C50.299 40.9614 50.2649 40.9671 50.2306 40.9664C49.8673 40.9664 49.1129 40.546 48.1069 39.3632C46.9591 37.9573 45.9782 36.4222 45.184 34.7889C45.2148 33.1717 45.2036 32.3084 44.9186 31.0387C45.2332 31.1229 45.557 31.1681 45.8826 31.1732C46.1509 31.1777 46.4176 31.1301 46.6678 31.0331C46.9752 30.9063 47.2631 30.7364 47.5229 30.5286M47.7688 28.9478C47.4851 29.5536 46.9872 30.032 46.3716 30.2903C46.2191 30.3482 46.0568 30.3758 45.8938 30.3716C45.1323 30.3178 44.3947 30.0823 43.7422 29.6849C44.4296 31.9973 44.438 32.684 44.3933 34.9711C46.4024 39.01 48.7496 41.7709 50.2418 41.7709C50.3806 41.7708 50.5181 41.7442 50.6469 41.6924C52.2006 41.0449 51.8625 36.5772 49.954 31.4031C48.649 31.2741 48.649 31.2741 47.78 28.9478H47.7688Z" fill="#009337"/>
<path d="M31.9028 23.7484C31.7206 24.3181 31.7206 24.9306 31.9028 25.5002C32.028 25.8097 32.1984 26.0988 32.4085 26.3579C31.3299 26.8204 30.9723 27.1988 30.8046 28.2022C28.1779 29.1355 25.6938 29.6681 23.9306 29.6681C22.5781 29.6681 22.0891 29.3486 22.0193 29.1804C21.9494 29.0122 22.1031 28.3395 23.2907 27.2184C24.4084 26.1729 26.1437 25.035 28.1584 24.0119C28.4993 24.0119 28.829 24.0119 29.1364 24.0119C30.0636 24.0302 30.9897 23.9361 31.8944 23.7316M33.2468 22.5376C31.3858 23.0982 30.5783 23.2103 29.1364 23.2103C28.7927 23.2103 28.4127 23.2103 27.9739 23.1935C23.5617 25.4077 20.6808 28.0256 21.2676 29.4719C21.547 30.1334 22.5055 30.4529 23.9194 30.4529C25.8307 30.4529 28.5608 29.8727 31.5255 28.7712C31.6541 27.4594 31.6541 27.4594 33.9734 26.5877C33.3688 26.3031 32.8909 25.8038 32.6321 25.1863C32.3722 24.5557 32.783 23.3056 33.2357 22.546L33.2468 22.5376Z" fill="#009337"/>
<path d="M47.7633 14.0672C48.5736 13.6327 49.3616 13.1506 50.1971 12.7723C51.2869 12.2818 52.4158 11.8837 53.5196 11.4213C53.7919 11.333 54.0346 11.171 54.221 10.9532C54.782 10.1398 55.3005 9.29785 55.7746 8.43062C55.9059 8.18397 56.1099 7.48885 55.7969 7.12168C55.294 6.52747 54.2377 7.20296 53.9834 7.38235C51.8849 8.87347 48.9006 11.6035 47.6292 13.9551L47.7633 14.0672Z" fill="#009337"/>
<path d="M50.1134 0.80405C50.1476 0.803419 50.1817 0.809119 50.2139 0.820867C50.4068 0.90215 50.7533 1.48234 50.689 3.10801C50.6303 4.60754 50.2279 6.56954 49.5545 8.66048C47.9338 9.31635 47.4671 9.71996 46.274 11.0906C46.0862 10.934 45.8774 10.8047 45.6536 10.7066C45.2376 10.5272 44.7903 10.432 44.3375 10.4263C44.0484 10.4282 43.7605 10.4639 43.4796 10.5328C43.6026 10.2105 43.7423 9.86291 43.9044 9.47331C44.8141 7.2038 45.9994 5.05553 47.4336 3.07717C48.7162 1.39545 49.6691 0.792841 50.1134 0.792841M50.1134 -0.0115846C48.3418 -0.0115846 45.363 3.87038 43.1667 9.165C42.7733 10.0887 42.4264 11.0317 42.1272 11.9903C42.7755 11.6287 43.5104 11.2279 44.3375 11.2279C44.6841 11.2291 45.0271 11.2996 45.3462 11.4353C45.7266 11.6341 46.0579 11.9156 46.3159 12.2594C48.0344 10.2609 48.216 10.0171 50.1972 9.25469C51.7676 4.56269 51.9632 0.669514 50.5213 0.0697009C50.3922 0.0153876 50.2534 -0.0122595 50.1134 -0.0115846Z" fill="#009337"/>
<path d="M52.3766 22.3523C52.7008 22.4757 53.0361 22.6074 53.405 22.7588C56.1071 23.8631 58.5102 25.2085 60.1728 26.5426C61.9835 27.9945 62.1679 28.8298 62.0869 29.0288C62.0059 29.2278 61.528 29.5277 60.1309 29.5277C58.594 29.5277 56.5234 29.1353 54.2628 28.4234C53.595 26.8005 53.1898 26.3352 51.815 25.1496C51.9698 24.9604 52.0968 24.7499 52.1922 24.5246C52.4777 23.8373 52.5403 23.0773 52.3711 22.3523M50.946 21.0154C51.4517 21.9179 51.9715 22.9634 51.4573 24.2247C51.2643 24.608 50.9861 24.9417 50.6442 25.2001C52.6505 26.9126 52.8796 27.092 53.6648 29.0736C56.1797 29.9005 58.4599 30.3321 60.1281 30.3321C61.57 30.3321 62.5536 30.007 62.8274 29.3343C63.5176 27.6385 59.4351 24.362 53.7067 22.0188C52.6533 21.59 51.9379 21.3209 50.946 21.0154Z" fill="#009337"/>
<path d="M37.7317 30.7107C37.9217 30.8647 38.1324 30.9912 38.3576 31.0862C38.7921 31.2661 39.2568 31.3612 39.7268 31.3665C39.9928 31.3667 40.258 31.3376 40.5176 31.2796C40.4002 31.5908 40.2717 31.9159 40.1236 32.2915C39.2432 34.58 38.0831 36.7501 36.6698 38.7521C35.4096 40.4562 34.4595 41.0588 34.0292 41.0588C33.9967 41.0597 33.9644 41.054 33.9342 41.042C33.7386 40.9663 33.3753 40.389 33.4256 38.7633C33.5374 36.8697 33.8934 34.9986 34.4847 33.1968C36.0942 32.5157 36.5552 32.1065 37.7317 30.7191M37.673 29.5391C35.9824 31.5627 35.8036 31.7982 33.8336 32.597C32.3302 37.3114 32.1877 41.2074 33.6352 41.7876C33.7606 41.8371 33.8944 41.8618 34.0292 41.8605C35.798 41.8605 38.7376 37.9364 40.8669 32.5886C41.2351 31.6975 41.5578 30.7882 41.8337 29.8642C41.2053 30.28 40.4784 30.5217 39.7268 30.5649C39.3586 30.5627 38.9943 30.4895 38.6538 30.3491C38.2696 30.1575 37.9341 29.8805 37.673 29.5391Z" fill="#009337"/>
<path d="M23.9864 12.3939C25.5093 12.3939 27.538 12.7583 29.7343 13.4169C30.4217 15.0286 30.8353 15.4883 32.2268 16.6571C32.0737 16.8485 31.9485 17.0608 31.8552 17.2877C31.579 17.9754 31.5186 18.7313 31.6819 19.4543C31.3718 19.3422 31.0476 19.2161 30.6732 19.0675C27.9571 18.0024 25.5372 16.6907 23.8523 15.379C22.0248 13.9551 21.8292 13.1367 21.8962 12.9208C21.9633 12.705 22.4914 12.3939 23.9752 12.3939M23.9752 11.5923C22.4551 11.5923 21.424 11.9314 21.1501 12.6293C20.4851 14.3363 24.6123 17.554 30.3714 19.8159C31.4304 20.2307 32.0983 20.4746 33.0959 20.7661C32.5761 19.8719 32.0927 18.8489 32.5901 17.5792C32.7782 17.1937 33.0515 16.8562 33.3893 16.5926C31.3606 14.9109 31.1259 14.7343 30.3155 12.7611C27.8593 11.9931 25.6294 11.5923 23.9752 11.5923Z" fill="#009337"/>
<path d="M50.9014 20.1439C51.7816 20.4242 52.6785 20.6316 53.5364 20.9595C54.6541 21.3827 55.7299 21.9041 56.8337 22.3609C57.0926 22.4927 57.3825 22.5509 57.672 22.5291C58.6424 22.3493 59.603 22.1201 60.5501 21.8424C60.8156 21.7611 61.4471 21.4164 61.4862 20.9315C61.5477 20.1551 60.3266 19.8832 60.0192 19.83C57.4876 19.3955 53.4554 19.2049 50.8986 19.9645L50.9014 20.1439Z" fill="#009337"/>
<path d="M48.8558 26.6408C49.289 27.4536 49.7668 28.244 50.144 29.0821C50.633 30.1752 51.0298 31.3075 51.4881 32.4147C51.5771 32.6873 51.7384 32.9305 51.9547 33.1182C52.7662 33.68 53.6056 34.2001 54.4696 34.6766C54.7155 34.8083 55.4085 35.0129 55.7746 34.699C56.3642 34.1917 55.6935 33.135 55.5119 32.8799C54.0309 30.775 51.3204 27.7815 48.9676 26.5062L48.8558 26.6408Z" fill="#009337"/>
<path d="M42.7922 29.822C42.5268 30.7049 42.306 31.6074 41.9819 32.4679C41.5571 33.5891 41.0402 34.671 40.5847 35.7781C40.4533 36.0378 40.3954 36.3286 40.417 36.619C40.5949 37.5951 40.8225 38.5615 41.0989 39.5143C41.1799 39.7946 41.5264 40.414 42.007 40.4533C42.781 40.5149 43.0493 39.2901 43.1024 38.9818C43.5383 36.4368 43.7255 32.3894 42.9711 29.822H42.7922Z" fill="#009337"/>
<path d="M36.2814 27.7426C35.4711 28.1798 34.6831 28.6591 33.8476 29.0375C32.7578 29.528 31.6289 29.9288 30.5279 30.3885C30.2543 30.477 30.0105 30.64 29.8238 30.8593C29.2631 31.6729 28.7446 32.5149 28.2701 33.3819C28.1388 33.6286 27.9376 34.3209 28.2506 34.6909C28.7535 35.2823 29.807 34.6096 30.0613 34.4274C32.1598 32.9391 35.1441 30.2091 36.4183 27.8547L36.2814 27.7426Z" fill="#009337"/>
<path d="M33.1546 21.6768C32.2744 21.3965 31.3774 21.1891 30.5224 20.864C29.4046 20.4379 28.326 19.9166 27.2223 19.4625C26.9633 19.3312 26.6733 19.274 26.384 19.2972C25.4127 19.4757 24.4511 19.704 23.503 19.9811C23.2376 20.0623 22.6061 20.4099 22.5669 20.892C22.5055 21.6684 23.7266 21.9403 24.034 21.9935C26.5656 22.4308 30.6006 22.6185 33.1546 21.859V21.6768Z" fill="#009337"/>
<path d="M41.94 23.4709C43.3814 23.4709 44.5499 22.2988 44.5499 20.853C44.5499 19.4072 43.3814 18.2351 41.94 18.2351C40.4986 18.2351 39.3301 19.4072 39.3301 20.853C39.3301 22.2988 40.4986 23.4709 41.94 23.4709Z" fill="#009337"/>
<path d="M39.4641 15.7796C40.0906 15.7796 40.5986 15.2701 40.5986 14.6416C40.5986 14.0131 40.0906 13.5037 39.4641 13.5037C38.8375 13.5037 38.3296 14.0131 38.3296 14.6416C38.3296 15.2701 38.8375 15.7796 39.4641 15.7796Z" fill="#009337"/>
<path d="M44.6029 28.2747C45.2294 28.2747 45.7374 27.7652 45.7374 27.1367C45.7374 26.5083 45.2294 25.9988 44.6029 25.9988C43.9763 25.9988 43.4684 26.5083 43.4684 27.1367C43.4684 27.7652 43.9763 28.2747 44.6029 28.2747Z" fill="#009337"/>
<path d="M35.8036 24.6061C36.4301 24.6061 36.9381 24.0966 36.9381 23.4682C36.9381 22.8397 36.4301 22.3302 35.8036 22.3302C35.177 22.3302 34.6691 22.8397 34.6691 23.4682C34.6691 24.0966 35.177 24.6061 35.8036 24.6061Z" fill="#009337"/>
<path d="M48.2607 19.4517C48.8873 19.4517 49.3952 18.9422 49.3952 18.3137C49.3952 17.6853 48.8873 17.1758 48.2607 17.1758C47.6342 17.1758 47.1262 17.6853 47.1262 18.3137C47.1262 18.9422 47.6342 19.4517 48.2607 19.4517Z" fill="#009337"/>
<path d="M37.7987 18.6383C37.864 18.6389 37.9286 18.6522 37.9888 18.6775C38.0523 18.702 38.11 18.7396 38.1582 18.7879C38.2063 18.8362 38.2438 18.8941 38.2682 18.9578C38.2995 19.0337 38.3116 19.1162 38.3035 19.1979C38.2953 19.2797 38.2672 19.3581 38.2216 19.4263C38.176 19.4945 38.1143 19.5504 38.042 19.5889C37.9697 19.6275 37.889 19.6476 37.8071 19.6473C37.7417 19.6481 37.6769 19.6347 37.6171 19.6081C37.5536 19.5836 37.4959 19.546 37.4477 19.4977C37.3996 19.4494 37.3621 19.3915 37.3377 19.3278C37.3064 19.2519 37.2943 19.1694 37.3024 19.0877C37.3105 19.006 37.3387 18.9275 37.3843 18.8593C37.4299 18.7911 37.4916 18.7352 37.5639 18.6967C37.6362 18.6581 37.7169 18.6381 37.7987 18.6383ZM37.7987 18.1226C37.5477 18.1221 37.3055 18.2154 37.1192 18.3841C36.9328 18.5529 36.8157 18.7851 36.7906 19.0357C36.7655 19.2862 36.8342 19.5372 36.9832 19.7398C37.1323 19.9424 37.3512 20.0821 37.5973 20.1319C37.8434 20.1816 38.0992 20.1377 38.3148 20.0088C38.5305 19.88 38.6907 19.6752 38.7642 19.4345C38.8378 19.1937 38.8194 18.9341 38.7128 18.7061C38.6061 18.4782 38.4188 18.2982 38.1872 18.201C38.0641 18.1495 37.9321 18.1229 37.7987 18.1226Z" fill="#009337"/>
<path d="M46.2599 22.1703C46.3337 22.1698 46.4067 22.1858 46.4736 22.2171C46.5405 22.2484 46.5996 22.2943 46.6466 22.3514C46.6936 22.4084 46.7274 22.4753 46.7454 22.5471C46.7635 22.6189 46.7654 22.6938 46.751 22.7665C46.7366 22.8391 46.7063 22.9076 46.6622 22.967C46.6182 23.0264 46.5615 23.0752 46.4962 23.1099C46.431 23.1446 46.3589 23.1643 46.2852 23.1676C46.2114 23.1709 46.1379 23.1576 46.0699 23.1288C45.9643 23.0842 45.8774 23.0044 45.8238 22.9029C45.7701 22.8015 45.753 22.6845 45.7753 22.5719C45.7977 22.4592 45.8581 22.3577 45.9463 22.2846C46.0346 22.2114 46.1454 22.171 46.2599 22.1703ZM46.2599 21.6517C46.0081 21.6512 45.7651 21.7446 45.5781 21.9138C45.3912 22.0829 45.2737 22.3158 45.2484 22.5671C45.2231 22.8184 45.292 23.0701 45.4415 23.2733C45.591 23.4765 45.8105 23.6167 46.0573 23.6666C46.3042 23.7165 46.5606 23.6725 46.7769 23.5432C46.9932 23.4139 47.1538 23.2085 47.2275 22.967C47.3012 22.7255 47.2828 22.4651 47.1757 22.2366C47.0686 22.008 46.8806 21.8275 46.6483 21.7302C46.5254 21.6782 46.3933 21.6515 46.2599 21.6517Z" fill="#009337"/>
<path d="M40.2689 24.6593C40.3342 24.6596 40.3988 24.6729 40.459 24.6985C40.5221 24.7238 40.5794 24.7616 40.6274 24.8098C40.6755 24.858 40.7132 24.9155 40.7384 24.9788C40.7689 25.0548 40.7805 25.1371 40.7721 25.2185C40.7636 25.3 40.7354 25.3781 40.69 25.4461C40.6445 25.5141 40.5831 25.5699 40.5112 25.6087C40.4393 25.6474 40.359 25.6679 40.2773 25.6683C40.1788 25.6696 40.0822 25.6408 40.0004 25.5857C39.9185 25.5306 39.8553 25.4519 39.8191 25.36C39.7935 25.2997 39.7804 25.2349 39.7804 25.1694C39.7804 25.1039 39.7935 25.0391 39.8191 24.9788C39.8559 24.8874 39.9193 24.8091 40.001 24.7541C40.0827 24.6992 40.179 24.67 40.2773 24.6705M40.2773 24.1548C40.0255 24.1542 39.7825 24.2476 39.5956 24.4168C39.4087 24.586 39.2911 24.8189 39.2659 25.0701C39.2406 25.3214 39.3094 25.5732 39.4589 25.7764C39.6084 25.9796 39.828 26.1198 40.0748 26.1696C40.3216 26.2195 40.5781 26.1755 40.7944 26.0462C41.0107 25.9169 41.1713 25.7115 41.245 25.47C41.3187 25.2286 41.3002 24.9682 41.1932 24.7396C41.0861 24.511 40.8981 24.3305 40.6657 24.2333C40.5428 24.1812 40.4107 24.1546 40.2773 24.1548Z" fill="#009337"/>
<path d="M43.7898 16.1666C43.9134 16.176 44.029 16.2319 44.1133 16.3231C44.1977 16.4143 44.2445 16.5341 44.2445 16.6585C44.2445 16.7829 44.1977 16.9027 44.1133 16.9939C44.029 17.0852 43.9134 17.1411 43.7898 17.1504C43.7254 17.1501 43.6617 17.1368 43.6026 17.1112C43.4975 17.0681 43.4106 16.9897 43.3568 16.8894C43.303 16.7891 43.2857 16.6732 43.3079 16.5615C43.33 16.4498 43.3902 16.3493 43.4781 16.2772C43.5661 16.2052 43.6762 16.1661 43.7898 16.1666ZM43.7898 15.6593C43.5599 15.6603 43.3374 15.741 43.1599 15.8876C42.9825 16.0342 42.861 16.2378 42.8159 16.464C42.7709 16.6901 42.8052 16.9249 42.9128 17.1286C43.0205 17.3324 43.1951 17.4925 43.407 17.5821C43.5286 17.6316 43.6585 17.6573 43.7898 17.6577C44.0202 17.6584 44.2438 17.5788 44.4222 17.4325C44.6006 17.2862 44.7229 17.0823 44.768 16.8556C44.8132 16.6289 44.7786 16.3936 44.67 16.1897C44.5614 15.9858 44.3856 15.8261 44.1726 15.7378C44.0515 15.6861 43.9213 15.6594 43.7898 15.6593Z" fill="#009337"/>
</g>
<defs>
<clipPath id="clip0_4001_1350">
<rect width="84" height="72" fill="white"/>
</clipPath>
</defs>
</svg>
