<svg width="56" height="56" viewBox="0 0 56 56" fill="none" xmlns="http://www.w3.org/2000/svg">
<circle cx="28" cy="28" r="28" fill="#009337"/>
<path d="M31.9453 35.9991C32.7076 35.9987 33.4684 35.9342 34.2199 35.8062C34.662 35.7315 35.0756 35.5378 35.4163 35.2461C35.7571 34.9543 36.0123 34.5753 36.1547 34.1497L36.9251 31.8513C36.9852 31.673 37.0095 31.4845 36.9966 31.2967C36.9838 31.1089 36.934 30.9255 36.8501 30.757C36.7662 30.5885 36.6499 30.4383 36.5079 30.315C36.3659 30.1916 36.2009 30.0976 36.0225 30.0383L33.2411 29.1167C32.9916 29.0325 32.7237 29.0194 32.4672 29.0788C32.2107 29.1383 31.9758 29.268 31.7886 29.4534L29.9139 31.1692C29.561 31.2574 28.0032 31.5138 26.2523 29.7608C24.4983 28.0043 24.7588 26.4426 24.8456 26.0952L26.5467 24.2308C26.7358 24.0432 26.8687 23.8063 26.9304 23.547C26.992 23.2877 26.98 23.0163 26.8956 22.7635L25.9752 19.9787C25.916 19.8001 25.822 19.6349 25.6988 19.4927C25.5757 19.3505 25.4256 19.2341 25.2574 19.1501C25.0891 19.0661 24.9059 19.0162 24.7184 19.0034C24.5308 18.9905 24.3425 19.0148 24.1644 19.075L21.8689 19.8463C21.4438 19.9891 21.0653 20.2446 20.7739 20.5858C20.4824 20.9269 20.2889 21.3409 20.2139 21.7835C19.8467 23.7056 19.9535 25.6884 20.5251 27.5598C21.0968 29.4312 22.1159 31.1347 23.4942 32.5223C24.5967 33.6414 25.9134 34.5262 27.3656 35.1236C28.8178 35.721 30.3754 36.0188 31.9453 35.9991Z" fill="white"/>
</svg>
